<svg xmlns="http://www.w3.org/2000/svg" xmlns:xlink="http://www.w3.org/1999/xlink" width="16" height="16" viewBox="0 0 16 16">
  <defs>
    <clipPath id="clip-path">
      <rect id="Rectangle_3" data-name="Rectangle 3" width="10" height="12" transform="translate(-0.556 -0.222)" fill="red" opacity="0.56"/>
    </clipPath>
    <clipPath id="clip-path-2">
      <path id="path16" d="M0-720H18.187v22.577H0Z" transform="translate(0 719.998)"/>
    </clipPath>
  </defs>
  <g id="Group_10" data-name="Group 10" transform="translate(-5609 2270)">
    <rect id="Rectangle_2" data-name="Rectangle 2" width="16" height="16" transform="translate(5609 -2270)" fill="#fff"/>
    <g id="Mask_Group_2" data-name="Mask Group 2" transform="translate(5612.556 -2267.778)" clip-path="url(#clip-path)">
      <g id="g10" transform="translate(-4.477 -4.92)">
        <g id="g12" transform="translate(0 0)">
          <g id="g14" clip-path="url(#clip-path-2)">
            <g id="g20" transform="translate(7.321 10.892)">
              <path id="path22" d="M-103.162-56.517a1.7,1.7,0,0,1-1.7,1.9,1.664,1.664,0,0,1-1.643-1.835,1.725,1.725,0,0,1,1.7-1.9,1.653,1.653,0,0,1,1.643,1.83" transform="translate(106.501 58.347)" fill="#fc0603"/>
            </g>
            <g id="g24" transform="translate(7.101 10.674)">
              <path id="path26" d="M-59.22-13.464A1.5,1.5,0,0,0-60.7-11.783a1.447,1.447,0,0,0,1.422,1.617A1.491,1.491,0,0,0-57.8-11.852a1.429,1.429,0,0,0-1.422-1.612m-.054,3.734a1.879,1.879,0,0,1-1.863-2.053A1.937,1.937,0,0,1-59.22-13.9a1.877,1.877,0,0,1,1.863,2.047A1.915,1.915,0,0,1-59.274-9.73" transform="translate(61.137 13.9)" fill="#fc0603"/>
            </g>
            <g id="g28" transform="translate(7.97 11.673)">
              <path id="path30" d="M-28.223-8.013h0M-28.51-8.2a.478.478,0,0,0-.109.076,1.391,1.391,0,0,0-.442.831.622.622,0,0,0,.182.574.748.748,0,0,0,.63-.161.681.681,0,0,1,.088-.455l.015-.024c.011-.021.025-.043.041-.068a.5.5,0,0,0,.1-.242.482.482,0,0,0-.119.082,1,1,0,0,0-.251.375c-.015.053-.056.138-.112.124s-.055-.079-.021-.231a.76.76,0,0,1,.163-.348.4.4,0,0,0,.125-.324.4.4,0,0,0-.1.067,1.826,1.826,0,0,0-.509.915l-.068,0a1.18,1.18,0,0,1,.216-.8l.019-.028c.1-.139.173-.25.15-.365m-.247,1.574a.291.291,0,0,1-.16-.035.68.68,0,0,1-.212-.64,1.464,1.464,0,0,1,.465-.875c.058-.051.137-.108.183-.095a.048.048,0,0,1,.033.033c.045.153-.048.287-.155.442l-.019.028a1.13,1.13,0,0,0-.2.49,1.909,1.909,0,0,1,.454-.695s.12-.11.18-.089a.046.046,0,0,1,.031.038.451.451,0,0,1-.133.4.7.7,0,0,0-.154.324.782.782,0,0,0-.019.117.253.253,0,0,0,.018-.045,1.068,1.068,0,0,1,.272-.408c.093-.081.159-.114.2-.1a.057.057,0,0,1,.034.052.517.517,0,0,1-.109.294c-.014.023-.028.044-.038.063L-28.1-7.3a.626.626,0,0,0-.077.428v.013l-.008.01a.857.857,0,0,1-.572.221" transform="translate(29.137 8.272)" fill="#fff"/>
            </g>
            <g id="g32" transform="translate(8.15 11.376)">
              <path id="path34" d="M-41.4-92.432c-.143-.536.248-.7.439-.664.145.026.2-.059.177-.124s-.091-.147-.069-.176.164-.088,0-.148c.077-.037.113-.076.035-.17a.1.1,0,0,1,.018-.16c.024-.022.113-.105.086-.134a1.351,1.351,0,0,1-.3-.441c-.025-.15-.3-.822-.922-.819a1.634,1.634,0,0,0-.8.206,1.267,1.267,0,0,1,.79-.361A1.058,1.058,0,0,1-41.1-95c.117.157.177.51.268.638a2.442,2.442,0,0,0,.278.3c.039.038.059.094,0,.133s-.135.081-.142.136a.267.267,0,0,0,.062.157c.019.024-.012.056-.077.1.073.055.092.082.078.111-.026.056-.109.054-.089.112s.093.2.031.271c-.094.1-.344.023-.45.07a.615.615,0,0,0-.259.528" transform="translate(42.737 95.424)" fill="#fff"/>
            </g>
            <g id="g36" transform="translate(8.768 11.098)">
              <path id="path38" d="M-34,0l-.273,0-.42.41.312,0-.5.4.331,0-.551.516.989-.644-.38,0L-33.962.3l-.356,0Z" transform="translate(35.101)" fill="#fff"/>
            </g>
            <g id="g40" transform="translate(7.706 11.79)">
              <path id="path42" d="M-36.889-79.746l-.748,0a1.207,1.207,0,0,0,.15-.524c0-.223-.592-.474-.6-1.247,0-.342.4-.889.415-.806.048.221-.139.378-.137.773a.624.624,0,0,0,.42.647c.141,0,.116-.573-.2-.971a.36.36,0,0,1,.42.143c.1.152.238.517.338.7a1.111,1.111,0,0,1,.2.626,1.3,1.3,0,0,1-.262.656" transform="translate(38.083 82.327)" fill="#fff"/>
            </g>
            <g id="g44" transform="translate(4.725 6.717)">
              <path id="path46" d="M-85.678-55.267c-.024-.445-.052-.98-.047-1.377h-.014c-.109.374-.241.771-.4,1.212l-.563,1.548h-.312l-.516-1.519c-.151-.45-.279-.861-.369-1.24h-.009c-.009.4-.033.932-.062,1.41l-.085,1.368h-.393l.222-3.19h.525l.544,1.543c.133.393.241.743.322,1.074h.014c.08-.322.194-.672.336-1.074l.568-1.543h.525l.2,3.19h-.4Z" transform="translate(88.452 57.056)" fill="#333"/>
            </g>
            <g id="g48" transform="translate(4.519 6.525)">
              <path id="path50" d="M-18.719-12.72h.222l-.01-.027h-.21Zm2.256,0h.222l0-.027h-.211Zm-1.631,1.145q.036.109.075.226l.139.409c-.038-.121-.081-.252-.129-.395Zm.547,1.615h.04l.062-.169H-17.6Zm-1.366.019h.006l.051-.82Zm2.829,0h.016l-.121-1.947c.01.248.023.5.035.728Zm.425.384h-.788l-.091-1.583c-.005-.1-.011-.208-.017-.317l-.075.207-.609,1.674h-.585l-.56-1.65-.051-.152c0,.091-.01.182-.015.272l-.1,1.549h-.78l.249-3.575h.841l.59,1.671c.057.17.107.323.151.465.046-.141.1-.294.158-.465l.615-1.671h.84Z" transform="translate(19.325 13.132)" fill="#333"/>
            </g>
            <g id="g52" transform="translate(8.378 6.665)">
              <path id="path54" d="M-3.216-84.654a1.459,1.459,0,0,0,.738.208c.421,0,.667-.222.667-.544,0-.3-.17-.469-.6-.634-.521-.185-.842-.454-.842-.9a.918.918,0,0,1,1.032-.866,1.45,1.45,0,0,1,.705.156l-.114.336a1.27,1.27,0,0,0-.606-.151c-.435,0-.6.26-.6.478,0,.3.194.445.634.615.54.208.814.469.814.937,0,.492-.364.918-1.117.918a1.649,1.649,0,0,1-.814-.2Z" transform="translate(3.32 87.394)" fill="#333"/>
            </g>
            <g id="g56" transform="translate(8.153 6.472)">
              <path id="path58" d="M-18.9-20.834a.612.612,0,0,0-.128.384c0,.219.081.5.714.723l0,0c.376.145.724.343.724.814a.7.7,0,0,1-.145.438.655.655,0,0,0,.182-.472c0-.409-.264-.593-.691-.758-.383-.148-.757-.332-.757-.795a.639.639,0,0,1,.1-.337m.427,3a1.84,1.84,0,0,1-.921-.236l-.119-.079.217-.721.213.131a1.268,1.268,0,0,0,.638.18c.143,0,.475-.034.475-.352,0-.148-.036-.284-.476-.454-.651-.232-.968-.586-.968-1.084a1.112,1.112,0,0,1,1.224-1.058,1.619,1.619,0,0,1,.8.181l.138.078-.238.7-.2-.11a1.072,1.072,0,0,0-.514-.128c-.3,0-.409.148-.409.286s.036.252.511.436c.83.321.937.765.937,1.116a1.151,1.151,0,0,1-1.309,1.11" transform="translate(19.512 21.508)" fill="#333"/>
            </g>
            <g id="g60" transform="translate(10.671 6.717)">
              <path id="path62" d="M-12.866,0V1.888c0,.715.317,1.018.743,1.018.473,0,.776-.312.776-1.018V0h.417V1.86c0,.98-.516,1.382-1.207,1.382-.653,0-1.145-.374-1.145-1.363V0Z" transform="translate(13.283)" fill="#333"/>
            </g>
            <g id="g64" transform="translate(10.478 6.525)">
              <path id="path66" d="M-71.676-11.877v1.7a1.534,1.534,0,0,1-.233.866,1.329,1.329,0,0,0,.265-.894v-1.668Zm-1.936,0v1.687a1.156,1.156,0,0,0,.4,1.021,1.293,1.293,0,0,1-.364-1.012v-1.7Zm.953,3.242C-73.508-8.635-74-9.2-74-10.19v-2.071h.8v2.081c0,.377.1.825.551.825.144,0,.584,0,.584-.825v-2.081h.8v2.052c0,1-.51,1.574-1.4,1.574" transform="translate(73.996 12.261)" fill="#333"/>
            </g>
            <g id="g68" transform="translate(4.771 10.885)">
              <path id="path70" d="M-3.646-95.961a1.654,1.654,0,0,0,.837.236c.478,0,.756-.252.756-.617,0-.338-.193-.531-.681-.719-.59-.209-.955-.515-.955-1.025a1.041,1.041,0,0,1,1.17-.982,1.643,1.643,0,0,1,.8.177l-.129.381a1.44,1.44,0,0,0-.687-.172c-.494,0-.681.3-.681.542,0,.338.22.5.719.7.612.236.923.531.923,1.062,0,.558-.413,1.041-1.266,1.041a1.869,1.869,0,0,1-.923-.231Z" transform="translate(3.764 99.068)" fill="#fc0603"/>
            </g>
            <g id="g72" transform="translate(4.516 10.667)">
              <path id="path74" d="M-21.421-23.621a.694.694,0,0,0-.145.435c0,.248.092.565.81.819l.005,0c.426.164.821.389.821.922a.788.788,0,0,1-.165.5.742.742,0,0,0,.207-.535c0-.463-.3-.672-.783-.859-.434-.168-.858-.376-.858-.9a.724.724,0,0,1,.109-.381m.485,3.4a2.087,2.087,0,0,1-1.044-.267l-.134-.09.246-.817.241.148a1.437,1.437,0,0,0,.723.2c.162,0,.539-.039.539-.4,0-.174-.04-.322-.539-.515-.738-.262-1.1-.665-1.1-1.229a1.261,1.261,0,0,1,1.388-1.2,1.836,1.836,0,0,1,.907.205l.157.089-.27.8-.228-.124a1.215,1.215,0,0,0-.582-.145c-.342,0-.463.167-.463.324s.04.285.58.494c.941.363,1.062.867,1.062,1.266a1.3,1.3,0,0,1-1.484,1.259" transform="translate(22.115 24.385)" fill="#fc0603"/>
            </g>
            <g id="g76" transform="translate(10.903 10.885)">
              <path id="path78" d="M-3.646-95.961a1.654,1.654,0,0,0,.837.236c.478,0,.756-.252.756-.617,0-.338-.193-.531-.681-.719-.59-.209-.955-.515-.955-1.025a1.041,1.041,0,0,1,1.17-.982,1.643,1.643,0,0,1,.8.177l-.129.381a1.44,1.44,0,0,0-.687-.172c-.494,0-.681.3-.681.542,0,.338.22.5.719.7.612.236.923.531.923,1.062,0,.558-.413,1.041-1.266,1.041a1.869,1.869,0,0,1-.923-.231Z" transform="translate(3.764 99.068)" fill="#fc0603"/>
            </g>
            <g id="g80" transform="translate(10.648 10.667)">
              <path id="path82" d="M-21.421-23.621a.694.694,0,0,0-.145.435c0,.248.092.565.81.819l.005,0c.426.164.821.389.821.922a.788.788,0,0,1-.165.5.742.742,0,0,0,.207-.535c0-.463-.3-.672-.783-.859-.434-.168-.858-.376-.858-.9a.724.724,0,0,1,.109-.381m.485,3.4a2.087,2.087,0,0,1-1.044-.267l-.134-.09.246-.817.241.148a1.437,1.437,0,0,0,.723.2c.162,0,.539-.039.539-.4,0-.174-.04-.322-.539-.515-.738-.262-1.1-.665-1.1-1.229a1.261,1.261,0,0,1,1.388-1.2,1.836,1.836,0,0,1,.907.205l.157.089-.27.8-.228-.124a1.215,1.215,0,0,0-.582-.145c-.342,0-.463.167-.463.324s.04.285.58.494c.941.363,1.062.867,1.062,1.266a1.3,1.3,0,0,1-1.484,1.259" transform="translate(22.115 24.385)" fill="#fc0603"/>
            </g>
            <g id="g84" transform="translate(4.801 5.148)">
              <path id="path86" d="M-19.874-12.82c-.006-.1-.012-.227-.011-.32h0c-.025.087-.056.179-.093.281l-.131.359h-.072l-.12-.352c-.035-.1-.065-.2-.086-.288h0c0,.092-.008.216-.014.327l-.02.317h-.091l.052-.74h.122l.126.358c.031.091.056.172.075.249h0c.019-.075.045-.156.078-.249l.132-.358h.122l.046.74h-.093Z" transform="translate(20.517 13.235)" fill="#333"/>
            </g>
            <g id="g88" transform="translate(5.669 5.344)">
              <path id="path90" d="M-3.018-8.614c0,.116.067.2.161.2S-2.7-8.5-2.7-8.617c0-.09-.045-.2-.159-.2s-.164.105-.164.206M-2.6-8.62a.26.26,0,0,1-.265.282.253.253,0,0,1-.255-.273.259.259,0,0,1,.263-.282A.252.252,0,0,1-2.6-8.62" transform="translate(3.116 8.893)" fill="#333"/>
            </g>
            <g id="g92" transform="translate(6.305 5.108)">
              <path id="path94" d="M-3.087-17.5a.182.182,0,0,0,0,.035.149.149,0,0,0,.145.113c.1,0,.161-.082.161-.2,0-.107-.055-.2-.158-.2a.154.154,0,0,0-.147.119.2.2,0,0,0-.005.04Zm-.1.213c0-.036,0-.09,0-.137v-.642h.1v.334h0a.2.2,0,0,1,.181-.1.238.238,0,0,1,.224.271.253.253,0,0,1-.238.284.189.189,0,0,1-.178-.1h0l0,.088Z" transform="translate(3.187 18.067)" fill="#333"/>
            </g>
            <path id="path96" d="M220.774-555.654h.1v.531h-.1Zm.108-.149a.057.057,0,0,1-.061.059.057.057,0,0,1-.058-.059.059.059,0,0,1,.06-.06.057.057,0,0,1,.059.06" transform="translate(-213.84 561.011)" fill="#333"/>
            <path id="path98" d="M229.342-557.091h.1v.78h-.1Z" transform="translate(-222.151 562.199)" fill="#333"/>
            <g id="g100" transform="translate(7.412 5.344)">
              <path id="path102" d="M-11.6-6.987a.138.138,0,0,0-.134-.157.16.16,0,0,0-.148.157Zm-.283.069a.17.17,0,0,0,.182.184.349.349,0,0,0,.147-.027l.016.069a.43.43,0,0,1-.177.033.247.247,0,0,1-.261-.268.258.258,0,0,1,.249-.287.225.225,0,0,1,.22.25.36.36,0,0,1,0,.045Z" transform="translate(11.975 7.213)" fill="#333"/>
            </g>
            <g id="g104" transform="translate(8.199 5.136)">
              <path id="path106" d="M-.746-19.636a.339.339,0,0,0,.171.048c.1,0,.155-.052.155-.126s-.04-.109-.139-.147c-.121-.043-.2-.105-.2-.21a.213.213,0,0,1,.239-.2.336.336,0,0,1,.164.036l-.026.078a.294.294,0,0,0-.14-.035c-.1,0-.139.06-.139.111,0,.069.045.1.147.143.125.048.189.109.189.217s-.084.213-.259.213a.383.383,0,0,1-.189-.047Z" transform="translate(0.771 20.272)" fill="#333"/>
            </g>
            <g id="g108" transform="translate(8.711 5.204)">
              <path id="path110" d="M-5.461,0V.153h.138V.226h-.138V.513c0,.066.019.1.072.1A.214.214,0,0,0-5.332.609l0,.072a.237.237,0,0,1-.086.013.134.134,0,0,1-.1-.041A.2.2,0,0,1-5.555.516V.226h-.082V.153h.082V.025Z" transform="translate(5.637)" fill="#333"/>
            </g>
            <g id="g112" transform="translate(9.131 5.344)">
              <path id="path114" d="M-.136-5.494c0-.063,0-.116,0-.166h.085l0,.1h0A.159.159,0,0,1,.1-5.672a.1.1,0,0,1,.027,0v.091a.146.146,0,0,0-.033,0,.136.136,0,0,0-.13.124.27.27,0,0,0,0,.045v.283h-.1Z" transform="translate(0.14 5.672)" fill="#333"/>
            </g>
            <g id="g116" transform="translate(9.445 5.344)">
              <path id="path118" d="M-3.018-8.614c0,.116.067.2.161.2S-2.7-8.5-2.7-8.617c0-.09-.045-.2-.159-.2s-.164.105-.164.206M-2.6-8.62a.26.26,0,0,1-.265.282.253.253,0,0,1-.255-.273.259.259,0,0,1,.264-.282A.252.252,0,0,1-2.6-8.62" transform="translate(3.116 8.893)" fill="#333"/>
            </g>
            <g id="g120" transform="translate(10.086 5.108)">
              <path id="path122" d="M-2.951-15.195h0c.013-.019.032-.042.047-.06l.156-.183h.116l-.205.218.234.313h-.117l-.183-.255-.049.055v.2h-.1v-.78h.1Z" transform="translate(3.047 15.687)" fill="#333"/>
            </g>
            <g id="g124" transform="translate(10.562 5.344)">
              <path id="path126" d="M-11.6-6.987a.138.138,0,0,0-.134-.157.16.16,0,0,0-.148.157Zm-.283.069a.17.17,0,0,0,.182.184.349.349,0,0,0,.147-.027l.016.069a.43.43,0,0,1-.177.033.247.247,0,0,1-.261-.268.258.258,0,0,1,.249-.287.225.225,0,0,1,.22.25.366.366,0,0,1,0,.045Z" transform="translate(11.975 7.213)" fill="#333"/>
            </g>
            <g id="g128" transform="translate(11.386 5.148)">
              <path id="path130" d="M-2.985,0V.438c0,.166.074.236.172.236s.18-.072.18-.236V0h.1V.431c0,.227-.12.321-.28.321S-3.081.665-3.081.436V0Z" transform="translate(3.081)" fill="#333"/>
            </g>
            <g id="g132" transform="translate(12.09 5.344)">
              <path id="path134" d="M-.136-4.816c0-.055,0-.1,0-.144h.086l.006.088h0a.2.2,0,0,1,.176-.1c.074,0,.188.044.188.226v.317H.22v-.306C.22-4.82.188-4.892.1-4.892a.137.137,0,0,0-.13.1.138.138,0,0,0-.007.045v.32h-.1Z" transform="translate(0.14 4.972)" fill="#333"/>
            </g>
            <path id="path136" d="M404.754-555.654h.1v.531h-.1Zm.108-.149a.057.057,0,0,1-.061.059.057.057,0,0,1-.058-.059.059.059,0,0,1,.06-.06.057.057,0,0,1,.059.06" transform="translate(-392.05 561.011)" fill="#333"/>
            <g id="g138" transform="translate(12.9 5.204)">
              <path id="path140" d="M-5.461,0V.153h.138V.226h-.138V.513c0,.066.019.1.072.1A.215.215,0,0,0-5.332.609l0,.072a.238.238,0,0,1-.086.013.134.134,0,0,1-.1-.041A.2.2,0,0,1-5.555.516V.226h-.082V.153h.082V.025Z" transform="translate(5.637)" fill="#333"/>
            </g>
            <g id="g142" transform="translate(4.516 15.15)">
              <path id="path144" d="M-.882-23.2a.4.4,0,0,0,.2.057c.115,0,.183-.061.183-.149s-.047-.128-.165-.174c-.143-.051-.231-.125-.231-.248a.252.252,0,0,1,.283-.237.4.4,0,0,1,.193.043l-.031.092a.349.349,0,0,0-.166-.042c-.119,0-.165.071-.165.131,0,.082.053.122.174.169.148.057.223.128.223.257s-.1.252-.306.252a.452.452,0,0,1-.223-.056Z" transform="translate(0.911 23.953)" fill="#fc0603"/>
            </g>
            <g id="g146" transform="translate(5.12 15.23)">
              <path id="path148" d="M-6.452,0V.18h.163V.267h-.163V.606c0,.078.022.122.086.122A.256.256,0,0,0-6.3.72L-6.3.806a.281.281,0,0,1-.1.016A.158.158,0,0,1-6.52.773.233.233,0,0,1-6.564.61V.267h-.1V.18h.1V.03Z" transform="translate(6.661)" fill="#fc0603"/>
            </g>
            <g id="g150" transform="translate(5.616 15.396)">
              <path id="path152" d="M-.16-6.492c0-.074,0-.138-.005-.2h.1l0,.123h.005A.188.188,0,0,1,.117-6.7a.124.124,0,0,1,.032,0v.108a.171.171,0,0,0-.039,0,.16.16,0,0,0-.153.147A.322.322,0,0,0-.047-6.4v.335H-.16Z" transform="translate(0.165 6.703)" fill="#fc0603"/>
            </g>
            <g id="g154" transform="translate(5.987 15.396)">
              <path id="path156" d="M-3.566-10.18c0,.138.079.241.191.241s.191-.1.191-.244c0-.106-.053-.241-.188-.241s-.193.125-.193.244m.5-.006a.307.307,0,0,1-.313.333.3.3,0,0,1-.3-.323.307.307,0,0,1,.311-.333.3.3,0,0,1,.3.323" transform="translate(3.681 10.509)" fill="#fc0603"/>
            </g>
            <g id="g158" transform="translate(6.745 15.117)">
              <path id="path160" d="M-3.487-17.953h0c.016-.022.038-.049.056-.071l.184-.217h.138l-.243.258.276.37h-.139l-.217-.3-.058.065v.236H-3.6v-.921h.113Z" transform="translate(3.6 18.535)" fill="#fc0603"/>
            </g>
            <g id="g162" transform="translate(7.308 15.396)">
              <path id="path164" d="M-13.706-8.257a.163.163,0,0,0-.158-.186.189.189,0,0,0-.175.186Zm-.335.082a.2.2,0,0,0,.215.218.413.413,0,0,0,.174-.032l.019.082a.509.509,0,0,1-.209.039.292.292,0,0,1-.309-.317.3.3,0,0,1,.295-.339.266.266,0,0,1,.259.3.431.431,0,0,1,0,.053Z" transform="translate(14.149 8.524)" fill="#fc0603"/>
            </g>
            <g id="g166" transform="translate(8.231 15.15)">
              <path id="path168" d="M-3.727-14.106c0,.187.1.354.279.354s.28-.165.28-.363c0-.174-.091-.355-.279-.355s-.28.173-.28.365m.678-.014a.41.41,0,0,1-.406.461.4.4,0,0,1-.393-.444.415.415,0,0,1,.406-.459.4.4,0,0,1,.393.442" transform="translate(3.848 14.563)" fill="#fc0603"/>
            </g>
            <g id="g170" transform="translate(9.168 15.396)">
              <path id="path172" d="M-.16-5.69c0-.065,0-.118-.005-.17h.1l.007.1h0a.231.231,0,0,1,.208-.118c.087,0,.222.052.222.267v.375H.26v-.362c0-.1-.038-.186-.145-.186a.162.162,0,0,0-.153.117.164.164,0,0,0-.008.053v.377H-.16Z" transform="translate(0.165 5.875)" fill="#fc0603"/>
            </g>
            <g id="g174" transform="translate(9.848 15.396)">
              <path id="path176" d="M-13.706-8.257a.163.163,0,0,0-.158-.186.189.189,0,0,0-.175.186Zm-.335.082a.2.2,0,0,0,.215.218.413.413,0,0,0,.174-.032l.019.082a.509.509,0,0,1-.209.039.292.292,0,0,1-.309-.317.3.3,0,0,1,.295-.339.266.266,0,0,1,.259.3.423.423,0,0,1,0,.053Z" transform="translate(14.149 8.524)" fill="#fc0603"/>
            </g>
            <g id="g178" transform="translate(10.778 15.15)">
              <path id="path180" d="M-.882-23.2a.4.4,0,0,0,.2.057c.115,0,.183-.061.183-.149s-.047-.128-.165-.174c-.143-.051-.231-.125-.231-.248a.252.252,0,0,1,.283-.237.4.4,0,0,1,.193.043l-.031.092a.349.349,0,0,0-.166-.042c-.119,0-.165.071-.165.131,0,.082.053.122.174.169.148.057.223.128.223.257s-.1.252-.306.252a.452.452,0,0,1-.223-.056Z" transform="translate(0.911 23.953)" fill="#fc0603"/>
            </g>
            <g id="g182" transform="translate(11.383 15.23)">
              <path id="path184" d="M-6.452,0V.18h.163V.267h-.163V.606c0,.078.022.122.086.122A.256.256,0,0,0-6.3.72L-6.3.806a.281.281,0,0,1-.1.016A.158.158,0,0,1-6.52.773.233.233,0,0,1-6.564.61V.267h-.1V.18h.1V.03Z" transform="translate(6.661)" fill="#fc0603"/>
            </g>
            <g id="g186" transform="translate(11.83 15.396)">
              <path id="path188" d="M-3.566-10.18c0,.138.079.241.191.241s.191-.1.191-.244c0-.106-.053-.241-.188-.241s-.193.125-.193.244m.5-.006a.307.307,0,0,1-.313.333.3.3,0,0,1-.3-.323.307.307,0,0,1,.311-.333.3.3,0,0,1,.3.323" transform="translate(3.681 10.509)" fill="#fc0603"/>
            </g>
            <g id="g190" transform="translate(12.583 15.396)">
              <path id="path192" d="M-3.647-11.943a.257.257,0,0,0,.005.047.176.176,0,0,0,.171.134c.121,0,.191-.1.191-.243,0-.126-.066-.234-.187-.234a.182.182,0,0,0-.173.141.183.183,0,0,0-.008.047Zm-.113-.167c0-.08,0-.145-.005-.2h.1l.005.108h0a.247.247,0,0,1,.223-.122.284.284,0,0,1,.266.319.3.3,0,0,1-.285.337.22.22,0,0,1-.193-.1h0v.341H-3.76Z" transform="translate(3.765 12.329)" fill="#fc0603"/>
            </g>
          </g>
        </g>
      </g>
    </g>
  </g>
</svg>
