<svg xmlns="http://www.w3.org/2000/svg" xmlns:xlink="http://www.w3.org/1999/xlink" width="32" height="32" viewBox="0 0 32 32">
  <defs>
    <clipPath id="clip-path">
      <rect id="Rectangle_3" data-name="Rectangle 3" width="18" height="24" transform="translate(-1 0)" fill="red" opacity="0.56"/>
    </clipPath>
    <clipPath id="clip-path-2">
      <path id="path16" d="M0-720H36.374v45.154H0Z" transform="translate(0 719.998)"/>
    </clipPath>
  </defs>
  <g id="Group_12" data-name="Group 12" transform="translate(-5609 2270)">
    <rect id="Rectangle_2" data-name="Rectangle 2" width="32" height="32" transform="translate(5609 -2270)" fill="#fff"/>
    <g id="Mask_Group_2" data-name="Mask Group 2" transform="translate(5617 -2266)" clip-path="url(#clip-path)">
      <g id="g10" transform="translate(-9.843 -9.396)">
        <g id="g12" transform="translate(0 0)">
          <g id="g14" clip-path="url(#clip-path-2)">
            <g id="g20" transform="translate(14.642 21.783)">
              <path id="path22" d="M-99.822-54.687c0,2.49-1.529,3.809-3.394,3.809-1.93,0-3.285-1.481-3.285-3.67,0-2.3,1.442-3.8,3.394-3.8,2,0,3.285,1.513,3.285,3.659" transform="translate(106.501 58.347)" fill="#fc0603"/>
            </g>
            <g id="g24" transform="translate(14.202 21.347)">
              <path id="path26" d="M-57.3-13.028c-1.766,0-2.953,1.351-2.953,3.363,0,1.934,1.143,3.234,2.845,3.234,1.794,0,2.953-1.324,2.953-3.374,0-1.958-1.117-3.223-2.845-3.223m-.108,7.469c-2.194,0-3.726-1.688-3.726-4.106,0-2.493,1.577-4.235,3.834-4.235,2.194,0,3.726,1.684,3.726,4.095,0,2.933-1.926,4.245-3.834,4.245" transform="translate(61.137 13.9)" fill="#fc0603"/>
            </g>
            <g id="g28" transform="translate(15.94 23.345)">
              <path id="path30" d="M-27.309-7.753h0m-.574-.373a.957.957,0,0,0-.217.152,2.781,2.781,0,0,0-.884,1.663,1.243,1.243,0,0,0,.364,1.148,1.5,1.5,0,0,0,1.261-.322,1.363,1.363,0,0,1,.176-.911c.011-.018.021-.033.029-.049.022-.041.051-.086.082-.135a.992.992,0,0,0,.2-.483.963.963,0,0,0-.237.164,2,2,0,0,0-.5.751c-.031.106-.112.277-.223.248s-.11-.159-.043-.461a1.519,1.519,0,0,1,.327-.7.8.8,0,0,0,.251-.649.808.808,0,0,0-.2.134,3.651,3.651,0,0,0-1.018,1.83l-.137-.008a2.359,2.359,0,0,1,.432-1.59l.039-.056c.192-.278.345-.5.3-.73m-.495,3.147a.583.583,0,0,1-.319-.07,1.361,1.361,0,0,1-.424-1.28,2.927,2.927,0,0,1,.93-1.75c.116-.1.273-.217.366-.19a.1.1,0,0,1,.066.067c.089.305-.1.573-.309.884l-.039.056a2.26,2.26,0,0,0-.4.979,3.818,3.818,0,0,1,.908-1.389s.24-.219.36-.178a.092.092,0,0,1,.062.075.9.9,0,0,1-.265.794,1.4,1.4,0,0,0-.307.649,1.564,1.564,0,0,0-.037.234.506.506,0,0,0,.035-.09A2.135,2.135,0,0,1-27.2-7c.185-.162.319-.229.4-.2a.113.113,0,0,1,.068.1,1.034,1.034,0,0,1-.219.588c-.029.046-.056.088-.077.127-.01.018-.021.037-.034.057a1.252,1.252,0,0,0-.154.856v.025l-.015.02a1.714,1.714,0,0,1-1.145.441" transform="translate(29.137 8.272)" fill="#fff"/>
            </g>
            <g id="g32" transform="translate(16.299 22.752)">
              <path id="path34" d="M-40.057-89.44c-.286-1.073.5-1.4.877-1.329.29.051.4-.118.355-.249s-.181-.295-.138-.353.328-.176-.006-.3c.155-.074.227-.152.071-.34a.192.192,0,0,1,.037-.32c.048-.044.227-.21.173-.268a2.7,2.7,0,0,1-.593-.883c-.05-.3-.6-1.644-1.844-1.637a3.268,3.268,0,0,0-1.607.411,2.534,2.534,0,0,1,1.581-.721,2.116,2.116,0,0,1,1.7.853c.234.314.354,1.021.535,1.277a4.883,4.883,0,0,0,.556.608c.078.077.118.188,0,.266s-.27.161-.284.273a.535.535,0,0,0,.123.314c.039.048-.024.111-.154.209.146.11.183.165.157.222-.053.112-.218.108-.178.224s.186.406.061.542c-.188.2-.687.046-.9.139a1.23,1.23,0,0,0-.518,1.056" transform="translate(42.737 95.424)" fill="#fff"/>
            </g>
            <g id="g36" transform="translate(17.536 22.196)">
              <path id="path38" d="M-32.9,0l-.545,0-.839.819.624,0-1,.791.661,0-1.1,1.032,1.977-1.289-.76,0,1.063-.758-.711,0Z" transform="translate(35.101)" fill="#fff"/>
            </g>
            <g id="g40" transform="translate(15.412 23.58)">
              <path id="path42" d="M-35.694-77.164l-1.5.008a2.413,2.413,0,0,0,.3-1.049c0-.446-1.183-.948-1.192-2.494,0-.684.794-1.777.83-1.612.1.442-.277.756-.273,1.545a1.247,1.247,0,0,0,.841,1.294c.281,0,.231-1.145-.394-1.941a.72.72,0,0,1,.84.286c.205.3.475,1.033.677,1.4a2.223,2.223,0,0,1,.391,1.252,2.609,2.609,0,0,1-.524,1.313" transform="translate(38.083 82.327)" fill="#fff"/>
            </g>
            <g id="g44" transform="translate(9.45 13.433)">
              <path id="path46" d="M-82.9-53.478c-.047-.89-.1-1.959-.095-2.755h-.028c-.218.748-.483,1.543-.8,2.423l-1.126,3.1h-.625l-1.032-3.039c-.3-.9-.558-1.723-.738-2.48h-.019c-.019.8-.066,1.865-.123,2.821l-.17,2.736h-.786l.445-6.38h1.051l1.089,3.086c.265.786.483,1.486.644,2.149h.028c.161-.644.388-1.344.672-2.149l1.136-3.086h1.051l.4,6.38h-.8Z" transform="translate(88.452 57.056)" fill="#333"/>
            </g>
            <g id="g48" transform="translate(9.037 13.049)">
              <path id="path50" d="M-18.113-12.308h.443l-.019-.055h-.42Zm4.513,0h.445l0-.055h-.421Zm-3.262,2.289q.071.217.15.453l.278.817c-.077-.243-.162-.5-.258-.789Zm1.093,3.23h.08l.123-.339h-.318Zm-2.732.038h.012l.1-1.641Zm5.659,0h.032l-.243-3.894c.019.5.046,1,.07,1.456Zm.851.769h-1.577l-.182-3.166c-.011-.2-.022-.415-.033-.634q-.072.2-.15.414l-1.218,3.348H-16.32l-1.12-3.3-.1-.3c-.01.182-.02.365-.031.545l-.193,3.1h-1.559l.5-7.149h1.681l1.179,3.342c.115.34.215.647.3.93.092-.282.2-.589.316-.93l1.23-3.342h1.68Z" transform="translate(19.325 13.132)" fill="#333"/>
            </g>
            <g id="g52" transform="translate(16.756 13.329)">
              <path id="path54" d="M-3.112-81.914a2.918,2.918,0,0,0,1.477.417c.842,0,1.335-.445,1.335-1.089,0-.6-.341-.937-1.2-1.268-1.041-.369-1.685-.909-1.685-1.808a1.837,1.837,0,0,1,2.064-1.732,2.9,2.9,0,0,1,1.41.312l-.227.672a2.54,2.54,0,0,0-1.212-.3c-.871,0-1.2.521-1.2.956,0,.6.388.89,1.268,1.231,1.079.417,1.628.937,1.628,1.874,0,.984-.729,1.836-2.234,1.836a3.3,3.3,0,0,1-1.628-.407Z" transform="translate(3.32 87.394)" fill="#333"/>
            </g>
            <g id="g56" transform="translate(16.306 12.945)">
              <path id="path58" d="M-18.288-20.159a1.223,1.223,0,0,0-.256.768c0,.437.162,1,1.429,1.446l.01,0c.752.289,1.449.687,1.449,1.627a1.389,1.389,0,0,1-.291.877,1.309,1.309,0,0,0,.364-.943c0-.818-.529-1.186-1.382-1.516-.766-.3-1.514-.664-1.514-1.589a1.277,1.277,0,0,1,.192-.673m.855,6a3.681,3.681,0,0,1-1.841-.472l-.237-.158.435-1.442.426.262a2.536,2.536,0,0,0,1.275.359c.286,0,.95-.069.95-.7,0-.3-.072-.569-.951-.908-1.3-.463-1.936-1.173-1.936-2.169a2.224,2.224,0,0,1,2.448-2.117,3.239,3.239,0,0,1,1.6.362l.277.157-.476,1.407-.4-.219a2.144,2.144,0,0,0-1.028-.256c-.6,0-.818.3-.818.572s.071.5,1.023.872c1.661.641,1.874,1.53,1.874,2.233,0,1.105-.81,2.221-2.619,2.221" transform="translate(19.512 21.508)" fill="#333"/>
            </g>
            <g id="g60" transform="translate(21.341 13.433)">
              <path id="path62" d="M-12.45,0V3.777c0,1.429.634,2.035,1.486,2.035.947,0,1.552-.625,1.552-2.035V0h.833V3.72c0,1.959-1.032,2.764-2.414,2.764-1.306,0-2.291-.748-2.291-2.726V0Z" transform="translate(13.283)" fill="#333"/>
            </g>
            <g id="g64" transform="translate(20.957 13.049)">
              <path id="path66" d="M-69.355-11.492V-8.1a3.068,3.068,0,0,1-.465,1.731,2.657,2.657,0,0,0,.529-1.788v-3.336Zm-3.872,0v3.374a2.312,2.312,0,0,0,.792,2.042A2.585,2.585,0,0,1-73.163-8.1v-3.392Zm1.906,6.484c-1.7,0-2.675-1.134-2.675-3.111v-4.142h1.6V-8.1c0,.753.191,1.651,1.1,1.651.289,0,1.168,0,1.168-1.651v-4.161h1.6v4.1c0,2-1.02,3.148-2.8,3.148" transform="translate(73.996 12.261)" fill="#333"/>
            </g>
            <g id="g68" transform="translate(9.542 21.769)">
              <path id="path70" d="M-3.528-92.855a3.308,3.308,0,0,0,1.674.472c.955,0,1.513-.5,1.513-1.234,0-.676-.386-1.062-1.363-1.438-1.18-.419-1.91-1.03-1.91-2.049a2.082,2.082,0,0,1,2.339-1.964,3.285,3.285,0,0,1,1.6.354l-.258.762A2.88,2.88,0,0,0-1.307-98.3c-.987,0-1.363.59-1.363,1.084,0,.676.44,1.009,1.438,1.4,1.223.472,1.846,1.062,1.846,2.125,0,1.116-.826,2.082-2.532,2.082a3.738,3.738,0,0,1-1.846-.461Z" transform="translate(3.764 99.068)" fill="#fc0603"/>
            </g>
            <g id="g72" transform="translate(9.032 21.334)">
              <path id="path74" d="M-20.728-22.856a1.387,1.387,0,0,0-.29.87c0,.5.184,1.13,1.62,1.639l.011,0c.853.328,1.642.778,1.642,1.845a1.575,1.575,0,0,1-.33.994,1.485,1.485,0,0,0,.413-1.069c0-.927-.6-1.345-1.567-1.718-.869-.336-1.717-.752-1.717-1.8a1.448,1.448,0,0,1,.218-.763m.969,6.8a4.173,4.173,0,0,1-2.087-.534l-.269-.179.493-1.635.482.3a2.874,2.874,0,0,0,1.446.408c.324,0,1.077-.078,1.077-.8,0-.348-.079-.644-1.078-1.029-1.477-.525-2.195-1.329-2.195-2.458a2.521,2.521,0,0,1,2.775-2.4,3.671,3.671,0,0,1,1.814.411l.313.178-.539,1.595-.455-.248a2.431,2.431,0,0,0-1.165-.29c-.683,0-.927.335-.927.648s.081.571,1.159.989c1.883.727,2.124,1.734,2.124,2.531,0,1.253-.918,2.518-2.968,2.518" transform="translate(22.115 24.385)" fill="#fc0603"/>
            </g>
            <g id="g76" transform="translate(21.807 21.769)">
              <path id="path78" d="M-3.528-92.855a3.308,3.308,0,0,0,1.674.472c.955,0,1.513-.5,1.513-1.234,0-.676-.386-1.062-1.363-1.438-1.18-.419-1.91-1.03-1.91-2.049a2.082,2.082,0,0,1,2.339-1.964,3.285,3.285,0,0,1,1.6.354l-.258.762A2.88,2.88,0,0,0-1.307-98.3c-.987,0-1.363.59-1.363,1.084,0,.676.44,1.009,1.438,1.4,1.223.472,1.846,1.062,1.846,2.125,0,1.116-.826,2.082-2.532,2.082a3.738,3.738,0,0,1-1.846-.461Z" transform="translate(3.764 99.068)" fill="#fc0603"/>
            </g>
            <g id="g80" transform="translate(21.296 21.334)">
              <path id="path82" d="M-20.728-22.856a1.387,1.387,0,0,0-.29.87c0,.5.184,1.13,1.62,1.639l.011,0c.853.328,1.642.778,1.642,1.845a1.575,1.575,0,0,1-.33.994,1.485,1.485,0,0,0,.413-1.069c0-.927-.6-1.345-1.567-1.718-.869-.336-1.717-.752-1.717-1.8a1.448,1.448,0,0,1,.218-.763m.969,6.8a4.173,4.173,0,0,1-2.087-.534l-.269-.179.493-1.635.482.3a2.874,2.874,0,0,0,1.446.408c.324,0,1.077-.078,1.077-.8,0-.348-.079-.644-1.078-1.029-1.477-.525-2.195-1.329-2.195-2.458a2.521,2.521,0,0,1,2.775-2.4,3.671,3.671,0,0,1,1.814.411l.313.178-.539,1.595-.455-.248a2.431,2.431,0,0,0-1.165-.29c-.683,0-.927.335-.927.648s.081.571,1.159.989c1.883.727,2.124,1.734,2.124,2.531,0,1.253-.918,2.518-2.968,2.518" transform="translate(22.115 24.385)" fill="#fc0603"/>
            </g>
            <g id="g84" transform="translate(9.602 10.296)">
              <path id="path86" d="M-19.231-12.4c-.011-.206-.024-.455-.022-.639h-.007c-.05.174-.112.358-.187.562l-.261.718h-.145l-.239-.7c-.07-.209-.13-.4-.171-.575h0c0,.184-.015.433-.029.654l-.039.635h-.182l.1-1.48h.244l.252.716c.062.182.112.345.149.5h.007c.037-.149.09-.312.156-.5l.263-.716h.244l.092,1.48h-.187Z" transform="translate(20.517 13.235)" fill="#333"/>
            </g>
            <g id="g88" transform="translate(11.337 10.689)">
              <path id="path90" d="M-2.921-8.336c0,.233.134.408.323.408s.323-.173.323-.413c0-.18-.09-.408-.318-.408s-.327.211-.327.413m.843-.011a.519.519,0,0,1-.529.564.505.505,0,0,1-.509-.547.519.519,0,0,1,.527-.564.5.5,0,0,1,.512.547" transform="translate(3.116 8.893)" fill="#333"/>
            </g>
            <g id="g92" transform="translate(12.611 10.217)">
              <path id="path94" d="M-2.987-16.934a.364.364,0,0,0,.009.07.3.3,0,0,0,.29.226c.2,0,.323-.165.323-.408,0-.213-.11-.4-.316-.4a.308.308,0,0,0-.294.237.39.39,0,0,0-.011.079Zm-.2.426c0-.072.009-.18.009-.274v-1.285h.191v.668h0a.4.4,0,0,1,.362-.2.477.477,0,0,1,.448.542.505.505,0,0,1-.477.569.379.379,0,0,1-.356-.2h-.007l-.009.176Z" transform="translate(3.187 18.067)" fill="#333"/>
            </g>
            <path id="path96" d="M220.786-555.445h.193v1.063h-.193Zm.215-.3a.114.114,0,0,1-.123.119.115.115,0,0,1-.116-.119.118.118,0,0,1,.121-.121.115.115,0,0,1,.119.121" transform="translate(-206.917 566.157)" fill="#333"/>
            <path id="path98" d="M229.342-557.091h.193v1.559h-.193Z" transform="translate(-214.959 567.307)" fill="#333"/>
            <g id="g100" transform="translate(14.824 10.689)">
              <path id="path102" d="M-11.224-6.761a.275.275,0,0,0-.268-.314.32.32,0,0,0-.3.314Zm-.567.138a.34.34,0,0,0,.364.369.7.7,0,0,0,.294-.055l.033.138a.859.859,0,0,1-.353.066.494.494,0,0,1-.523-.536.516.516,0,0,1,.5-.573.45.45,0,0,1,.439.5.719.719,0,0,1-.007.09Z" transform="translate(11.975 7.213)" fill="#333"/>
            </g>
            <g id="g104" transform="translate(16.399 10.272)">
              <path id="path106" d="M-.722-19a.677.677,0,0,0,.343.1c.2,0,.31-.1.31-.253s-.079-.217-.279-.294c-.241-.086-.391-.211-.391-.419a.426.426,0,0,1,.479-.4.672.672,0,0,1,.327.072l-.053.156a.589.589,0,0,0-.281-.07c-.2,0-.279.121-.279.222,0,.138.09.206.294.285.25.1.378.217.378.435s-.169.426-.518.426a.765.765,0,0,1-.378-.094Z" transform="translate(0.771 20.272)" fill="#333"/>
            </g>
            <g id="g108" transform="translate(17.422 10.408)">
              <path id="path110" d="M-5.284,0V.305h.277V.452h-.277v.573c0,.132.037.206.145.206a.429.429,0,0,0,.112-.013l.009.145a.474.474,0,0,1-.171.026A.268.268,0,0,1-5.4,1.309a.394.394,0,0,1-.075-.277V.452h-.165V.305h.165V.051Z" transform="translate(5.637)" fill="#333"/>
            </g>
            <g id="g112" transform="translate(18.261 10.689)">
              <path id="path114" d="M-.131-5.316c0-.125,0-.233-.009-.332H.029l.007.209H.044a.319.319,0,0,1,.294-.233.207.207,0,0,1,.055.007v.182A.292.292,0,0,0,.328-5.49a.271.271,0,0,0-.259.248.54.54,0,0,0-.009.09v.567H-.131Z" transform="translate(0.14 5.672)" fill="#333"/>
            </g>
            <g id="g116" transform="translate(18.889 10.689)">
              <path id="path118" d="M-2.921-8.336c0,.233.134.408.323.408s.323-.173.323-.413c0-.18-.09-.408-.318-.408s-.327.211-.327.413m.843-.011a.519.519,0,0,1-.529.564.505.505,0,0,1-.509-.547.519.519,0,0,1,.527-.564.5.5,0,0,1,.511.547" transform="translate(3.116 8.893)" fill="#333"/>
            </g>
            <g id="g120" transform="translate(20.172 10.217)">
              <path id="path122" d="M-2.856-14.7h0c.026-.037.064-.083.094-.121l.312-.367h.233l-.411.437.468.626H-2.39l-.367-.509-.1.11v.4h-.191v-1.559h.191Z" transform="translate(3.047 15.687)" fill="#333"/>
            </g>
            <g id="g124" transform="translate(21.125 10.689)">
              <path id="path126" d="M-11.224-6.761a.275.275,0,0,0-.268-.314.32.32,0,0,0-.3.314Zm-.567.138a.34.34,0,0,0,.364.369.7.7,0,0,0,.294-.055l.033.138a.86.86,0,0,1-.354.066.494.494,0,0,1-.523-.536.516.516,0,0,1,.5-.573.45.45,0,0,1,.439.5.732.732,0,0,1-.007.09Z" transform="translate(11.975 7.213)" fill="#333"/>
            </g>
            <g id="g128" transform="translate(22.772 10.296)">
              <path id="path130" d="M-2.888,0V.876c0,.332.147.472.345.472.219,0,.36-.145.36-.472V0h.193V.863c0,.455-.239.641-.56.641-.3,0-.531-.173-.531-.632V0Z" transform="translate(3.081)" fill="#333"/>
            </g>
            <g id="g132" transform="translate(24.18 10.689)">
              <path id="path134" d="M-.131-4.66c0-.11,0-.2-.009-.288H.031l.011.176h0a.391.391,0,0,1,.351-.2c.147,0,.376.088.376.452v.635H.58V-4.5c0-.171-.064-.314-.246-.314a.275.275,0,0,0-.259.2.276.276,0,0,0-.013.09v.639H-.131Z" transform="translate(0.14 4.972)" fill="#333"/>
            </g>
            <path id="path136" d="M404.766-555.445h.193v1.063h-.193Zm.215-.3a.114.114,0,0,1-.123.119.115.115,0,0,1-.116-.119.118.118,0,0,1,.121-.121.115.115,0,0,1,.119.121" transform="translate(-379.359 566.157)" fill="#333"/>
            <g id="g138" transform="translate(25.8 10.408)">
              <path id="path140" d="M-5.284,0V.305h.277V.452h-.277v.573c0,.132.037.206.145.206a.429.429,0,0,0,.112-.013l.009.145a.475.475,0,0,1-.171.026A.268.268,0,0,1-5.4,1.309a.394.394,0,0,1-.075-.277V.452h-.165V.305h.165V.051Z" transform="translate(5.637)" fill="#333"/>
            </g>
            <g id="g142" transform="translate(9.032 30.299)">
              <path id="path144" d="M-.854-22.451a.8.8,0,0,0,.4.114c.231,0,.366-.122.366-.3s-.093-.257-.329-.348c-.285-.1-.462-.249-.462-.5a.5.5,0,0,1,.566-.475.793.793,0,0,1,.387.086l-.062.184a.7.7,0,0,0-.332-.083c-.239,0-.33.143-.33.262,0,.163.106.244.348.337.3.114.446.257.446.514s-.2.5-.612.5a.9.9,0,0,1-.446-.112Z" transform="translate(0.911 23.953)" fill="#fc0603"/>
            </g>
            <g id="g146" transform="translate(10.241 30.46)">
              <path id="path148" d="M-6.244,0V.361h.327V.535h-.327v.677c0,.156.044.244.171.244A.512.512,0,0,0-5.94,1.44l.01.171a.561.561,0,0,1-.2.031.316.316,0,0,1-.246-.1.466.466,0,0,1-.088-.327V.535h-.195V.361h.195V.06Z" transform="translate(6.661)" fill="#fc0603"/>
            </g>
            <g id="g150" transform="translate(11.232 30.792)">
              <path id="path152" d="M-.155-6.282c0-.148,0-.275-.01-.392h.2l.008.247h.01A.377.377,0,0,1,.4-6.7a.247.247,0,0,1,.065.008v.215a.343.343,0,0,0-.078-.008.32.32,0,0,0-.306.293.644.644,0,0,0-.01.106v.669H-.155Z" transform="translate(0.165 6.703)" fill="#fc0603"/>
            </g>
            <g id="g154" transform="translate(11.975 30.792)">
              <path id="path156" d="M-3.45-9.85c0,.275.158.483.381.483s.381-.2.381-.488c0-.213-.106-.483-.376-.483s-.387.249-.387.488m1-.013a.614.614,0,0,1-.625.667.6.6,0,0,1-.6-.646.613.613,0,0,1,.623-.667.6.6,0,0,1,.6.646" transform="translate(3.681 10.509)" fill="#fc0603"/>
            </g>
            <g id="g158" transform="translate(13.49 30.234)">
              <path id="path160" d="M-3.374-17.372h.005c.031-.044.075-.1.112-.143l.368-.433h.275l-.485.516.553.74h-.278l-.433-.6-.117.13v.472H-3.6v-1.842h.226Z" transform="translate(3.6 18.535)" fill="#fc0603"/>
            </g>
            <g id="g162" transform="translate(14.616 30.792)">
              <path id="path164" d="M-13.262-7.989a.325.325,0,0,0-.316-.371.378.378,0,0,0-.35.371Zm-.669.163a.4.4,0,0,0,.431.436.826.826,0,0,0,.348-.065l.039.163a1.018,1.018,0,0,1-.418.078.583.583,0,0,1-.618-.633.61.61,0,0,1,.589-.677.532.532,0,0,1,.519.592.861.861,0,0,1-.008.106Z" transform="translate(14.149 8.524)" fill="#fc0603"/>
            </g>
            <g id="g166" transform="translate(16.461 30.299)">
              <path id="path168" d="M-3.607-13.649c0,.374.2.708.558.708s.56-.33.56-.727c0-.348-.182-.711-.558-.711s-.56.345-.56.729m1.357-.029a.819.819,0,0,1-.812.921.8.8,0,0,1-.786-.887.831.831,0,0,1,.812-.918.8.8,0,0,1,.786.885" transform="translate(3.848 14.563)" fill="#fc0603"/>
            </g>
            <g id="g170" transform="translate(18.335 30.792)">
              <path id="path172" d="M-.155-5.506c0-.13,0-.236-.01-.34h.2l.013.208H.055A.462.462,0,0,1,.47-5.875c.174,0,.444.1.444.534v.75H.686v-.724c0-.2-.075-.371-.29-.371a.324.324,0,0,0-.306.234.329.329,0,0,0-.016.106v.755H-.155Z" transform="translate(0.165 5.875)" fill="#fc0603"/>
            </g>
            <g id="g174" transform="translate(19.695 30.792)">
              <path id="path176" d="M-13.262-7.989a.325.325,0,0,0-.316-.371.378.378,0,0,0-.35.371Zm-.669.163a.4.4,0,0,0,.431.436.826.826,0,0,0,.348-.065l.039.163a1.017,1.017,0,0,1-.418.078.583.583,0,0,1-.618-.633.61.61,0,0,1,.589-.677.532.532,0,0,1,.519.592.845.845,0,0,1-.008.106Z" transform="translate(14.149 8.524)" fill="#fc0603"/>
            </g>
            <g id="g178" transform="translate(21.556 30.299)">
              <path id="path180" d="M-.854-22.451a.8.8,0,0,0,.4.114c.231,0,.366-.122.366-.3s-.093-.257-.329-.348c-.285-.1-.462-.249-.462-.5a.5.5,0,0,1,.566-.475.793.793,0,0,1,.387.086l-.062.184a.7.7,0,0,0-.332-.083c-.239,0-.33.143-.33.262,0,.163.106.244.348.337.3.114.446.257.446.514s-.2.5-.612.5a.9.9,0,0,1-.446-.112Z" transform="translate(0.911 23.953)" fill="#fc0603"/>
            </g>
            <g id="g182" transform="translate(22.765 30.46)">
              <path id="path184" d="M-6.244,0V.361h.327V.535h-.327v.677c0,.156.044.244.171.244A.512.512,0,0,0-5.94,1.44l.01.171a.561.561,0,0,1-.2.031.316.316,0,0,1-.246-.1.466.466,0,0,1-.088-.327V.535h-.195V.361h.195V.06Z" transform="translate(6.661)" fill="#fc0603"/>
            </g>
            <g id="g186" transform="translate(23.66 30.792)">
              <path id="path188" d="M-3.45-9.85c0,.275.158.483.381.483s.381-.2.381-.488c0-.213-.106-.483-.376-.483s-.387.249-.387.488m1-.013a.614.614,0,0,1-.625.667.6.6,0,0,1-.6-.646.613.613,0,0,1,.623-.667.6.6,0,0,1,.6.646" transform="translate(3.681 10.509)" fill="#fc0603"/>
            </g>
            <g id="g190" transform="translate(25.166 30.792)">
              <path id="path192" d="M-3.529-11.556a.515.515,0,0,0,.01.093.352.352,0,0,0,.343.267c.241,0,.381-.2.381-.485,0-.252-.132-.467-.374-.467a.364.364,0,0,0-.345.283.367.367,0,0,0-.016.093Zm-.226-.335c0-.161-.005-.291-.01-.41h.205l.01.215h.005a.494.494,0,0,1,.446-.244.569.569,0,0,1,.532.638.594.594,0,0,1-.571.675.44.44,0,0,1-.387-.2h-.005v.682h-.226Z" transform="translate(3.765 12.329)" fill="#fc0603"/>
            </g>
          </g>
        </g>
      </g>
    </g>
  </g>
</svg>
