<svg xmlns="http://www.w3.org/2000/svg" xmlns:xlink="http://www.w3.org/1999/xlink" width="64" height="64" viewBox="0 0 64 64">
  <defs>
    <clipPath id="clip-path">
      <rect id="Rectangle_3" data-name="Rectangle 3" width="36" height="48" transform="translate(-2 0)" fill="red" opacity="0.56"/>
    </clipPath>
    <clipPath id="clip-path-2">
      <path id="path16" d="M0-720H72.748v90.308H0Z" transform="translate(0 719.998)"/>
    </clipPath>
  </defs>
  <g id="Group_13" data-name="Group 13" transform="translate(-5609 2270)">
    <rect id="Rectangle_2" data-name="Rectangle 2" width="64" height="64" transform="translate(5609 -2270)" fill="#fff"/>
    <g id="Mask_Group_2" data-name="Mask Group 2" transform="translate(5625 -2262)" clip-path="url(#clip-path)">
      <g id="g10" transform="translate(-19.687 -18.792)">
        <g id="g12" transform="translate(0 0)">
          <g id="g14" clip-path="url(#clip-path-2)">
            <g id="g20" transform="translate(29.284 43.567)">
              <path id="path22" d="M-93.143-51.028c0,4.979-3.058,7.619-6.787,7.619-3.86,0-6.571-2.962-6.571-7.34,0-4.593,2.884-7.6,6.787-7.6,3.99,0,6.571,3.026,6.571,7.318" transform="translate(106.501 58.347)" fill="#fc0603"/>
            </g>
            <g id="g24" transform="translate(28.404 42.695)">
              <path id="path26" d="M-53.469-12.157c-3.533,0-5.907,2.7-5.907,6.726,0,3.869,2.287,6.468,5.69,6.468,3.588,0,5.907-2.649,5.907-6.747,0-3.916-2.233-6.446-5.69-6.446m-.217,14.937c-4.387,0-7.452-3.377-7.452-8.212,0-4.986,3.153-8.469,7.668-8.469,4.387,0,7.452,3.368,7.452,8.19,0,5.865-3.851,8.491-7.668,8.491" transform="translate(61.137 13.9)" fill="#fc0603"/>
            </g>
            <g id="g28" transform="translate(31.88 46.691)">
              <path id="path30" d="M-25.482-7.235h0m-1.148-.746a1.913,1.913,0,0,0-.435.3,5.562,5.562,0,0,0-1.767,3.325,2.486,2.486,0,0,0,.729,2.3A2.991,2.991,0,0,0-25.582-2.7a2.725,2.725,0,0,1,.352-1.821c.022-.035.042-.067.059-.1.044-.082.1-.173.163-.27a1.983,1.983,0,0,0,.4-.966,1.926,1.926,0,0,0-.475.329,4,4,0,0,0-1.006,1.5c-.062.211-.225.553-.446.5-.195-.05-.22-.317-.086-.922a3.039,3.039,0,0,1,.653-1.392,1.606,1.606,0,0,0,.5-1.3,1.616,1.616,0,0,0-.393.269A7.3,7.3,0,0,0-27.9-3.211l-.274-.016a4.718,4.718,0,0,1,.864-3.181l.077-.113c.384-.557.691-1,.6-1.46m-.99,6.295a1.165,1.165,0,0,1-.639-.139,2.721,2.721,0,0,1-.848-2.56,5.854,5.854,0,0,1,1.86-3.5c.231-.2.546-.434.733-.38a.193.193,0,0,1,.132.134c.179.611-.191,1.147-.618,1.767l-.077.112a4.519,4.519,0,0,0-.791,1.959,7.636,7.636,0,0,1,1.816-2.778s.481-.439.721-.355a.185.185,0,0,1,.123.151,1.805,1.805,0,0,1-.531,1.588,2.81,2.81,0,0,0-.614,1.3,3.129,3.129,0,0,0-.075.467,1.011,1.011,0,0,0,.071-.179,4.271,4.271,0,0,1,1.09-1.632c.37-.325.638-.458.8-.39a.226.226,0,0,1,.135.208,2.069,2.069,0,0,1-.438,1.177c-.058.092-.112.177-.153.254-.019.036-.043.073-.068.114A2.5,2.5,0,0,0-25.3-2.66l0,.051-.031.04a3.428,3.428,0,0,1-2.289.883" transform="translate(29.137 8.272)" fill="#fff"/>
            </g>
            <g id="g32" transform="translate(32.599 45.505)">
              <path id="path34" d="M-37.377-83.455c-.573-2.145.991-2.792,1.754-2.657.58.1.8-.236.71-.5s-.362-.589-.276-.706.657-.353-.013-.591c.309-.147.454-.3.142-.68a.384.384,0,0,1,.074-.64c.1-.088.453-.421.346-.537a5.4,5.4,0,0,1-1.186-1.766c-.1-.6-1.2-3.289-3.688-3.275a6.536,6.536,0,0,0-3.214.823,5.067,5.067,0,0,1,3.162-1.443,4.233,4.233,0,0,1,3.393,1.706c.468.628.709,2.042,1.07,2.554a9.766,9.766,0,0,0,1.112,1.215c.156.154.235.377,0,.533s-.541.323-.569.546a1.07,1.07,0,0,0,.246.629c.078.1-.048.223-.309.419.292.221.367.329.313.444-.106.224-.435.216-.356.448s.373.812.122,1.085c-.376.41-1.375.092-1.8.278a2.459,2.459,0,0,0-1.037,2.113" transform="translate(42.737 95.424)" fill="#fff"/>
            </g>
            <g id="g36" transform="translate(35.073 44.392)">
              <path id="path38" d="M-30.7,0l-1.091.006-1.678,1.638,1.248-.007-2,1.582,1.323-.007-2.2,2.063L-31.147,2.7l-1.521.009,2.125-1.517-1.422.008Z" transform="translate(35.101)" fill="#fff"/>
            </g>
            <g id="g40" transform="translate(30.824 47.161)">
              <path id="path42" d="M-33.306-72l-2.992.017a4.826,4.826,0,0,0,.6-2.1c0-.892-2.366-1.9-2.383-4.988-.008-1.367,1.588-3.555,1.66-3.223.192.883-.555,1.512-.546,3.091.009,1.609,1.119,2.592,1.681,2.588s.462-2.29-.788-3.883a1.44,1.44,0,0,1,1.68.573c.411.608.95,2.067,1.353,2.794a4.445,4.445,0,0,1,.782,2.5A5.218,5.218,0,0,1-33.306-72" transform="translate(38.083 82.327)" fill="#fff"/>
            </g>
            <g id="g44" transform="translate(18.899 26.867)">
              <path id="path46" d="M-77.357-49.9c-.095-1.78-.208-3.919-.189-5.509H-77.6c-.435,1.5-.965,3.086-1.609,4.847l-2.253,6.191h-1.25l-2.064-6.077c-.606-1.8-1.117-3.446-1.477-4.96h-.038c-.038,1.59-.133,3.73-.246,5.642L-86.88-44.3h-1.572l.89-12.76h2.1l2.177,6.172c.53,1.571.966,2.973,1.288,4.3h.057c.322-1.287.776-2.688,1.344-4.3l2.272-6.172h2.1l.8,12.76h-1.609Z" transform="translate(88.452 57.056)" fill="#333"/>
            </g>
            <g id="g48" transform="translate(18.075 26.098)">
              <path id="path50" d="M-16.9-11.485h.886l-.039-.109h-.84Zm9.025,0h.89l-.007-.109h-.843ZM-14.4-6.907q.142.435.3.906l.555,1.635c-.153-.486-.324-1.008-.517-1.579Zm2.187,6.459h.16l.246-.677h-.636Zm-5.463.076h.025l.2-3.282Zm11.318,0h.065L-6.779-8.16c.038.99.092,2.008.14,2.911Zm1.7,1.538H-7.811l-.363-6.332C-8.2-5.57-8.219-6-8.241-6.434q-.145.407-.3.829l-2.436,6.7h-2.339l-2.241-6.6q-.105-.313-.2-.609c-.02.365-.04.729-.061,1.089l-.386,6.195h-3.118l1-14.3h3.363l2.358,6.685c.229.68.429,1.293.605,1.859.183-.563.393-1.178.633-1.859l2.461-6.685h3.36Z" transform="translate(19.325 13.132)" fill="#333"/>
            </g>
            <g id="g52" transform="translate(33.513 26.659)">
              <path id="path54" d="M-2.9-76.433A5.837,5.837,0,0,0,.05-75.6c1.685,0,2.669-.89,2.669-2.177,0-1.193-.681-1.874-2.4-2.537-2.083-.738-3.37-1.818-3.37-3.616,0-1.988,1.647-3.464,4.127-3.464a5.8,5.8,0,0,1,2.821.625l-.454,1.344a5.08,5.08,0,0,0-2.423-.606c-1.742,0-2.4,1.041-2.4,1.912,0,1.193.776,1.78,2.537,2.461,2.158.833,3.256,1.874,3.256,3.749,0,1.969-1.458,3.673-4.468,3.673a6.6,6.6,0,0,1-3.256-.814Z" transform="translate(3.32 87.394)" fill="#333"/>
            </g>
            <g id="g56" transform="translate(32.612 25.89)">
              <path id="path58" d="M-17.065-18.81a2.446,2.446,0,0,0-.513,1.536c0,.874.325,1.993,2.858,2.891l.019.007c1.5.579,2.9,1.374,2.9,3.255a2.778,2.778,0,0,1-.582,1.754,2.618,2.618,0,0,0,.729-1.886c0-1.636-1.058-2.373-2.764-3.031-1.533-.594-3.029-1.328-3.029-3.179a2.555,2.555,0,0,1,.384-1.346m1.71,12a7.362,7.362,0,0,1-3.683-.943l-.474-.316.869-2.884.851.524a5.072,5.072,0,0,0,2.55.719c.571,0,1.9-.137,1.9-1.408,0-.592-.143-1.138-1.9-1.816-2.605-.926-3.872-2.345-3.872-4.337,0-2.453,2.059-4.233,4.9-4.233a6.478,6.478,0,0,1,3.2.725l.553.313-.951,2.813-.8-.438a4.288,4.288,0,0,0-2.055-.512c-1.206,0-1.635.591-1.635,1.143,0,.575.142,1.007,2.045,1.744,3.322,1.282,3.748,3.06,3.748,4.466,0,2.211-1.62,4.442-5.237,4.442" transform="translate(19.512 21.508)" fill="#333"/>
            </g>
            <g id="g60" transform="translate(42.683 26.867)">
              <path id="path62" d="M-11.617,0V7.554c0,2.859,1.268,4.07,2.972,4.07,1.893,0,3.1-1.249,3.1-4.07V0h1.666V7.44c0,3.919-2.064,5.528-4.828,5.528-2.613,0-4.582-1.5-4.582-5.452V0Z" transform="translate(13.283)" fill="#333"/>
            </g>
            <g id="g64" transform="translate(41.914 26.098)">
              <path id="path66" d="M-64.715-10.723v6.785a6.136,6.136,0,0,1-.93,3.462,5.315,5.315,0,0,0,1.059-3.576v-6.671Zm-7.743,0v6.747c0,2,.531,3.365,1.584,4.084A5.171,5.171,0,0,1-72.33-3.938v-6.785Zm3.813,12.968C-72.046,2.245-74-.023-74-3.976v-8.285h3.2v8.323c0,1.506.382,3.3,2.2,3.3.578,0,2.336,0,2.336-3.3v-8.323h3.2v8.209c0,4-2.04,6.3-5.6,6.3" transform="translate(73.996 12.261)" fill="#333"/>
            </g>
            <g id="g68" transform="translate(19.084 43.539)">
              <path id="path70" d="M-3.292-86.642A6.616,6.616,0,0,0,.056-85.7c1.91,0,3.026-1.009,3.026-2.468,0-1.352-.773-2.125-2.726-2.876-2.361-.837-3.82-2.06-3.82-4.1,0-2.254,1.867-3.927,4.678-3.927a6.571,6.571,0,0,1,3.2.708L3.9-96.836a5.76,5.76,0,0,0-2.747-.687c-1.974,0-2.725,1.18-2.725,2.168,0,1.352.88,2.017,2.876,2.79,2.447.944,3.691,2.125,3.691,4.249,0,2.232-1.652,4.164-5.065,4.164a7.477,7.477,0,0,1-3.691-.923Z" transform="translate(3.764 99.068)" fill="#fc0603"/>
            </g>
            <g id="g72" transform="translate(18.063 42.667)">
              <path id="path74" d="M-19.341-21.327a2.774,2.774,0,0,0-.581,1.74c0,.991.368,2.26,3.24,3.278l.022.008c1.706.656,3.284,1.557,3.284,3.689a3.151,3.151,0,0,1-.66,1.988,2.969,2.969,0,0,0,.826-2.138c0-1.854-1.2-2.689-3.134-3.436-1.738-.673-3.434-1.5-3.434-3.6a2.9,2.9,0,0,1,.435-1.526m1.938,13.6A8.347,8.347,0,0,1-21.577-8.8l-.538-.358.985-3.27.965.594a5.749,5.749,0,0,0,2.891.815c.648,0,2.154-.156,2.154-1.6,0-.7-.159-1.288-2.156-2.058-2.953-1.05-4.389-2.658-4.389-4.917,0-2.781,2.334-4.8,5.55-4.8a7.342,7.342,0,0,1,3.627.822l.627.355-1.078,3.189-.911-.5a4.861,4.861,0,0,0-2.329-.58c-1.367,0-1.854.669-1.854,1.3,0,.652.161,1.142,2.319,1.977,3.765,1.453,4.248,3.469,4.248,5.062,0,2.506-1.836,5.035-5.937,5.035" transform="translate(22.115 24.385)" fill="#fc0603"/>
            </g>
            <g id="g76" transform="translate(43.614 43.539)">
              <path id="path78" d="M-3.292-86.642A6.616,6.616,0,0,0,.056-85.7c1.91,0,3.026-1.009,3.026-2.468,0-1.352-.773-2.125-2.726-2.876-2.361-.837-3.82-2.06-3.82-4.1,0-2.254,1.867-3.927,4.678-3.927a6.571,6.571,0,0,1,3.2.708L3.9-96.836a5.76,5.76,0,0,0-2.747-.687c-1.974,0-2.725,1.18-2.725,2.168,0,1.352.88,2.017,2.876,2.79,2.447.944,3.691,2.125,3.691,4.249,0,2.232-1.652,4.164-5.065,4.164a7.477,7.477,0,0,1-3.691-.923Z" transform="translate(3.764 99.068)" fill="#fc0603"/>
            </g>
            <g id="g80" transform="translate(42.593 42.667)">
              <path id="path82" d="M-19.341-21.327a2.774,2.774,0,0,0-.581,1.74c0,.991.368,2.26,3.24,3.278l.022.008c1.706.656,3.284,1.557,3.284,3.689a3.151,3.151,0,0,1-.66,1.988,2.969,2.969,0,0,0,.826-2.138c0-1.854-1.2-2.689-3.134-3.436-1.738-.673-3.434-1.5-3.434-3.6a2.9,2.9,0,0,1,.435-1.526m1.938,13.6A8.347,8.347,0,0,1-21.577-8.8l-.538-.358.985-3.27.965.594a5.749,5.749,0,0,0,2.891.815c.648,0,2.154-.156,2.154-1.6,0-.7-.159-1.288-2.156-2.058-2.953-1.05-4.389-2.658-4.389-4.917,0-2.781,2.334-4.8,5.55-4.8a7.342,7.342,0,0,1,3.627.822l.627.355-1.078,3.189-.911-.5a4.861,4.861,0,0,0-2.329-.58c-1.367,0-1.854.669-1.854,1.3,0,.652.161,1.142,2.319,1.977,3.765,1.453,4.248,3.469,4.248,5.062,0,2.506-1.836,5.035-5.937,5.035" transform="translate(22.115 24.385)" fill="#fc0603"/>
            </g>
            <g id="g84" transform="translate(19.204 20.591)">
              <path id="path86" d="M-17.944-11.575c-.022-.413-.048-.909-.044-1.278H-18c-.1.347-.224.716-.373,1.124l-.523,1.436h-.29l-.479-1.41c-.14-.417-.259-.8-.343-1.151h-.009c-.009.369-.031.865-.057,1.309l-.079,1.269h-.365l.206-2.96h.487l.5,1.432c.123.364.224.689.3,1h.013c.075-.3.18-.624.312-1l.527-1.432h.487l.184,2.96h-.373Z" transform="translate(20.517 13.235)" fill="#333"/>
            </g>
            <g id="g88" transform="translate(22.674 21.377)">
              <path id="path90" d="M-2.725-7.778c0,.466.268.817.646.817s.646-.347.646-.825c0-.36-.18-.817-.637-.817s-.654.422-.654.826M-1.039-7.8A1.039,1.039,0,0,1-2.1-6.671,1.011,1.011,0,0,1-3.116-7.765,1.038,1.038,0,0,1-2.062-8.893,1.006,1.006,0,0,1-1.039-7.8" transform="translate(3.116 8.893)" fill="#333"/>
            </g>
            <g id="g92" transform="translate(25.221 20.433)">
              <path id="path94" d="M-2.787-15.8a.729.729,0,0,0,.018.14.6.6,0,0,0,.58.452c.4,0,.646-.329.646-.817,0-.426-.22-.791-.632-.791a.616.616,0,0,0-.589.474.781.781,0,0,0-.022.158Zm-.4.852c.009-.145.018-.36.018-.549v-2.569h.382v1.335h.009a.791.791,0,0,1,.725-.391.954.954,0,0,1,.9,1.085A1.01,1.01,0,0,1-2.111-14.9a.757.757,0,0,1-.711-.4h-.013l-.018.351Z" transform="translate(3.187 18.067)" fill="#333"/>
            </g>
            <path id="path96" d="M220.811-555.025h.386v2.125h-.386Zm.43-.6a.228.228,0,0,1-.246.237.23.23,0,0,1-.233-.237.235.235,0,0,1,.242-.241.229.229,0,0,1,.237.241" transform="translate(-193.072 576.451)" fill="#333"/>
            <path id="path98" d="M229.342-557.091h.386v3.118h-.386Z" transform="translate(-200.576 577.524)" fill="#333"/>
            <g id="g100" transform="translate(29.649 21.377)">
              <path id="path102" d="M-10.473-6.309a.55.55,0,0,0-.536-.628.64.64,0,0,0-.593.628Zm-1.133.277a.681.681,0,0,0,.729.738,1.4,1.4,0,0,0,.589-.11l.066.277A1.718,1.718,0,0,1-10.929-5a.987.987,0,0,1-1.045-1.072,1.032,1.032,0,0,1,1-1.146.9.9,0,0,1,.878,1,1.438,1.438,0,0,1-.013.18Z" transform="translate(11.975 7.213)" fill="#333"/>
            </g>
            <g id="g104" transform="translate(32.798 20.543)">
              <path id="path106" d="M-.674-17.729a1.354,1.354,0,0,0,.685.193c.391,0,.619-.207.619-.505,0-.277-.158-.435-.558-.589-.483-.171-.782-.422-.782-.839a.852.852,0,0,1,.957-.8,1.343,1.343,0,0,1,.654.145L.8-19.815a1.177,1.177,0,0,0-.562-.14c-.4,0-.558.241-.558.444,0,.277.18.413.589.571.5.193.755.435.755.87,0,.457-.338.852-1.036.852a1.531,1.531,0,0,1-.755-.189Z" transform="translate(0.771 20.272)" fill="#333"/>
            </g>
            <g id="g108" transform="translate(34.845 20.815)">
              <path id="path110" d="M-4.93,0V.61h.553V.9H-4.93V2.051c0,.264.075.413.29.413a.858.858,0,0,0,.224-.026l.018.29a.948.948,0,0,1-.343.053.535.535,0,0,1-.417-.163.787.787,0,0,1-.15-.553V.9h-.329V.61h.329V.1Z" transform="translate(5.637)" fill="#333"/>
            </g>
            <g id="g112" transform="translate(36.522 21.377)">
              <path id="path114" d="M-.122-4.961c0-.25,0-.465-.018-.663H.2l.013.417H.229a.638.638,0,0,1,.589-.466.414.414,0,0,1,.11.013v.364A.584.584,0,0,0,.8-5.307a.542.542,0,0,0-.518.5,1.08,1.08,0,0,0-.018.18V-3.5H-.122Z" transform="translate(0.14 5.672)" fill="#333"/>
            </g>
            <g id="g116" transform="translate(37.779 21.377)">
              <path id="path118" d="M-2.725-7.778c0,.466.268.817.646.817s.646-.347.646-.825c0-.36-.18-.817-.637-.817s-.654.422-.654.826M-1.039-7.8A1.039,1.039,0,0,1-2.1-6.671,1.011,1.011,0,0,1-3.116-7.765,1.038,1.038,0,0,1-2.062-8.893,1.006,1.006,0,0,1-1.039-7.8" transform="translate(3.116 8.893)" fill="#333"/>
            </g>
            <g id="g120" transform="translate(40.344 20.433)">
              <path id="path122" d="M-2.665-13.719h.009c.053-.075.127-.167.189-.241l.624-.734h.465l-.821.874.936,1.252h-.47l-.734-1.019-.2.22v.8h-.382v-3.118h.382Z" transform="translate(3.047 15.687)" fill="#333"/>
            </g>
            <g id="g124" transform="translate(42.25 21.377)">
              <path id="path126" d="M-10.473-6.309a.55.55,0,0,0-.536-.628.641.641,0,0,0-.593.628Zm-1.133.277a.681.681,0,0,0,.729.738,1.4,1.4,0,0,0,.589-.11l.066.277A1.72,1.72,0,0,1-10.929-5a.987.987,0,0,1-1.045-1.072,1.032,1.032,0,0,1,1-1.146.9.9,0,0,1,.878,1,1.464,1.464,0,0,1-.013.18Z" transform="translate(11.975 7.213)" fill="#333"/>
            </g>
            <g id="g128" transform="translate(45.544 20.591)">
              <path id="path130" d="M-2.695,0V1.752c0,.663.294.944.69.944.439,0,.72-.29.72-.944V0H-.9V1.726c0,.909-.479,1.282-1.12,1.282-.606,0-1.063-.347-1.063-1.265V0Z" transform="translate(3.081)" fill="#333"/>
            </g>
            <g id="g132" transform="translate(48.359 21.377)">
              <path id="path134" d="M-.122-4.348c0-.22,0-.4-.018-.575H.2l.022.351H.233a.782.782,0,0,1,.7-.4c.294,0,.751.176.751.9V-2.8H1.3V-4.023c0-.343-.127-.628-.492-.628a.549.549,0,0,0-.518.4.552.552,0,0,0-.026.18V-2.8H-.122Z" transform="translate(0.14 4.972)" fill="#333"/>
            </g>
            <path id="path136" d="M404.79-555.025h.387v2.125h-.387Zm.431-.6a.228.228,0,0,1-.246.237.23.23,0,0,1-.233-.237.235.235,0,0,1,.242-.241.229.229,0,0,1,.237.241" transform="translate(-353.976 576.451)" fill="#333"/>
            <g id="g138" transform="translate(51.6 20.815)">
              <path id="path140" d="M-4.93,0V.61h.554V.9H-4.93V2.051c0,.264.075.413.29.413a.858.858,0,0,0,.224-.026l.018.29a.95.95,0,0,1-.343.053.536.536,0,0,1-.417-.163.789.789,0,0,1-.149-.553V.9h-.33V.61h.33V.1Z" transform="translate(5.637)" fill="#333"/>
            </g>
            <g id="g142" transform="translate(18.063 60.599)">
              <path id="path144" d="M-.8-20.949a1.6,1.6,0,0,0,.809.228c.462,0,.732-.244.732-.6,0-.327-.187-.514-.659-.7-.571-.2-.924-.5-.924-.991a1.007,1.007,0,0,1,1.131-.95,1.586,1.586,0,0,1,.773.171l-.124.368a1.4,1.4,0,0,0-.664-.166c-.477,0-.659.285-.659.524,0,.327.213.488.7.675.592.228.893.514.893,1.027,0,.54-.4,1.007-1.225,1.007a1.807,1.807,0,0,1-.893-.223Z" transform="translate(0.911 23.953)" fill="#fc0603"/>
            </g>
            <g id="g146" transform="translate(20.482 60.92)">
              <path id="path148" d="M-5.826,0V.721h.654v.348h-.654V2.423c0,.311.088.488.342.488a1.024,1.024,0,0,0,.265-.031l.021.343a1.122,1.122,0,0,1-.4.062A.633.633,0,0,1-6.1,3.093a.931.931,0,0,1-.176-.654V1.069h-.389V.721h.389v-.6Z" transform="translate(6.661)" fill="#fc0603"/>
            </g>
            <g id="g150" transform="translate(22.465 61.585)">
              <path id="path152" d="M-.145-5.862c0-.3-.005-.55-.021-.784h.4l.016.493H.271a.753.753,0,0,1,.7-.55.5.5,0,0,1,.13.016v.431A.686.686,0,0,0,.94-6.272a.641.641,0,0,0-.612.586,1.288,1.288,0,0,0-.021.213v1.339H-.145Z" transform="translate(0.165 6.703)" fill="#fc0603"/>
            </g>
            <g id="g154" transform="translate(23.949 61.584)">
              <path id="path156" d="M-3.22-9.191c0,.55.317.965.763.965s.763-.41.763-.975c0-.425-.213-.965-.752-.965s-.773.5-.773.975m1.993-.026A1.227,1.227,0,0,1-2.478-7.884a1.194,1.194,0,0,1-1.2-1.292,1.226,1.226,0,0,1,1.245-1.334A1.189,1.189,0,0,1-1.227-9.217" transform="translate(3.681 10.509)" fill="#fc0603"/>
            </g>
            <g id="g158" transform="translate(26.98 60.469)">
              <path id="path160" d="M-3.148-16.21h.01c.062-.088.15-.2.223-.285l.737-.867h.55l-.97,1.033,1.105,1.479h-.555l-.867-1.2-.233.259v.945H-3.6v-3.684h.452Z" transform="translate(3.6 18.535)" fill="#fc0603"/>
            </g>
            <g id="g162" transform="translate(29.233 61.584)">
              <path id="path164" d="M-12.375-7.455a.65.65,0,0,0-.633-.742.757.757,0,0,0-.7.742Zm-1.339.327a.8.8,0,0,0,.861.872,1.652,1.652,0,0,0,.7-.13l.078.327a2.035,2.035,0,0,1-.835.156A1.166,1.166,0,0,1-14.149-7.17a1.219,1.219,0,0,1,1.178-1.354,1.064,1.064,0,0,1,1.038,1.183,1.722,1.722,0,0,1-.016.213Z" transform="translate(14.149 8.524)" fill="#fc0603"/>
            </g>
            <g id="g166" transform="translate(32.923 60.599)">
              <path id="path168" d="M-3.365-12.736c0,.747.4,1.417,1.116,1.417s1.121-.659,1.121-1.453c0-.7-.363-1.422-1.116-1.422s-1.121.69-1.121,1.458m2.714-.057a1.638,1.638,0,0,1-1.624,1.842,1.6,1.6,0,0,1-1.572-1.775,1.661,1.661,0,0,1,1.624-1.837A1.592,1.592,0,0,1-.651-12.793" transform="translate(3.848 14.563)" fill="#fc0603"/>
            </g>
            <g id="g170" transform="translate(36.67 61.584)">
              <path id="path172" d="M-.145-5.138c0-.259-.005-.472-.021-.68h.4L.265-5.4h.01a.924.924,0,0,1,.83-.472c.348,0,.887.208.887,1.069v1.5H1.537V-4.754c0-.4-.15-.742-.581-.742a.649.649,0,0,0-.613.467.657.657,0,0,0-.031.213v1.51H-.145Z" transform="translate(0.165 5.875)" fill="#fc0603"/>
            </g>
            <g id="g174" transform="translate(39.39 61.584)">
              <path id="path176" d="M-12.375-7.455a.65.65,0,0,0-.633-.742.757.757,0,0,0-.7.742Zm-1.339.327a.8.8,0,0,0,.862.872,1.652,1.652,0,0,0,.7-.13l.078.327a2.035,2.035,0,0,1-.835.156A1.166,1.166,0,0,1-14.149-7.17a1.219,1.219,0,0,1,1.178-1.354,1.064,1.064,0,0,1,1.038,1.183,1.69,1.69,0,0,1-.016.213Z" transform="translate(14.149 8.524)" fill="#fc0603"/>
            </g>
            <g id="g178" transform="translate(43.111 60.599)">
              <path id="path180" d="M-.8-20.949a1.6,1.6,0,0,0,.809.228c.462,0,.732-.244.732-.6,0-.327-.187-.514-.659-.7-.571-.2-.924-.5-.924-.991a1.007,1.007,0,0,1,1.131-.95,1.586,1.586,0,0,1,.773.171l-.124.368a1.4,1.4,0,0,0-.664-.166c-.477,0-.659.285-.659.524,0,.327.213.488.7.675.592.228.893.514.893,1.027,0,.54-.4,1.007-1.225,1.007a1.807,1.807,0,0,1-.893-.223Z" transform="translate(0.911 23.953)" fill="#fc0603"/>
            </g>
            <g id="g182" transform="translate(45.53 60.92)">
              <path id="path184" d="M-5.826,0V.721h.654v.348h-.654V2.423c0,.311.088.488.342.488a1.024,1.024,0,0,0,.265-.031l.021.343a1.122,1.122,0,0,1-.4.062A.633.633,0,0,1-6.1,3.093a.931.931,0,0,1-.176-.654V1.069h-.389V.721h.389v-.6Z" transform="translate(6.661)" fill="#fc0603"/>
            </g>
            <g id="g186" transform="translate(47.321 61.584)">
              <path id="path188" d="M-3.22-9.191c0,.55.317.965.763.965s.763-.41.763-.975c0-.425-.213-.965-.752-.965s-.773.5-.773.975m1.993-.026A1.227,1.227,0,0,1-2.478-7.884a1.194,1.194,0,0,1-1.2-1.292,1.226,1.226,0,0,1,1.245-1.334A1.189,1.189,0,0,1-1.227-9.217" transform="translate(3.681 10.509)" fill="#fc0603"/>
            </g>
            <g id="g190" transform="translate(50.331 61.584)">
              <path id="path192" d="M-3.293-10.783a1.029,1.029,0,0,0,.021.187.7.7,0,0,0,.685.534c.482,0,.763-.394.763-.97,0-.5-.265-.934-.747-.934a.728.728,0,0,0-.69.566.734.734,0,0,0-.031.187Zm-.452-.669c0-.322-.01-.581-.021-.82h.41l.021.431h.01a.988.988,0,0,1,.893-.488,1.138,1.138,0,0,1,1.064,1.277A1.189,1.189,0,0,1-2.51-9.7a.88.88,0,0,1-.773-.394h-.01v1.365h-.452Z" transform="translate(3.765 12.329)" fill="#fc0603"/>
            </g>
          </g>
        </g>
      </g>
    </g>
  </g>
</svg>
