<svg xmlns="http://www.w3.org/2000/svg" xmlns:xlink="http://www.w3.org/1999/xlink" width="128" height="128" viewBox="0 0 128 128">
  <defs>
    <clipPath id="clip-path">
      <rect id="Rectangle_3" data-name="Rectangle 3" width="71" height="96" transform="translate(-4 0)" fill="red" opacity="0.56"/>
    </clipPath>
    <clipPath id="clip-path-2">
      <path id="path16" d="M0-720H145.5v180.617H0Z" transform="translate(0 719.998)"/>
    </clipPath>
  </defs>
  <g id="Group_14" data-name="Group 14" transform="translate(-5609 2270)">
    <rect id="Rectangle_2" data-name="Rectangle 2" width="128" height="128" transform="translate(5609 -2270)" fill="#fff"/>
    <g id="Mask_Group_2" data-name="Mask Group 2" transform="translate(5641 -2254)" clip-path="url(#clip-path)">
      <g id="g10" transform="translate(-39.373 -37.585)">
        <g id="g12" transform="translate(0 0)">
          <g id="g14" clip-path="url(#clip-path-2)">
            <g id="g20" transform="translate(58.569 87.133)">
              <path id="path22" d="M-79.785-43.71c0,9.958-6.115,15.238-13.575,15.238-7.72,0-13.142-5.924-13.142-14.68,0-9.185,5.768-15.195,13.575-15.195,7.98,0,13.141,6.052,13.141,14.637" transform="translate(106.501 58.347)" fill="#fc0603"/>
            </g>
            <g id="g24" transform="translate(56.807 85.39)">
              <path id="path26" d="M-45.8-10.413c-7.066,0-11.813,5.406-11.813,13.451,0,7.738,4.573,12.936,11.38,12.936,7.177,0,11.813-5.3,11.813-13.495,0-7.832-4.467-12.893-11.38-12.893m-.433,29.874c-8.775,0-14.9-6.753-14.9-16.423C-61.137-6.935-54.83-13.9-45.8-13.9c8.775,0,14.9,6.736,14.9,16.38,0,11.731-7.7,16.981-15.337,16.981" transform="translate(61.137 13.9)" fill="#fc0603"/>
            </g>
            <g id="g28" transform="translate(63.76 93.381)">
              <path id="path30" d="M-21.827-6.2s0,0,0,0,0,0,0,0m-2.3-1.492a3.827,3.827,0,0,0-.87.609A11.124,11.124,0,0,0-28.528-.43C-28.8,1.754-28,3.534-27.07,4.164c.816.554,4.082-.175,5.043-1.288-.11-2.349.4-3.156.7-3.642.044-.07.084-.133.118-.2.088-.164.2-.346.326-.541a3.966,3.966,0,0,0,.795-1.933,3.853,3.853,0,0,0-.95.657,8,8,0,0,0-2.012,3c-.123.422-.449,1.106-.892.992-.39-.1-.439-.634-.172-1.844A6.077,6.077,0,0,1-22.8-3.412a3.212,3.212,0,0,0,1-2.6,3.232,3.232,0,0,0-.785.538A14.606,14.606,0,0,0-26.657,1.85l-.547-.032a9.436,9.436,0,0,1,1.729-6.361l.155-.225c.767-1.113,1.381-2,1.2-2.921M-26.1,4.9a2.33,2.33,0,0,1-1.278-.278c-1.035-.7-2.008-2.6-1.7-5.12a11.709,11.709,0,0,1,3.719-7c.463-.407,1.093-.867,1.466-.76a.386.386,0,0,1,.265.268c.358,1.221-.381,2.293-1.237,3.534l-.155.224A9.038,9.038,0,0,0-26.6-.313,15.272,15.272,0,0,1-22.968-5.87c.01-.009.962-.878,1.442-.71a.37.37,0,0,1,.247.3c.089.587.238,1.572-1.061,3.175A5.619,5.619,0,0,0-23.569-.509a6.257,6.257,0,0,0-.15.935,2.022,2.022,0,0,0,.141-.358A8.541,8.541,0,0,1-21.4-3.2c.741-.649,1.275-.915,1.592-.781a.452.452,0,0,1,.271.416,4.138,4.138,0,0,1-.876,2.353c-.116.183-.224.354-.307.508-.039.072-.085.146-.137.228-.293.465-.736,1.168-.615,3.423l.005.1-.061.081c-.744.981-3.006,1.757-4.578,1.766" transform="translate(29.137 8.272)" fill="#fff"/>
            </g>
            <g id="g32" transform="translate(65.198 91.009)">
              <path id="path34" d="M-32.016-71.487c-1.146-4.291,1.981-5.584,3.509-5.315,1.16.2,1.6-.472,1.419-.994s-.724-1.179-.551-1.412,1.314-.705-.026-1.182c.619-.295.908-.607.283-1.36a.768.768,0,0,1,.148-1.281c.193-.176.907-.842.692-1.074s-2.171-2.331-2.371-3.531-2.392-6.577-7.376-6.55a13.072,13.072,0,0,0-6.428,1.646,10.134,10.134,0,0,1,6.324-2.885,8.466,8.466,0,0,1,6.785,3.412c.937,1.256,1.417,4.083,2.141,5.107a19.531,19.531,0,0,0,2.223,2.43c.312.308.471.754.006,1.066s-1.082.645-1.138,1.092a2.139,2.139,0,0,0,.492,1.258c.156.193-.1.446-.617.838.584.441.734.659.626.887-.211.448-.871.432-.713.9s.746,1.623.244,2.169c-.752.819-2.75.185-3.6.557s-1.9,1.815-2.073,4.226" transform="translate(42.737 95.424)" fill="#fff"/>
            </g>
            <g id="g36" transform="translate(70.145 88.783)">
              <path id="path38" d="M-26.3,0l-2.182.012-3.357,3.277,2.5-.014-4,3.163,2.645-.015L-35.1,10.55-27.192,5.4l-3.041.017,4.25-3.033-2.845.016Z" transform="translate(35.101)" fill="#fff"/>
            </g>
            <g id="g40" transform="translate(61.649 94.321)">
              <path id="path42" d="M-28.53-61.675l-5.984.033c1.033-2.39,1.2-3.206,1.2-4.195-.01-1.784-4.733-3.793-4.767-9.977-.015-2.735,3.177-7.109,3.321-6.447.385,1.767-1.11,3.024-1.092,6.182.018,3.218,2.239,5.183,3.363,5.177s.924-4.58-1.575-7.766c.445-.408,2.411-.265,3.36,1.146.821,1.217,1.9,4.133,2.707,5.587a8.89,8.89,0,0,1,1.563,5.008c.009,1.687-.979,3.543-2.094,5.251" transform="translate(38.083 82.327)" fill="#fff"/>
            </g>
            <g id="g44" transform="translate(37.798 53.734)">
              <path id="path46" d="M-66.263-42.743c-.189-3.559-.417-7.838-.379-11.018h-.113c-.871,2.991-1.931,6.172-3.219,9.693l-4.505,12.382h-2.5l-4.127-12.154c-1.211-3.6-2.234-6.891-2.953-9.92h-.076c-.076,3.18-.265,7.459-.492,11.283l-.682,10.943h-3.143l1.78-25.521h4.2l4.354,12.344c1.06,3.143,1.931,5.945,2.575,8.6h.113c.644-2.575,1.552-5.377,2.689-8.6l4.544-12.344h4.2L-62.4-31.535h-3.219Z" transform="translate(88.452 57.056)" fill="#333"/>
            </g>
            <g id="g48" transform="translate(36.15 52.196)">
              <path id="path50" d="M-14.477-9.838h1.772l-.077-.218h-1.68Zm18.051,0H5.353l-.014-.218H3.654ZM-9.475-.681q.284.87.6,1.811L-7.763,4.4c-.306-.971-.649-2.017-1.034-3.157ZM-5.1,12.237h.32l.493-1.354H-5.561Zm-10.926.151h.049l.409-6.563Zm22.636,0h.13L5.767-3.188c.077,1.98.185,4.016.281,5.822Zm3.4,3.076H3.7L2.976,2.8c-.043-.808-.089-1.662-.132-2.537q-.29.815-.6,1.658L-2.627,15.313H-7.305l-4.482-13.2Q-12,1.49-12.194.9c-.039.73-.08,1.459-.123,2.178l-.772,12.39h-6.237l1.994-28.6h6.726L-5.889.238c.459,1.359.859,2.587,1.21,3.718C-4.312,2.829-3.894,1.6-3.413.238l4.921-13.37H8.229Z" transform="translate(19.325 13.132)" fill="#333"/>
            </g>
            <g id="g52" transform="translate(67.025 53.317)">
              <path id="path54" d="M-2.487-65.471A11.674,11.674,0,0,0,3.42-63.805c3.37,0,5.339-1.78,5.339-4.354,0-2.385-1.363-3.749-4.809-5.074-4.165-1.477-6.74-3.635-6.74-7.232,0-3.976,3.294-6.929,8.254-6.929a11.6,11.6,0,0,1,5.642,1.25L10.2-83.456a10.161,10.161,0,0,0-4.847-1.212c-3.484,0-4.809,2.082-4.809,3.824,0,2.385,1.552,3.559,5.074,4.922,4.316,1.666,6.513,3.748,6.513,7.5,0,3.938-2.916,7.345-8.936,7.345A13.19,13.19,0,0,1-3.32-62.707Z" transform="translate(3.32 87.394)" fill="#333"/>
            </g>
            <g id="g56" transform="translate(65.224 51.78)">
              <path id="path58" d="M-14.617-16.113a4.893,4.893,0,0,0-1.025,3.071c0,1.749.65,3.987,5.716,5.783l.038.014C-6.879-6.087-4.094-4.5-4.094-.735A5.556,5.556,0,0,1-5.258,2.772,5.236,5.236,0,0,0-3.8-1c0-3.272-2.115-4.745-5.529-6.062-3.066-1.187-6.058-2.655-6.058-6.357a5.11,5.11,0,0,1,.769-2.693m3.419,24A14.724,14.724,0,0,1-18.564,6l-.948-.632L-17.774-.4l1.7,1.048a10.143,10.143,0,0,0,5.1,1.438c1.143,0,3.8-.275,3.8-2.817,0-1.184-.287-2.275-3.8-3.631-5.211-1.852-7.744-4.69-7.744-8.675,0-4.906,4.118-8.467,9.792-8.467a12.956,12.956,0,0,1,6.4,1.449l1.106.626-1.9,5.627-1.607-.877a8.576,8.576,0,0,0-4.11-1.024c-2.412,0-3.271,1.181-3.271,2.286,0,1.151.285,2.015,4.091,3.488C-1.576-7.367-.724-3.812-.724-1c0,4.422-3.239,8.883-10.474,8.883" transform="translate(19.512 21.508)" fill="#333"/>
            </g>
            <g id="g60" transform="translate(85.365 53.734)">
              <path id="path62" d="M-9.951,0V15.108c0,5.718,2.537,8.141,5.945,8.141,3.787,0,6.21-2.5,6.21-8.141V0H5.536V14.881c0,7.838-4.127,11.056-9.655,11.056-5.225,0-9.163-2.991-9.163-10.9V0Z" transform="translate(13.283)" fill="#333"/>
            </g>
            <g id="g64" transform="translate(83.827 52.196)">
              <path id="path66" d="M-55.434-9.185V4.384a12.272,12.272,0,0,1-1.861,6.925c1.4-1.6,2.117-4,2.117-7.152V-9.185Zm-15.486,0V4.309c0,4,1.062,6.73,3.167,8.169-1.872-1.613-2.911-4.4-2.911-8.093V-9.185Zm7.625,25.937c-6.8,0-10.7-4.535-10.7-12.443v-16.57h6.408V4.384c0,3.012.765,6.6,4.407,6.6,1.156,0,4.672,0,4.672-6.6V-12.261H-52.1V4.157c0,8-4.08,12.594-11.193,12.594" transform="translate(73.996 12.261)" fill="#333"/>
            </g>
            <g id="g68" transform="translate(38.168 87.078)">
              <path id="path70" d="M-2.82-74.216a13.232,13.232,0,0,0,6.7,1.888c3.82,0,6.052-2.017,6.052-4.936,0-2.7-1.545-4.249-5.451-5.752-4.721-1.674-7.64-4.12-7.64-8.2,0-4.507,3.734-7.855,9.357-7.855a13.142,13.142,0,0,1,6.4,1.417L11.559-94.6a11.52,11.52,0,0,0-5.494-1.374c-3.948,0-5.451,2.361-5.451,4.335,0,2.7,1.76,4.035,5.752,5.58,4.893,1.889,7.383,4.249,7.383,8.5,0,4.464-3.3,8.327-10.13,8.327a14.953,14.953,0,0,1-7.383-1.846Z" transform="translate(3.764 99.068)" fill="#fc0603"/>
            </g>
            <g id="g72" transform="translate(36.126 85.334)">
              <path id="path74" d="M-16.567-18.268a5.548,5.548,0,0,0-1.161,3.481c0,1.982.737,4.519,6.479,6.555l.043.016C-7.794-6.9-4.637-5.1-4.637-.838a6.3,6.3,0,0,1-1.32,3.977A5.938,5.938,0,0,0-4.3-1.138c0-3.708-2.4-5.379-6.267-6.872-3.476-1.346-6.867-3.01-6.867-7.206a5.792,5.792,0,0,1,.871-3.052m3.877,27.2A16.694,16.694,0,0,1-21.04,6.794l-1.075-.716,1.971-6.54L-18.215.725a11.5,11.5,0,0,0,5.782,1.63c1.3,0,4.309-.311,4.309-3.193,0-1.39-.318-2.576-4.313-4.116-5.906-2.1-8.778-5.317-8.778-9.834,0-5.561,4.668-9.6,11.1-9.6A14.684,14.684,0,0,1-2.86-22.742l1.254.71-2.156,6.378-1.822-.993a9.722,9.722,0,0,0-4.659-1.161c-2.734,0-3.708,1.339-3.708,2.592,0,1.3.323,2.284,4.638,3.954,7.531,2.907,8.5,6.938,8.5,10.124,0,5.012-3.671,10.07-11.873,10.07" transform="translate(22.115 24.385)" fill="#fc0603"/>
            </g>
            <g id="g76" transform="translate(87.228 87.078)">
              <path id="path78" d="M-2.82-74.216a13.232,13.232,0,0,0,6.7,1.888c3.82,0,6.052-2.017,6.052-4.936,0-2.7-1.545-4.249-5.451-5.752-4.721-1.674-7.64-4.12-7.64-8.2,0-4.507,3.734-7.855,9.357-7.855a13.142,13.142,0,0,1,6.4,1.417L11.559-94.6a11.52,11.52,0,0,0-5.494-1.374c-3.948,0-5.451,2.361-5.451,4.335,0,2.7,1.76,4.035,5.752,5.58,4.893,1.889,7.383,4.249,7.383,8.5,0,4.464-3.3,8.327-10.13,8.327a14.953,14.953,0,0,1-7.383-1.846Z" transform="translate(3.764 99.068)" fill="#fc0603"/>
            </g>
            <g id="g80" transform="translate(85.186 85.334)">
              <path id="path82" d="M-16.567-18.268a5.548,5.548,0,0,0-1.161,3.481c0,1.982.737,4.519,6.479,6.555l.043.016C-7.794-6.9-4.637-5.1-4.637-.838a6.3,6.3,0,0,1-1.32,3.977A5.938,5.938,0,0,0-4.3-1.138c0-3.708-2.4-5.379-6.267-6.872-3.476-1.346-6.867-3.01-6.867-7.206a5.792,5.792,0,0,1,.871-3.052m3.877,27.2A16.694,16.694,0,0,1-21.04,6.794l-1.075-.716,1.971-6.54L-18.215.725a11.5,11.5,0,0,0,5.782,1.63c1.3,0,4.309-.311,4.309-3.193,0-1.39-.318-2.576-4.313-4.116-5.906-2.1-8.778-5.317-8.778-9.834,0-5.561,4.668-9.6,11.1-9.6A14.684,14.684,0,0,1-2.86-22.742l1.254.71-2.156,6.378-1.822-.993a9.722,9.722,0,0,0-4.659-1.161c-2.734,0-3.708,1.339-3.708,2.592,0,1.3.323,2.284,4.638,3.954,7.531,2.907,8.5,6.938,8.5,10.124,0,5.012-3.671,10.07-11.873,10.07" transform="translate(22.115 24.385)" fill="#fc0603"/>
            </g>
            <g id="g84" transform="translate(38.409 41.183)">
              <path id="path86" d="M-15.37-9.915c-.044-.825-.1-1.818-.088-2.556h-.026c-.2.694-.448,1.432-.747,2.249L-17.277-7.35h-.579l-.958-2.819c-.281-.835-.518-1.6-.685-2.3h-.018c-.017.738-.061,1.731-.114,2.618l-.158,2.538h-.729l.413-5.92h.975l1.01,2.863c.246.729.448,1.379.6,1.994h.026c.149-.6.36-1.247.624-1.994l1.054-2.863h.975l.369,5.92h-.746Z" transform="translate(20.517 13.235)" fill="#333"/>
            </g>
            <g id="g88" transform="translate(45.348 42.755)">
              <path id="path90" d="M-2.334-6.662c0,.931.536,1.634,1.291,1.634.738,0,1.291-.694,1.291-1.651,0-.72-.36-1.634-1.274-1.634s-1.309.843-1.309,1.651m3.373-.044A2.078,2.078,0,0,1-1.078-4.449,2.021,2.021,0,0,1-3.116-6.636,2.076,2.076,0,0,1-1.008-8.893,2.013,2.013,0,0,1,1.038-6.706" transform="translate(3.116 8.893)" fill="#333"/>
            </g>
            <g id="g92" transform="translate(50.443 40.867)">
              <path id="path94" d="M-2.387-13.534a1.457,1.457,0,0,0,.035.281,1.193,1.193,0,0,0,1.159.9c.808,0,1.291-.659,1.291-1.634,0-.852-.439-1.581-1.265-1.581a1.233,1.233,0,0,0-1.177.949,1.561,1.561,0,0,0-.044.316Zm-.8,1.7c.018-.29.035-.72.035-1.1v-5.138h.764v2.67h.018A1.583,1.583,0,0,1-.92-16.178,1.908,1.908,0,0,1,.872-14.009a2.02,2.02,0,0,1-1.906,2.275,1.515,1.515,0,0,1-1.423-.8h-.026l-.035.7Z" transform="translate(3.187 18.067)" fill="#333"/>
            </g>
            <path id="path96" d="M220.859-554.187h.773v4.251h-.773Zm.86-1.195a.457.457,0,0,1-.492.474.46.46,0,0,1-.465-.474.471.471,0,0,1,.483-.483.459.459,0,0,1,.474.483" transform="translate(-165.383 597.038)" fill="#333"/>
            <path id="path98" d="M229.342-557.091h.773v6.236h-.773Z" transform="translate(-171.81 597.957)" fill="#333"/>
            <g id="g100" transform="translate(59.298 42.755)">
              <path id="path102" d="M-8.971-5.4A1.1,1.1,0,0,0-10.042-6.66,1.281,1.281,0,0,0-11.228-5.4Zm-2.266.553A1.362,1.362,0,0,0-9.779-3.375,2.793,2.793,0,0,0-8.6-3.595l.131.553a3.437,3.437,0,0,1-1.414.264,1.974,1.974,0,0,1-2.09-2.143A2.064,2.064,0,0,1-9.981-7.213a1.8,1.8,0,0,1,1.757,2,2.876,2.876,0,0,1-.026.36Z" transform="translate(11.975 7.213)" fill="#333"/>
            </g>
            <g id="g104" transform="translate(65.596 41.086)">
              <path id="path106" d="M-.577-15.187a2.709,2.709,0,0,0,1.37.387c.782,0,1.239-.413,1.239-1.01,0-.554-.316-.87-1.116-1.177C-.05-17.33-.648-17.83-.648-18.664a1.7,1.7,0,0,1,1.915-1.607,2.687,2.687,0,0,1,1.308.29l-.211.623a2.354,2.354,0,0,0-1.124-.281c-.808,0-1.115.483-1.115.887,0,.553.36.825,1.177,1.142,1,.387,1.51.87,1.51,1.739,0,.913-.676,1.7-2.073,1.7a3.061,3.061,0,0,1-1.511-.378Z" transform="translate(0.771 20.272)" fill="#333"/>
            </g>
            <g id="g108" transform="translate(69.689 41.631)">
              <path id="path110" d="M-4.223,0V1.221h1.106V1.81H-4.223V4.1c0,.527.149.826.579.826A1.715,1.715,0,0,0-3.2,4.875l.035.58a1.9,1.9,0,0,1-.685.105,1.071,1.071,0,0,1-.834-.325,1.574,1.574,0,0,1-.3-1.107V1.81h-.659V1.221h.659V.2Z" transform="translate(5.637)" fill="#333"/>
            </g>
            <g id="g112" transform="translate(73.045 42.755)">
              <path id="path114" d="M-.1-4.249c0-.5-.009-.931-.035-1.326H.536l.026.835H.6a1.276,1.276,0,0,1,1.177-.931.828.828,0,0,1,.219.026v.729a1.168,1.168,0,0,0-.263-.026A1.084,1.084,0,0,0,.695-3.95a2.159,2.159,0,0,0-.035.36v2.266H-.1Z" transform="translate(0.14 5.672)" fill="#333"/>
            </g>
            <g id="g116" transform="translate(75.557 42.755)">
              <path id="path118" d="M-2.334-6.662c0,.931.536,1.634,1.291,1.634.738,0,1.291-.694,1.291-1.651,0-.72-.36-1.634-1.274-1.634s-1.309.843-1.309,1.651m3.373-.044A2.078,2.078,0,0,1-1.078-4.449,2.021,2.021,0,0,1-3.116-6.636,2.076,2.076,0,0,1-1.008-8.893,2.013,2.013,0,0,1,1.038-6.706" transform="translate(3.116 8.893)" fill="#333"/>
            </g>
            <g id="g120" transform="translate(80.687 40.866)">
              <path id="path122" d="M-2.282-11.752h.017c.105-.149.255-.334.378-.483L-.64-13.7H.291l-1.642,1.748L.52-9.45H-.42l-1.467-2.038-.4.439v1.6h-.764v-6.236h.764Z" transform="translate(3.047 15.687)" fill="#333"/>
            </g>
            <g id="g124" transform="translate(84.499 42.755)">
              <path id="path126" d="M-8.971-5.4A1.1,1.1,0,0,0-10.042-6.66,1.282,1.282,0,0,0-11.228-5.4Zm-2.266.553A1.362,1.362,0,0,0-9.779-3.375,2.793,2.793,0,0,0-8.6-3.595l.132.553a3.44,3.44,0,0,1-1.414.264,1.974,1.974,0,0,1-2.09-2.143A2.064,2.064,0,0,1-9.981-7.213a1.8,1.8,0,0,1,1.757,2,2.929,2.929,0,0,1-.026.36Z" transform="translate(11.975 7.213)" fill="#333"/>
            </g>
            <g id="g128" transform="translate(91.087 41.183)">
              <path id="path130" d="M-2.308,0V3.5c0,1.326.589,1.888,1.379,1.888.878,0,1.44-.58,1.44-1.888V0h.773V3.452c0,1.818-.958,2.565-2.24,2.565-1.212,0-2.126-.694-2.126-2.53V0Z" transform="translate(3.081)" fill="#333"/>
            </g>
            <g id="g132" transform="translate(96.718 42.755)">
              <path id="path134" d="M-.1-3.725c0-.439-.009-.8-.035-1.151H.545l.044.7H.606a1.564,1.564,0,0,1,1.405-.8c.589,0,1.5.351,1.5,1.81V-.624H2.741V-3.075c0-.685-.255-1.256-.984-1.256a1.1,1.1,0,0,0-1.037.79,1.1,1.1,0,0,0-.053.36V-.624H-.1Z" transform="translate(0.14 4.972)" fill="#333"/>
            </g>
            <path id="path136" d="M404.838-554.187h.773v4.251h-.773Zm.861-1.195a.457.457,0,0,1-.492.474.46.46,0,0,1-.466-.474.471.471,0,0,1,.483-.483.459.459,0,0,1,.475.483" transform="translate(-303.21 597.038)" fill="#333"/>
            <g id="g138" transform="translate(103.201 41.631)">
              <path id="path140" d="M-4.223,0V1.221h1.107V1.81H-4.223V4.1c0,.527.15.826.58.826A1.716,1.716,0,0,0-3.2,4.875l.035.58a1.9,1.9,0,0,1-.685.105,1.073,1.073,0,0,1-.835-.325,1.578,1.578,0,0,1-.3-1.107V1.81h-.659V1.221h.659V.2Z" transform="translate(5.637)" fill="#333"/>
            </g>
            <g id="g142" transform="translate(36.126 121.197)">
              <path id="path144" d="M-.682-17.944a3.2,3.2,0,0,0,1.619.457c.924,0,1.463-.488,1.463-1.193,0-.654-.373-1.028-1.318-1.391-1.142-.4-1.847-1-1.847-1.982a2.014,2.014,0,0,1,2.262-1.9,3.172,3.172,0,0,1,1.546.343l-.249.737a2.789,2.789,0,0,0-1.329-.332c-.955,0-1.318.571-1.318,1.048,0,.654.426.976,1.391,1.35,1.183.457,1.785,1.028,1.785,2.055,0,1.08-.8,2.014-2.45,2.014a3.614,3.614,0,0,1-1.785-.446Z" transform="translate(0.911 23.953)" fill="#fc0603"/>
            </g>
            <g id="g146" transform="translate(40.964 121.84)">
              <path id="path148" d="M-4.99,0V1.443h1.307v.7H-4.99V4.847c0,.623.176.976.685.976a2.048,2.048,0,0,0,.529-.062l.041.685a2.244,2.244,0,0,1-.81.124,1.265,1.265,0,0,1-.986-.384,1.862,1.862,0,0,1-.353-1.308V2.138h-.779v-.7h.779V.239Z" transform="translate(6.661)" fill="#fc0603"/>
            </g>
            <g id="g150" transform="translate(44.929 123.169)">
              <path id="path152" d="M-.124-5.021c0-.592-.01-1.1-.041-1.567h.8L.665-5.6H.707A1.507,1.507,0,0,1,2.1-6.7a.99.99,0,0,1,.26.031v.862a1.371,1.371,0,0,0-.311-.031A1.281,1.281,0,0,0,.821-4.668a2.576,2.576,0,0,0-.041.425v2.678h-.9Z" transform="translate(0.165 6.703)" fill="#fc0603"/>
            </g>
            <g id="g154" transform="translate(47.898 123.169)">
              <path id="path156" d="M-2.758-7.873c0,1.1.633,1.93,1.526,1.93.872,0,1.526-.82,1.526-1.951,0-.851-.425-1.93-1.5-1.93s-1.547,1-1.547,1.951m3.985-.052a2.455,2.455,0,0,1-2.5,2.667A2.388,2.388,0,0,1-3.681-7.842,2.453,2.453,0,0,1-1.19-10.509,2.379,2.379,0,0,1,1.227-7.925" transform="translate(3.681 10.509)" fill="#fc0603"/>
            </g>
            <g id="g158" transform="translate(53.96 120.938)">
              <path id="path160" d="M-2.7-13.885h.021c.125-.176.3-.394.446-.571l1.474-1.733h1.1L-1.6-14.124.614-11.166H-.5L-2.23-13.574l-.467.519v1.889h-.9v-7.369h.9Z" transform="translate(3.6 18.535)" fill="#fc0603"/>
            </g>
            <g id="g162" transform="translate(58.466 123.169)">
              <path id="path164" d="M-10.6-6.386A1.3,1.3,0,0,0-11.866-7.87a1.514,1.514,0,0,0-1.4,1.484Zm-2.678.654a1.61,1.61,0,0,0,1.723,1.744,3.3,3.3,0,0,0,1.391-.26l.156.654a4.071,4.071,0,0,1-1.671.311,2.333,2.333,0,0,1-2.47-2.532,2.439,2.439,0,0,1,2.356-2.709A2.129,2.129,0,0,1-9.718-6.157a3.445,3.445,0,0,1-.031.425Z" transform="translate(14.149 8.524)" fill="#fc0603"/>
            </g>
            <g id="g166" transform="translate(65.846 121.197)">
              <path id="path168" d="M-2.883-10.909c0,1.494.809,2.833,2.231,2.833s2.242-1.318,2.242-2.906c0-1.39-.726-2.844-2.231-2.844s-2.242,1.38-2.242,2.917m5.428-.114c0,2.408-1.463,3.685-3.248,3.685-1.847,0-3.145-1.432-3.145-3.549,0-2.221,1.38-3.674,3.249-3.674,1.909,0,3.144,1.463,3.144,3.539" transform="translate(3.848 14.563)" fill="#fc0603"/>
            </g>
            <g id="g170" transform="translate(73.341 123.169)">
              <path id="path172" d="M-.124-4.4c0-.519-.01-.944-.041-1.359H.644L.7-4.93h.02a1.847,1.847,0,0,1,1.661-.945c.7,0,1.775.415,1.775,2.138v3H3.239v-2.9c0-.81-.3-1.484-1.162-1.484a1.3,1.3,0,0,0-1.225.934,1.315,1.315,0,0,0-.062.426v3.02H-.124Z" transform="translate(0.165 5.875)" fill="#fc0603"/>
            </g>
            <g id="g174" transform="translate(78.78 123.169)">
              <path id="path176" d="M-10.6-6.386A1.3,1.3,0,0,0-11.866-7.87a1.514,1.514,0,0,0-1.4,1.484Zm-2.678.654a1.61,1.61,0,0,0,1.723,1.744,3.3,3.3,0,0,0,1.39-.26l.156.654a4.07,4.07,0,0,1-1.671.311,2.333,2.333,0,0,1-2.47-2.532,2.439,2.439,0,0,1,2.356-2.709A2.128,2.128,0,0,1-9.718-6.157a3.379,3.379,0,0,1-.031.425Z" transform="translate(14.149 8.524)" fill="#fc0603"/>
            </g>
            <g id="g178" transform="translate(86.223 121.197)">
              <path id="path180" d="M-.682-17.944a3.2,3.2,0,0,0,1.619.457c.924,0,1.463-.488,1.463-1.193,0-.654-.373-1.028-1.318-1.391-1.142-.4-1.847-1-1.847-1.982a2.014,2.014,0,0,1,2.262-1.9,3.172,3.172,0,0,1,1.546.343l-.249.737a2.789,2.789,0,0,0-1.329-.332c-.955,0-1.318.571-1.318,1.048,0,.654.426.976,1.391,1.35,1.183.457,1.785,1.028,1.785,2.055,0,1.08-.8,2.014-2.45,2.014a3.614,3.614,0,0,1-1.785-.446Z" transform="translate(0.911 23.953)" fill="#fc0603"/>
            </g>
            <g id="g182" transform="translate(91.06 121.84)">
              <path id="path184" d="M-4.99,0V1.443h1.307v.7H-4.99V4.847c0,.623.176.976.685.976a2.048,2.048,0,0,0,.529-.062l.041.685a2.244,2.244,0,0,1-.81.124,1.265,1.265,0,0,1-.986-.384,1.862,1.862,0,0,1-.353-1.308V2.138h-.779v-.7h.779V.239Z" transform="translate(6.661)" fill="#fc0603"/>
            </g>
            <g id="g186" transform="translate(94.642 123.169)">
              <path id="path188" d="M-2.758-7.873c0,1.1.633,1.93,1.526,1.93.872,0,1.526-.82,1.526-1.951,0-.851-.425-1.93-1.5-1.93s-1.547,1-1.547,1.951m3.985-.052a2.455,2.455,0,0,1-2.5,2.667A2.388,2.388,0,0,1-3.681-7.842,2.453,2.453,0,0,1-1.19-10.509,2.379,2.379,0,0,1,1.227-7.925" transform="translate(3.681 10.509)" fill="#fc0603"/>
            </g>
            <g id="g190" transform="translate(100.662 123.169)">
              <path id="path192" d="M-2.821-9.236a2.058,2.058,0,0,0,.041.374,1.409,1.409,0,0,0,1.37,1.069c.965,0,1.526-.789,1.526-1.941,0-1.007-.529-1.868-1.494-1.868a1.457,1.457,0,0,0-1.38,1.131,1.468,1.468,0,0,0-.063.374Zm-.9-1.339c0-.643-.021-1.162-.041-1.64h.82l.041.862h.02A1.975,1.975,0,0,1-1.1-12.329,2.276,2.276,0,0,1,1.03-9.776c0,1.806-1.1,2.7-2.283,2.7A1.76,1.76,0,0,1-2.8-7.866h-.021v2.73h-.9Z" transform="translate(3.765 12.329)" fill="#fc0603"/>
            </g>
          </g>
        </g>
      </g>
    </g>
  </g>
</svg>
