<svg xmlns="http://www.w3.org/2000/svg" xmlns:xlink="http://www.w3.org/1999/xlink" width="24" height="24" viewBox="0 0 24 24">
  <defs>
    <clipPath id="clip-path">
      <rect id="Rectangle_3" data-name="Rectangle 3" width="14" height="18" transform="translate(-1 0)" fill="red" opacity="0.56"/>
    </clipPath>
    <clipPath id="clip-path-2">
      <path id="path16" d="M0-720H27.281v33.866H0Z" transform="translate(0 719.998)"/>
    </clipPath>
  </defs>
  <g id="Group_11" data-name="Group 11" transform="translate(-5609 2270)">
    <rect id="Rectangle_2" data-name="Rectangle 2" width="24" height="24" transform="translate(5609 -2270)" fill="#fff"/>
    <g id="Mask_Group_2" data-name="Mask Group 2" transform="translate(5615 -2267)" clip-path="url(#clip-path)">
      <g id="g10" transform="translate(-7.383 -7.047)">
        <g id="g12" transform="translate(0 0)">
          <g id="g14" clip-path="url(#clip-path-2)">
            <g id="g20" transform="translate(10.982 16.337)">
              <path id="path22" d="M-101.492-55.6a2.552,2.552,0,0,1-2.545,2.857A2.5,2.5,0,0,1-106.5-55.5a2.587,2.587,0,0,1,2.545-2.849,2.48,2.48,0,0,1,2.464,2.744" transform="translate(106.501 58.347)" fill="#fc0603"/>
            </g>
            <g id="g24" transform="translate(10.651 16.011)">
              <path id="path26" d="M-58.262-13.246a2.256,2.256,0,0,0-2.215,2.522A2.171,2.171,0,0,0-58.343-8.3a2.237,2.237,0,0,0,2.215-2.53,2.144,2.144,0,0,0-2.134-2.417m-.081,5.6a2.819,2.819,0,0,1-2.794-3.079A2.905,2.905,0,0,1-58.262-13.9a2.815,2.815,0,0,1,2.794,3.071,2.872,2.872,0,0,1-2.876,3.184" transform="translate(61.137 13.9)" fill="#fc0603"/>
            </g>
            <g id="g28" transform="translate(11.955 17.509)">
              <path id="path30" d="M-27.766-7.883h0m-.431-.28a.717.717,0,0,0-.163.114A2.086,2.086,0,0,0-29.022-6.8a.932.932,0,0,0,.273.861,1.122,1.122,0,0,0,.945-.242,1.022,1.022,0,0,1,.132-.683c.008-.013.016-.025.022-.037.017-.031.038-.065.061-.1a.744.744,0,0,0,.149-.362.722.722,0,0,0-.178.123,1.5,1.5,0,0,0-.377.563c-.023.079-.084.207-.167.186s-.082-.119-.032-.346a1.139,1.139,0,0,1,.245-.522.6.6,0,0,0,.188-.487.606.606,0,0,0-.147.1,2.739,2.739,0,0,0-.763,1.372l-.1-.006a1.769,1.769,0,0,1,.324-1.193l.029-.042c.144-.209.259-.376.224-.548M-28.568-5.8a.437.437,0,0,1-.24-.052,1.02,1.02,0,0,1-.318-.96,2.2,2.2,0,0,1,.7-1.312c.087-.076.2-.163.275-.142a.072.072,0,0,1,.05.05c.067.229-.071.43-.232.663l-.029.042a1.7,1.7,0,0,0-.3.735,2.864,2.864,0,0,1,.681-1.042s.18-.165.27-.133a.069.069,0,0,1,.046.057.677.677,0,0,1-.2.6,1.054,1.054,0,0,0-.23.486,1.173,1.173,0,0,0-.028.175.379.379,0,0,0,.027-.067,1.6,1.6,0,0,1,.409-.612c.139-.122.239-.172.3-.146a.085.085,0,0,1,.051.078.776.776,0,0,1-.164.441c-.022.034-.042.066-.058.1-.007.013-.016.027-.026.043a.939.939,0,0,0-.115.642v.019l-.011.015a1.285,1.285,0,0,1-.858.331" transform="translate(29.137 8.272)" fill="#fff"/>
            </g>
            <g id="g32" transform="translate(12.225 17.064)">
              <path id="path34" d="M-40.727-90.936c-.215-.8.372-1.047.658-1,.218.038.3-.088.266-.186s-.136-.221-.1-.265.246-.132,0-.222c.116-.055.17-.114.053-.255a.144.144,0,0,1,.028-.24c.036-.033.17-.158.13-.2a2.026,2.026,0,0,1-.445-.662c-.038-.225-.449-1.233-1.383-1.228a2.451,2.451,0,0,0-1.205.309,1.9,1.9,0,0,1,1.186-.541,1.587,1.587,0,0,1,1.272.64c.176.235.266.766.4.958a3.662,3.662,0,0,0,.417.456c.059.058.088.141,0,.2s-.2.121-.213.2a.4.4,0,0,0,.092.236c.029.036-.018.084-.116.157.109.083.138.124.117.166-.04.084-.163.081-.134.168s.14.3.046.407c-.141.154-.516.035-.675.1a.922.922,0,0,0-.389.792" transform="translate(42.737 95.424)" fill="#fff"/>
            </g>
            <g id="g36" transform="translate(13.152 16.647)">
              <path id="path38" d="M-33.45,0l-.409,0-.629.614.468,0-.75.593.5,0-.827.774,1.483-.967-.57,0,.8-.569-.533,0Z" transform="translate(35.101)" fill="#fff"/>
            </g>
            <g id="g40" transform="translate(11.559 17.685)">
              <path id="path42" d="M-36.292-78.455l-1.122.006a1.81,1.81,0,0,0,.225-.786c0-.335-.887-.711-.894-1.871,0-.513.6-1.333.623-1.209.072.331-.208.567-.2,1.159a.936.936,0,0,0,.631.971c.211,0,.173-.859-.3-1.456a.54.54,0,0,1,.63.215c.154.228.356.775.508,1.048a1.667,1.667,0,0,1,.293.939,1.957,1.957,0,0,1-.393.985" transform="translate(38.083 82.327)" fill="#fff"/>
            </g>
            <g id="g44" transform="translate(7.087 10.075)">
              <path id="path46" d="M-84.291-54.372c-.036-.667-.078-1.47-.071-2.066h-.021c-.163.561-.362,1.157-.6,1.817l-.845,2.322H-86.3l-.774-2.279c-.227-.674-.419-1.292-.554-1.86h-.014c-.014.6-.05,1.4-.092,2.116l-.128,2.052h-.589l.334-4.785h.788l.816,2.314c.2.589.362,1.115.483,1.612h.021c.121-.483.291-1.008.5-1.612l.852-2.314h.788l.3,4.785h-.6Z" transform="translate(88.452 57.056)" fill="#333"/>
            </g>
            <g id="g48" transform="translate(6.778 9.787)">
              <path id="path50" d="M-18.416-12.514h.332l-.014-.041h-.315Zm3.385,0h.334l0-.041h-.316ZM-17.478-10.8q.053.163.113.34l.208.613c-.057-.182-.122-.378-.194-.592Zm.82,2.422h.06l.092-.254h-.239Zm-2.049.028h.009l.077-1.231Zm4.244,0h.024l-.182-2.921c.014.371.035.753.053,1.092Zm.638.577h-1.183l-.136-2.374c-.008-.152-.017-.312-.025-.476q-.054.153-.112.311L-16.194-7.8h-.877l-.84-2.475-.076-.228c-.007.137-.015.274-.023.408l-.145,2.323h-1.169l.374-5.362h1.261l.884,2.507c.086.255.161.485.227.7.069-.211.147-.442.237-.7l.923-2.507h1.26Z" transform="translate(19.325 13.132)" fill="#333"/>
            </g>
            <g id="g52" transform="translate(12.567 9.997)">
              <path id="path54" d="M-3.164-83.284a2.189,2.189,0,0,0,1.108.312c.632,0,1-.334,1-.816,0-.447-.256-.7-.9-.951-.781-.277-1.264-.682-1.264-1.356a1.378,1.378,0,0,1,1.548-1.3,2.175,2.175,0,0,1,1.058.234l-.17.5a1.905,1.905,0,0,0-.909-.227c-.653,0-.9.39-.9.717,0,.447.291.667.951.923.809.312,1.221.7,1.221,1.406,0,.738-.547,1.377-1.676,1.377a2.473,2.473,0,0,1-1.221-.305Z" transform="translate(3.32 87.394)" fill="#333"/>
            </g>
            <g id="g56" transform="translate(12.229 9.709)">
              <path id="path58" d="M-18.594-20.5a.917.917,0,0,0-.192.576c0,.328.122.747,1.072,1.084l.007,0c.564.217,1.086.515,1.086,1.22a1.042,1.042,0,0,1-.218.658.982.982,0,0,0,.273-.707c0-.613-.4-.89-1.037-1.137-.575-.223-1.136-.5-1.136-1.192a.958.958,0,0,1,.144-.5m.641,4.5a2.761,2.761,0,0,1-1.381-.354l-.178-.119.326-1.082.319.2a1.9,1.9,0,0,0,.956.27c.214,0,.713-.051.713-.528,0-.222-.054-.427-.713-.681-.977-.347-1.452-.879-1.452-1.627a1.668,1.668,0,0,1,1.836-1.588,2.429,2.429,0,0,1,1.2.272l.207.117-.357,1.055-.3-.164a1.608,1.608,0,0,0-.771-.192c-.452,0-.613.221-.613.429s.053.378.767.654c1.246.481,1.405,1.147,1.405,1.675A1.726,1.726,0,0,1-17.953-16" transform="translate(19.512 21.508)" fill="#333"/>
            </g>
            <g id="g60" transform="translate(16.006 10.075)">
              <path id="path62" d="M-12.658,0V2.833c0,1.072.476,1.526,1.115,1.526.71,0,1.164-.469,1.164-1.526V0h.625V2.79c0,1.47-.774,2.073-1.81,2.073-.98,0-1.718-.561-1.718-2.045V0Z" transform="translate(13.283)" fill="#333"/>
            </g>
            <g id="g64" transform="translate(15.718 9.787)">
              <path id="path66" d="M-70.515-11.685V-9.14a2.3,2.3,0,0,1-.349,1.3,1.993,1.993,0,0,0,.4-1.341v-2.5Zm-2.9,0v2.53a1.734,1.734,0,0,0,.594,1.532,1.939,1.939,0,0,1-.546-1.517v-2.544Zm1.43,4.863c-1.275,0-2.006-.85-2.006-2.333v-3.107h1.2V-9.14c0,.565.143,1.238.826,1.238.217,0,.876,0,.876-1.238v-3.121h1.2v3.079c0,1.5-.765,2.361-2.1,2.361" transform="translate(73.996 12.261)" fill="#333"/>
            </g>
            <g id="g68" transform="translate(7.157 16.327)">
              <path id="path70" d="M-3.587-94.408a2.481,2.481,0,0,0,1.255.354c.716,0,1.135-.378,1.135-.925,0-.507-.29-.8-1.022-1.078-.885-.314-1.432-.773-1.432-1.537A1.562,1.562,0,0,1-1.9-99.068,2.464,2.464,0,0,1-.7-98.8l-.193.571a2.16,2.16,0,0,0-1.03-.258c-.74,0-1.022.443-1.022.813,0,.507.33.757,1.078,1.046.917.354,1.384.8,1.384,1.593,0,.837-.62,1.561-1.9,1.561a2.8,2.8,0,0,1-1.384-.346Z" transform="translate(3.764 99.068)" fill="#fc0603"/>
            </g>
            <g id="g72" transform="translate(6.774 16)">
              <path id="path74" d="M-21.074-23.238a1.04,1.04,0,0,0-.218.653c0,.372.138.847,1.215,1.229l.008,0c.64.246,1.232.584,1.232,1.383a1.182,1.182,0,0,1-.247.746,1.113,1.113,0,0,0,.31-.8c0-.7-.45-1.009-1.175-1.289-.652-.252-1.288-.564-1.288-1.351a1.086,1.086,0,0,1,.163-.572m.727,5.1a3.13,3.13,0,0,1-1.566-.4l-.2-.134.37-1.226.362.223a2.156,2.156,0,0,0,1.084.306c.243,0,.808-.058.808-.6,0-.261-.06-.483-.809-.772-1.107-.394-1.646-1-1.646-1.844a1.891,1.891,0,0,1,2.081-1.8,2.753,2.753,0,0,1,1.36.308l.235.133-.4,1.2-.342-.186a1.823,1.823,0,0,0-.874-.218c-.513,0-.7.251-.7.486s.061.428.87.741c1.412.545,1.593,1.3,1.593,1.9a1.957,1.957,0,0,1-2.226,1.888" transform="translate(22.115 24.385)" fill="#fc0603"/>
            </g>
            <g id="g76" transform="translate(16.355 16.327)">
              <path id="path78" d="M-3.587-94.408a2.481,2.481,0,0,0,1.255.354c.716,0,1.135-.378,1.135-.925,0-.507-.29-.8-1.022-1.078-.885-.314-1.432-.773-1.432-1.537A1.562,1.562,0,0,1-1.9-99.068,2.464,2.464,0,0,1-.7-98.8l-.193.571a2.16,2.16,0,0,0-1.03-.258c-.74,0-1.022.443-1.022.813,0,.507.33.757,1.078,1.046.917.354,1.384.8,1.384,1.593,0,.837-.62,1.561-1.9,1.561a2.8,2.8,0,0,1-1.384-.346Z" transform="translate(3.764 99.068)" fill="#fc0603"/>
            </g>
            <g id="g80" transform="translate(15.972 16)">
              <path id="path82" d="M-21.074-23.238a1.04,1.04,0,0,0-.218.653c0,.372.138.847,1.215,1.229l.008,0c.64.246,1.232.584,1.232,1.383a1.182,1.182,0,0,1-.247.746,1.113,1.113,0,0,0,.31-.8c0-.7-.45-1.009-1.175-1.289-.652-.252-1.288-.564-1.288-1.351a1.086,1.086,0,0,1,.163-.572m.727,5.1a3.13,3.13,0,0,1-1.566-.4l-.2-.134.37-1.226.362.223a2.156,2.156,0,0,0,1.084.306c.243,0,.808-.058.808-.6,0-.261-.06-.483-.809-.772-1.107-.394-1.646-1-1.646-1.844a1.891,1.891,0,0,1,2.081-1.8,2.753,2.753,0,0,1,1.36.308l.235.133-.4,1.2-.342-.186a1.823,1.823,0,0,0-.874-.218c-.513,0-.7.251-.7.486s.061.428.87.741c1.412.545,1.593,1.3,1.593,1.9a1.957,1.957,0,0,1-2.226,1.888" transform="translate(22.115 24.385)" fill="#fc0603"/>
            </g>
            <g id="g84" transform="translate(7.202 7.722)">
              <path id="path86" d="M-19.552-12.612c-.008-.155-.018-.341-.016-.479h0c-.038.13-.084.268-.14.422l-.2.539h-.109l-.18-.529c-.053-.156-.1-.3-.128-.432h0c0,.138-.011.324-.021.491l-.03.476h-.137l.077-1.11h.183l.189.537c.046.137.084.259.112.374h0c.028-.112.067-.234.117-.374l.2-.537h.183l.069,1.11h-.14Z" transform="translate(20.517 13.235)" fill="#333"/>
            </g>
            <g id="g88" transform="translate(8.503 8.017)">
              <path id="path90" d="M-2.969-8.475c0,.175.1.306.242.306s.242-.13.242-.31c0-.135-.068-.306-.239-.306s-.245.158-.245.31m.632-.008a.39.39,0,0,1-.4.423.379.379,0,0,1-.382-.41.389.389,0,0,1,.4-.423.377.377,0,0,1,.384.41" transform="translate(3.116 8.893)" fill="#333"/>
            </g>
            <g id="g92" transform="translate(9.458 7.662)">
              <path id="path94" d="M-3.037-17.217a.273.273,0,0,0,.007.053.224.224,0,0,0,.217.17c.152,0,.242-.123.242-.306,0-.16-.082-.3-.237-.3a.231.231,0,0,0-.221.178.293.293,0,0,0-.008.059Zm-.15.319c0-.054.007-.135.007-.206v-.963h.143v.5h0a.3.3,0,0,1,.272-.147.358.358,0,0,1,.336.407.379.379,0,0,1-.357.427.284.284,0,0,1-.267-.15h0l-.007.132Z" transform="translate(3.187 18.067)" fill="#333"/>
            </g>
            <path id="path96" d="M220.78-555.549h.145v.8h-.145Zm.161-.224a.086.086,0,0,1-.092.089.086.086,0,0,1-.087-.089.088.088,0,0,1,.091-.091.086.086,0,0,1,.089.091" transform="translate(-210.378 563.584)" fill="#333"/>
            <path id="path98" d="M229.342-557.091h.145v1.169h-.145Z" transform="translate(-218.555 564.753)" fill="#333"/>
            <g id="g100" transform="translate(11.118 8.017)">
              <path id="path102" d="M-11.411-6.874a.206.206,0,0,0-.2-.235.24.24,0,0,0-.222.235Zm-.425.1a.255.255,0,0,0,.273.277.524.524,0,0,0,.221-.041l.025.1a.644.644,0,0,1-.265.049.37.37,0,0,1-.392-.4.387.387,0,0,1,.374-.43.338.338,0,0,1,.329.376.539.539,0,0,1,0,.067Z" transform="translate(11.975 7.213)" fill="#333"/>
            </g>
            <g id="g104" transform="translate(12.299 7.704)">
              <path id="path106" d="M-.734-19.318a.508.508,0,0,0,.257.072c.147,0,.232-.077.232-.189S-.3-19.6-.454-19.656c-.181-.064-.293-.158-.293-.315a.32.32,0,0,1,.359-.3.5.5,0,0,1,.245.054l-.04.117a.441.441,0,0,0-.211-.053c-.152,0-.209.091-.209.166,0,.1.068.155.221.214.188.072.283.163.283.326s-.127.319-.389.319A.574.574,0,0,1-.771-19.2Z" transform="translate(0.771 20.272)" fill="#333"/>
            </g>
            <g id="g108" transform="translate(13.067 7.806)">
              <path id="path110" d="M-5.372,0V.229h.207v.11h-.207v.43c0,.1.028.155.109.155A.322.322,0,0,0-5.18.914l.007.109a.356.356,0,0,1-.128.02A.2.2,0,0,1-5.458.982.3.3,0,0,1-5.514.774V.339h-.123V.229h.123V.038Z" transform="translate(5.637)" fill="#333"/>
            </g>
            <g id="g112" transform="translate(13.696 8.017)">
              <path id="path114" d="M-.133-5.405c0-.094,0-.175-.007-.249h.127l0,.156H0a.239.239,0,0,1,.221-.175.155.155,0,0,1,.041,0v.137a.219.219,0,0,0-.049,0,.2.2,0,0,0-.194.186.4.4,0,0,0-.007.068v.425H-.133Z" transform="translate(0.14 5.672)" fill="#333"/>
            </g>
            <g id="g116" transform="translate(14.167 8.017)">
              <path id="path118" d="M-2.969-8.475c0,.175.1.306.242.306s.242-.13.242-.31c0-.135-.068-.306-.239-.306s-.245.158-.245.31m.632-.008a.39.39,0,0,1-.4.423.379.379,0,0,1-.382-.41.389.389,0,0,1,.4-.423.377.377,0,0,1,.384.41" transform="translate(3.116 8.893)" fill="#333"/>
            </g>
            <g id="g120" transform="translate(15.129 7.662)">
              <path id="path122" d="M-2.9-14.949h0c.02-.028.048-.063.071-.091l.234-.275h.174l-.308.328.351.469h-.176l-.275-.382-.074.082v.3h-.143v-1.169H-2.9Z" transform="translate(3.047 15.687)" fill="#333"/>
            </g>
            <g id="g124" transform="translate(15.844 8.017)">
              <path id="path126" d="M-11.411-6.874a.206.206,0,0,0-.2-.235.24.24,0,0,0-.222.235Zm-.425.1a.255.255,0,0,0,.273.277.524.524,0,0,0,.221-.041l.025.1a.645.645,0,0,1-.265.049.37.37,0,0,1-.392-.4.387.387,0,0,1,.374-.43.338.338,0,0,1,.329.376.549.549,0,0,1,0,.067Z" transform="translate(11.975 7.213)" fill="#333"/>
            </g>
            <g id="g128" transform="translate(17.079 7.722)">
              <path id="path130" d="M-2.936,0V.657c0,.249.11.354.259.354.165,0,.27-.109.27-.354V0h.145V.647c0,.341-.18.481-.42.481s-.4-.13-.4-.474V0Z" transform="translate(3.081)" fill="#333"/>
            </g>
            <g id="g132" transform="translate(18.135 8.017)">
              <path id="path134" d="M-.133-4.738c0-.082,0-.15-.007-.216h.128L0-4.822H0a.293.293,0,0,1,.264-.15c.11,0,.282.066.282.339v.476H.4v-.46c0-.128-.048-.235-.184-.235A.206.206,0,0,0,.021-4.7a.207.207,0,0,0-.01.068v.479H-.133Z" transform="translate(0.14 4.972)" fill="#333"/>
            </g>
            <path id="path136" d="M404.76-555.549h.145v.8h-.145Zm.161-.224a.086.086,0,0,1-.092.089.086.086,0,0,1-.087-.089.088.088,0,0,1,.091-.091.086.086,0,0,1,.089.091" transform="translate(-385.704 563.584)" fill="#333"/>
            <g id="g138" transform="translate(19.35 7.806)">
              <path id="path140" d="M-5.372,0V.229h.208v.11h-.208v.43c0,.1.028.155.109.155a.322.322,0,0,0,.084-.01l.007.109a.356.356,0,0,1-.129.02A.2.2,0,0,1-5.458.982.3.3,0,0,1-5.514.774V.339h-.124V.229h.124V.038Z" transform="translate(5.637)" fill="#333"/>
            </g>
            <g id="g142" transform="translate(6.774 22.724)">
              <path id="path144" d="M-.868-22.827a.6.6,0,0,0,.3.086c.173,0,.274-.091.274-.224s-.07-.193-.247-.261c-.214-.076-.346-.187-.346-.372a.378.378,0,0,1,.424-.356.6.6,0,0,1,.29.064l-.047.138a.523.523,0,0,0-.249-.062c-.179,0-.247.107-.247.2,0,.123.08.183.261.253.222.086.335.193.335.385s-.15.378-.459.378a.678.678,0,0,1-.335-.084Z" transform="translate(0.911 23.953)" fill="#fc0603"/>
            </g>
            <g id="g146" transform="translate(7.681 22.845)">
              <path id="path148" d="M-6.348,0V.27H-6.1V.4h-.245V.909c0,.117.033.183.128.183a.384.384,0,0,0,.1-.012l.008.128a.421.421,0,0,1-.152.023.237.237,0,0,1-.185-.072A.349.349,0,0,1-6.515.915V.4h-.146V.27h.146V.045Z" transform="translate(6.661)" fill="#fc0603"/>
            </g>
            <g id="g150" transform="translate(8.424 23.094)">
              <path id="path152" d="M-.158-6.387c0-.111,0-.206-.008-.294h.15L-.01-6.5H0A.283.283,0,0,1,.259-6.7.186.186,0,0,1,.308-6.7v.162a.257.257,0,0,0-.058-.006.24.24,0,0,0-.23.22.483.483,0,0,0-.008.08v.5H-.158Z" transform="translate(0.165 6.703)" fill="#fc0603"/>
            </g>
            <g id="g154" transform="translate(8.981 23.094)">
              <path id="path156" d="M-3.508-10.015c0,.206.119.362.286.362s.286-.154.286-.366c0-.16-.08-.362-.282-.362s-.29.187-.29.366m.747-.01a.46.46,0,0,1-.469.5.448.448,0,0,1-.451-.485.46.46,0,0,1,.467-.5.446.446,0,0,1,.453.485" transform="translate(3.681 10.509)" fill="#fc0603"/>
            </g>
            <g id="g158" transform="translate(10.118 22.676)">
              <path id="path160" d="M-3.431-17.663h0c.023-.033.056-.074.084-.107l.276-.325h.206l-.364.387.414.555h-.208l-.325-.451-.088.1v.354H-3.6v-1.382h.169Z" transform="translate(3.6 18.535)" fill="#fc0603"/>
            </g>
            <g id="g162" transform="translate(10.962 23.094)">
              <path id="path164" d="M-13.484-8.123a.244.244,0,0,0-.237-.278.284.284,0,0,0-.263.278Zm-.5.123a.3.3,0,0,0,.323.327.62.62,0,0,0,.261-.049l.029.123a.763.763,0,0,1-.313.058.437.437,0,0,1-.463-.475.457.457,0,0,1,.442-.508.4.4,0,0,1,.389.444.646.646,0,0,1-.006.08Z" transform="translate(14.149 8.524)" fill="#fc0603"/>
            </g>
            <g id="g166" transform="translate(12.346 22.724)">
              <path id="path168" d="M-3.667-13.878c0,.28.152.531.418.531s.42-.247.42-.545c0-.261-.136-.533-.418-.533s-.42.259-.42.547m1.018-.021a.614.614,0,0,1-.609.691.6.6,0,0,1-.59-.666.623.623,0,0,1,.609-.689.6.6,0,0,1,.59.664" transform="translate(3.848 14.563)" fill="#fc0603"/>
            </g>
            <g id="g170" transform="translate(13.751 23.094)">
              <path id="path172" d="M-.158-5.6c0-.1,0-.177-.008-.255h.152L0-5.7H0a.346.346,0,0,1,.311-.177c.13,0,.333.078.333.4v.562H.473v-.543c0-.152-.056-.278-.218-.278a.243.243,0,0,0-.23.175.247.247,0,0,0-.012.08v.566H-.158Z" transform="translate(0.165 5.875)" fill="#fc0603"/>
            </g>
            <g id="g174" transform="translate(14.771 23.094)">
              <path id="path176" d="M-13.484-8.123a.244.244,0,0,0-.237-.278.284.284,0,0,0-.263.278Zm-.5.123a.3.3,0,0,0,.323.327.62.62,0,0,0,.261-.049l.029.123a.763.763,0,0,1-.313.058.437.437,0,0,1-.463-.475.457.457,0,0,1,.442-.508.4.4,0,0,1,.389.444.634.634,0,0,1-.006.08Z" transform="translate(14.149 8.524)" fill="#fc0603"/>
            </g>
            <g id="g178" transform="translate(16.167 22.724)">
              <path id="path180" d="M-.868-22.827a.6.6,0,0,0,.3.086c.173,0,.274-.091.274-.224s-.07-.193-.247-.261c-.214-.076-.346-.187-.346-.372a.378.378,0,0,1,.424-.356.6.6,0,0,1,.29.064l-.047.138a.523.523,0,0,0-.249-.062c-.179,0-.247.107-.247.2,0,.123.08.183.261.253.222.086.335.193.335.385s-.15.378-.459.378a.678.678,0,0,1-.335-.084Z" transform="translate(0.911 23.953)" fill="#fc0603"/>
            </g>
            <g id="g182" transform="translate(17.074 22.845)">
              <path id="path184" d="M-6.348,0V.27H-6.1V.4h-.245V.909c0,.117.033.183.128.183a.384.384,0,0,0,.1-.012l.008.128a.421.421,0,0,1-.152.023.237.237,0,0,1-.185-.072A.349.349,0,0,1-6.515.915V.4h-.146V.27h.146V.045Z" transform="translate(6.661)" fill="#fc0603"/>
            </g>
            <g id="g186" transform="translate(17.745 23.094)">
              <path id="path188" d="M-3.508-10.015c0,.206.119.362.286.362s.286-.154.286-.366c0-.16-.08-.362-.282-.362s-.29.187-.29.366m.747-.01a.46.46,0,0,1-.469.5.448.448,0,0,1-.451-.485.46.46,0,0,1,.467-.5.446.446,0,0,1,.453.485" transform="translate(3.681 10.509)" fill="#fc0603"/>
            </g>
            <g id="g190" transform="translate(18.874 23.094)">
              <path id="path192" d="M-3.588-11.749a.386.386,0,0,0,.008.07.264.264,0,0,0,.257.2c.181,0,.286-.148.286-.364,0-.189-.1-.35-.28-.35a.273.273,0,0,0-.259.212.275.275,0,0,0-.012.07ZM-3.758-12c0-.121,0-.218-.008-.307h.154l.008.162h0a.37.37,0,0,1,.335-.183.427.427,0,0,1,.4.479.446.446,0,0,1-.428.506.33.33,0,0,1-.29-.148h0v.512h-.169Z" transform="translate(3.765 12.329)" fill="#fc0603"/>
            </g>
          </g>
        </g>
      </g>
    </g>
  </g>
</svg>
