<svg xmlns="http://www.w3.org/2000/svg" xmlns:xlink="http://www.w3.org/1999/xlink" width="256" height="256" viewBox="0 0 256 256">
  <defs>
    <clipPath id="clip-path">
      <rect id="Rectangle_3" data-name="Rectangle 3" width="143" height="192" transform="translate(-9.243 -0.122)" fill="red" opacity="0.56"/>
    </clipPath>
    <clipPath id="clip-path-2">
      <path id="path16" d="M0-720H290.947v361.177H0Z" transform="translate(0 719.998)"/>
    </clipPath>
  </defs>
  <g id="Group_15" data-name="Group 15" transform="translate(-5609 2270.041)">
    <rect id="Rectangle_2" data-name="Rectangle 2" width="256" height="256" transform="translate(5609 -2270.041)" fill="#fff"/>
    <g id="Mask_Group_2" data-name="Mask Group 2" transform="translate(5673.243 -2237.919)" clip-path="url(#clip-path)">
      <g id="g10" transform="translate(-78.988 -75.245)">
        <g id="g12" transform="translate(0 0)">
          <g id="g14" clip-path="url(#clip-path-2)">
            <g id="g20" transform="translate(117.12 174.239)">
              <path id="path22" d="M-53.077-29.078c0,19.914-12.229,30.471-27.146,30.471-15.438,0-26.279-11.845-26.279-29.355,0-18.368,11.535-30.385,27.146-30.385,15.958,0,26.279,12.1,26.279,29.269" transform="translate(106.501 58.347)" fill="#fc0603"/>
            </g>
            <g id="g24" transform="translate(113.597 170.753)">
              <path id="path26" d="M-30.469-6.927c-14.129,0-23.623,10.81-23.623,26.9,0,15.473,9.145,25.869,22.756,25.869,14.351,0,23.623-10.593,23.623-26.985,0-15.662-8.932-25.782-22.756-25.782m-.867,59.739c-17.546,0-29.8-13.5-29.8-32.841C-61.137.029-48.526-13.9-30.469-13.9c17.547,0,29.8,13.469,29.8,32.755,0,23.458-15.4,33.957-30.669,33.957" transform="translate(61.137 13.9)" fill="#fc0603"/>
            </g>
            <g id="g28" transform="translate(127.5 186.733)">
              <path id="path30" d="M-14.521-4.123s0,0,0,0,0,0,0,0m-4.592-2.984a7.652,7.652,0,0,0-1.739,1.218,22.245,22.245,0,0,0-7.068,13.3C-28.46,11.776-26.862,15.336-25,16.6c1.633,1.107,8.163-.35,10.084-2.576-.219-4.7.8-6.312,1.409-7.283.088-.14.169-.267.235-.391.177-.328.406-.692.652-1.082A7.931,7.931,0,0,0-11.035,1.4a7.7,7.7,0,0,0-1.9,1.314,16.005,16.005,0,0,0-4.023,6c-.247.845-.9,2.213-1.784,1.984-.78-.2-.879-1.269-.343-3.688a12.153,12.153,0,0,1,2.613-5.567c2.1-2.591,2.142-4.1,2.005-5.19a6.464,6.464,0,0,0-1.57,1.075,29.207,29.207,0,0,0-8.141,14.636l-1.094-.064A18.87,18.87,0,0,1-21.816-.816l.31-.45c1.534-2.227,2.762-4.006,2.394-5.841M-23.07,18.068a4.66,4.66,0,0,1-2.555-.556c-2.07-1.4-4.016-5.206-3.393-10.239A23.414,23.414,0,0,1-21.582-6.721c.925-.813,2.185-1.734,2.932-1.52a.772.772,0,0,1,.53.535c.715,2.442-.762,4.586-2.473,7.068l-.309.449a18.074,18.074,0,0,0-3.162,7.834A30.539,30.539,0,0,1-16.8-3.468c.019-.018,1.923-1.756,2.883-1.421a.739.739,0,0,1,.493.6c.177,1.174.476,3.144-2.122,6.349A11.237,11.237,0,0,0-18,7.252a12.512,12.512,0,0,0-.3,1.869A4.044,4.044,0,0,0-18.02,8.4a17.08,17.08,0,0,1,4.358-6.527c1.482-1.3,2.55-1.83,3.184-1.562a.9.9,0,0,1,.542.833c.118,1.746-.918,3.387-1.751,4.706-.231.367-.447.708-.613,1.015-.078.144-.171.293-.274.457-.586.93-1.471,2.336-1.229,6.846l.011.2-.122.161c-1.487,1.962-6.01,3.513-9.155,3.531" transform="translate(29.137 8.272)" fill="#fff"/>
            </g>
            <g id="g32" transform="translate(130.375 181.99)">
              <path id="path34" d="M-21.3-47.556c-2.291-8.58,3.962-11.166,7.016-10.628,2.32.409,3.19-.944,2.838-1.988s-1.448-2.357-1.1-2.823,2.627-1.41-.052-2.364c1.237-.589,1.815-1.213.567-2.719a1.535,1.535,0,0,1,.3-2.561c.385-.352,1.813-1.683,1.383-2.148s-4.341-4.661-4.742-7.061S-19.88-93-29.844-92.946A26.14,26.14,0,0,0-42.7-89.655c1.49-1.617,6.959-5.738,12.646-5.769A16.929,16.929,0,0,1-16.484-88.6c1.873,2.511,2.835,8.165,4.281,10.213a39.057,39.057,0,0,0,4.446,4.859c.625.616.941,1.508.011,2.132s-2.163,1.29-2.275,2.183A4.278,4.278,0,0,0-9.036-66.7c.312.385-.191.891-1.234,1.675,1.167.883,1.467,1.318,1.253,1.774-.423.9-1.741.863-1.425,1.792s1.491,3.246.489,4.338c-1.5,1.639-5.5.369-7.2,1.113s-3.809,3.629-4.145,8.45" transform="translate(42.737 95.424)" fill="#fff"/>
            </g>
            <g id="g36" transform="translate(140.269 177.539)">
              <path id="path38" d="M-17.493,0l-4.363.024-6.713,6.553,4.992-.027-8,6.326,5.29-.029L-35.1,21.1l15.816-10.308-6.082.034,8.5-6.066-5.689.032Z" transform="translate(35.101)" fill="#fff"/>
            </g>
            <g id="g40" transform="translate(123.279 188.613)">
              <path id="path42" d="M-18.979-41.029l-11.967.066c2.066-4.78,2.407-6.411,2.4-8.388-.019-3.568-9.464-7.584-9.532-19.95-.03-5.468,6.353-14.216,6.641-12.891.77,3.533-2.219,6.047-2.184,12.362.035,6.435,4.477,10.364,6.725,10.352s1.848-9.159-3.15-15.529c.889-.817,4.82-.529,6.72,2.291,1.643,2.433,3.8,8.265,5.413,11.172,2.094,3.778,3.1,5.788,3.126,10.015.019,3.373-1.957,7.085-4.188,10.5" transform="translate(38.083 82.327)" fill="#fff"/>
            </g>
            <g id="g44" transform="translate(75.585 107.451)">
              <path id="path46" d="M-44.081-28.435c-.379-7.117-.833-15.673-.758-22.033h-.227c-1.742,5.981-3.861,12.341-6.436,19.383L-60.511-6.325h-5L-73.763-30.63c-2.422-7.193-4.467-13.78-5.906-19.837h-.151c-.151,6.36-.53,14.916-.984,22.563L-82.167-6.022h-6.285l3.559-51.034h8.4l8.707,24.684c2.12,6.285,3.862,11.888,5.15,17.188h.227c1.287-5.149,3.1-10.752,5.376-17.188l9.086-24.684h8.4l3.181,51.034h-6.436Z" transform="translate(88.452 57.056)" fill="#333"/>
            </g>
            <g id="g48" transform="translate(72.288 104.376)">
              <path id="path50" d="M-9.631-6.545h3.544l-.154-.437H-9.6Zm36.1,0h3.558L30-6.981h-3.37ZM.372,11.765q.569,1.74,1.2,3.622L3.8,21.924c-.612-1.942-1.3-4.032-2.067-6.314ZM9.118,37.6h.64l.985-2.708H8.2Zm-21.849.3h.1l.817-13.124Zm45.264,0h.26L30.851,6.752c.153,3.96.37,8.031.562,11.643Zm6.806,6.151H26.725L25.271,18.728c-.086-1.616-.177-3.323-.265-5.073q-.58,1.629-1.2,3.315L14.065,43.749H4.711L-4.252,17.357q-.42-1.25-.813-2.437c-.078,1.459-.16,2.917-.245,4.356L-6.854,44.052H-19.325l3.988-57.184H-1.888L7.543,13.6c.917,2.718,1.717,5.173,2.42,7.435.733-2.253,1.57-4.709,2.532-7.435l9.841-26.736H35.775Z" transform="translate(19.325 13.132)" fill="#333"/>
            </g>
            <g id="g52" transform="translate(134.03 106.618)">
              <path id="path54" d="M-1.655-43.554a23.344,23.344,0,0,0,11.812,3.332c6.739,0,10.676-3.559,10.676-8.708,0-4.77-2.726-7.5-9.616-10.146C2.888-62.029-2.26-66.345-2.26-73.539c0-7.95,6.587-13.856,16.506-13.856a23.194,23.194,0,0,1,11.282,2.5L23.711-79.52a20.318,20.318,0,0,0-9.692-2.423C7.053-81.943,4.4-77.779,4.4-74.3c0,4.769,3.1,7.117,10.146,9.843,8.631,3.332,13.023,7.5,13.023,14.992,0,7.874-5.83,14.688-17.87,14.688-4.921,0-10.3-1.439-13.022-3.255Z" transform="translate(3.32 87.394)" fill="#333"/>
            </g>
            <g id="g56" transform="translate(130.427 103.543)">
              <path id="path58" d="M-9.724-10.719a9.784,9.784,0,0,0-2.05,6.142c0,3.5,1.3,7.972,11.43,11.564l.076.028C5.75,9.33,11.319,12.508,11.319,20.031a11.111,11.111,0,0,1-2.328,7.014A10.471,10.471,0,0,0,11.907,19.5c0-6.542-4.23-9.489-11.055-12.123C-5.279,5.005-11.262,2.069-11.262-5.334a10.218,10.218,0,0,1,1.538-5.385m6.838,47.984c-5.341,0-11.4-1.551-14.729-3.772l-1.9-1.264,3.476-11.536,3.4,2.095a20.283,20.283,0,0,0,10.2,2.875c2.285,0,7.6-.549,7.6-5.632,0-2.368-.574-4.549-7.607-7.261-10.42-3.7-15.486-9.379-15.486-17.347,0-9.811,8.235-16.931,19.582-16.931,6.684,0,10.887,1.815,12.8,2.9l2.212,1.253-3.8,11.252L9.648-7.858A17.15,17.15,0,0,0,1.43-9.906c-4.822,0-6.541,2.362-6.541,4.572,0,2.3.569,4.029,8.181,6.975C16.354,6.769,18.058,13.879,18.058,19.5c0,8.842-6.477,17.764-20.945,17.764" transform="translate(19.512 21.508)" fill="#333"/>
            </g>
            <g id="g60" transform="translate(170.704 107.451)">
              <path id="path62" d="M-6.62,0V30.211c0,11.433,5.073,16.279,11.887,16.279,7.572,0,12.418-5,12.418-16.279V0h6.663V29.757c0,15.673-8.253,22.109-19.308,22.109-10.449,0-18.324-5.981-18.324-21.806V0Z" transform="translate(13.283)" fill="#333"/>
            </g>
            <g id="g64" transform="translate(167.629 104.376)">
              <path id="path66" d="M-36.877-6.111V21.025c0,3.4-.514,9.419-3.721,13.847,2.8-3.2,4.234-8,4.234-14.3V-6.111Zm-30.968,0V20.873c0,8,2.124,13.458,6.333,16.335-3.744-3.226-5.821-8.8-5.821-16.183V-6.111ZM-52.6,45.755c-13.6,0-21.4-9.069-21.4-24.882V-12.261h12.814V21.025c0,6.024,1.529,13.2,8.812,13.2,2.311,0,9.342,0,9.342-13.2V-12.261h12.814V20.571c0,16-8.158,25.184-22.383,25.184" transform="translate(73.996 12.261)" fill="#333"/>
            </g>
            <g id="g68" transform="translate(76.325 174.129)">
              <path id="path70" d="M-1.876-49.372A26.46,26.46,0,0,0,11.514-45.6c7.639,0,12.1-4.034,12.1-9.87,0-5.408-3.09-8.5-10.9-11.5C3.274-70.315-2.562-75.207-2.562-83.361c0-9.013,7.467-15.707,18.71-15.707,5.923,0,10.215,1.373,12.789,2.833l-2.06,6.094a23.036,23.036,0,0,0-10.986-2.747c-7.9,0-10.9,4.721-10.9,8.669,0,5.408,3.519,8.068,11.5,11.158,9.785,3.777,14.763,8.5,14.763,16.994,0,8.927-6.609,16.652-20.256,16.652-5.579,0-11.673-1.631-14.763-3.691Z" transform="translate(3.764 99.068)" fill="#fc0603"/>
            </g>
            <g id="g72" transform="translate(72.241 170.642)">
              <path id="path74" d="M-11.021-12.153a11.1,11.1,0,0,0-2.322,6.961c0,3.964,1.473,9.037,12.956,13.108l.087.032C6.522,10.572,12.835,14.175,12.835,22.7A12.6,12.6,0,0,1,10.2,30.655,11.874,11.874,0,0,0,13.5,22.1C13.5,14.687,8.706,11.346.969,8.36-5.981,5.669-12.763,2.342-12.763-6.05a11.583,11.583,0,0,1,1.742-6.1m7.753,54.392c-6.053,0-12.919-1.758-16.7-4.275l-2.15-1.433,3.941-13.077,3.858,2.374a22.991,22.991,0,0,0,11.562,3.26c2.59,0,8.616-.622,8.616-6.385,0-2.78-.635-5.151-8.624-8.231C-14.573,10.273-20.315,3.84-20.315-5.192c0-11.121,9.335-19.193,22.2-19.193,7.579,0,12.342,2.059,14.507,3.286l2.507,1.42L14.584-6.925,10.94-8.912a19.442,19.442,0,0,0-9.316-2.322c-5.467,0-7.415,2.677-7.415,5.183,0,2.607.645,4.567,9.274,7.907C18.543,7.67,20.474,15.73,20.474,22.1c0,10.023-7.341,20.137-23.743,20.137" transform="translate(22.115 24.385)" fill="#fc0603"/>
            </g>
            <g id="g76" transform="translate(174.428 174.129)">
              <path id="path78" d="M-1.876-49.372A26.46,26.46,0,0,0,11.514-45.6c7.639,0,12.1-4.034,12.1-9.87,0-5.408-3.09-8.5-10.9-11.5C3.274-70.315-2.562-75.207-2.562-83.361c0-9.013,7.467-15.707,18.71-15.707,5.923,0,10.215,1.373,12.789,2.833l-2.06,6.094a23.036,23.036,0,0,0-10.986-2.747c-7.9,0-10.9,4.721-10.9,8.669,0,5.408,3.519,8.068,11.5,11.158,9.785,3.777,14.763,8.5,14.763,16.994,0,8.927-6.609,16.652-20.256,16.652-5.579,0-11.673-1.631-14.763-3.691Z" transform="translate(3.764 99.068)" fill="#fc0603"/>
            </g>
            <g id="g80" transform="translate(170.345 170.642)">
              <path id="path82" d="M-11.021-12.153a11.1,11.1,0,0,0-2.322,6.961c0,3.964,1.473,9.037,12.956,13.108l.087.032C6.522,10.572,12.835,14.175,12.835,22.7A12.6,12.6,0,0,1,10.2,30.655,11.874,11.874,0,0,0,13.5,22.1C13.5,14.687,8.706,11.346.969,8.36-5.981,5.669-12.763,2.342-12.763-6.05a11.583,11.583,0,0,1,1.742-6.1m7.753,54.392c-6.053,0-12.919-1.758-16.7-4.275l-2.15-1.433,3.941-13.077,3.858,2.374a22.991,22.991,0,0,0,11.562,3.26c2.59,0,8.616-.622,8.616-6.385,0-2.78-.635-5.151-8.624-8.231C-14.573,10.273-20.315,3.84-20.315-5.192c0-11.121,9.335-19.193,22.2-19.193,7.579,0,12.342,2.059,14.507,3.286l2.507,1.42L14.584-6.925,10.94-8.912a19.442,19.442,0,0,0-9.316-2.322c-5.467,0-7.415,2.677-7.415,5.183,0,2.607.645,4.567,9.274,7.907C18.543,7.67,20.474,15.73,20.474,22.1c0,10.023-7.341,20.137-23.743,20.137" transform="translate(22.115 24.385)" fill="#fc0603"/>
            </g>
            <g id="g84" transform="translate(76.806 82.353)">
              <path id="path86" d="M-10.225-6.6c-.088-1.651-.193-3.636-.176-5.111h-.053c-.4,1.388-.9,2.863-1.493,4.5l-2.09,5.743H-15.2L-17.11-7.1c-.562-1.669-1.036-3.2-1.37-4.6h-.035c-.035,1.475-.122,3.461-.228,5.234L-19.059-1.4h-1.458l.825-11.838h1.95l2.019,5.726c.492,1.457.9,2.757,1.195,3.987h.053c.3-1.195.72-2.494,1.247-3.987l2.108-5.726h1.95L-8.434-1.4H-9.926Z" transform="translate(20.517 13.235)" fill="#333"/>
            </g>
            <g id="g88" transform="translate(90.683 85.497)">
              <path id="path90" d="M-1.553-4.432c0,1.862,1.071,3.267,2.582,3.267,1.475,0,2.582-1.387,2.582-3.3,0-1.441-.72-3.267-2.547-3.267s-2.617,1.686-2.617,3.3M5.191-4.52A4.154,4.154,0,0,1,.959-.006,4.041,4.041,0,0,1-3.116-4.379,4.151,4.151,0,0,1,1.1-8.893c2.442,0,4.092,1.774,4.092,4.374" transform="translate(3.116 8.893)" fill="#333"/>
            </g>
            <g id="g92" transform="translate(100.87 81.72)">
              <path id="path94" d="M-1.588-9a2.914,2.914,0,0,0,.07.562A2.385,2.385,0,0,0,.8-6.633c1.616,0,2.582-1.317,2.582-3.267,0-1.7-.879-3.162-2.529-3.162a2.465,2.465,0,0,0-2.354,1.9,3.122,3.122,0,0,0-.088.632ZM-3.187-5.6c.036-.579.07-1.44.07-2.2V-18.067h1.528v5.339h.035a3.165,3.165,0,0,1,2.9-1.563c2.108,0,3.6,1.756,3.583,4.338C4.928-6.914,3.014-5.4,1.117-5.4A3.029,3.029,0,0,1-1.729-7h-.053l-.07,1.4Z" transform="translate(3.187 18.067)" fill="#333"/>
            </g>
            <path id="path96" d="M220.956-552.51H222.5v8.5h-1.546Zm1.72-2.389a.913.913,0,0,1-.984.949.919.919,0,0,1-.931-.949.942.942,0,0,1,.967-.965.917.917,0,0,1,.948.965" transform="translate(-110.02 638.199)" fill="#333"/>
            <path id="path98" d="M229.342-557.091h1.546v12.471h-1.546Z" transform="translate(-114.296 638.81)" fill="#333"/>
            <g id="g100" transform="translate(118.577 85.496)">
              <path id="path102" d="M-5.968-3.595A2.2,2.2,0,0,0-8.111-6.106a2.561,2.561,0,0,0-2.371,2.512ZM-10.5-2.489A2.723,2.723,0,0,0-7.584.462,5.585,5.585,0,0,0-5.23.023l.263,1.106a6.872,6.872,0,0,1-2.827.528,3.948,3.948,0,0,1-4.18-4.286c0-2.564,1.51-4.584,3.986-4.584,2.776,0,3.513,2.441,3.513,4.005a5.751,5.751,0,0,1-.052.72Z" transform="translate(11.975 7.213)" fill="#333"/>
            </g>
            <g id="g104" transform="translate(131.171 82.16)">
              <path id="path106" d="M-.384-10.1a5.417,5.417,0,0,0,2.74.773c1.563,0,2.477-.826,2.477-2.02,0-1.107-.633-1.739-2.231-2.354C.67-14.388-.525-15.389-.525-17.057-.525-18.9,1-20.272,3.3-20.272a5.372,5.372,0,0,1,2.617.58L5.5-18.445a4.707,4.707,0,0,0-2.247-.562c-1.616,0-2.231.966-2.231,1.774,0,1.106.72,1.651,2.354,2.283,2,.773,3.021,1.739,3.021,3.478,0,1.827-1.352,3.407-4.145,3.407A6.121,6.121,0,0,1-.771-8.821Z" transform="translate(0.771 20.272)" fill="#333"/>
            </g>
            <g id="g108" transform="translate(139.357 83.248)">
              <path id="path110" d="M-2.809,0V2.441H-.6V3.618H-2.809V8.2c0,1.054.3,1.651,1.158,1.651a3.43,3.43,0,0,0,.9-.106l.07,1.16a3.793,3.793,0,0,1-1.37.211,2.141,2.141,0,0,1-1.668-.65,3.148,3.148,0,0,1-.6-2.213V3.618H-5.637V2.441H-4.32V.4Z" transform="translate(5.637)" fill="#333"/>
            </g>
            <g id="g112" transform="translate(146.067 85.497)">
              <path id="path114" d="M-.07-2.827c0-1-.017-1.861-.07-2.652H1.212L1.265-3.81h.07A2.551,2.551,0,0,1,3.69-5.672a1.656,1.656,0,0,1,.438.053v1.457A2.335,2.335,0,0,0,3.6-4.214,2.168,2.168,0,0,0,1.529-2.229a4.317,4.317,0,0,0-.07.72V3.022H-.07Z" transform="translate(0.14 5.672)" fill="#333"/>
            </g>
            <g id="g116" transform="translate(151.091 85.497)">
              <path id="path118" d="M-1.553-4.432c0,1.862,1.071,3.267,2.582,3.267,1.475,0,2.582-1.387,2.582-3.3,0-1.441-.72-3.267-2.547-3.267s-2.617,1.686-2.617,3.3M5.191-4.52A4.154,4.154,0,0,1,.959-.006,4.041,4.041,0,0,1-3.116-4.379,4.151,4.151,0,0,1,1.1-8.893c2.441,0,4.091,1.774,4.091,4.374" transform="translate(3.116 8.893)" fill="#333"/>
            </g>
            <g id="g120" transform="translate(161.349 81.72)">
              <path id="path122" d="M-1.518-7.818h.035c.211-.3.51-.667.755-.966l2.495-2.934H3.627L.343-8.222,4.085-3.216H2.205L-.728-7.291l-.79.878v3.2H-3.047V-15.687h1.528Z" transform="translate(3.047 15.687)" fill="#333"/>
            </g>
            <g id="g124" transform="translate(168.973 85.496)">
              <path id="path126" d="M-5.968-3.595A2.2,2.2,0,0,0-8.111-6.106a2.563,2.563,0,0,0-2.372,2.512ZM-10.5-2.489A2.723,2.723,0,0,0-7.584.462,5.585,5.585,0,0,0-5.23.023l.264,1.106a6.879,6.879,0,0,1-2.828.528,3.948,3.948,0,0,1-4.18-4.286c0-2.564,1.51-4.584,3.987-4.584,2.774,0,3.513,2.441,3.513,4.005a5.857,5.857,0,0,1-.053.72Z" transform="translate(11.975 7.213)" fill="#333"/>
            </g>
            <g id="g128" transform="translate(182.147 82.353)">
              <path id="path130" d="M-1.536,0V7.008c0,2.652,1.177,3.776,2.758,3.776,1.756,0,2.88-1.159,2.88-3.776V0H5.648V6.9c0,3.636-1.915,5.129-4.479,5.129-2.425,0-4.251-1.387-4.251-5.058V0Z" transform="translate(3.081)" fill="#333"/>
            </g>
            <g id="g132" transform="translate(193.407 85.497)">
              <path id="path134" d="M-.07-2.478c0-.878-.018-1.6-.07-2.3H1.229l.088,1.405h.035a3.128,3.128,0,0,1,2.81-1.6c1.177,0,3,.7,3,3.618V3.722H5.621v-4.9c0-1.37-.51-2.512-1.967-2.512a2.2,2.2,0,0,0-2.073,1.58,2.207,2.207,0,0,0-.105.72V3.722H-.07Z" transform="translate(0.14 4.972)" fill="#333"/>
            </g>
            <path id="path136" d="M404.935-552.51h1.546v8.5h-1.546Zm1.722-2.389a.913.913,0,0,1-.984.949.919.919,0,0,1-.931-.949.941.941,0,0,1,.966-.965.917.917,0,0,1,.949.965" transform="translate(-201.71 638.199)" fill="#333"/>
            <g id="g138" transform="translate(206.369 83.248)">
              <path id="path140" d="M-2.809,0V2.441H-.6V3.618H-2.809V8.2c0,1.054.3,1.651,1.16,1.651a3.432,3.432,0,0,0,.9-.106l.07,1.16a3.8,3.8,0,0,1-1.37.211,2.145,2.145,0,0,1-1.669-.65,3.155,3.155,0,0,1-.6-2.213V3.618H-5.637V2.441h1.318V.4Z" transform="translate(5.637)" fill="#333"/>
            </g>
            <g id="g142" transform="translate(72.241 242.357)">
              <path id="path144" d="M-.454-11.938a6.393,6.393,0,0,0,3.237.914c1.847,0,2.926-.976,2.926-2.386,0-1.308-.746-2.055-2.635-2.781C.792-17-.62-18.184-.62-20.156c0-2.179,1.805-3.8,4.524-3.8A6.342,6.342,0,0,1,7-23.268l-.5,1.473a5.578,5.578,0,0,0-2.657-.664c-1.91,0-2.636,1.142-2.636,2.1,0,1.308.851,1.951,2.781,2.7,2.366.913,3.57,2.055,3.57,4.109,0,2.159-1.6,4.026-4.9,4.026a7.226,7.226,0,0,1-3.57-.892Z" transform="translate(0.911 23.953)" fill="#fc0603"/>
            </g>
            <g id="g146" transform="translate(81.915 243.643)">
              <path id="path148" d="M-3.32,0V2.885H-.705V4.276H-3.32V9.692c0,1.245.352,1.951,1.369,1.951a4.1,4.1,0,0,0,1.059-.124l.083,1.37a4.488,4.488,0,0,1-1.619.249A2.531,2.531,0,0,1-4.4,12.37a3.724,3.724,0,0,1-.7-2.615V4.276H-6.661V2.885H-5.1V.478Z" transform="translate(6.661)" fill="#fc0603"/>
            </g>
            <g id="g150" transform="translate(89.844 246.3)">
              <path id="path152" d="M-.082-3.34c0-1.183-.021-2.2-.083-3.134h1.6L1.495-4.5h.084a3.013,3.013,0,0,1,2.78-2.2,1.979,1.979,0,0,1,.519.062v1.723a2.742,2.742,0,0,0-.623-.062A2.562,2.562,0,0,0,1.806-2.635a5.151,5.151,0,0,0-.083.851V3.571H-.082Z" transform="translate(0.165 6.703)" fill="#fc0603"/>
            </g>
            <g id="g154" transform="translate(95.781 246.299)">
              <path id="path156" d="M-1.835-5.237c0,2.2,1.266,3.86,3.051,3.86,1.743,0,3.051-1.639,3.051-3.9,0-1.7-.851-3.86-3.009-3.86s-3.093,1.992-3.093,3.9m7.969-.1c0,3.715-2.574,5.333-5,5.333C-1.585-.008-3.681-2-3.681-5.175c0-3.362,2.2-5.334,4.981-5.334,2.885,0,4.835,2.1,4.835,5.168" transform="translate(3.681 10.509)" fill="#fc0603"/>
            </g>
            <g id="g158" transform="translate(107.903 241.838)">
              <path id="path160" d="M-1.794-9.237h.041c.249-.352.6-.789.892-1.142l2.947-3.466h2.2L.406-9.715,4.826-3.8H2.606L-.86-8.614l-.934,1.037V-3.8H-3.6V-18.535h1.806Z" transform="translate(3.6 18.535)" fill="#fc0603"/>
            </g>
            <g id="g162" transform="translate(116.913 246.299)">
              <path id="path164" d="M-7.052-4.248c.021-1.162-.478-2.968-2.532-2.968-1.847,0-2.657,1.7-2.8,2.968Zm-5.355,1.307A3.219,3.219,0,0,0-8.961.546,6.608,6.608,0,0,0-6.18.027l.311,1.308a8.141,8.141,0,0,1-3.341.622c-3.093,0-4.939-2.034-4.939-5.064s1.785-5.417,4.711-5.417c3.278,0,4.15,2.885,4.15,4.733a6.889,6.889,0,0,1-.062.85Z" transform="translate(14.149 8.524)" fill="#fc0603"/>
            </g>
            <g id="g166" transform="translate(131.671 242.357)">
              <path id="path168" d="M-1.918-7.257c0,2.988,1.619,5.666,4.462,5.666,2.865,0,4.483-2.636,4.483-5.812,0-2.78-1.453-5.687-4.462-5.687-2.989,0-4.483,2.76-4.483,5.832M8.936-7.486c0,4.814-2.926,7.368-6.5,7.368-3.694,0-6.288-2.864-6.288-7.1,0-4.441,2.76-7.347,6.5-7.347,3.818,0,6.288,2.926,6.288,7.076" transform="translate(3.848 14.563)" fill="#fc0603"/>
            </g>
            <g id="g170" transform="translate(146.659 246.3)">
              <path id="path172" d="M-.082-2.928c0-1.037-.021-1.888-.083-2.718H1.453l.1,1.66H1.6A3.694,3.694,0,0,1,4.919-5.875c1.391,0,3.549.831,3.549,4.275v6H6.642v-5.79c0-1.619-.6-2.968-2.324-2.968a2.6,2.6,0,0,0-2.45,1.868,2.629,2.629,0,0,0-.124.851V4.4H-.082Z" transform="translate(0.165 5.875)" fill="#fc0603"/>
            </g>
            <g id="g174" transform="translate(157.536 246.299)">
              <path id="path176" d="M-7.052-4.248c.021-1.162-.478-2.968-2.532-2.968-1.847,0-2.657,1.7-2.8,2.968Zm-5.355,1.307A3.219,3.219,0,0,0-8.96.546,6.607,6.607,0,0,0-6.18.027l.311,1.308a8.138,8.138,0,0,1-3.341.622c-3.093,0-4.939-2.034-4.939-5.064s1.785-5.417,4.711-5.417c3.279,0,4.15,2.885,4.15,4.733a6.757,6.757,0,0,1-.062.85Z" transform="translate(14.149 8.524)" fill="#fc0603"/>
            </g>
            <g id="g178" transform="translate(172.419 242.357)">
              <path id="path180" d="M-.454-11.938a6.393,6.393,0,0,0,3.237.914c1.847,0,2.926-.976,2.926-2.386,0-1.308-.746-2.055-2.635-2.781C.792-17-.62-18.184-.62-20.156c0-2.179,1.805-3.8,4.524-3.8A6.342,6.342,0,0,1,7-23.268l-.5,1.473a5.578,5.578,0,0,0-2.657-.664c-1.91,0-2.636,1.142-2.636,2.1,0,1.308.851,1.951,2.781,2.7,2.366.913,3.57,2.055,3.57,4.109,0,2.159-1.6,4.026-4.9,4.026a7.226,7.226,0,0,1-3.57-.892Z" transform="translate(0.911 23.953)" fill="#fc0603"/>
            </g>
            <g id="g182" transform="translate(182.092 243.643)">
              <path id="path184" d="M-3.32,0V2.885H-.705V4.276H-3.32V9.692c0,1.245.352,1.951,1.369,1.951a4.1,4.1,0,0,0,1.059-.124l.083,1.37a4.488,4.488,0,0,1-1.619.249A2.531,2.531,0,0,1-4.4,12.37a3.724,3.724,0,0,1-.7-2.615V4.276H-6.661V2.885H-5.1V.478Z" transform="translate(6.661)" fill="#fc0603"/>
            </g>
            <g id="g186" transform="translate(189.255 246.299)">
              <path id="path188" d="M-1.835-5.237c0,2.2,1.266,3.86,3.051,3.86,1.743,0,3.051-1.639,3.051-3.9,0-1.7-.851-3.86-3.009-3.86s-3.093,1.992-3.093,3.9m7.969-.1c0,3.715-2.574,5.333-5,5.333C-1.585-.008-3.681-2-3.681-5.175c0-3.362,2.2-5.334,4.981-5.334,2.885,0,4.835,2.1,4.835,5.168" transform="translate(3.681 10.509)" fill="#fc0603"/>
            </g>
            <g id="g190" transform="translate(201.294 246.3)">
              <path id="path192" d="M-1.877-6.144a4.116,4.116,0,0,0,.083.747A2.818,2.818,0,0,0,.946-3.26C2.876-3.26,4-4.837,4-7.14c0-2.013-1.059-3.736-2.988-3.736a2.913,2.913,0,0,0-2.76,2.262,2.935,2.935,0,0,0-.125.747ZM-3.682-8.822c0-1.286-.041-2.324-.083-3.279h1.64l.083,1.723H-2a3.95,3.95,0,0,1,3.57-1.952c2.428,0,4.255,2.055,4.255,5.105,0,3.611-2.2,5.4-4.566,5.4A3.52,3.52,0,0,1-1.835-3.4h-.041V2.054H-3.682Z" transform="translate(3.765 12.329)" fill="#fc0603"/>
            </g>
          </g>
        </g>
      </g>
    </g>
  </g>
</svg>
