<svg xmlns="http://www.w3.org/2000/svg" xmlns:xlink="http://www.w3.org/1999/xlink" width="512" height="512" viewBox="0 0 512 512">
  <defs>
    <clipPath id="clip-path">
      <rect id="Rectangle_3" data-name="Rectangle 3" width="286" height="384" transform="translate(-16 0)" fill="red" opacity="0.56"/>
    </clipPath>
    <clipPath id="clip-path-2">
      <path id="path16" d="M0-720H581.895V2.356H0Z" transform="translate(0 719.998)"/>
    </clipPath>
  </defs>
  <g id="Group_16" data-name="Group 16" transform="translate(-5609 2270.041)">
    <rect id="Rectangle_2" data-name="Rectangle 2" width="512" height="512" transform="translate(5609 -2270.041)" fill="#fff"/>
    <g id="Mask_Group_2" data-name="Mask Group 2" transform="translate(5737 -2206.041)" clip-path="url(#clip-path)">
      <g id="g10" transform="translate(-157.49 -150.247)">
        <g id="g12" transform="translate(0 0)">
          <g id="g14" clip-path="url(#clip-path-2)">
            <g id="g20" transform="translate(234.239 348.478)">
              <path id="path22" d="M.348.191c0,39.827-24.458,60.942-54.291,60.942-30.875,0-52.558-23.69-52.558-58.71,0-36.735,23.07-60.77,54.291-60.77C-20.294-58.347.348-34.142.348.191" transform="translate(106.501 58.347)" fill="#fc0603"/>
            </g>
            <g id="g24" transform="translate(227.194 341.506)">
              <path id="path26" d="M.2.045c-28.259,0-47.246,21.62-47.246,53.8,0,30.946,18.29,51.738,45.512,51.738,28.7,0,47.246-21.185,47.246-53.97C45.712,20.285,27.847.045.2.045M-1.534,119.524c-35.093,0-59.6-27.009-59.6-65.682C-61.137,13.957-35.914-13.9.2-13.9c35.093,0,59.6,26.938,59.6,65.509C59.8,98.525,29,119.524-1.534,119.524" transform="translate(61.137 13.9)" fill="#fc0603"/>
            </g>
            <g id="g28" transform="translate(255 373.466)">
              <path id="path30" d="M.1.027S.1.032.1.034s0,0,0-.007M-9.088-5.942a15.3,15.3,0,0,0-3.478,2.436C-14.6-1.725-24.821,7.915-26.7,23.093c-1.082,8.732,2.114,15.852,5.83,18.37,3.265,2.214,16.325-.7,20.167-5.151-.439-9.393,1.6-12.624,2.819-14.566.177-.281.337-.534.471-.783.353-.657.812-1.383,1.3-2.163,1.431-2.266,3.2-5.062,3.178-7.73a15.408,15.408,0,0,0-3.8,2.629C.075,16.486-3.76,22.209-4.778,25.705c-.494,1.689-1.8,4.425-3.569,3.969-1.56-.4-1.758-2.538-.686-7.376A24.305,24.305,0,0,1-3.807,11.165C.395,5.982.477,2.974.2.786A12.927,12.927,0,0,0-2.937,2.937,58.414,58.414,0,0,0-19.22,32.209l-2.188-.128a37.74,37.74,0,0,1,6.913-25.44l.619-.9c3.069-4.453,5.525-8.013,4.788-11.682M-17,44.409a9.32,9.32,0,0,1-5.11-1.113c-4.14-2.806-8.032-10.413-6.786-20.477C-26.919,6.847-16.163-3.3-14.027-5.17c1.85-1.627,4.37-3.469,5.863-3.039A1.543,1.543,0,0,1-7.1-7.139C-5.674-2.255-8.629,2.034-12.051,7l-.618.9a36.148,36.148,0,0,0-6.323,15.667A61.078,61.078,0,0,1-4.466,1.337C-4.427,1.3-.62-2.175,1.3-1.5A1.479,1.479,0,0,1,2.286-.3c.354,2.349.952,6.288-4.244,12.7A22.474,22.474,0,0,0-6.87,22.776a25.025,25.025,0,0,0-.6,3.739A8.088,8.088,0,0,0-6.9,25.082c1.132-3.887,5.205-9.987,8.715-13.053,2.963-2.6,5.1-3.66,6.369-3.124a1.809,1.809,0,0,1,1.084,1.665c.237,3.491-1.837,6.774-3.5,9.412-.463.733-.895,1.415-1.227,2.031-.155.288-.341.586-.547.914C2.816,24.788,1.045,27.6,1.529,36.618l.021.407-.245.322C-1.668,41.272-10.715,44.374-17,44.409" transform="translate(29.137 8.272)" fill="#fff"/>
            </g>
            <g id="g32" transform="translate(260.75 363.981)">
              <path id="path34" d="M.14.312C-4.443-16.848,8.064-22.02,14.172-20.945c4.64.819,6.379-1.887,5.676-3.977s-2.9-4.714-2.2-5.647,5.255-2.821-.1-4.727c2.475-1.178,3.63-2.426,1.133-5.438s-.181-4.417.591-5.122,3.626-3.367,2.766-4.3-8.682-9.321-9.484-14.122-9.569-26.305-29.5-26.2c-17.382.1-26.746,7.714-25.709,6.583,2.98-3.235,13.919-11.476,25.292-11.539A33.858,33.858,0,0,1,9.77-81.777c3.745,5.023,5.669,16.331,8.561,20.425a78.114,78.114,0,0,0,8.892,9.719c1.249,1.232,1.882,3.015.023,4.263S22.919-44.79,22.7-43s1.343,4.255,1.969,5.031-.381,1.783-2.468,3.351c2.334,1.765,2.934,2.635,2.505,3.548-.845,1.791-3.482,1.727-2.851,3.585s2.983,6.492.978,8.675c-3.007,3.277-11,.739-14.4,2.227S.813-9.33.14.312" transform="translate(42.737 95.424)" fill="#fff"/>
            </g>
            <g id="g36" transform="translate(280.537 355.078)">
              <path id="path38" d="M.115,0-8.611.048-22.036,13.154l9.985-.055-16,12.652,10.58-.059L-35.1,42.195-3.47,21.578l-12.164.068,17-12.132-11.377.064Z" transform="translate(35.101)" fill="#fff"/>
            </g>
            <g id="g40" transform="translate(246.557 377.225)">
              <path id="path42" d="M.124.269-23.81.4C-19.677-9.159-19-12.42-19.018-16.374c-.039-7.135-18.928-15.168-19.065-39.9-.06-10.937,12.705-28.433,13.282-25.783,1.54,7.066-4.439,12.094-4.367,24.723.071,12.87,8.953,20.729,13.449,20.7s3.7-18.317-6.3-31.058c1.778-1.634,9.641-1.058,13.44,4.581,3.285,4.865,7.6,16.53,10.826,22.345C6.436-33.208,8.453-29.187,8.5-20.733c.037,6.745-3.914,14.17-8.375,21" transform="translate(38.083 82.327)" fill="#fff"/>
            </g>
            <g id="g44" transform="translate(151.171 214.902)">
              <path id="path46" d="M.29.187C-.468-14.048-1.376-31.16-1.226-43.879H-1.68C-5.163-31.918-9.4-19.2-14.552-5.113L-32.571,44.405h-10L-59.074-4.2c-4.845-14.385-8.934-27.561-11.811-39.674h-.3c-.3,12.72-1.06,29.832-1.968,45.125l-2.726,43.765h-12.57l7.118-102.067h16.809L-47.111-7.689c4.241,12.569,7.724,23.776,10.3,34.376h.453c2.574-10.3,6.209-21.5,10.753-34.376L-7.433-57.056H9.375L15.736,45.011H2.863Z" transform="translate(88.452 57.056)" fill="#333"/>
            </g>
            <g id="g48" transform="translate(144.576 208.752)">
              <path id="path50" d="M.063.043H7.152L6.843-.831H.123Zm72.192,0h7.115l-.055-.873H72.577ZM20.07,36.662q1.138,3.479,2.407,7.244l4.44,13.075c-1.224-3.885-2.594-8.065-4.133-12.628ZM37.561,88.329h1.28l1.97-5.416h-5.09Zm-43.7.6h.2l1.635-26.248Zm90.528,0h.519l-3.883-62.3c.306,7.919.74,16.063,1.124,23.285ZM98,101.235H72.775L69.868,50.588c-.173-3.232-.354-6.646-.53-10.145q-1.16,3.259-2.393,6.631L47.456,100.631H28.747L10.822,47.847q-.841-2.5-1.627-4.873c-.157,2.919-.32,5.835-.491,8.711L5.617,101.235H-19.325L-11.35-13.132h26.9L34.411,40.34c1.834,5.436,3.434,10.346,4.84,14.87,1.466-4.507,3.14-9.419,5.063-14.87L64-13.132H90.875Z" transform="translate(19.325 13.132)" fill="#333"/>
            </g>
            <g id="g52" transform="translate(268.06 213.237)">
              <path id="path54" d="M.011.286A46.688,46.688,0,0,0,23.634,6.949c13.477,0,21.352-7.118,21.352-17.415,0-9.539-5.451-14.992-19.232-20.292C9.1-36.664-1.2-45.3-1.2-59.683c0-15.9,13.174-27.711,33.012-27.711,10.449,0,18.02,2.424,22.564,5L50.741-71.645a40.637,40.637,0,0,0-19.383-4.847c-13.932,0-19.232,8.329-19.232,15.3,0,9.539,6.208,14.234,20.291,19.685,17.263,6.663,26.046,14.991,26.046,29.985,0,15.749-11.661,29.377-35.739,29.377-9.843,0-20.594-2.877-26.045-6.511Z" transform="translate(3.32 87.394)" fill="#333"/>
            </g>
            <g id="g56" transform="translate(260.854 207.086)">
              <path id="path58" d="M.064.07a19.568,19.568,0,0,0-4.1,12.284c0,6.995,2.6,15.944,22.86,23.127l.152.056C31.013,40.168,42.15,46.524,42.15,61.571A22.222,22.222,0,0,1,37.5,75.6a20.942,20.942,0,0,0,5.831-15.086c0-13.084-8.46-18.978-22.111-24.246C8.954,31.518-3.012,25.647-3.012,10.84A20.436,20.436,0,0,1,.064.07M13.739,96.039c-10.681,0-22.794-3.1-29.459-7.545l-3.792-2.528,6.952-23.071,6.808,4.19a40.567,40.567,0,0,0,20.4,5.751c4.571,0,15.2-1.1,15.2-11.265,0-4.735-1.148-9.1-15.215-14.522C-6.206,39.64-16.338,28.29-16.338,12.354c0-19.621,16.471-33.862,39.163-33.862,13.368,0,21.774,3.63,25.594,5.8l4.424,2.505L45.236,9.3,38.809,5.792A34.3,34.3,0,0,0,22.371,1.7C12.726,1.7,9.29,6.42,9.29,10.84c0,4.6,1.138,8.058,16.361,13.951C52.22,35.045,55.629,49.266,55.629,60.511c0,17.684-12.954,35.528-41.89,35.528" transform="translate(19.512 21.508)" fill="#333"/>
            </g>
            <g id="g60" transform="translate(341.409 214.902)">
              <path id="path62" d="M.043,0V60.422C.043,83.289,10.19,92.98,23.818,92.98c15.144,0,24.836-9.994,24.836-32.558V0H61.98V59.514c0,31.346-16.506,44.217-38.615,44.217-20.9,0-36.647-11.962-36.647-43.613V0Z" transform="translate(13.283)" fill="#333"/>
            </g>
            <g id="g64" transform="translate(335.258 208.752)">
              <path id="path66" d="M.242.04V54.311C.242,61.1-.787,73.15-7.2,82.006c5.593-6.4,8.468-16,8.468-28.6V.04Zm-61.936,0V54.008c0,15.995,4.247,26.916,12.667,32.67-7.487-6.452-11.642-17.6-11.642-32.367V.04Zm30.5,103.731c-27.2,0-42.8-18.138-42.8-49.763V-12.261h25.627V54.311c0,12.047,3.058,26.407,17.624,26.407,4.622,0,18.685,0,18.685-26.407V-12.261H13.568V53.4c0,32.01-16.317,50.368-44.766,50.368" transform="translate(73.996 12.261)" fill="#333"/>
            </g>
            <g id="g68" transform="translate(152.65 348.258)">
              <path id="path70" d="M.012.324A52.921,52.921,0,0,0,26.792,7.877C42.069,7.877,51-.191,51-11.864c0-10.815-6.18-16.994-21.8-23C10.311-41.562-1.36-51.346-1.36-67.653c0-18.025,14.934-31.414,37.421-31.414,11.845,0,20.429,2.746,25.578,5.665l-4.12,12.188a46.073,46.073,0,0,0-21.973-5.494c-15.791,0-21.8,9.442-21.8,17.338,0,10.815,7.038,16.137,23,22.317C56.317-39.5,66.273-30.06,66.273-13.066c0,17.854-13.218,33.3-40.512,33.3-11.158,0-23.345-3.263-29.525-7.382Z" transform="translate(3.764 99.068)" fill="#fc0603"/>
            </g>
            <g id="g72" transform="translate(144.483 341.285)">
              <path id="path74" d="M.072.08A22.19,22.19,0,0,0-4.572,14c0,7.928,2.946,18.073,25.912,26.216l.174.064c13.644,5.248,26.271,12.454,26.271,29.51a25.2,25.2,0,0,1-5.279,15.9A23.749,23.749,0,0,0,49.117,68.59c0-14.83-9.59-21.511-25.064-27.484C10.153,35.724-3.411,29.069-3.411,12.285A23.165,23.165,0,0,1,.072.08M15.578,108.863c-12.106,0-25.838-3.515-33.393-8.55l-4.3-2.865,7.882-26.155,7.716,4.747a45.982,45.982,0,0,0,23.125,6.52c5.181,0,17.232-1.244,17.232-12.77,0-5.56-1.271-10.3-17.248-16.462C-7.031,44.931-18.516,32.065-18.516,14c0-22.242,18.67-38.386,44.394-38.386,15.157,0,24.684,4.117,29.015,6.572l5.014,2.84L51.282,10.535,44,6.562A38.883,38.883,0,0,0,25.363,1.919c-10.934,0-14.83,5.355-14.83,10.366,0,5.214,1.291,9.134,18.548,15.814C59.2,39.725,63.063,55.845,63.063,68.59c0,20.047-14.682,40.274-47.485,40.274" transform="translate(22.115 24.385)" fill="#fc0603"/>
            </g>
            <g id="g76" transform="translate(348.857 348.258)">
              <path id="path78" d="M.012.324A52.921,52.921,0,0,0,26.792,7.877C42.069,7.877,51-.191,51-11.864c0-10.815-6.18-16.994-21.8-23C10.311-41.562-1.36-51.346-1.36-67.653c0-18.025,14.934-31.414,37.421-31.414,11.845,0,20.429,2.746,25.578,5.665l-4.12,12.188a46.073,46.073,0,0,0-21.973-5.494c-15.791,0-21.8,9.442-21.8,17.338,0,10.815,7.038,16.137,23,22.317C56.317-39.5,66.273-30.06,66.273-13.066c0,17.854-13.218,33.3-40.512,33.3-11.158,0-23.345-3.263-29.525-7.382Z" transform="translate(3.764 99.068)" fill="#fc0603"/>
            </g>
            <g id="g80" transform="translate(340.69 341.285)">
              <path id="path82" d="M.072.08A22.19,22.19,0,0,0-4.572,14c0,7.928,2.946,18.073,25.912,26.216l.174.064c13.644,5.248,26.271,12.454,26.271,29.51a25.2,25.2,0,0,1-5.279,15.9A23.749,23.749,0,0,0,49.117,68.59c0-14.83-9.59-21.511-25.064-27.484C10.153,35.724-3.411,29.069-3.411,12.285A23.165,23.165,0,0,1,.072.08M15.578,108.863c-12.106,0-25.838-3.515-33.393-8.55l-4.3-2.865,7.882-26.155,7.716,4.747a45.982,45.982,0,0,0,23.125,6.52c5.181,0,17.232-1.244,17.232-12.77,0-5.56-1.271-10.3-17.248-16.462C-7.031,44.931-18.516,32.065-18.516,14c0-22.242,18.67-38.386,44.394-38.386,15.157,0,24.684,4.117,29.015,6.572l5.014,2.84L51.282,10.535,44,6.562A38.883,38.883,0,0,0,25.363,1.919c-10.934,0-14.83,5.355-14.83,10.366,0,5.214,1.291,9.134,18.548,15.814C59.2,39.725,63.063,55.845,63.063,68.59c0,20.047-14.682,40.274-47.485,40.274" transform="translate(22.115 24.385)" fill="#fc0603"/>
            </g>
            <g id="g84" transform="translate(153.612 164.705)">
              <path id="path86" d="M.067.043c-.177-3.3-.387-7.272-.352-10.223H-.39C-1.2-7.4-2.182-4.453-3.376-1.186L-7.556,10.3H-9.873L-13.7-.975c-1.124-3.338-2.072-6.394-2.74-9.2h-.071c-.07,2.951-.245,6.921-.456,10.469L-17.6,10.441h-2.916l1.651-23.676h3.9l4.038,11.452c.985,2.915,1.792,5.514,2.389,7.974h.106C-7.837,3.8-6.995,1.2-5.939-1.783l4.215-11.452h3.9L3.649,10.441H.665Z" transform="translate(20.517 13.235)" fill="#333"/>
            </g>
            <g id="g88" transform="translate(181.365 170.993)">
              <path id="path90" d="M.01.029c0,3.724,2.143,6.533,5.163,6.533,2.951,0,5.165-2.774,5.165-6.6,0-2.881-1.441-6.535-5.094-6.535S.01-3.2.01.029M13.5-.146c0,6.287-4.354,9.028-8.465,9.028-4.6,0-8.149-3.372-8.149-8.747,0-5.691,3.724-9.028,8.43-9.028C10.2-8.893,13.5-5.346,13.5-.146" transform="translate(3.116 8.893)" fill="#333"/>
            </g>
            <g id="g92" transform="translate(201.74 163.441)">
              <path id="path94" d="M.01.059a5.828,5.828,0,0,0,.14,1.124A4.77,4.77,0,0,0,4.787,4.8c3.232,0,5.165-2.634,5.165-6.533,0-3.408-1.758-6.323-5.058-6.323A4.93,4.93,0,0,0,.186-4.262,6.244,6.244,0,0,0,.01-3Zm-3.2,6.814c.072-1.158.14-2.88.14-4.39v-20.55H.01V-7.388H.081a6.33,6.33,0,0,1,5.8-3.126c4.215,0,7.2,3.513,7.166,8.676,0,6.077-3.83,9.1-7.623,9.1A6.057,6.057,0,0,1-.27,4.064H-.376l-.14,2.809Z" transform="translate(3.187 18.067)" fill="#333"/>
            </g>
            <path id="path96" d="M221.15-549.156h3.091v17H221.15Zm3.441-4.777a1.826,1.826,0,0,1-1.967,1.9,1.838,1.838,0,0,1-1.862-1.9,1.883,1.883,0,0,1,1.933-1.93,1.834,1.834,0,0,1,1.9,1.93" transform="translate(0.722 720.534)" fill="#333"/>
            <path id="path98" d="M229.342-557.091h3.091v24.942h-3.091Z" transform="translate(0.75 720.53)" fill="#333"/>
            <g id="g100" transform="translate(237.154 170.993)">
              <path id="path102" d="M.039.024C.074-1.944-.769-5-4.247-5c-3.127,0-4.5,2.88-4.742,5.023ZM-9.024,2.236c.07,4.18,2.74,5.9,5.831,5.9a11.169,11.169,0,0,0,4.707-.879L2.04,9.472a13.745,13.745,0,0,1-5.654,1.055c-5.234,0-8.361-3.443-8.361-8.572S-8.954-7.213-4-7.213c5.551,0,7.026,4.883,7.026,8.01a11.5,11.5,0,0,1-.1,1.439Z" transform="translate(11.975 7.213)" fill="#333"/>
            </g>
            <g id="g104" transform="translate(262.342 164.319)">
              <path id="path106" d="M0,.066A10.833,10.833,0,0,0,5.483,1.613c3.126,0,4.953-1.652,4.953-4.04,0-2.214-1.265-3.478-4.463-4.707C2.111-8.5-.278-10.507-.278-13.843c0-3.689,3.055-6.429,7.658-6.429a10.744,10.744,0,0,1,5.233,1.16l-.844,2.494a9.415,9.415,0,0,0-4.495-1.124c-3.232,0-4.461,1.932-4.461,3.548,0,2.213,1.441,3.3,4.707,4.566,4,1.546,6.041,3.478,6.041,6.956,0,3.653-2.7,6.814-8.29,6.814A12.242,12.242,0,0,1-.771,2.631Z" transform="translate(0.771 20.272)" fill="#333"/>
            </g>
            <g id="g108" transform="translate(278.714 166.497)">
              <path id="path110" d="M.018,0V4.883H4.444V7.237H.018V16.4c0,2.108.6,3.3,2.317,3.3A6.86,6.86,0,0,0,4.128,19.5l.14,2.32a7.587,7.587,0,0,1-2.74.421,4.282,4.282,0,0,1-3.336-1.3C-2.686,20.023-3,18.512-3,16.51V7.237H-5.637V4.883H-3V.808Z" transform="translate(5.637)" fill="#333"/>
            </g>
            <g id="g112" transform="translate(292.134 170.993)">
              <path id="path114" d="M0,.019c0-2-.035-3.723-.14-5.3h2.7L2.67-1.948h.14A5.1,5.1,0,0,1,7.52-5.672a3.311,3.311,0,0,1,.876.106v2.915a4.67,4.67,0,0,0-1.053-.1c-2.179,0-3.724,1.651-4.146,3.969a8.635,8.635,0,0,0-.14,1.441v9.063H0Z" transform="translate(0.14 5.672)" fill="#333"/>
            </g>
            <g id="g116" transform="translate(302.182 170.993)">
              <path id="path118" d="M.01.029c0,3.724,2.143,6.533,5.165,6.533,2.95,0,5.163-2.774,5.163-6.6,0-2.881-1.441-6.535-5.094-6.535S.01-3.2.01.029M13.5-.146c0,6.287-4.354,9.028-8.465,9.028-4.6,0-8.149-3.372-8.149-8.747,0-5.691,3.724-9.028,8.431-9.028C10.2-8.893,13.5-5.346,13.5-.146" transform="translate(3.116 8.893)" fill="#333"/>
            </g>
            <g id="g120" transform="translate(322.698 163.44)">
              <path id="path122" d="M.01.051H.08C.5-.547,1.1-1.284,1.59-1.88l4.99-5.867H10.3L3.733-.757,11.216,9.255H7.457L1.59,1.105.01,2.862V9.255H-3.047V-15.687H.01Z" transform="translate(3.047 15.687)" fill="#333"/>
            </g>
            <g id="g124" transform="translate(337.945 170.993)">
              <path id="path126" d="M.039.024C.074-1.944-.769-5-4.247-5-7.373-5-8.743-2.119-8.99.024ZM-9.024,2.236c.07,4.18,2.74,5.9,5.831,5.9a11.169,11.169,0,0,0,4.707-.879l.527,2.213a13.758,13.758,0,0,1-5.656,1.055c-5.236,0-8.361-3.443-8.361-8.572S-8.954-7.213-4-7.213c5.549,0,7.026,4.883,7.026,8.01a11.715,11.715,0,0,1-.106,1.439Z" transform="translate(11.975 7.213)" fill="#333"/>
            </g>
            <g id="g128" transform="translate(364.293 164.705)">
              <path id="path130" d="M.01,0V14.016c0,5.3,2.354,7.553,5.517,7.553,3.511,0,5.76-2.318,5.76-7.553V0h3.091V13.8c0,7.272-3.83,10.257-8.957,10.257-4.849,0-8.5-2.774-8.5-10.117V0Z" transform="translate(3.081)" fill="#333"/>
            </g>
            <g id="g132" transform="translate(386.813 170.993)">
              <path id="path134" d="M0,.016c0-1.756-.036-3.2-.14-4.6H2.6l.177,2.81h.07a6.256,6.256,0,0,1,5.621-3.2c2.354,0,6.008,1.4,6.008,7.237V12.417H11.382v-9.8c0-2.74-1.019-5.023-3.934-5.023A4.392,4.392,0,0,0,3.3.753a4.414,4.414,0,0,0-.21,1.441V12.417H0Z" transform="translate(0.14 4.972)" fill="#333"/>
            </g>
            <path id="path136" d="M405.128-549.156h3.092v17h-3.092Zm3.444-4.777a1.826,1.826,0,0,1-1.967,1.9,1.839,1.839,0,0,1-1.863-1.9,1.883,1.883,0,0,1,1.932-1.93,1.834,1.834,0,0,1,1.9,1.93" transform="translate(1.323 720.534)" fill="#333"/>
            <g id="g138" transform="translate(412.739 166.497)">
              <path id="path140" d="M.018,0V4.883H4.446V7.237H.018V16.4c0,2.108.6,3.3,2.32,3.3A6.865,6.865,0,0,0,4.129,19.5l.14,2.32a7.6,7.6,0,0,1-2.741.421,4.29,4.29,0,0,1-3.338-1.3C-2.685,20.023-3,18.512-3,16.51V7.237H-5.637V4.883H-3V.808Z" transform="translate(5.637)" fill="#333"/>
            </g>
            <g id="g142" transform="translate(144.482 484.714)">
              <path id="path144" d="M0,.078A12.787,12.787,0,0,0,6.477,1.906c3.695,0,5.852-1.952,5.852-4.773,0-2.617-1.493-4.109-5.27-5.562C2.494-10.048-.329-12.414-.329-16.358c0-4.358,3.61-7.6,9.048-7.6A12.685,12.685,0,0,1,14.9-22.582l-1,2.946a11.156,11.156,0,0,0-5.313-1.328c-3.819,0-5.272,2.283-5.272,4.191,0,2.615,1.7,3.9,5.562,5.4,4.731,1.826,7.141,4.109,7.141,8.217,0,4.318-3.2,8.053-9.8,8.053A14.453,14.453,0,0,1-.911,3.11Z" transform="translate(0.911 23.953)" fill="#fc0603"/>
            </g>
            <g id="g146" transform="translate(163.829 487.286)">
              <path id="path148" d="M.022,0V5.769H5.251V8.552H.022V19.384c0,2.491.7,3.9,2.738,3.9a8.193,8.193,0,0,0,2.118-.249l.166,2.74a8.977,8.977,0,0,1-3.239.5,5.061,5.061,0,0,1-3.942-1.536c-1.037-1.08-1.41-2.864-1.41-5.23V8.552H-6.661V5.769h3.114V.955Z" transform="translate(6.661)" fill="#fc0603"/>
            </g>
            <g id="g150" transform="translate(179.688 492.599)">
              <path id="path152" d="M0,.022c0-2.366-.041-4.4-.166-6.268h3.2L3.155-2.3h.167A6.027,6.027,0,0,1,8.883-6.7a3.958,3.958,0,0,1,1.038.124v3.446a5.484,5.484,0,0,0-1.245-.124c-2.572,0-4.4,1.95-4.9,4.69a10.3,10.3,0,0,0-.166,1.7v10.71H0Z" transform="translate(0.165 6.703)" fill="#fc0603"/>
            </g>
            <g id="g154" transform="translate(191.562 492.599)">
              <path id="path156" d="M.012.034c0,4.4,2.532,7.72,6.1,7.72,3.486,0,6.1-3.279,6.1-7.8,0-3.4-1.7-7.72-6.018-7.72S.012-3.783.012.034M15.951-.173c0,7.43-5.147,10.667-10,10.667C.511,10.494-3.681,6.51-3.681.159c0-6.723,4.4-10.668,9.962-10.668,5.769,0,9.67,4.194,9.67,10.336" transform="translate(3.681 10.509)" fill="#fc0603"/>
            </g>
            <g id="g158" transform="translate(215.807 483.676)">
              <path id="path160" d="M.012.061H.095c.5-.7,1.2-1.577,1.784-2.283L7.773-9.155h4.4L4.411-.895l8.841,11.831H8.811L1.879,1.306.012,3.381v7.555H-3.6V-18.535H.012Z" transform="translate(3.6 18.535)" fill="#fc0603"/>
            </g>
            <g id="g162" transform="translate(233.826 492.598)">
              <path id="path164" d="M.046.028C.088-2.3-.909-5.907-5.017-5.907c-3.695,0-5.313,3.4-5.6,5.935Zm-10.71,2.614c.084,4.939,3.239,6.975,6.89,6.975A13.216,13.216,0,0,0,1.789,8.578l.622,2.615A16.281,16.281,0,0,1-4.27,12.438c-6.185,0-9.879-4.068-9.879-10.128s3.57-10.834,9.423-10.834c6.556,0,8.3,5.771,8.3,9.466a13.777,13.777,0,0,1-.124,1.7Z" transform="translate(14.149 8.524)" fill="#fc0603"/>
            </g>
            <g id="g166" transform="translate(263.343 484.714)">
              <path id="path168" d="M.013.048c0,5.977,3.237,11.332,8.924,11.332,5.729,0,8.967-5.272,8.967-11.623C17.9-5.8,15-11.617,8.979-11.617,3-11.617.013-6.1.013.048M21.721-.41c0,9.629-5.852,14.736-12.992,14.736C1.341,14.326-3.848,8.6-3.848.131c0-8.882,5.521-14.693,12.993-14.693,7.636,0,12.576,5.852,12.576,14.153" transform="translate(3.848 14.563)" fill="#fc0603"/>
            </g>
            <g id="g170" transform="translate(293.317 492.599)">
              <path id="path172" d="M0,.019C0-2.056-.041-3.757-.165-5.417H3.072L3.281-2.1h.082A7.388,7.388,0,0,1,10-5.875c2.781,0,7.1,1.661,7.1,8.551v12H13.448V3.092c0-3.239-1.2-5.937-4.647-5.937A5.191,5.191,0,0,0,3.9.891a5.258,5.258,0,0,0-.249,1.7V14.672H0Z" transform="translate(0.165 5.875)" fill="#fc0603"/>
            </g>
            <g id="g174" transform="translate(315.072 492.598)">
              <path id="path176" d="M.046.028C.088-2.3-.909-5.907-5.017-5.907c-3.695,0-5.313,3.4-5.6,5.935Zm-10.71,2.614c.084,4.939,3.239,6.975,6.892,6.975A13.214,13.214,0,0,0,1.789,8.578l.622,2.615A16.276,16.276,0,0,1-4.27,12.438c-6.185,0-9.879-4.068-9.879-10.128s3.57-10.834,9.423-10.834c6.557,0,8.3,5.771,8.3,9.466a13.514,13.514,0,0,1-.124,1.7Z" transform="translate(14.149 8.524)" fill="#fc0603"/>
            </g>
            <g id="g178" transform="translate(344.837 484.714)">
              <path id="path180" d="M0,.078A12.787,12.787,0,0,0,6.477,1.906c3.695,0,5.852-1.952,5.852-4.773,0-2.617-1.493-4.109-5.27-5.562C2.494-10.048-.329-12.414-.329-16.358c0-4.358,3.61-7.6,9.048-7.6A12.685,12.685,0,0,1,14.9-22.582l-1,2.946a11.156,11.156,0,0,0-5.313-1.328c-3.819,0-5.272,2.283-5.272,4.191,0,2.615,1.7,3.9,5.562,5.4,4.731,1.826,7.141,4.109,7.141,8.217,0,4.318-3.2,8.053-9.8,8.053A14.453,14.453,0,0,1-.911,3.11Z" transform="translate(0.911 23.953)" fill="#fc0603"/>
            </g>
            <g id="g182" transform="translate(364.185 487.286)">
              <path id="path184" d="M.022,0V5.769H5.251V8.552H.022V19.384c0,2.491.7,3.9,2.738,3.9a8.193,8.193,0,0,0,2.118-.249l.166,2.74a8.977,8.977,0,0,1-3.239.5,5.061,5.061,0,0,1-3.942-1.536c-1.037-1.08-1.41-2.864-1.41-5.23V8.552H-6.661V5.769h3.114V.955Z" transform="translate(6.661)" fill="#fc0603"/>
            </g>
            <g id="g186" transform="translate(378.509 492.599)">
              <path id="path188" d="M.012.034c0,4.4,2.532,7.72,6.1,7.72,3.486,0,6.1-3.279,6.1-7.8,0-3.4-1.7-7.72-6.018-7.72S.012-3.783.012.034M15.951-.173c0,7.43-5.147,10.667-10,10.667C.511,10.494-3.681,6.51-3.681.159c0-6.723,4.4-10.668,9.962-10.668,5.769,0,9.67,4.194,9.67,10.336" transform="translate(3.681 10.509)" fill="#fc0603"/>
            </g>
            <g id="g190" transform="translate(402.587 492.599)">
              <path id="path192" d="M.012.04A8.232,8.232,0,0,0,.178,1.535,5.636,5.636,0,0,0,5.657,5.81c3.859,0,6.1-3.154,6.1-7.761,0-4.026-2.118-7.471-5.977-7.471A5.826,5.826,0,0,0,.262-4.9,5.87,5.87,0,0,0,.012-3.4ZM-3.6-5.314c0-2.572-.083-4.648-.166-6.557h3.28l.166,3.446h.082a7.9,7.9,0,0,1,7.141-3.9c4.856,0,8.509,4.111,8.509,10.211,0,7.222-4.4,10.793-9.132,10.793A7.041,7.041,0,0,1,.1,5.519H.012V16.436H-3.6Z" transform="translate(3.765 12.329)" fill="#fc0603"/>
            </g>
          </g>
        </g>
      </g>
    </g>
  </g>
</svg>
