<svg xmlns="http://www.w3.org/2000/svg" xmlns:xlink="http://www.w3.org/1999/xlink" width="16" height="16" viewBox="0 0 16 16">
  <defs>
    <clipPath id="clip-path">
      <rect id="Rectangle_1" data-name="Rectangle 1" width="10" height="12" transform="translate(-0.842 -0.551)" fill="red" opacity="0.56"/>
    </clipPath>
    <clipPath id="clip-path-2">
      <path id="path16" d="M0-720H18.158v22.54H0Z" transform="translate(0 719.998)"/>
    </clipPath>
  </defs>
  <g id="Group_1" data-name="Group 1" transform="translate(-4722 1486.052)">
    <circle id="Ellipse_1" data-name="Ellipse 1" cx="8" cy="8" r="8" transform="translate(4722 -1486.052)" fill="#fff"/>
    <g id="Mask_Group_1" data-name="Mask Group 1" transform="translate(4725.842 -1483.501)" clip-path="url(#clip-path)">
      <g id="g10" transform="translate(-4.763 -5.219)">
        <g id="g12" transform="translate(0 0)">
          <g id="g14" clip-path="url(#clip-path-2)">
            <g id="g20" transform="translate(7.309 10.874)">
              <path id="path22" d="M-103.167-56.52a1.7,1.7,0,0,1-1.694,1.9,1.662,1.662,0,0,1-1.64-1.832,1.722,1.722,0,0,1,1.694-1.9,1.651,1.651,0,0,1,1.64,1.827" transform="translate(106.501 58.347)" fill="#fc0603"/>
            </g>
            <g id="g24" transform="translate(7.089 10.656)">
              <path id="path26" d="M-59.223-13.465A1.5,1.5,0,0,0-60.7-11.786a1.445,1.445,0,0,0,1.42,1.614A1.489,1.489,0,0,0-57.8-11.856a1.427,1.427,0,0,0-1.42-1.609m-.054,3.728a1.876,1.876,0,0,1-1.86-2.05A1.934,1.934,0,0,1-59.223-13.9a1.874,1.874,0,0,1,1.86,2.044,1.912,1.912,0,0,1-1.914,2.119" transform="translate(61.137 13.9)" fill="#fc0603"/>
            </g>
            <g id="g28" transform="translate(7.957 11.654)">
              <path id="path30" d="M-28.224-8.013h0m-.287-.186a.477.477,0,0,0-.109.076,1.388,1.388,0,0,0-.441.83.621.621,0,0,0,.182.573.747.747,0,0,0,.629-.161.68.68,0,0,1,.088-.455l.015-.024c.011-.02.025-.043.041-.067a.5.5,0,0,0,.1-.241.481.481,0,0,0-.119.082,1,1,0,0,0-.251.375c-.015.053-.056.138-.111.124s-.055-.079-.021-.23a.758.758,0,0,1,.163-.347.4.4,0,0,0,.125-.324.4.4,0,0,0-.1.067,1.823,1.823,0,0,0-.508.913l-.068,0a1.178,1.178,0,0,1,.216-.794l.019-.028c.1-.139.172-.25.149-.365m-.247,1.571a.291.291,0,0,1-.159-.035.679.679,0,0,1-.212-.639,1.461,1.461,0,0,1,.464-.873c.058-.051.136-.108.183-.095a.048.048,0,0,1,.033.033c.045.152-.048.286-.154.441l-.019.028a1.128,1.128,0,0,0-.2.489,1.906,1.906,0,0,1,.453-.693s.12-.11.18-.089a.046.046,0,0,1,.031.038.451.451,0,0,1-.132.4.7.7,0,0,0-.153.324.781.781,0,0,0-.019.117.252.252,0,0,0,.018-.045,1.066,1.066,0,0,1,.272-.407c.092-.081.159-.114.2-.1a.056.056,0,0,1,.034.052.516.516,0,0,1-.109.294c-.014.023-.028.044-.038.063L-28.1-7.3a.625.625,0,0,0-.077.427v.013l-.008.01a.856.856,0,0,1-.571.22" transform="translate(29.137 8.272)" fill="#fff"/>
            </g>
            <g id="g32" transform="translate(8.136 11.358)">
              <path id="path34" d="M-41.4-92.437c-.143-.535.247-.7.438-.663.145.026.2-.059.177-.124s-.09-.147-.069-.176.164-.088,0-.148c.077-.037.113-.076.035-.17a.1.1,0,0,1,.018-.16c.024-.022.113-.105.086-.134a1.349,1.349,0,0,1-.3-.441c-.025-.15-.3-.821-.92-.817a1.631,1.631,0,0,0-.8.205,1.265,1.265,0,0,1,.789-.36A1.057,1.057,0,0,1-41.1-95c.117.157.177.51.267.637a2.437,2.437,0,0,0,.277.3c.039.038.059.094,0,.133s-.135.081-.142.136a.267.267,0,0,0,.061.157c.019.024-.012.056-.077.1.073.055.092.082.078.111-.026.056-.109.054-.089.112s.093.2.031.271c-.094.1-.343.023-.449.069a.614.614,0,0,0-.259.527" transform="translate(42.737 95.424)" fill="#fff"/>
            </g>
            <g id="g36" transform="translate(8.754 11.08)">
              <path id="path38" d="M-34,0l-.272,0-.419.409.312,0-.5.395.33,0-.55.515.987-.643-.38,0,.53-.379-.355,0Z" transform="translate(35.101)" fill="#fff"/>
            </g>
            <g id="g40" transform="translate(7.694 11.771)">
              <path id="path42" d="M-36.891-79.75l-.747,0a1.2,1.2,0,0,0,.15-.523c0-.223-.591-.473-.595-1.245,0-.341.4-.887.414-.8.048.22-.138.377-.136.771a.623.623,0,0,0,.42.646c.14,0,.115-.572-.2-.969a.359.359,0,0,1,.419.143c.1.152.237.516.338.7a1.109,1.109,0,0,1,.2.625,1.3,1.3,0,0,1-.261.655" transform="translate(38.083 82.327)" fill="#fff"/>
            </g>
            <g id="g44" transform="translate(4.717 6.706)">
              <path id="path46" d="M-85.683-55.27c-.024-.444-.052-.978-.047-1.375h-.014c-.109.373-.241.77-.4,1.21l-.562,1.545h-.312l-.515-1.517c-.151-.449-.279-.86-.369-1.238h-.009c-.009.4-.033.931-.061,1.408l-.085,1.366h-.392l.222-3.185h.525l.543,1.54c.132.392.241.742.321,1.073h.014c.08-.321.194-.671.336-1.073l.567-1.54h.524l.2,3.185h-.4Z" transform="translate(88.452 57.056)" fill="#333"/>
            </g>
            <g id="g48" transform="translate(4.511 6.514)">
              <path id="path50" d="M-18.72-12.721h.221l-.01-.027h-.21Zm2.253,0h.222l0-.027h-.21ZM-18.1-11.578q.036.109.075.226l.139.408c-.038-.121-.081-.252-.129-.394Zm.546,1.612h.04l.061-.169h-.159Zm-1.364.019h.006l.051-.819Zm2.825,0h.016l-.121-1.944c.01.247.023.5.035.727Zm.425.384h-.787l-.091-1.58c-.005-.1-.011-.207-.017-.317l-.075.207-.608,1.671h-.584l-.559-1.647-.051-.152c0,.091-.01.182-.015.272l-.1,1.546h-.778l.249-3.569h.839l.589,1.669c.057.17.107.323.151.464.046-.141.1-.294.158-.464l.614-1.669h.839Z" transform="translate(19.325 13.132)" fill="#333"/>
            </g>
            <g id="g52" transform="translate(8.365 6.654)">
              <path id="path54" d="M-3.216-84.658a1.457,1.457,0,0,0,.737.208c.421,0,.666-.222.666-.543,0-.3-.17-.468-.6-.633-.52-.184-.841-.454-.841-.9a.917.917,0,0,1,1.03-.865,1.448,1.448,0,0,1,.7.156l-.113.336a1.268,1.268,0,0,0-.6-.151c-.435,0-.6.26-.6.477,0,.3.194.444.633.614.539.208.813.468.813.936,0,.491-.364.917-1.115.917a1.646,1.646,0,0,1-.813-.2Z" transform="translate(3.32 87.394)" fill="#333"/>
            </g>
            <g id="g56" transform="translate(8.14 6.462)">
              <path id="path58" d="M-18.9-20.835a.611.611,0,0,0-.128.383c0,.218.081.5.713.722l0,0c.376.144.723.343.723.812a.693.693,0,0,1-.145.438.653.653,0,0,0,.182-.471c0-.408-.264-.592-.69-.757-.383-.148-.756-.331-.756-.793a.638.638,0,0,1,.1-.336m.427,2.995a1.837,1.837,0,0,1-.919-.235l-.118-.079.217-.72.212.131a1.266,1.266,0,0,0,.637.179c.143,0,.474-.034.474-.352,0-.148-.036-.284-.475-.453-.65-.231-.966-.585-.966-1.083a1.11,1.11,0,0,1,1.222-1.057,1.617,1.617,0,0,1,.8.181l.138.078-.237.7-.2-.109a1.07,1.07,0,0,0-.513-.128c-.3,0-.408.147-.408.285s.036.251.511.435c.829.32.935.764.935,1.115a1.149,1.149,0,0,1-1.307,1.109" transform="translate(19.512 21.508)" fill="#333"/>
            </g>
            <g id="g60" transform="translate(10.653 6.706)">
              <path id="path62" d="M-12.867,0V1.885c0,.714.317,1.016.742,1.016.473,0,.775-.312.775-1.016V0h.416V1.857c0,.978-.515,1.38-1.2,1.38-.652,0-1.144-.373-1.144-1.361V0Z" transform="translate(13.283)" fill="#333"/>
            </g>
            <g id="g64" transform="translate(10.461 6.514)">
              <path id="path66" d="M-71.679-11.877v1.693a1.531,1.531,0,0,1-.232.864,1.327,1.327,0,0,0,.264-.893v-1.665Zm-1.933,0v1.684a1.154,1.154,0,0,0,.4,1.019,1.291,1.291,0,0,1-.363-1.01v-1.693Zm.952,3.237c-.849,0-1.335-.566-1.335-1.553v-2.068h.8v2.077c0,.376.1.824.55.824.144,0,.583,0,.583-.824v-2.077h.8v2.049c0,1-.509,1.572-1.4,1.572" transform="translate(73.996 12.261)" fill="#333"/>
            </g>
            <g id="g68" transform="translate(4.763 10.867)">
              <path id="path70" d="M-3.646-95.966a1.651,1.651,0,0,0,.836.236c.477,0,.755-.252.755-.616,0-.337-.193-.53-.68-.718-.589-.209-.953-.514-.953-1.023a1.039,1.039,0,0,1,1.168-.98,1.64,1.64,0,0,1,.8.177l-.129.38a1.438,1.438,0,0,0-.686-.171c-.493,0-.68.295-.68.541,0,.337.22.5.718.7.611.236.921.53.921,1.061,0,.557-.412,1.039-1.264,1.039a1.866,1.866,0,0,1-.921-.23Z" transform="translate(3.764 99.068)" fill="#fc0603"/>
            </g>
            <g id="g72" transform="translate(4.508 10.65)">
              <path id="path74" d="M-21.422-23.622a.692.692,0,0,0-.145.434c0,.247.092.564.809.818l.005,0c.426.164.82.389.82.921a.786.786,0,0,1-.165.5.741.741,0,0,0,.206-.534c0-.463-.3-.671-.782-.858-.434-.168-.857-.376-.857-.9a.723.723,0,0,1,.109-.381m.484,3.395a2.083,2.083,0,0,1-1.042-.267l-.134-.089.246-.816.241.148a1.435,1.435,0,0,0,.722.2c.162,0,.538-.039.538-.4,0-.173-.04-.321-.538-.514-.737-.262-1.1-.664-1.1-1.227a1.259,1.259,0,0,1,1.385-1.2,1.833,1.833,0,0,1,.905.205l.156.089-.269.8-.227-.124a1.213,1.213,0,0,0-.581-.145c-.341,0-.463.167-.463.323s.04.285.579.493c.94.363,1.06.866,1.06,1.263a1.3,1.3,0,0,1-1.482,1.257" transform="translate(22.115 24.385)" fill="#fc0603"/>
            </g>
            <g id="g76" transform="translate(10.886 10.867)">
              <path id="path78" d="M-3.646-95.966a1.651,1.651,0,0,0,.836.236c.477,0,.755-.252.755-.616,0-.337-.193-.53-.68-.718-.589-.209-.953-.514-.953-1.023a1.039,1.039,0,0,1,1.168-.98,1.64,1.64,0,0,1,.8.177l-.129.38a1.438,1.438,0,0,0-.686-.171c-.493,0-.68.295-.68.541,0,.337.22.5.718.7.611.236.921.53.921,1.061,0,.557-.412,1.039-1.264,1.039a1.866,1.866,0,0,1-.921-.23Z" transform="translate(3.764 99.068)" fill="#fc0603"/>
            </g>
            <g id="g80" transform="translate(10.631 10.65)">
              <path id="path82" d="M-21.422-23.622a.692.692,0,0,0-.145.434c0,.247.092.564.809.818l.005,0c.426.164.82.389.82.921a.786.786,0,0,1-.165.5.741.741,0,0,0,.206-.534c0-.463-.3-.671-.782-.858-.434-.168-.857-.376-.857-.9a.723.723,0,0,1,.109-.381m.484,3.395a2.083,2.083,0,0,1-1.042-.267l-.134-.089.246-.816.241.148a1.435,1.435,0,0,0,.722.2c.162,0,.538-.039.538-.4,0-.173-.04-.321-.538-.514-.737-.262-1.1-.664-1.1-1.227a1.259,1.259,0,0,1,1.385-1.2,1.833,1.833,0,0,1,.905.205l.156.089-.269.8-.227-.124a1.213,1.213,0,0,0-.581-.145c-.341,0-.463.167-.463.323s.04.285.579.493c.94.363,1.06.866,1.06,1.263a1.3,1.3,0,0,1-1.482,1.257" transform="translate(22.115 24.385)" fill="#fc0603"/>
            </g>
            <g id="g84" transform="translate(4.793 5.14)">
              <path id="path86" d="M-19.875-12.82c-.006-.1-.012-.227-.011-.319h0c-.025.087-.056.179-.093.281l-.13.358h-.072l-.12-.352c-.035-.1-.065-.2-.085-.287h0c0,.092-.008.216-.014.327l-.02.317h-.091l.052-.739h.122l.126.357c.031.091.056.172.075.249h0c.019-.075.045-.156.078-.249l.132-.357h.122l.046.739h-.093Z" transform="translate(20.517 13.235)" fill="#333"/>
            </g>
            <g id="g88" transform="translate(5.659 5.336)">
              <path id="path90" d="M-3.018-8.615c0,.116.067.2.161.2S-2.7-8.5-2.7-8.617c0-.09-.045-.2-.159-.2s-.163.105-.163.206M-2.6-8.62a.259.259,0,0,1-.264.282.252.252,0,0,1-.254-.273.259.259,0,0,1,.263-.282A.251.251,0,0,1-2.6-8.62" transform="translate(3.116 8.893)" fill="#333"/>
            </g>
            <g id="g92" transform="translate(6.295 5.1)">
              <path id="path94" d="M-3.087-17.5a.182.182,0,0,0,0,.035.149.149,0,0,0,.145.113c.1,0,.161-.082.161-.2,0-.106-.055-.2-.158-.2a.154.154,0,0,0-.147.118.2.2,0,0,0-.005.039Zm-.1.213c0-.036,0-.09,0-.137v-.641h.1v.333h0a.2.2,0,0,1,.181-.1.238.238,0,0,1,.224.271.252.252,0,0,1-.238.284.189.189,0,0,1-.178-.1h0l0,.088Z" transform="translate(3.187 18.067)" fill="#333"/>
            </g>
            <path id="path96" d="M220.774-555.655h.1v.531h-.1Zm.107-.149a.057.057,0,0,1-.061.059.057.057,0,0,1-.058-.059.059.059,0,0,1,.06-.06.057.057,0,0,1,.059.06" transform="translate(-213.851 561.002)" fill="#333"/>
            <path id="path98" d="M229.342-557.091h.1v.778h-.1Z" transform="translate(-222.162 562.191)" fill="#333"/>
            <g id="g100" transform="translate(7.4 5.336)">
              <path id="path102" d="M-11.6-6.987a.137.137,0,0,0-.134-.157.16.16,0,0,0-.148.157Zm-.283.069a.17.17,0,0,0,.182.184.349.349,0,0,0,.147-.027l.016.069a.429.429,0,0,1-.176.033.246.246,0,0,1-.261-.267.258.258,0,0,1,.249-.286.225.225,0,0,1,.219.25.359.359,0,0,1,0,.045Z" transform="translate(11.975 7.213)" fill="#333"/>
            </g>
            <g id="g104" transform="translate(8.186 5.127)">
              <path id="path106" d="M-.747-19.637a.338.338,0,0,0,.171.048c.1,0,.155-.052.155-.126s-.039-.109-.139-.147c-.121-.043-.2-.105-.2-.209a.213.213,0,0,1,.239-.2.335.335,0,0,1,.163.036l-.026.078a.294.294,0,0,0-.14-.035c-.1,0-.139.06-.139.111,0,.069.045.1.147.142.125.048.189.109.189.217s-.084.213-.259.213a.382.382,0,0,1-.189-.047Z" transform="translate(0.771 20.272)" fill="#333"/>
            </g>
            <g id="g108" transform="translate(8.697 5.195)">
              <path id="path110" d="M-5.461,0V.152h.138V.226h-.138V.512c0,.066.019.1.072.1A.214.214,0,0,0-5.333.608l0,.072a.237.237,0,0,1-.085.013.134.134,0,0,1-.1-.041A.2.2,0,0,1-5.555.515V.226h-.082V.152h.082V.025Z" transform="translate(5.637)" fill="#333"/>
            </g>
            <g id="g112" transform="translate(9.116 5.336)">
              <path id="path114" d="M-.136-5.494c0-.062,0-.116,0-.166h.084l0,.1h0A.159.159,0,0,1,.1-5.672a.1.1,0,0,1,.027,0v.091a.146.146,0,0,0-.033,0,.135.135,0,0,0-.129.124.269.269,0,0,0,0,.045v.283h-.1Z" transform="translate(0.14 5.672)" fill="#333"/>
            </g>
            <g id="g116" transform="translate(9.429 5.336)">
              <path id="path118" d="M-3.018-8.615c0,.116.067.2.161.2S-2.7-8.5-2.7-8.617c0-.09-.045-.2-.159-.2s-.163.105-.163.206M-2.6-8.62a.259.259,0,0,1-.264.282.252.252,0,0,1-.254-.273.259.259,0,0,1,.263-.282A.251.251,0,0,1-2.6-8.62" transform="translate(3.116 8.893)" fill="#333"/>
            </g>
            <g id="g120" transform="translate(10.07 5.1)">
              <path id="path122" d="M-2.951-15.2h0c.013-.019.032-.042.047-.06l.156-.183h.116l-.2.218.234.312h-.117l-.183-.254-.049.055v.2h-.1v-.778h.1Z" transform="translate(3.047 15.687)" fill="#333"/>
            </g>
            <g id="g124" transform="translate(10.545 5.336)">
              <path id="path126" d="M-11.6-6.987a.137.137,0,0,0-.134-.157.16.16,0,0,0-.148.157Zm-.283.069a.17.17,0,0,0,.182.184.349.349,0,0,0,.147-.027l.016.069a.429.429,0,0,1-.176.033.246.246,0,0,1-.261-.267.258.258,0,0,1,.249-.286.225.225,0,0,1,.219.25.365.365,0,0,1,0,.045Z" transform="translate(11.975 7.213)" fill="#333"/>
            </g>
            <g id="g128" transform="translate(11.367 5.139)">
              <path id="path130" d="M-2.985,0V.437c0,.166.073.236.172.236s.18-.072.18-.236V0h.1V.431c0,.227-.12.32-.28.32S-3.081.664-3.081.435V0Z" transform="translate(3.081)" fill="#333"/>
            </g>
            <g id="g132" transform="translate(12.07 5.336)">
              <path id="path134" d="M-.136-4.816c0-.055,0-.1,0-.144h.085l.006.088h0a.2.2,0,0,1,.175-.1c.073,0,.187.044.187.226v.317H.22v-.306c0-.085-.032-.157-.123-.157a.137.137,0,0,0-.129.1.138.138,0,0,0-.007.045v.319h-.1Z" transform="translate(0.14 4.972)" fill="#333"/>
            </g>
            <path id="path136" d="M404.754-555.655h.1v.531h-.1Zm.107-.149a.057.057,0,0,1-.061.059.057.057,0,0,1-.058-.059.059.059,0,0,1,.06-.06.057.057,0,0,1,.059.06" transform="translate(-392.071 561.002)" fill="#333"/>
            <g id="g138" transform="translate(12.879 5.195)">
              <path id="path140" d="M-5.461,0V.152h.138V.226h-.138V.512c0,.066.019.1.072.1A.214.214,0,0,0-5.333.608l0,.072a.237.237,0,0,1-.086.013.134.134,0,0,1-.1-.041A.2.2,0,0,1-5.555.515V.226h-.082V.152h.082V.025Z" transform="translate(5.637)" fill="#333"/>
            </g>
            <g id="g142" transform="translate(4.508 15.125)">
              <path id="path144" d="M-.882-23.2a.4.4,0,0,0,.2.057c.115,0,.183-.061.183-.149s-.047-.128-.164-.174c-.142-.051-.231-.124-.231-.247a.251.251,0,0,1,.282-.237.4.4,0,0,1,.193.043l-.031.092a.348.348,0,0,0-.166-.041c-.119,0-.165.071-.165.131,0,.082.053.122.174.168.148.057.223.128.223.256s-.1.251-.306.251a.451.451,0,0,1-.223-.056Z" transform="translate(0.911 23.953)" fill="#fc0603"/>
            </g>
            <g id="g146" transform="translate(5.112 15.205)">
              <path id="path148" d="M-6.453,0V.18h.163V.267h-.163V.6c0,.078.022.122.085.122A.256.256,0,0,0-6.3.719L-6.3.8A.28.28,0,0,1-6.4.82.158.158,0,0,1-6.52.772.232.232,0,0,1-6.564.609V.267h-.1V.18h.1V.03Z" transform="translate(6.661)" fill="#fc0603"/>
            </g>
            <g id="g150" transform="translate(5.607 15.371)">
              <path id="path152" d="M-.16-6.493c0-.074,0-.137-.005-.2h.1l0,.123h.005A.188.188,0,0,1,.117-6.7a.123.123,0,0,1,.032,0v.108a.171.171,0,0,0-.039,0,.16.16,0,0,0-.153.146A.321.321,0,0,0-.047-6.4v.334H-.16Z" transform="translate(0.165 6.703)" fill="#fc0603"/>
            </g>
            <g id="g154" transform="translate(5.978 15.371)">
              <path id="path156" d="M-3.566-10.18c0,.137.079.241.19.241s.19-.1.19-.243c0-.106-.053-.241-.188-.241s-.193.124-.193.243m.5-.006a.306.306,0,0,1-.312.333.3.3,0,0,1-.3-.322.306.306,0,0,1,.311-.333.3.3,0,0,1,.3.323" transform="translate(3.681 10.509)" fill="#fc0603"/>
            </g>
            <g id="g158" transform="translate(6.734 15.093)">
              <path id="path160" d="M-3.487-17.954h0c.016-.022.038-.049.056-.071l.184-.216h.137l-.242.258.276.369h-.139l-.216-.3-.058.065v.236H-3.6v-.92h.113Z" transform="translate(3.6 18.535)" fill="#fc0603"/>
            </g>
            <g id="g162" transform="translate(7.296 15.371)">
              <path id="path164" d="M-13.706-8.257a.162.162,0,0,0-.158-.185.189.189,0,0,0-.175.185Zm-.334.082a.2.2,0,0,0,.215.218.412.412,0,0,0,.174-.032l.019.082a.508.508,0,0,1-.208.039.291.291,0,0,1-.308-.316.3.3,0,0,1,.294-.338.266.266,0,0,1,.259.3.43.43,0,0,1,0,.053Z" transform="translate(14.149 8.524)" fill="#fc0603"/>
            </g>
            <g id="g166" transform="translate(8.217 15.125)">
              <path id="path168" d="M-3.728-14.107c0,.187.1.354.278.354s.28-.165.28-.363c0-.174-.091-.355-.278-.355s-.28.172-.28.364m.677-.014a.409.409,0,0,1-.405.46.4.4,0,0,1-.392-.443.415.415,0,0,1,.405-.458.4.4,0,0,1,.392.442" transform="translate(3.848 14.563)" fill="#fc0603"/>
            </g>
            <g id="g170" transform="translate(9.153 15.371)">
              <path id="path172" d="M-.16-5.691c0-.065,0-.118-.005-.17h.1l.007.1h0a.231.231,0,0,1,.207-.118c.087,0,.221.052.221.267v.374H.259v-.361c0-.1-.038-.185-.145-.185a.162.162,0,0,0-.153.117.164.164,0,0,0-.008.053v.377H-.16Z" transform="translate(0.165 5.875)" fill="#fc0603"/>
            </g>
            <g id="g174" transform="translate(9.832 15.371)">
              <path id="path176" d="M-13.706-8.257a.162.162,0,0,0-.158-.185.189.189,0,0,0-.175.185Zm-.334.082a.2.2,0,0,0,.215.218.412.412,0,0,0,.174-.032l.019.082a.508.508,0,0,1-.208.039.291.291,0,0,1-.308-.316.3.3,0,0,1,.294-.338.266.266,0,0,1,.259.3.422.422,0,0,1,0,.053Z" transform="translate(14.149 8.524)" fill="#fc0603"/>
            </g>
            <g id="g178" transform="translate(10.76 15.125)">
              <path id="path180" d="M-.882-23.2a.4.4,0,0,0,.2.057c.115,0,.183-.061.183-.149s-.047-.128-.164-.174c-.142-.051-.231-.124-.231-.247a.251.251,0,0,1,.282-.237.4.4,0,0,1,.193.043l-.031.092a.348.348,0,0,0-.166-.041c-.119,0-.165.071-.165.131,0,.082.053.122.174.168.148.057.223.128.223.256s-.1.251-.306.251a.451.451,0,0,1-.223-.056Z" transform="translate(0.911 23.953)" fill="#fc0603"/>
            </g>
            <g id="g182" transform="translate(11.364 15.205)">
              <path id="path184" d="M-6.453,0V.18h.163V.267h-.163V.6c0,.078.022.122.085.122A.256.256,0,0,0-6.3.719L-6.3.8A.28.28,0,0,1-6.4.82.158.158,0,0,1-6.52.772.232.232,0,0,1-6.564.609V.267h-.1V.18h.1V.03Z" transform="translate(6.661)" fill="#fc0603"/>
            </g>
            <g id="g186" transform="translate(11.811 15.371)">
              <path id="path188" d="M-3.566-10.18c0,.137.079.241.19.241s.19-.1.19-.243c0-.106-.053-.241-.188-.241s-.193.124-.193.243m.5-.006a.306.306,0,0,1-.312.333.3.3,0,0,1-.3-.322.306.306,0,0,1,.311-.333.3.3,0,0,1,.3.323" transform="translate(3.681 10.509)" fill="#fc0603"/>
            </g>
            <g id="g190" transform="translate(12.562 15.371)">
              <path id="path192" d="M-3.647-11.943a.257.257,0,0,0,.005.047.176.176,0,0,0,.171.133c.12,0,.19-.1.19-.242,0-.126-.066-.233-.187-.233a.182.182,0,0,0-.172.141.183.183,0,0,0-.008.047Zm-.113-.167c0-.08,0-.145-.005-.2h.1l.005.108h0a.247.247,0,0,1,.223-.122.284.284,0,0,1,.266.319.3.3,0,0,1-.285.337.22.22,0,0,1-.193-.1h0v.341H-3.76Z" transform="translate(3.765 12.329)" fill="#fc0603"/>
            </g>
          </g>
        </g>
      </g>
    </g>
  </g>
</svg>
