<svg xmlns="http://www.w3.org/2000/svg" xmlns:xlink="http://www.w3.org/1999/xlink" width="32" height="32" viewBox="0 0 32 32">
  <defs>
    <clipPath id="clip-path">
      <rect id="Rectangle_1" data-name="Rectangle 1" width="20" height="24" transform="translate(-1.484 -0.784)" fill="red" opacity="0.56"/>
    </clipPath>
    <clipPath id="clip-path-2">
      <path id="path16" d="M0-720H36.45v45.248H0Z" transform="translate(0 719.998)"/>
    </clipPath>
  </defs>
  <g id="Group_4" data-name="Group 4" transform="translate(-4722 1486.258)">
    <circle id="Ellipse_1" data-name="Ellipse 1" cx="16" cy="16" r="16" transform="translate(4722 -1486.258)" fill="#fff"/>
    <g id="Mask_Group_1" data-name="Mask Group 1" transform="translate(4729.484 -1481.473)" clip-path="url(#clip-path)">
      <g id="g10" transform="translate(-9.332 -10.258)">
        <g id="g12" transform="translate(0 0)">
          <g id="g14" clip-path="url(#clip-path-2)">
            <g id="g20" transform="translate(14.673 21.829)">
              <path id="path22" d="M-99.808-54.68c0,2.495-1.532,3.817-3.4,3.817-1.934,0-3.292-1.484-3.292-3.678,0-2.3,1.445-3.807,3.4-3.807,2,0,3.292,1.516,3.292,3.667" transform="translate(106.501 58.347)" fill="#fc0603"/>
            </g>
            <g id="g24" transform="translate(14.231 21.392)">
              <path id="path26" d="M-57.3-13.026c-1.77,0-2.959,1.354-2.959,3.37,0,1.938,1.146,3.241,2.851,3.241,1.8,0,2.959-1.327,2.959-3.381,0-1.962-1.119-3.23-2.851-3.23M-57.4-5.542c-2.2,0-3.734-1.692-3.734-4.114,0-2.5,1.58-4.243,3.842-4.243,2.2,0,3.734,1.687,3.734,4.1,0,2.939-1.93,4.254-3.842,4.254" transform="translate(61.137 13.9)" fill="#fc0603"/>
            </g>
            <g id="g28" transform="translate(15.973 23.394)">
              <path id="path30" d="M-27.305-7.752h0m-.575-.374a.959.959,0,0,0-.218.153,2.787,2.787,0,0,0-.885,1.666,1.246,1.246,0,0,0,.365,1.151,1.5,1.5,0,0,0,1.263-.323,1.365,1.365,0,0,1,.177-.912c.011-.018.021-.033.029-.049.022-.041.051-.087.082-.135a.994.994,0,0,0,.2-.484.965.965,0,0,0-.238.165,2.005,2.005,0,0,0-.5.752c-.031.106-.113.277-.224.249s-.11-.159-.043-.462a1.523,1.523,0,0,1,.327-.7A.8.8,0,0,0-27.3-7.7a.81.81,0,0,0-.2.135,3.659,3.659,0,0,0-1.02,1.834l-.137-.008a2.364,2.364,0,0,1,.433-1.594l.039-.056c.192-.279.346-.5.3-.732m-.5,3.154a.584.584,0,0,1-.32-.07,1.363,1.363,0,0,1-.425-1.283,2.933,2.933,0,0,1,.932-1.753c.116-.1.274-.217.367-.19a.1.1,0,0,1,.066.067c.09.306-.1.575-.31.885l-.039.056a2.264,2.264,0,0,0-.4.981,3.826,3.826,0,0,1,.91-1.392s.241-.22.361-.178a.093.093,0,0,1,.062.076.9.9,0,0,1-.266.8,1.408,1.408,0,0,0-.308.65,1.567,1.567,0,0,0-.038.234.507.507,0,0,0,.035-.09A2.14,2.14,0,0,1-27.2-7c.186-.163.32-.229.4-.2a.113.113,0,0,1,.068.1,1.037,1.037,0,0,1-.219.59c-.029.046-.056.089-.077.127-.01.018-.021.037-.034.057a1.254,1.254,0,0,0-.154.858v.025l-.015.02a1.718,1.718,0,0,1-1.147.442" transform="translate(29.137 8.272)" fill="#fff"/>
            </g>
            <g id="g32" transform="translate(16.333 22.8)">
              <path id="path34" d="M-40.052-89.427c-.287-1.075.5-1.4.879-1.331.291.051.4-.118.356-.249s-.181-.3-.138-.354.329-.177-.006-.3c.155-.074.227-.152.071-.341a.192.192,0,0,1,.037-.321c.048-.044.227-.211.173-.269a2.707,2.707,0,0,1-.594-.885c-.05-.3-.6-1.648-1.848-1.641a3.275,3.275,0,0,0-1.61.412,2.539,2.539,0,0,1,1.584-.723,2.121,2.121,0,0,1,1.7.855c.235.315.355,1.023.536,1.279a4.894,4.894,0,0,0,.557.609c.078.077.118.189,0,.267s-.271.162-.285.273a.536.536,0,0,0,.123.315c.039.048-.024.112-.155.21.146.111.184.165.157.222-.053.112-.218.108-.179.225s.187.407.061.543c-.188.205-.689.046-.9.14a1.232,1.232,0,0,0-.519,1.059" transform="translate(42.737 95.424)" fill="#fff"/>
            </g>
            <g id="g36" transform="translate(17.573 22.242)">
              <path id="path38" d="M-32.9,0l-.547,0-.841.821.625,0-1,.793.663,0-1.1,1.034,1.981-1.291-.762,0L-32.817.6l-.713,0Z" transform="translate(35.101)" fill="#fff"/>
            </g>
            <g id="g40" transform="translate(15.444 23.629)">
              <path id="path42" d="M-35.689-77.153l-1.5.008a2.418,2.418,0,0,0,.3-1.051c0-.447-1.186-.95-1.194-2.5,0-.685.8-1.781.832-1.615.1.443-.278.758-.274,1.549a1.25,1.25,0,0,0,.842,1.3c.282,0,.232-1.147-.395-1.946a.721.721,0,0,1,.842.287c.206.3.476,1.035.678,1.4a2.227,2.227,0,0,1,.392,1.255,2.615,2.615,0,0,1-.525,1.316" transform="translate(38.083 82.327)" fill="#fff"/>
            </g>
            <g id="g44" transform="translate(9.469 13.461)">
              <path id="path46" d="M-82.893-53.47c-.047-.892-.1-1.964-.095-2.76h-.028c-.218.749-.484,1.546-.806,2.428l-1.129,3.1h-.626l-1.034-3.045c-.3-.9-.56-1.726-.74-2.485h-.019c-.019.8-.066,1.869-.123,2.827l-.171,2.741h-.787l.446-6.393h1.053l1.091,3.092c.266.787.484,1.489.645,2.153h.028c.161-.645.389-1.347.674-2.153l1.138-3.092h1.053l.4,6.393h-.806Z" transform="translate(88.452 57.056)" fill="#333"/>
            </g>
            <g id="g48" transform="translate(9.056 13.076)">
              <path id="path50" d="M-18.111-12.307h.444l-.019-.055h-.421Zm4.522,0h.446l0-.055h-.422Zm-3.269,2.294q.071.218.151.454l.278.819c-.077-.243-.162-.505-.259-.791Zm1.1,3.236h.08l.123-.339h-.319Zm-2.737.038h.012l.1-1.644Zm5.671,0h.033l-.243-3.9c.019.5.046,1.006.07,1.459Zm.853.771h-1.58l-.182-3.173c-.011-.2-.022-.416-.033-.635q-.073.2-.15.415l-1.221,3.355h-1.172l-1.123-3.306-.1-.305c-.01.183-.02.366-.031.546l-.193,3.1h-1.562l.5-7.164h1.685l1.182,3.349c.115.341.215.648.3.931.092-.282.2-.59.317-.931l1.233-3.349h1.684Z" transform="translate(19.325 13.132)" fill="#333"/>
            </g>
            <g id="g52" transform="translate(16.791 13.357)">
              <path id="path54" d="M-3.111-81.9a2.925,2.925,0,0,0,1.48.417c.844,0,1.338-.446,1.338-1.091,0-.6-.341-.939-1.2-1.271-1.043-.37-1.688-.911-1.688-1.812a1.841,1.841,0,0,1,2.068-1.736,2.906,2.906,0,0,1,1.413.313l-.228.674a2.546,2.546,0,0,0-1.214-.3c-.873,0-1.2.522-1.2.958,0,.6.389.892,1.271,1.233C0-84.1.55-83.581.55-82.642c0,.986-.73,1.84-2.239,1.84A3.3,3.3,0,0,1-3.32-81.21Z" transform="translate(3.32 87.394)" fill="#333"/>
            </g>
            <g id="g56" transform="translate(16.34 12.972)">
              <path id="path58" d="M-18.286-20.156a1.226,1.226,0,0,0-.257.769c0,.438.163,1,1.432,1.449l.01,0c.754.29,1.452.688,1.452,1.631a1.392,1.392,0,0,1-.292.879,1.312,1.312,0,0,0,.365-.945c0-.82-.53-1.189-1.385-1.519-.768-.3-1.518-.665-1.518-1.593a1.28,1.28,0,0,1,.193-.675m.857,6.011a3.689,3.689,0,0,1-1.845-.473l-.238-.158.435-1.445.426.262a2.541,2.541,0,0,0,1.278.36c.286,0,.952-.069.952-.706,0-.3-.072-.57-.953-.91-1.305-.464-1.94-1.175-1.94-2.173a2.229,2.229,0,0,1,2.453-2.121,3.246,3.246,0,0,1,1.6.363l.277.157-.477,1.41-.4-.22a2.149,2.149,0,0,0-1.03-.256c-.6,0-.819.3-.819.573s.071.5,1.025.874c1.664.642,1.878,1.533,1.878,2.238,0,1.108-.811,2.225-2.624,2.225" transform="translate(19.512 21.508)" fill="#333"/>
            </g>
            <g id="g60" transform="translate(21.386 13.462)">
              <path id="path62" d="M-12.448,0V3.785c0,1.432.636,2.039,1.489,2.039.949,0,1.556-.626,1.556-2.039V0h.835V3.728c0,1.964-1.034,2.77-2.419,2.77-1.309,0-2.3-.749-2.3-2.732V0Z" transform="translate(13.283)" fill="#333"/>
            </g>
            <g id="g64" transform="translate(21.001 13.076)">
              <path id="path66" d="M-69.346-11.491v3.4a3.074,3.074,0,0,1-.466,1.735,2.663,2.663,0,0,0,.53-1.792v-3.343Zm-3.88,0V-8.11a2.317,2.317,0,0,0,.793,2.046,2.591,2.591,0,0,1-.729-2.027v-3.4Zm1.91,6.5C-73.019-4.993-74-6.129-74-8.11v-4.151h1.605v4.17c0,.755.192,1.654,1.1,1.654.29,0,1.17,0,1.17-1.654v-4.17h1.605v4.113c0,2.005-1.022,3.155-2.8,3.155" transform="translate(73.996 12.261)" fill="#333"/>
            </g>
            <g id="g68" transform="translate(9.562 21.815)">
              <path id="path70" d="M-3.527-92.842a3.315,3.315,0,0,0,1.677.473c.957,0,1.516-.505,1.516-1.237,0-.677-.387-1.065-1.366-1.441-1.183-.419-1.914-1.032-1.914-2.054a2.087,2.087,0,0,1,2.344-1.968,3.292,3.292,0,0,1,1.6.355l-.258.763A2.886,2.886,0,0,0-1.3-98.294c-.989,0-1.366.591-1.366,1.086,0,.677.441,1.011,1.441,1.4C0-95.336.623-94.745.623-93.681c0,1.118-.828,2.086-2.538,2.086a3.746,3.746,0,0,1-1.849-.462Z" transform="translate(3.764 99.068)" fill="#fc0603"/>
            </g>
            <g id="g72" transform="translate(9.05 21.378)">
              <path id="path74" d="M-20.725-22.853a1.39,1.39,0,0,0-.291.872c0,.5.185,1.132,1.623,1.642l.011,0c.855.329,1.646.78,1.646,1.848a1.579,1.579,0,0,1-.331,1,1.488,1.488,0,0,0,.414-1.071c0-.929-.6-1.347-1.57-1.722-.871-.337-1.72-.754-1.72-1.805a1.451,1.451,0,0,1,.218-.765m.971,6.814a4.182,4.182,0,0,1-2.092-.536l-.269-.179.494-1.638.483.3a2.88,2.88,0,0,0,1.449.408c.325,0,1.079-.078,1.079-.8,0-.348-.08-.645-1.08-1.031-1.48-.526-2.2-1.332-2.2-2.464a2.527,2.527,0,0,1,2.781-2.4,3.679,3.679,0,0,1,1.817.412l.314.178-.54,1.6-.456-.249a2.436,2.436,0,0,0-1.167-.291c-.685,0-.929.335-.929.649s.081.572,1.162.991c1.887.728,2.129,1.738,2.129,2.536,0,1.256-.92,2.523-2.974,2.523" transform="translate(22.115 24.385)" fill="#fc0603"/>
            </g>
            <g id="g76" transform="translate(21.852 21.815)">
              <path id="path78" d="M-3.527-92.842a3.315,3.315,0,0,0,1.677.473c.957,0,1.516-.505,1.516-1.237,0-.677-.387-1.065-1.366-1.441-1.183-.419-1.914-1.032-1.914-2.054a2.087,2.087,0,0,1,2.344-1.968,3.292,3.292,0,0,1,1.6.355l-.258.763A2.886,2.886,0,0,0-1.3-98.294c-.989,0-1.366.591-1.366,1.086,0,.677.441,1.011,1.441,1.4C0-95.336.623-94.745.623-93.681c0,1.118-.828,2.086-2.538,2.086a3.746,3.746,0,0,1-1.849-.462Z" transform="translate(3.764 99.068)" fill="#fc0603"/>
            </g>
            <g id="g80" transform="translate(21.341 21.378)">
              <path id="path82" d="M-20.725-22.853a1.39,1.39,0,0,0-.291.872c0,.5.185,1.132,1.623,1.642l.011,0c.855.329,1.646.78,1.646,1.848a1.579,1.579,0,0,1-.331,1,1.488,1.488,0,0,0,.414-1.071c0-.929-.6-1.347-1.57-1.722-.871-.337-1.72-.754-1.72-1.805a1.451,1.451,0,0,1,.218-.765m.971,6.814a4.182,4.182,0,0,1-2.092-.536l-.269-.179.494-1.638.483.3a2.88,2.88,0,0,0,1.449.408c.325,0,1.079-.078,1.079-.8,0-.348-.08-.645-1.08-1.031-1.48-.526-2.2-1.332-2.2-2.464a2.527,2.527,0,0,1,2.781-2.4,3.679,3.679,0,0,1,1.817.412l.314.178-.54,1.6-.456-.249a2.436,2.436,0,0,0-1.167-.291c-.685,0-.929.335-.929.649s.081.572,1.162.991c1.887.728,2.129,1.738,2.129,2.536,0,1.256-.92,2.523-2.974,2.523" transform="translate(22.115 24.385)" fill="#fc0603"/>
            </g>
            <g id="g84" transform="translate(9.622 10.317)">
              <path id="path86" d="M-19.228-12.4c-.011-.207-.024-.455-.022-.64h-.007c-.051.174-.112.359-.187.563l-.262.72h-.145l-.24-.706c-.07-.209-.13-.4-.172-.577h0c0,.185-.015.434-.029.656l-.04.636h-.183l.1-1.483h.244l.253.717c.062.183.112.345.15.5h.007c.037-.15.09-.312.156-.5l.264-.717h.244L-19-11.752h-.187Z" transform="translate(20.517 13.235)" fill="#333"/>
            </g>
            <g id="g88" transform="translate(11.361 10.711)">
              <path id="path90" d="M-2.92-8.334c0,.233.134.409.323.409s.324-.174.324-.414c0-.18-.09-.409-.319-.409s-.328.211-.328.414m.845-.011a.52.52,0,0,1-.53.566.506.506,0,0,1-.51-.548.52.52,0,0,1,.528-.566.5.5,0,0,1,.513.548" transform="translate(3.116 8.893)" fill="#333"/>
            </g>
            <g id="g92" transform="translate(12.637 10.238)">
              <path id="path94" d="M-2.986-16.931a.365.365,0,0,0,.009.07.3.3,0,0,0,.29.227c.2,0,.324-.165.324-.409,0-.214-.11-.4-.317-.4a.309.309,0,0,0-.295.238.391.391,0,0,0-.011.079Zm-.2.427c0-.073.009-.18.009-.275v-1.287h.191v.669h0a.4.4,0,0,1,.363-.2.478.478,0,0,1,.449.543.506.506,0,0,1-.478.57A.379.379,0,0,1-3-16.68h-.007l-.009.176Z" transform="translate(3.187 18.067)" fill="#333"/>
            </g>
            <path id="path96" d="M220.786-555.444h.194v1.065h-.194Zm.216-.3a.114.114,0,0,1-.123.119.115.115,0,0,1-.117-.119.118.118,0,0,1,.121-.121.115.115,0,0,1,.119.121" transform="translate(-206.888 566.179)" fill="#333"/>
            <path id="path98" d="M229.342-557.091h.194v1.562h-.194Z" transform="translate(-214.929 567.328)" fill="#333"/>
            <g id="g100" transform="translate(14.855 10.711)">
              <path id="path102" d="M-11.222-6.76a.276.276,0,0,0-.268-.315.321.321,0,0,0-.3.315Zm-.568.139a.341.341,0,0,0,.365.37.7.7,0,0,0,.295-.055l.033.139a.861.861,0,0,1-.354.066.5.5,0,0,1-.524-.537.517.517,0,0,1,.5-.574.451.451,0,0,1,.44.5.72.72,0,0,1-.007.09Z" transform="translate(11.975 7.213)" fill="#333"/>
            </g>
            <g id="g104" transform="translate(16.433 10.293)">
              <path id="path106" d="M-.722-19a.679.679,0,0,0,.343.1c.2,0,.31-.1.31-.253s-.079-.218-.28-.295c-.242-.086-.392-.211-.392-.42a.427.427,0,0,1,.48-.4.673.673,0,0,1,.328.073l-.053.156a.59.59,0,0,0-.282-.07c-.2,0-.279.121-.279.222,0,.139.09.207.295.286.251.1.378.218.378.436s-.169.427-.519.427a.767.767,0,0,1-.378-.095Z" transform="translate(0.771 20.272)" fill="#333"/>
            </g>
            <g id="g108" transform="translate(17.459 10.429)">
              <path id="path110" d="M-5.283,0V.306h.277V.453h-.277v.574c0,.132.037.207.145.207a.43.43,0,0,0,.112-.013l.009.145a.475.475,0,0,1-.172.026A.268.268,0,0,1-5.4,1.311a.394.394,0,0,1-.075-.277V.453h-.165V.306h.165V.051Z" transform="translate(5.637)" fill="#333"/>
            </g>
            <g id="g112" transform="translate(18.299 10.711)">
              <path id="path114" d="M-.131-5.316c0-.125,0-.233-.009-.332H.029l.007.209H.045A.32.32,0,0,1,.34-5.672a.207.207,0,0,1,.055.007v.183a.292.292,0,0,0-.066-.007.272.272,0,0,0-.26.249.541.541,0,0,0-.009.09v.568H-.131Z" transform="translate(0.14 5.672)" fill="#333"/>
            </g>
            <g id="g116" transform="translate(18.929 10.711)">
              <path id="path118" d="M-2.92-8.334c0,.233.134.409.324.409s.323-.174.323-.414c0-.18-.09-.409-.319-.409s-.328.211-.328.414m.845-.011a.52.52,0,0,1-.53.566.506.506,0,0,1-.51-.548.52.52,0,0,1,.528-.566.5.5,0,0,1,.513.548" transform="translate(3.116 8.893)" fill="#333"/>
            </g>
            <g id="g120" transform="translate(20.214 10.238)">
              <path id="path122" d="M-2.855-14.7h0c.026-.037.064-.084.095-.121l.313-.368h.233l-.411.438.469.627h-.235l-.368-.51-.1.11v.4h-.191v-1.562h.191Z" transform="translate(3.047 15.687)" fill="#333"/>
            </g>
            <g id="g124" transform="translate(21.169 10.711)">
              <path id="path126" d="M-11.222-6.76a.276.276,0,0,0-.268-.315.321.321,0,0,0-.3.315Zm-.568.139a.341.341,0,0,0,.365.37.7.7,0,0,0,.295-.055l.033.139a.862.862,0,0,1-.354.066.5.5,0,0,1-.524-.537.517.517,0,0,1,.5-.574.451.451,0,0,1,.44.5.733.733,0,0,1-.007.09Z" transform="translate(11.975 7.213)" fill="#333"/>
            </g>
            <g id="g128" transform="translate(22.819 10.317)">
              <path id="path130" d="M-2.888,0V.878c0,.332.147.473.346.473.22,0,.361-.145.361-.473V0h.194V.865c0,.455-.24.643-.561.643-.3,0-.533-.174-.533-.634V0Z" transform="translate(3.081)" fill="#333"/>
            </g>
            <g id="g132" transform="translate(24.23 10.711)">
              <path id="path134" d="M-.131-4.66c0-.11,0-.2-.009-.288H.032l.011.176h0a.392.392,0,0,1,.352-.2c.147,0,.376.088.376.453v.636H.582V-4.5c0-.172-.064-.315-.246-.315a.275.275,0,0,0-.26.2.277.277,0,0,0-.013.09v.64H-.131Z" transform="translate(0.14 4.972)" fill="#333"/>
            </g>
            <path id="path136" d="M404.766-555.444h.194v1.065h-.194Zm.216-.3a.114.114,0,0,1-.123.119.115.115,0,0,1-.117-.119.118.118,0,0,1,.121-.121.115.115,0,0,1,.119.121" transform="translate(-379.306 566.179)" fill="#333"/>
            <g id="g138" transform="translate(25.854 10.429)">
              <path id="path140" d="M-5.283,0V.306h.277V.453h-.277v.574c0,.132.037.207.145.207a.43.43,0,0,0,.112-.013l.009.145a.476.476,0,0,1-.172.026A.269.269,0,0,1-5.4,1.311a.4.4,0,0,1-.075-.277V.453h-.165V.306h.165V.051Z" transform="translate(5.637)" fill="#333"/>
            </g>
            <g id="g142" transform="translate(9.05 30.363)">
              <path id="path144" d="M-.853-22.448a.8.8,0,0,0,.406.114c.231,0,.367-.122.367-.3s-.094-.257-.33-.348c-.286-.1-.463-.25-.463-.5a.5.5,0,0,1,.567-.476.8.8,0,0,1,.387.086l-.062.185a.7.7,0,0,0-.333-.083c-.239,0-.33.143-.33.263,0,.164.107.244.348.338.3.114.447.257.447.515s-.2.5-.614.5a.905.905,0,0,1-.447-.112Z" transform="translate(0.911 23.953)" fill="#fc0603"/>
            </g>
            <g id="g146" transform="translate(10.262 30.524)">
              <path id="path148" d="M-6.243,0V.361h.328V.536h-.328v.679c0,.156.044.244.172.244a.513.513,0,0,0,.133-.016l.01.172a.562.562,0,0,1-.2.031.317.317,0,0,1-.247-.1.467.467,0,0,1-.088-.328V.536h-.2V.361h.2V.06Z" transform="translate(6.661)" fill="#fc0603"/>
            </g>
            <g id="g150" transform="translate(11.256 30.856)">
              <path id="path152" d="M-.155-6.281c0-.148,0-.276-.01-.393h.2l.008.247h.01A.378.378,0,0,1,.4-6.7a.248.248,0,0,1,.065.008v.216a.344.344,0,0,0-.078-.008.321.321,0,0,0-.307.294.645.645,0,0,0-.01.107v.671H-.155Z" transform="translate(0.165 6.703)" fill="#fc0603"/>
            </g>
            <g id="g154" transform="translate(11.999 30.856)">
              <path id="path156" d="M-3.45-9.849c0,.276.159.484.382.484s.382-.205.382-.489c0-.213-.107-.484-.377-.484s-.387.25-.387.489m1-.013a.615.615,0,0,1-.627.668.6.6,0,0,1-.6-.647.614.614,0,0,1,.624-.668.6.6,0,0,1,.606.647" transform="translate(3.681 10.509)" fill="#fc0603"/>
            </g>
            <g id="g158" transform="translate(13.518 30.298)">
              <path id="path160" d="M-3.374-17.37h.005c.031-.044.075-.1.112-.143l.369-.434h.276l-.486.517.554.741h-.278l-.434-.6-.117.13v.473H-3.6v-1.846h.226Z" transform="translate(3.6 18.535)" fill="#fc0603"/>
            </g>
            <g id="g162" transform="translate(14.647 30.856)">
              <path id="path164" d="M-13.26-7.988a.326.326,0,0,0-.317-.372.379.379,0,0,0-.351.372Zm-.671.164a.4.4,0,0,0,.432.437.828.828,0,0,0,.348-.065l.039.164a1.02,1.02,0,0,1-.419.078.584.584,0,0,1-.619-.634.611.611,0,0,1,.59-.679.533.533,0,0,1,.52.593.864.864,0,0,1-.008.107Z" transform="translate(14.149 8.524)" fill="#fc0603"/>
            </g>
            <g id="g166" transform="translate(16.496 30.363)">
              <path id="path168" d="M-3.606-13.647c0,.374.2.71.559.71s.562-.33.562-.728c0-.348-.182-.712-.559-.712s-.562.346-.562.731m1.36-.029a.821.821,0,0,1-.814.923.8.8,0,0,1-.788-.889.832.832,0,0,1,.814-.92.8.8,0,0,1,.788.887" transform="translate(3.848 14.563)" fill="#fc0603"/>
            </g>
            <g id="g170" transform="translate(18.373 30.856)">
              <path id="path172" d="M-.155-5.505c0-.13,0-.237-.01-.341h.2l.013.208H.056a.463.463,0,0,1,.416-.237c.174,0,.445.1.445.536v.751H.687v-.725c0-.2-.075-.372-.291-.372a.325.325,0,0,0-.307.234.329.329,0,0,0-.016.107v.757H-.155Z" transform="translate(0.165 5.875)" fill="#fc0603"/>
            </g>
            <g id="g174" transform="translate(19.736 30.856)">
              <path id="path176" d="M-13.26-7.988a.326.326,0,0,0-.317-.372.379.379,0,0,0-.351.372Zm-.671.164a.4.4,0,0,0,.432.437.828.828,0,0,0,.348-.065l.039.164a1.02,1.02,0,0,1-.419.078.584.584,0,0,1-.619-.634.611.611,0,0,1,.59-.679.533.533,0,0,1,.52.593.847.847,0,0,1-.008.107Z" transform="translate(14.149 8.524)" fill="#fc0603"/>
            </g>
            <g id="g178" transform="translate(21.601 30.363)">
              <path id="path180" d="M-.853-22.448a.8.8,0,0,0,.406.114c.231,0,.367-.122.367-.3s-.094-.257-.33-.348c-.286-.1-.463-.25-.463-.5a.5.5,0,0,1,.567-.476.8.8,0,0,1,.387.086l-.062.185a.7.7,0,0,0-.333-.083c-.239,0-.33.143-.33.263,0,.164.107.244.348.338.3.114.447.257.447.515s-.2.5-.614.5a.905.905,0,0,1-.447-.112Z" transform="translate(0.911 23.953)" fill="#fc0603"/>
            </g>
            <g id="g182" transform="translate(22.813 30.524)">
              <path id="path184" d="M-6.243,0V.361h.328V.536h-.328v.679c0,.156.044.244.172.244a.513.513,0,0,0,.133-.016l.01.172a.562.562,0,0,1-.2.031.317.317,0,0,1-.247-.1.467.467,0,0,1-.088-.328V.536h-.2V.361h.2V.06Z" transform="translate(6.661)" fill="#fc0603"/>
            </g>
            <g id="g186" transform="translate(23.71 30.856)">
              <path id="path188" d="M-3.45-9.849c0,.276.159.484.382.484s.382-.205.382-.489c0-.213-.107-.484-.377-.484s-.387.25-.387.489m1-.013a.615.615,0,0,1-.627.668.6.6,0,0,1-.6-.647.614.614,0,0,1,.624-.668.6.6,0,0,1,.606.647" transform="translate(3.681 10.509)" fill="#fc0603"/>
            </g>
            <g id="g190" transform="translate(25.218 30.856)">
              <path id="path192" d="M-3.529-11.554a.516.516,0,0,0,.01.094.353.353,0,0,0,.343.268c.242,0,.382-.2.382-.486,0-.252-.133-.468-.374-.468a.365.365,0,0,0-.346.283.368.368,0,0,0-.016.094Zm-.226-.335c0-.161-.005-.291-.01-.411h.205l.01.216h.005a.5.5,0,0,1,.447-.245.57.57,0,0,1,.533.64.6.6,0,0,1-.572.676.441.441,0,0,1-.387-.2h-.005v.684h-.226Z" transform="translate(3.765 12.329)" fill="#fc0603"/>
            </g>
          </g>
        </g>
      </g>
    </g>
  </g>
</svg>
