<?xml version="1.0" encoding="UTF-8" standalone="no"?>
<svg
   xmlns:dc="http://purl.org/dc/elements/1.1/"
   xmlns:cc="http://creativecommons.org/ns#"
   xmlns:rdf="http://www.w3.org/1999/02/22-rdf-syntax-ns#"
   xmlns:svg="http://www.w3.org/2000/svg"
   xmlns="http://www.w3.org/2000/svg"
   viewBox="0 0 580 720"
   height="720"
   width="580"
   xml:space="preserve"
   id="svg2"
   version="1.1"><metadata
     id="metadata8"><rdf:RDF><cc:Work
         rdf:about=""><dc:format>image/svg+xml</dc:format><dc:type
           rdf:resource="http://purl.org/dc/dcmitype/StillImage" /></cc:Work></rdf:RDF></metadata><defs
     id="defs6"><clipPath
       id="clipPath18"
       clipPathUnits="userSpaceOnUse"><path
         id="path16"
         d="M 0,540 H 435 V 0 H 0 Z" /></clipPath></defs><g
     transform="matrix(1.3333333,0,0,-1.3333333,0,720)"
     id="g10"><g
       id="g12"><g
         clip-path="url(#clipPath18)"
         id="g14"><g
           transform="translate(254.9834,235.7324)"
           id="g20"><path
             id="path22"
             style="fill:#fc0603;fill-opacity:1;fill-rule:nonzero;stroke:none"
             d="m 0,0 c 0,-29.773 -18.284,-45.558 -40.586,-45.558 -23.081,0 -39.29,17.71 -39.29,43.889 0,27.462 17.246,45.429 40.586,45.429 C -15.431,43.76 0,25.666 0,0" /></g><g
           transform="translate(215.6934,274.2798)"
           id="g24"><path
             id="path26"
             style="fill:#fc0603;fill-opacity:1;fill-rule:nonzero;stroke:none"
             d="m 0,0 c -21.125,0 -35.319,-16.162 -35.319,-40.216 0,-23.134 13.673,-38.677 34.023,-38.677 21.456,0 35.319,15.837 35.319,40.346 C 34.023,-15.13 20.668,0 0,0 m -1.296,-89.317 c -26.234,0 -44.557,20.191 -44.557,49.101 0,29.816 18.856,50.641 45.853,50.641 26.234,0 44.557,-20.138 44.557,-48.972 0,-35.072 -23.03,-50.77 -45.853,-50.77" /></g><g
           transform="translate(212.48,254.6084)"
           id="g28"><path
             id="path30"
             style="fill:#ffffff;fill-opacity:1;fill-rule:nonzero;stroke:none"
             d="M 0,0 C 0,0 0,-0.004 0.001,-0.005 0,-0.004 0,-0.002 0,0 m -6.865,4.462 c -0.505,-0.217 -1.454,-0.814 -2.6,-1.821 -1.519,-1.331 -9.161,-8.538 -10.567,-19.884 -0.809,-6.528 1.58,-11.85 4.358,-13.733 2.441,-1.655 12.204,0.524 15.076,3.851 -0.328,7.022 1.193,9.437 2.107,10.889 0.132,0.21 0.252,0.399 0.352,0.585 0.264,0.491 0.607,1.034 0.975,1.617 1.07,1.694 2.39,3.784 2.376,5.779 -0.515,-0.198 -1.549,-0.835 -2.84,-1.965 -2.387,-2.084 -5.254,-6.362 -6.015,-8.976 -0.369,-1.263 -1.343,-3.308 -2.668,-2.967 -1.166,0.299 -1.314,1.897 -0.513,5.514 1.06,4.813 2.911,7.096 3.907,8.323 3.141,3.874 3.202,6.123 2.998,7.759 -0.595,-0.266 -1.618,-0.912 -2.348,-1.608 -5.966,-5.697 -10.516,-13.877 -12.172,-21.883 l -1.636,0.096 c -0.902,10.152 3.666,16.825 5.168,19.018 l 0.463,0.673 c 2.294,3.329 4.13,5.99 3.579,8.733 m -5.918,-37.64 c -1.598,-0.009 -2.957,0.247 -3.82,0.832 -3.095,2.098 -6.004,7.784 -5.073,15.308 1.481,11.94 9.522,19.523 11.119,20.923 1.383,1.216 3.267,2.593 4.383,2.272 0.388,-0.114 0.677,-0.406 0.792,-0.8 C -4.313,1.706 -6.522,-1.5 -9.08,-5.21 l -0.462,-0.671 c -1.082,-1.581 -3.854,-5.629 -4.727,-11.712 2.345,6.218 6.184,12.151 10.859,16.614 0.029,0.027 2.875,2.625 4.311,2.124 C 1.3,1.006 1.575,0.67 1.638,0.243 1.903,-1.513 2.35,-4.458 -1.535,-9.25 c -1.006,-1.239 -2.696,-3.324 -3.672,-7.756 -0.297,-1.342 -0.413,-2.225 -0.448,-2.795 0.149,0.287 0.299,0.649 0.423,1.071 0.846,2.906 3.891,7.466 6.515,9.758 2.215,1.941 3.813,2.736 4.761,2.335 C 6.27,-6.73 6.8,-7.04 6.854,-7.882 7.031,-10.492 5.481,-12.946 4.236,-14.918 3.89,-15.466 3.567,-15.976 3.319,-16.436 3.203,-16.651 3.064,-16.874 2.91,-17.119 2.034,-18.51 0.71,-20.611 1.072,-27.354 l 0.016,-0.304 -0.183,-0.241 c -2.223,-2.934 -8.986,-5.253 -13.688,-5.279" /></g><g
           transform="translate(226.9785,196.335)"
           id="g32"><path
             id="path34"
             style="fill:#ffffff;fill-opacity:1;fill-rule:nonzero;stroke:none"
             d="m 0,0 c -3.426,12.828 5.924,16.694 10.49,15.89 3.469,-0.612 4.769,1.411 4.243,2.973 -0.535,1.563 -2.165,3.524 -1.648,4.221 0.519,0.699 3.928,2.109 -0.077,3.534 1.85,0.881 2.714,1.814 0.847,4.065 -1.868,2.251 -0.135,3.302 0.442,3.829 0.576,0.526 2.711,2.517 2.068,3.211 -0.641,0.687 -6.49,6.968 -7.09,10.557 -0.599,3.588 -7.153,19.665 -22.051,19.583 -12.994,-0.072 -19.994,-5.767 -19.219,-4.921 2.228,2.418 10.405,8.579 18.907,8.626 10.721,0.06 17.478,-6.452 20.287,-10.202 2.8,-3.755 4.238,-12.208 6.4,-15.269 2.159,-3.057 5.717,-6.345 6.647,-7.265 0.934,-0.921 1.407,-2.254 0.017,-3.187 -1.384,-0.935 -3.234,-1.929 -3.401,-3.264 -0.166,-1.336 1.004,-3.181 1.472,-3.761 0.466,-0.576 -0.285,-1.333 -1.845,-2.505 1.745,-1.32 2.193,-1.97 1.873,-2.652 -0.632,-1.339 -2.603,-1.291 -2.131,-2.68 0.47,-1.386 2.23,-4.853 0.731,-6.485 C 14.714,11.848 8.741,13.746 6.198,12.633 3.657,11.516 0.503,7.208 0,0" /></g><g
           transform="translate(236.0439,274.5586)"
           id="g36"><path
             id="path38"
             style="fill:#ffffff;fill-opacity:1;fill-rule:nonzero;stroke:none"
             d="m 0,0 -6.523,-0.036 -10.036,-9.797 7.464,0.041 -11.96,-9.458 7.909,0.044 -13.18,-12.337 23.646,15.412 -9.093,-0.051 12.707,9.069 -8.505,-0.048 z" /></g><g
           transform="translate(212.8779,196.2568)"
           id="g40"><path
             id="path42"
             style="fill:#ffffff;fill-opacity:1;fill-rule:nonzero;stroke:none"
             d="m 0,0 -17.892,-0.099 c 3.089,7.147 3.599,9.585 3.582,12.541 -0.029,5.334 -14.15,11.339 -14.252,29.828 -0.045,8.176 9.498,21.255 9.929,19.274 1.151,-5.282 -3.318,-9.041 -3.265,-18.482 0.053,-9.621 6.693,-15.496 10.054,-15.477 3.361,0.019 2.763,13.693 -4.709,23.218 1.329,1.221 7.207,0.791 10.047,-3.425 C -4.05,43.741 -0.824,35.021 1.587,30.674 4.718,25.026 6.226,22.02 6.261,15.7 6.289,10.658 3.335,5.107 0,0" /></g><g
           transform="translate(179.3477,336.5566)"
           id="g44"><path
             id="path46"
             style="fill:#333333;fill-opacity:1;fill-rule:nonzero;stroke:none"
             d="M 0,0 C -0.566,10.641 -1.245,23.433 -1.133,32.942 H -1.472 C -4.076,24 -7.245,14.49 -11.095,3.962 l -13.47,-37.018 h -7.472 l -12.34,36.339 c -3.622,10.754 -6.679,20.603 -8.83,29.659 h -0.226 c -0.226,-9.509 -0.793,-22.301 -1.471,-33.734 l -2.038,-32.717 h -9.397 l 5.321,76.301 h 12.566 L -35.434,5.887 c 3.17,-9.396 5.774,-17.774 7.699,-25.698 h 0.339 c 1.924,7.698 4.641,16.075 8.038,25.698 L -5.773,42.792 H 6.792 l 4.755,-76.301 H 1.924 Z" /></g><g
           transform="translate(122.5732,374.0972)"
           id="g48"><path
             id="path50"
             style="fill:#333333;fill-opacity:1;fill-rule:nonzero;stroke:none"
             d="M 0,0 H 5.299 L 5.068,0.653 H 0.045 Z m 53.968,0 h 5.319 L 59.246,0.653 H 54.208 Z M 14.956,-27.375 c 0.567,-1.734 1.166,-3.536 1.799,-5.415 l 3.319,-9.774 c -0.915,2.904 -1.939,6.029 -3.09,9.44 z m 13.076,-38.624 h 0.957 l 1.473,4.049 h -3.805 z m -32.667,-0.452 h 0.147 l 1.222,19.622 z m 67.675,0 h 0.388 l -2.903,46.571 c 0.229,-5.92 0.553,-12.008 0.84,-17.407 z m 10.175,-9.196 H 54.356 l -2.173,37.862 c -0.129,2.416 -0.265,4.968 -0.396,7.584 -0.578,-1.624 -1.174,-3.276 -1.789,-4.957 L 35.429,-75.195 H 21.443 l -13.4,39.459 c -0.419,1.246 -0.824,2.46 -1.216,3.643 C 6.71,-34.275 6.588,-36.455 6.46,-38.605 L 4.152,-75.647 h -18.646 l 5.962,85.496 h 20.108 l 14.101,-39.973 c 1.371,-4.064 2.567,-7.734 3.618,-11.116 1.096,3.369 2.347,7.041 3.785,11.116 L 47.794,9.849 h 20.093 z" /></g><g
           transform="translate(202.8799,315.0474)"
           id="g52"><path
             id="path54"
             style="fill:#333333;fill-opacity:1;fill-rule:nonzero;stroke:none"
             d="m 0,0 c 4.415,-2.717 10.868,-4.981 17.66,-4.981 10.075,0 15.962,5.321 15.962,13.019 0,7.131 -4.075,11.207 -14.377,15.169 -12.453,4.415 -20.15,10.868 -20.15,21.623 0,11.886 9.848,20.716 24.678,20.716 7.811,0 13.471,-1.812 16.868,-3.736 l -2.717,-8.038 c -2.49,1.359 -7.585,3.623 -14.49,3.623 -10.415,0 -14.377,-6.226 -14.377,-11.434 0,-7.131 4.641,-10.641 15.169,-14.716 12.905,-4.981 19.471,-11.207 19.471,-22.415 0,-11.773 -8.717,-21.961 -26.717,-21.961 -7.358,0 -15.395,2.151 -19.47,4.867 z" /></g><g
           transform="translate(209.6377,369.0601)"
           id="g56"><path
             id="path58"
             style="fill:#333333;fill-opacity:1;fill-rule:nonzero;stroke:none"
             d="m 0,0 c -1.975,-2.524 -3.065,-5.64 -3.065,-9.183 0,-5.229 1.942,-11.919 17.089,-17.289 l 0.114,-0.042 c 8.998,-3.461 17.324,-8.213 17.324,-19.461 0,-4.086 -1.242,-7.652 -3.48,-10.486 2.821,2.889 4.359,6.715 4.359,11.278 0,9.781 -6.324,14.187 -16.529,18.125 -9.166,3.549 -18.111,7.938 -18.111,19.007 0,2.742 0.749,5.559 2.299,8.051 m 10.223,-71.742 c -7.985,0 -17.04,2.319 -22.022,5.64 l -2.835,1.89 5.197,17.247 5.089,-3.132 c 4.374,-2.692 10.076,-4.299 15.25,-4.299 3.417,0 11.364,0.821 11.364,8.421 0,3.54 -0.858,6.802 -11.374,10.856 -15.579,5.538 -23.153,14.023 -23.153,25.936 0,14.668 12.313,25.314 29.277,25.314 9.993,0 16.277,-2.714 19.133,-4.333 l 3.307,-1.873 -5.687,-16.823 -4.805,2.621 c -2.56,1.397 -6.77,3.061 -12.288,3.061 -7.21,0 -9.779,-3.531 -9.779,-6.835 0,-3.44 0.851,-6.024 12.231,-10.429 19.862,-7.666 22.41,-18.297 22.41,-26.703 0,-13.22 -9.684,-26.559 -31.315,-26.559" /></g><g
           transform="translate(265.1846,379.3481)"
           id="g60"><path
             id="path62"
             style="fill:#333333;fill-opacity:1;fill-rule:nonzero;stroke:none"
             d="m 0,0 v -45.169 c 0,-17.094 7.585,-24.339 17.773,-24.339 11.321,0 18.566,7.471 18.566,24.339 V 0 h 9.962 v -44.49 c 0,-23.433 -12.339,-33.055 -28.867,-33.055 -15.622,0 -27.396,8.942 -27.396,32.603 V 0 Z" /></g><g
           transform="translate(306.1216,374.75)"
           id="g64"><path
             id="path66"
             style="fill:#333333;fill-opacity:1;fill-rule:nonzero;stroke:none"
             d="m 0,0 v -40.571 c 0,-5.077 -0.769,-14.083 -5.564,-20.703 4.181,4.788 6.33,11.961 6.33,21.382 V 0 Z m -46.301,0 v -40.344 c 0,-11.957 3.175,-20.121 9.469,-24.423 -5.597,4.823 -8.703,13.154 -8.703,24.196 V 0 Z m 22.798,-77.545 c -20.333,0 -31.994,13.559 -31.994,37.201 v 49.54 h 19.158 v -49.767 c 0,-9.006 2.286,-19.741 13.175,-19.741 3.455,0 13.968,0 13.968,19.741 V 9.196 H 9.962 v -49.088 c 0,-23.929 -12.198,-37.653 -33.465,-37.653" /></g><g
           transform="translate(116.9375,205.3564)"
           id="g68"><path
             id="path70"
             style="fill:#fc0603;fill-opacity:1;fill-rule:nonzero;stroke:none"
             d="m 0,0 c 5.005,-3.08 12.319,-5.646 20.019,-5.646 11.421,0 18.094,6.031 18.094,14.757 0,8.085 -4.62,12.704 -16.298,17.196 -14.116,5.005 -22.841,12.319 -22.841,24.51 0,13.475 11.164,23.484 27.974,23.484 8.855,0 15.272,-2.053 19.121,-4.235 l -3.08,-9.111 c -2.823,1.54 -8.597,4.107 -16.426,4.107 -11.805,0 -16.297,-7.058 -16.297,-12.961 0,-8.085 5.261,-12.063 17.196,-16.683 14.629,-5.647 22.072,-12.704 22.072,-25.408 0,-13.347 -9.881,-24.896 -30.285,-24.896 -8.341,0 -17.452,2.439 -22.072,5.518 z" /></g><g
           transform="translate(124.5952,266.5811)"
           id="g72"><path
             id="path74"
             style="fill:#fc0603;fill-opacity:1;fill-rule:nonzero;stroke:none"
             d="m 0,0 c -2.237,-2.861 -3.472,-6.393 -3.472,-10.407 0,-5.927 2.202,-13.511 19.371,-19.598 l 0.13,-0.048 c 10.2,-3.923 19.639,-9.31 19.639,-22.06 0,-4.632 -1.409,-8.675 -3.946,-11.889 3.198,3.276 4.942,7.614 4.942,12.787 0,11.086 -7.169,16.081 -18.737,20.546 -10.391,4.023 -20.531,8.998 -20.531,21.545 0,3.107 0.848,6.3 2.604,9.124 m 11.591,-81.322 c -9.05,0 -19.315,2.628 -24.963,6.392 l -3.214,2.142 5.892,19.552 5.768,-3.549 c 4.959,-3.052 11.421,-4.874 17.287,-4.874 3.873,0 12.882,0.93 12.882,9.546 0,4.156 -0.95,7.702 -12.894,12.306 -17.659,6.278 -26.245,15.896 -26.245,29.4 0,16.627 13.957,28.696 33.187,28.696 11.331,0 18.453,-3.078 21.69,-4.913 l 3.748,-2.123 -6.447,-19.069 -5.447,2.97 c -2.901,1.583 -7.674,3.471 -13.929,3.471 -8.174,0 -11.086,-4.003 -11.086,-7.749 0,-3.898 0.965,-6.828 13.866,-11.822 22.515,-8.691 25.403,-20.742 25.403,-30.269 0,-14.986 -10.976,-30.107 -35.498,-30.107" /></g><g
           transform="translate(263.6133,205.3564)"
           id="g76"><path
             id="path78"
             style="fill:#fc0603;fill-opacity:1;fill-rule:nonzero;stroke:none"
             d="m 0,0 c 5.005,-3.08 12.319,-5.646 20.019,-5.646 11.421,0 18.094,6.031 18.094,14.757 0,8.085 -4.62,12.704 -16.298,17.196 -14.116,5.005 -22.841,12.319 -22.841,24.51 0,13.475 11.164,23.484 27.974,23.484 8.855,0 15.272,-2.053 19.121,-4.235 l -3.08,-9.111 c -2.823,1.54 -8.597,4.107 -16.426,4.107 -11.805,0 -16.297,-7.058 -16.297,-12.961 0,-8.085 5.261,-12.063 17.196,-16.683 14.629,-5.647 22.072,-12.704 22.072,-25.408 0,-13.347 -9.881,-24.896 -30.285,-24.896 -8.341,0 -17.452,2.439 -22.072,5.518 z" /></g><g
           transform="translate(271.271,266.5811)"
           id="g80"><path
             id="path82"
             style="fill:#fc0603;fill-opacity:1;fill-rule:nonzero;stroke:none"
             d="m 0,0 c -2.237,-2.861 -3.472,-6.393 -3.472,-10.407 0,-5.927 2.202,-13.511 19.371,-19.598 l 0.13,-0.048 c 10.2,-3.923 19.639,-9.31 19.639,-22.06 0,-4.632 -1.409,-8.675 -3.946,-11.889 3.198,3.276 4.942,7.614 4.942,12.787 0,11.086 -7.169,16.081 -18.737,20.546 -10.391,4.023 -20.531,8.998 -20.531,21.545 0,3.107 0.848,6.3 2.604,9.124 m 11.591,-81.322 c -9.05,0 -19.315,2.628 -24.963,6.392 l -3.214,2.142 5.892,19.552 5.768,-3.549 c 4.959,-3.052 11.421,-4.874 17.287,-4.874 3.873,0 12.882,0.93 12.882,9.546 0,4.156 -0.95,7.702 -12.894,12.306 -17.659,6.278 -26.245,15.896 -26.245,29.4 0,16.627 13.957,28.696 33.187,28.696 11.331,0 18.453,-3.078 21.69,-4.913 l 3.748,-2.123 -6.447,-19.069 -5.447,2.97 c -2.901,1.583 -7.674,3.471 -13.929,3.471 -8.174,0 -11.086,-4.003 -11.086,-7.749 0,-3.898 0.965,-6.828 13.866,-11.822 22.515,-8.691 25.403,-20.742 25.403,-30.269 0,-14.986 -10.976,-30.107 -35.498,-30.107" /></g><g
           transform="translate(130.2217,406.9473)"
           id="g84"><path
             id="path86"
             style="fill:#333333;fill-opacity:1;fill-rule:nonzero;stroke:none"
             d="M 0,0 C -0.132,2.468 -0.289,5.436 -0.263,7.642 H -0.342 C -0.945,5.567 -1.681,3.361 -2.574,0.919 l -3.125,-8.587 h -1.732 l -2.863,8.429 c -0.84,2.495 -1.549,4.78 -2.048,6.881 h -0.053 c -0.052,-2.206 -0.183,-5.174 -0.341,-7.826 l -0.472,-7.589 h -2.18 l 1.234,17.699 h 2.915 L -8.22,1.365 c 0.736,-2.179 1.34,-4.122 1.786,-5.961 h 0.079 c 0.446,1.786 1.076,3.729 1.865,5.961 l 3.151,8.561 H 1.576 L 2.678,-7.773 H 0.447 Z" /></g><g
           transform="translate(137.918,405.5029)"
           id="g88"><path
             id="path90"
             style="fill:#333333;fill-opacity:1;fill-rule:nonzero;stroke:none"
             d="m 0,0 c 0,-2.784 1.602,-4.884 3.86,-4.884 2.206,0 3.861,2.074 3.861,4.936 0,2.154 -1.077,4.885 -3.808,4.885 C 1.182,4.937 0,2.416 0,0 m 10.083,0.131 c 0,-4.7 -3.255,-6.749 -6.328,-6.749 -3.44,0 -6.092,2.521 -6.092,6.539 0,4.254 2.784,6.749 6.302,6.749 3.651,0 6.118,-2.652 6.118,-6.539" /></g><g
           transform="translate(153.2026,404.2686)"
           id="g92"><path
             id="path94"
             style="fill:#333333;fill-opacity:1;fill-rule:nonzero;stroke:none"
             d="m 0,0 c 0,-0.289 0.053,-0.578 0.105,-0.84 0.446,-1.602 1.786,-2.705 3.466,-2.705 2.416,0 3.861,1.969 3.861,4.884 0,2.548 -1.314,4.727 -3.781,4.727 C 2.075,6.066 0.604,4.989 0.131,3.23 0.08,2.967 0,2.652 0,2.285 Z m -2.39,-5.094 c 0.054,0.866 0.105,2.153 0.105,3.282 V 13.55 H 0 V 5.567 h 0.053 c 0.813,1.418 2.284,2.337 4.333,2.337 3.151,0 5.383,-2.626 5.357,-6.486 0,-4.543 -2.863,-6.801 -5.699,-6.801 -1.838,0 -3.309,0.709 -4.254,2.389 h -0.079 l -0.105,-2.1 z" /></g><path
           id="path96"
           style="fill:#333333;fill-opacity:1;fill-rule:nonzero;stroke:none"
           d="m 165.862,411.884 h 2.311 v -12.709 h -2.311 z m 2.573,3.571 c 0.026,-0.788 -0.552,-1.418 -1.471,-1.418 -0.814,0 -1.392,0.63 -1.392,1.418 0,0.815 0.605,1.444 1.445,1.444 0.866,0 1.418,-0.629 1.418,-1.444" /><path
           id="path98"
           style="fill:#333333;fill-opacity:1;fill-rule:nonzero;stroke:none"
           d="m 172.007,417.819 h 2.311 v -18.645 h -2.311 z" /><g
           transform="translate(186.2671,406.7632)"
           id="g100"><path
             id="path102"
             style="fill:#333333;fill-opacity:1;fill-rule:nonzero;stroke:none"
             d="M 0,0 C 0.026,1.471 -0.604,3.755 -3.204,3.755 -5.542,3.755 -6.565,1.602 -6.749,0 Z m -6.775,-1.654 c 0.052,-3.125 2.048,-4.412 4.359,-4.412 1.655,0 2.652,0.289 3.519,0.657 l 0.393,-1.654 c -0.813,-0.368 -2.205,-0.789 -4.227,-0.789 -3.913,0 -6.25,2.574 -6.25,6.408 0,3.834 2.258,6.854 5.96,6.854 4.15,0 5.252,-3.65 5.252,-5.988 0,-0.472 -0.051,-0.84 -0.078,-1.076 z" /></g><g
           transform="translate(196.6934,401.958)"
           id="g104"><path
             id="path106"
             style="fill:#333333;fill-opacity:1;fill-rule:nonzero;stroke:none"
             d="m 0,0 c 1.024,-0.63 2.521,-1.156 4.097,-1.156 2.337,0 3.703,1.235 3.703,3.02 0,1.655 -0.946,2.6 -3.336,3.519 -2.888,1.024 -4.674,2.521 -4.674,5.015 0,2.758 2.284,4.806 5.725,4.806 1.811,0 3.125,-0.42 3.912,-0.867 L 8.796,12.473 c -0.576,0.315 -1.758,0.84 -3.36,0.84 -2.416,0 -3.335,-1.444 -3.335,-2.652 0,-1.654 1.077,-2.468 3.519,-3.413 2.993,-1.156 4.516,-2.6 4.516,-5.2 0,-2.731 -2.021,-5.094 -6.197,-5.094 -1.707,0 -3.571,0.499 -4.517,1.129 z" /></g><g
           transform="translate(212.5825,415.5342)"
           id="g108"><path
             id="path110"
             style="fill:#333333;fill-opacity:1;fill-rule:nonzero;stroke:none"
             d="M 0,0 V -3.65 H 3.308 V -5.41 H 0 v -6.853 c 0,-1.576 0.446,-2.469 1.732,-2.469 0.605,0 1.051,0.079 1.34,0.158 l 0.105,-1.734 c -0.446,-0.183 -1.155,-0.315 -2.048,-0.315 -1.077,0 -1.943,0.342 -2.494,0.972 -0.657,0.683 -0.894,1.812 -0.894,3.309 v 6.932 h -1.969 v 1.76 h 1.969 v 3.046 z" /></g><g
           transform="translate(218.4917,407.9189)"
           id="g112"><path
             id="path114"
             style="fill:#333333;fill-opacity:1;fill-rule:nonzero;stroke:none"
             d="M 0,0 C 0,1.497 -0.026,2.783 -0.105,3.965 H 1.917 L 1.996,1.47 h 0.105 c 0.578,1.707 1.97,2.784 3.52,2.784 0.261,0 0.445,-0.026 0.655,-0.079 V 1.996 C 6.041,2.048 5.804,2.074 5.489,2.074 3.86,2.074 2.705,0.84 2.39,-0.893 2.337,-1.208 2.285,-1.576 2.285,-1.97 v -6.775 l -2.285,0 z" /></g><g
           transform="translate(228.2354,405.5029)"
           id="g116"><path
             id="path118"
             style="fill:#333333;fill-opacity:1;fill-rule:nonzero;stroke:none"
             d="m 0,0 c 0,-2.784 1.602,-4.884 3.861,-4.884 2.205,0 3.86,2.074 3.86,4.936 0,2.154 -1.077,4.885 -3.808,4.885 C 1.182,4.937 0,2.416 0,0 m 10.083,0.131 c 0,-4.7 -3.255,-6.749 -6.328,-6.749 -3.44,0 -6.092,2.521 -6.092,6.539 0,4.254 2.784,6.749 6.303,6.749 3.65,0 6.117,-2.652 6.117,-6.539" /></g><g
           transform="translate(243.5205,406.0542)"
           id="g120"><path
             id="path122"
             style="fill:#333333;fill-opacity:1;fill-rule:nonzero;stroke:none"
             d="M 0,0 H 0.052 C 0.367,0.447 0.814,0.998 1.181,1.444 L 4.911,5.83 H 7.693 L 2.783,0.604 8.377,-6.88 H 5.567 L 1.181,-0.788 0,-2.101 V -6.88 H -2.285 V 11.765 H 0 Z" /></g><g
           transform="translate(261.6147,406.7632)"
           id="g124"><path
             id="path126"
             style="fill:#333333;fill-opacity:1;fill-rule:nonzero;stroke:none"
             d="M 0,0 C 0.026,1.471 -0.604,3.755 -3.204,3.755 -5.541,3.755 -6.565,1.602 -6.75,0 Z m -6.775,-1.654 c 0.052,-3.125 2.048,-4.412 4.359,-4.412 1.654,0 2.653,0.289 3.519,0.657 l 0.394,-1.654 c -0.814,-0.368 -2.206,-0.789 -4.228,-0.789 -3.914,0 -6.25,2.574 -6.25,6.408 0,3.834 2.258,6.854 5.961,6.854 4.148,0 5.252,-3.65 5.252,-5.988 0,-0.472 -0.053,-0.84 -0.079,-1.076 z" /></g><g
           transform="translate(274.6411,416.8735)"
           id="g128"><path
             id="path130"
             style="fill:#333333;fill-opacity:1;fill-rule:nonzero;stroke:none"
             d="m 0,0 v -10.478 c 0,-3.965 1.76,-5.646 4.124,-5.646 2.625,0 4.306,1.733 4.306,5.646 V 0 h 2.311 v -10.32 c 0,-5.436 -2.863,-7.668 -6.696,-7.668 -3.625,0 -6.356,2.074 -6.356,7.563 V 0 Z" /></g><g
           transform="translate(289.27,408.4438)"
           id="g132"><path
             id="path134"
             style="fill:#333333;fill-opacity:1;fill-rule:nonzero;stroke:none"
             d="M 0,0 C 0,1.313 -0.027,2.39 -0.105,3.44 H 1.942 L 2.074,1.339 h 0.052 c 0.631,1.208 2.102,2.39 4.202,2.39 1.76,0 4.491,-1.05 4.491,-5.41 V -9.27 H 8.508 v 7.327 C 8.508,0.105 7.746,1.812 5.567,1.812 4.043,1.812 2.862,0.735 2.468,-0.551 2.362,-0.84 2.311,-1.234 2.311,-1.628 V -9.27 H 0 Z" /></g><path
           id="path136"
           style="fill:#333333;fill-opacity:1;fill-rule:nonzero;stroke:none"
           d="m 303.846,411.884 h 2.311 v -12.709 h -2.311 z m 2.574,3.571 c 0.026,-0.788 -0.552,-1.418 -1.471,-1.418 -0.814,0 -1.392,0.63 -1.392,1.418 0,0.815 0.604,1.444 1.444,1.444 0.867,0 1.419,-0.629 1.419,-1.444" /><g
           transform="translate(312.7739,415.5342)"
           id="g138"><path
             id="path140"
             style="fill:#333333;fill-opacity:1;fill-rule:nonzero;stroke:none"
             d="M 0,0 V -3.65 H 3.31 V -5.41 H 0 v -6.853 c 0,-1.576 0.447,-2.469 1.734,-2.469 0.603,0 1.05,0.079 1.339,0.158 l 0.105,-1.734 c -0.447,-0.183 -1.156,-0.315 -2.049,-0.315 -1.076,0 -1.942,0.342 -2.495,0.972 -0.655,0.683 -0.891,1.812 -0.891,3.309 v 6.932 h -1.971 v 1.76 h 1.971 v 3.046 z" /></g><g
           transform="translate(108.6914,159.6836)"
           id="g142"><path
             id="path144"
             style="fill:#fc0603;fill-opacity:1;fill-rule:nonzero;stroke:none"
             d="m 0,0 c 1.209,-0.745 2.979,-1.366 4.84,-1.366 2.762,0 4.375,1.459 4.375,3.568 0,1.956 -1.116,3.072 -3.94,4.158 -3.413,1.21 -5.523,2.979 -5.523,5.927 0,3.258 2.699,5.678 6.764,5.678 2.141,0 3.692,-0.496 4.623,-1.025 l -0.744,-2.202 c -0.683,0.372 -2.08,0.993 -3.972,0.993 -2.855,0 -3.941,-1.707 -3.941,-3.133 0,-1.955 1.273,-2.917 4.158,-4.035 3.537,-1.365 5.338,-3.072 5.338,-6.143 0,-3.228 -2.391,-6.02 -7.324,-6.02 -2.017,0 -4.22,0.589 -5.337,1.334 z" /></g><g
           transform="translate(127.4678,175.7256)"
           id="g146"><path
             id="path148"
             style="fill:#fc0603;fill-opacity:1;fill-rule:nonzero;stroke:none"
             d="m 0,0 v -4.313 h 3.909 v -2.08 H 0 v -8.098 c 0,-1.862 0.527,-2.917 2.047,-2.917 0.714,0 1.242,0.094 1.583,0.186 l 0.124,-2.048 c -0.527,-0.216 -1.365,-0.372 -2.421,-0.372 -1.271,0 -2.295,0.403 -2.947,1.148 -0.775,0.807 -1.054,2.141 -1.054,3.91 v 8.191 h -2.328 v 2.08 h 2.328 v 3.599 z" /></g><g
           transform="translate(134.4512,166.7266)"
           id="g150"><path
             id="path152"
             style="fill:#fc0603;fill-opacity:1;fill-rule:nonzero;stroke:none"
             d="M 0,0 C 0,1.769 -0.031,3.289 -0.124,4.686 H 2.265 L 2.358,1.737 h 0.125 c 0.683,2.018 2.327,3.29 4.157,3.29 0.311,0 0.527,-0.031 0.776,-0.093 V 2.358 C 7.137,2.42 6.858,2.451 6.485,2.451 4.562,2.451 3.196,0.993 2.824,-1.055 2.762,-1.428 2.7,-1.862 2.7,-2.327 v -8.006 H 0 Z" /></g><g
           transform="translate(145.9648,163.8721)"
           id="g154"><path
             id="path156"
             style="fill:#fc0603;fill-opacity:1;fill-rule:nonzero;stroke:none"
             d="m 0,0 c 0,-3.29 1.893,-5.771 4.562,-5.771 2.606,0 4.561,2.451 4.561,5.833 0,2.544 -1.272,5.771 -4.499,5.771 C 1.396,5.833 0,2.854 0,0 m 11.915,0.155 c 0,-5.554 -3.848,-7.974 -7.478,-7.974 -4.064,0 -7.198,2.978 -7.198,7.726 0,5.026 3.288,7.975 7.447,7.975 4.313,0 7.229,-3.135 7.229,-7.727" /></g><g
           transform="translate(164.0278,164.5234)"
           id="g158"><path
             id="path160"
             style="fill:#fc0603;fill-opacity:1;fill-rule:nonzero;stroke:none"
             d="M 0,0 H 0.062 C 0.435,0.527 0.961,1.179 1.396,1.707 L 5.802,6.889 H 9.091 L 3.289,0.714 9.898,-8.13 H 6.578 L 1.396,-0.931 0,-2.482 V -8.13 H -2.7 V 13.901 H 0 Z" /></g><g
           transform="translate(185.4102,165.3613)"
           id="g162"><path
             id="path164"
             style="fill:#fc0603;fill-opacity:1;fill-rule:nonzero;stroke:none"
             d="M 0,0 C 0.031,1.738 -0.714,4.437 -3.785,4.437 -6.547,4.437 -7.757,1.893 -7.975,0 Z m -8.006,-1.954 c 0.063,-3.692 2.421,-5.214 5.151,-5.214 1.955,0 3.134,0.342 4.158,0.776 l 0.465,-1.955 c -0.962,-0.434 -2.606,-0.93 -4.995,-0.93 -4.624,0 -7.385,3.041 -7.385,7.571 0,4.53 2.669,8.099 7.044,8.099 4.901,0 6.205,-4.314 6.205,-7.076 0,-0.557 -0.062,-0.992 -0.093,-1.271 z" /></g><g
           transform="translate(199.75,166.7266)"
           id="g166"><path
             id="path168"
             style="fill:#fc0603;fill-opacity:1;fill-rule:nonzero;stroke:none"
             d="m 0,0 c 0,-4.468 2.42,-8.471 6.671,-8.471 4.283,0 6.703,3.941 6.703,8.689 0,4.157 -2.172,8.502 -6.671,8.502 C 2.234,8.72 0,4.593 0,0 m 16.228,0.342 c 0,-7.198 -4.375,-11.016 -9.712,-11.016 -5.523,0 -9.402,4.282 -9.402,10.612 0,6.64 4.127,10.984 9.713,10.984 5.708,0 9.401,-4.375 9.401,-10.58" /></g><g
           transform="translate(219.3955,167.3477)"
           id="g170"><path
             id="path172"
             style="fill:#fc0603;fill-opacity:1;fill-rule:nonzero;stroke:none"
             d="m 0,0 c 0,1.551 -0.031,2.823 -0.124,4.064 h 2.42 L 2.452,1.582 h 0.061 c 0.745,1.428 2.483,2.824 4.965,2.824 2.079,0 5.306,-1.242 5.306,-6.392 v -8.968 h -2.731 v 8.657 c 0,2.421 -0.899,4.438 -3.474,4.438 C 4.778,2.141 3.382,0.869 2.916,-0.652 2.792,-0.993 2.73,-1.459 2.73,-1.925 v -9.029 H 0 Z" /></g><g
           transform="translate(246.1465,165.3613)"
           id="g174"><path
             id="path176"
             style="fill:#fc0603;fill-opacity:1;fill-rule:nonzero;stroke:none"
             d="M 0,0 C 0.031,1.738 -0.714,4.437 -3.785,4.437 -6.547,4.437 -7.757,1.893 -7.975,0 Z m -8.006,-1.954 c 0.063,-3.692 2.421,-5.214 5.152,-5.214 1.954,0 3.133,0.342 4.157,0.776 l 0.465,-1.955 c -0.961,-0.434 -2.606,-0.93 -4.995,-0.93 -4.624,0 -7.385,3.041 -7.385,7.571 0,4.53 2.669,8.099 7.044,8.099 4.902,0 6.205,-4.314 6.205,-7.076 0,-0.557 -0.061,-0.992 -0.093,-1.271 z" /></g><g
           transform="translate(258.4687,159.6836)"
           id="g178"><path
             id="path180"
             style="fill:#fc0603;fill-opacity:1;fill-rule:nonzero;stroke:none"
             d="m 0,0 c 1.209,-0.745 2.979,-1.366 4.84,-1.366 2.762,0 4.375,1.459 4.375,3.568 0,1.956 -1.116,3.072 -3.94,4.158 -3.413,1.21 -5.523,2.979 -5.523,5.927 0,3.258 2.699,5.678 6.764,5.678 2.141,0 3.692,-0.496 4.623,-1.025 l -0.744,-2.202 c -0.683,0.372 -2.08,0.993 -3.972,0.993 -2.855,0 -3.941,-1.707 -3.941,-3.133 0,-1.955 1.273,-2.917 4.158,-4.035 3.537,-1.365 5.338,-3.072 5.338,-6.143 0,-3.228 -2.391,-6.02 -7.324,-6.02 -2.017,0 -4.22,0.589 -5.337,1.334 z" /></g><g
           transform="translate(277.2451,175.7256)"
           id="g182"><path
             id="path184"
             style="fill:#fc0603;fill-opacity:1;fill-rule:nonzero;stroke:none"
             d="m 0,0 v -4.313 h 3.909 v -2.08 H 0 v -8.098 c 0,-1.862 0.527,-2.917 2.047,-2.917 0.714,0 1.242,0.094 1.583,0.186 l 0.124,-2.048 c -0.527,-0.216 -1.365,-0.372 -2.421,-0.372 -1.271,0 -2.295,0.403 -2.947,1.148 -0.775,0.807 -1.054,2.141 -1.054,3.91 v 8.191 h -2.328 v 2.08 h 2.328 v 3.599 z" /></g><g
           transform="translate(285.7183,163.8721)"
           id="g186"><path
             id="path188"
             style="fill:#fc0603;fill-opacity:1;fill-rule:nonzero;stroke:none"
             d="m 0,0 c 0,-3.29 1.893,-5.771 4.562,-5.771 2.606,0 4.561,2.451 4.561,5.833 0,2.544 -1.272,5.771 -4.499,5.771 C 1.396,5.833 0,2.854 0,0 m 11.915,0.155 c 0,-5.554 -3.848,-7.974 -7.478,-7.974 -4.064,0 -7.198,2.978 -7.198,7.726 0,5.026 3.288,7.975 7.447,7.975 4.313,0 7.229,-3.135 7.229,-7.727" /></g><g
           transform="translate(303.7812,162.5068)"
           id="g190"><path
             id="path192"
             style="fill:#fc0603;fill-opacity:1;fill-rule:nonzero;stroke:none"
             d="m 0,0 c 0,-0.403 0.062,-0.776 0.124,-1.117 0.497,-1.893 2.141,-3.196 4.096,-3.196 2.885,0 4.561,2.358 4.561,5.802 0,3.01 -1.583,5.585 -4.468,5.585 C 2.452,7.074 0.713,5.74 0.187,3.692 0.093,3.351 0,2.947 0,2.575 Z m -2.7,4.003 c 0,1.923 -0.062,3.475 -0.124,4.902 h 2.452 l 0.124,-2.576 h 0.061 c 1.117,1.831 2.886,2.918 5.338,2.918 3.63,0 6.361,-3.073 6.361,-7.633 0,-5.399 -3.289,-8.068 -6.827,-8.068 -1.986,0 -3.724,0.868 -4.623,2.358 H 0 v -8.161 h -2.7 z" /></g></g></g></g></svg>