<svg xmlns="http://www.w3.org/2000/svg" xmlns:xlink="http://www.w3.org/1999/xlink" width="128" height="128" viewBox="0 0 128 128">
  <defs>
    <clipPath id="clip-path">
      <rect id="Rectangle_1" data-name="Rectangle 1" width="70" height="90" transform="translate(0.248 -0.272)" fill="red" opacity="0.56"/>
    </clipPath>
    <clipPath id="clip-path-2">
      <path id="path16" d="M0-720H145.562v180.7H0Z" transform="translate(0 719.998)"/>
    </clipPath>
  </defs>
  <g id="Group_6" data-name="Group 6" transform="translate(-4722 1486.308)">
    <circle id="Ellipse_1" data-name="Ellipse 1" cx="64" cy="64" r="64" transform="translate(4722 -1486.308)" fill="#fff"/>
    <g id="Mask_Group_1" data-name="Mask Group 1" transform="translate(4750.752 -1467.036)" clip-path="url(#clip-path)">
      <g id="g10" transform="translate(-36.13 -40.923)">
        <g id="g12" transform="translate(0 0)">
          <g id="g14" clip-path="url(#clip-path-2)">
            <g id="g20" transform="translate(58.595 87.172)">
              <path id="path22" d="M-79.773-43.7c0,9.963-6.118,15.245-13.581,15.245-7.723,0-13.147-5.926-13.147-14.686,0-9.189,5.771-15.2,13.581-15.2,7.984,0,13.147,6.055,13.147,14.643" transform="translate(106.501 58.347)" fill="#fc0603"/>
            </g>
            <g id="g24" transform="translate(56.833 85.428)">
              <path id="path26" d="M-45.794-10.411c-7.069,0-11.819,5.408-11.819,13.457,0,7.741,4.575,12.942,11.385,12.942,7.18,0,11.819-5.3,11.819-13.5,0-7.836-4.469-12.9-11.385-12.9m-.434,29.888c-8.779,0-14.91-6.756-14.91-16.43,0-9.977,6.31-16.946,15.344-16.946,8.779,0,14.91,6.739,14.91,16.387,0,11.736-7.706,16.989-15.344,16.989" transform="translate(61.137 13.9)" fill="#fc0603"/>
            </g>
            <g id="g28" transform="translate(63.789 93.423)">
              <path id="path30" d="M-21.824-6.2s0,0,0,0a0,0,0,0,1,0,0m-2.3-1.493a3.828,3.828,0,0,0-.87.609A11.129,11.129,0,0,0-28.527-.426c-.271,2.184.529,3.965,1.458,4.6.817.554,4.084-.175,5.045-1.289-.11-2.35.4-3.158.705-3.644.044-.07.084-.134.118-.2.088-.164.2-.346.326-.541a3.968,3.968,0,0,0,.8-1.934,3.854,3.854,0,0,0-.95.658,8.008,8.008,0,0,0-2.013,3c-.123.423-.449,1.107-.893.993-.39-.1-.44-.635-.172-1.845A6.08,6.08,0,0,1-22.8-3.41a3.214,3.214,0,0,0,1-2.6,3.233,3.233,0,0,0-.786.538,14.612,14.612,0,0,0-4.073,7.323l-.547-.032a9.441,9.441,0,0,1,1.729-6.364l.155-.225c.768-1.114,1.382-2,1.2-2.922m-1.98,12.6a2.331,2.331,0,0,1-1.278-.278c-1.036-.7-2.009-2.6-1.7-5.122a11.714,11.714,0,0,1,3.721-7c.463-.407,1.093-.868,1.467-.76a.386.386,0,0,1,.265.268c.358,1.222-.381,2.295-1.237,3.536l-.155.225A9.042,9.042,0,0,0-26.6-.309a15.279,15.279,0,0,1,3.634-5.559c.01-.009.962-.878,1.443-.711a.37.37,0,0,1,.247.3c.089.588.238,1.573-1.062,3.177a5.622,5.622,0,0,0-1.229,2.6,6.259,6.259,0,0,0-.15.935,2.023,2.023,0,0,0,.142-.358,8.545,8.545,0,0,1,2.18-3.265c.741-.65,1.276-.916,1.593-.781a.453.453,0,0,1,.271.417A4.139,4.139,0,0,1-20.407-1.2c-.116.183-.224.354-.307.508-.039.072-.085.147-.137.229C-21.144,0-21.587.7-21.465,2.957l.005.1-.061.081c-.744.982-3.007,1.758-4.58,1.766" transform="translate(29.137 8.272)" fill="#fff"/>
            </g>
            <g id="g32" transform="translate(65.227 91.05)">
              <path id="path34" d="M-32.012-71.476c-1.146-4.293,1.982-5.586,3.51-5.317,1.161.2,1.6-.472,1.42-.995s-.724-1.179-.551-1.412,1.314-.706-.026-1.183c.619-.295.908-.607.283-1.36a.768.768,0,0,1,.148-1.281c.193-.176.907-.842.692-1.074s-2.172-2.332-2.372-3.533-2.394-6.58-7.379-6.553a13.078,13.078,0,0,0-6.431,1.647,10.14,10.14,0,0,1,6.327-2.886A8.47,8.47,0,0,1-29.6-92.01c.937,1.257,1.418,4.085,2.142,5.109a19.544,19.544,0,0,0,2.224,2.431c.313.308.471.754.006,1.066s-1.082.645-1.138,1.092a2.14,2.14,0,0,0,.493,1.259c.156.193-.1.446-.617.838.584.442.734.659.627.887-.211.448-.871.432-.713.9s.746,1.624.245,2.17c-.752.82-2.751.185-3.6.557s-1.906,1.815-2.074,4.227" transform="translate(42.737 95.424)" fill="#fff"/>
            </g>
            <g id="g36" transform="translate(70.177 88.823)">
              <path id="path38" d="M-26.292,0l-2.183.012L-31.833,3.29l2.5-.014-4,3.165,2.647-.015-4.41,4.128L-27.189,5.4l-3.043.017,4.252-3.035-2.846.016Z" transform="translate(35.101)" fill="#fff"/>
            </g>
            <g id="g40" transform="translate(61.677 94.363)">
              <path id="path42" d="M-28.525-61.666l-5.987.033c1.034-2.392,1.2-3.207,1.2-4.2-.01-1.785-4.735-3.794-4.769-9.981-.015-2.736,3.178-7.112,3.322-6.45.385,1.767-1.11,3.025-1.093,6.185.018,3.219,2.24,5.185,3.364,5.179s.925-4.582-1.576-7.769c.445-.409,2.412-.265,3.362,1.146.822,1.217,1.9,4.135,2.708,5.59a8.894,8.894,0,0,1,1.564,5.011c.009,1.687-.979,3.545-2.1,5.254" transform="translate(38.083 82.327)" fill="#fff"/>
            </g>
            <g id="g44" transform="translate(37.816 53.758)">
              <path id="path46" d="M-66.253-42.737c-.189-3.561-.417-7.841-.379-11.023h-.113c-.871,2.992-1.932,6.174-3.22,9.7l-4.507,12.387h-2.5L-81.1-43.835c-1.212-3.6-2.235-6.894-2.955-9.925h-.076c-.076,3.182-.265,7.462-.492,11.288l-.682,10.948h-3.144l1.781-25.532h4.2l4.356,12.349c1.061,3.144,1.932,5.948,2.576,8.6h.113c.644-2.576,1.553-5.379,2.69-8.6l4.546-12.349h4.2l1.591,25.532h-3.22Z" transform="translate(88.452 57.056)" fill="#333"/>
            </g>
            <g id="g48" transform="translate(36.166 52.22)">
              <path id="path50" d="M-14.475-9.836H-12.7l-.077-.219H-14.46Zm18.059,0h1.78l-.014-.219H3.664ZM-9.471-.676q.285.87.6,1.812l1.111,3.271c-.306-.972-.649-2.017-1.034-3.159ZM-5.1,12.249h.32l.493-1.355H-5.555Zm-10.931.151h.049l.409-6.566Zm22.646,0h.13L5.778-3.184c.077,1.981.185,4.018.281,5.825Zm3.4,3.077H3.714L2.987,2.808C2.943,2,2.9,1.145,2.854.27q-.29.815-.6,1.659l-4.875,13.4H-7.3l-4.484-13.2Q-11.994,1.5-12.191.9c-.039.73-.08,1.46-.123,2.179l-.772,12.4h-6.239l2-28.609H-10.6L-5.883.244c.459,1.36.859,2.588,1.211,3.72.367-1.127.785-2.356,1.267-3.72L1.518-13.132H8.241Z" transform="translate(19.325 13.132)" fill="#333"/>
            </g>
            <g id="g52" transform="translate(67.055 53.341)">
              <path id="path54" d="M-2.487-65.461a11.679,11.679,0,0,0,5.909,1.667c3.371,0,5.341-1.781,5.341-4.356,0-2.386-1.364-3.75-4.811-5.076C-.214-74.7-2.79-76.863-2.79-80.462c0-3.977,3.3-6.932,8.258-6.932a11.6,11.6,0,0,1,5.644,1.25l-.909,2.69a10.166,10.166,0,0,0-4.849-1.212c-3.485,0-4.811,2.083-4.811,3.826,0,2.386,1.553,3.561,5.076,4.924,4.318,1.667,6.515,3.75,6.515,7.5,0,3.94-2.917,7.349-8.94,7.349A13.2,13.2,0,0,1-3.32-62.7Z" transform="translate(3.32 87.394)" fill="#333"/>
            </g>
            <g id="g56" transform="translate(65.253 51.803)">
              <path id="path58" d="M-14.615-16.11a4.9,4.9,0,0,0-1.026,3.073c0,1.75.65,3.988,5.718,5.785l.038.014c3.011,1.158,5.8,2.748,5.8,6.512A5.559,5.559,0,0,1-5.252,2.783,5.239,5.239,0,0,0-3.793-.991c0-3.273-2.116-4.747-5.531-6.065-3.067-1.188-6.06-2.656-6.06-6.36a5.112,5.112,0,0,1,.769-2.694M-11.194,7.9a14.73,14.73,0,0,1-7.369-1.887l-.949-.632,1.739-5.771,1.7,1.048a10.148,10.148,0,0,0,5.1,1.439c1.143,0,3.8-.275,3.8-2.818,0-1.185-.287-2.276-3.806-3.633-5.213-1.853-7.748-4.692-7.748-8.679,0-4.908,4.12-8.471,9.8-8.471a12.962,12.962,0,0,1,6.4,1.45l1.107.627-1.9,5.629-1.608-.877A8.58,8.58,0,0,0-9.035-15.7c-2.413,0-3.272,1.182-3.272,2.287,0,1.151.285,2.016,4.093,3.49C-1.568-7.361-.715-3.8-.715-.991-.715,3.433-3.956,7.9-11.194,7.9" transform="translate(19.512 21.508)" fill="#333"/>
            </g>
            <g id="g60" transform="translate(85.404 53.758)">
              <path id="path62" d="M-9.949,0V15.115c0,5.72,2.538,8.144,5.947,8.144,3.788,0,6.213-2.5,6.213-8.144V0H5.544V14.887c0,7.841-4.129,11.061-9.66,11.061-5.228,0-9.167-2.992-9.167-10.91V0Z" transform="translate(13.283)" fill="#333"/>
            </g>
            <g id="g64" transform="translate(83.865 52.22)">
              <path id="path66" d="M-55.425-9.184V4.392a12.277,12.277,0,0,1-1.862,6.928c1.4-1.6,2.118-4,2.118-7.155V-9.184Zm-15.493,0v13.5c0,4,1.062,6.733,3.169,8.173-1.873-1.614-2.912-4.4-2.912-8.1V-9.184Zm7.629,25.948C-70.094,16.764-74,12.227-74,4.316V-12.261h6.411V4.392c0,3.014.765,6.606,4.409,6.606,1.156,0,4.674,0,4.674-6.606V-12.261h6.411V4.165c0,8.007-4.082,12.6-11.2,12.6" transform="translate(73.996 12.261)" fill="#333"/>
            </g>
            <g id="g68" transform="translate(38.186 87.117)">
              <path id="path70" d="M-2.819-74.2a13.238,13.238,0,0,0,6.7,1.889c3.822,0,6.055-2.018,6.055-4.938,0-2.705-1.546-4.251-5.454-5.754-4.724-1.675-7.643-4.122-7.643-8.2,0-4.509,3.736-7.858,9.361-7.858a13.148,13.148,0,0,1,6.4,1.417L11.566-94.6a11.525,11.525,0,0,0-5.5-1.374c-3.95,0-5.453,2.362-5.453,4.337,0,2.705,1.76,4.037,5.754,5.583,4.9,1.89,7.386,4.251,7.386,8.5,0,4.466-3.306,8.331-10.134,8.331A14.96,14.96,0,0,1-3.764-71.07Z" transform="translate(3.764 99.068)" fill="#fc0603"/>
            </g>
            <g id="g72" transform="translate(36.143 85.373)">
              <path id="path74" d="M-16.565-18.265a5.551,5.551,0,0,0-1.162,3.482c0,1.983.737,4.521,6.482,6.558l.043.016C-7.788-6.9-4.629-5.093-4.629-.827A6.3,6.3,0,0,1-5.95,3.151,5.941,5.941,0,0,0-4.3-1.127c0-3.71-2.4-5.381-6.27-6.875-3.477-1.346-6.87-3.011-6.87-7.209a5.8,5.8,0,0,1,.871-3.053m3.879,27.212a16.7,16.7,0,0,1-8.353-2.139l-1.075-.717,1.972-6.543,1.93,1.188a11.5,11.5,0,0,0,5.785,1.631c1.3,0,4.311-.311,4.311-3.194,0-1.391-.318-2.577-4.315-4.118-5.909-2.1-8.782-5.319-8.782-9.838,0-5.564,4.67-9.6,11.105-9.6a14.691,14.691,0,0,1,7.258,1.644l1.254.71L-3.754-15.65l-1.823-.994a9.727,9.727,0,0,0-4.661-1.161c-2.735,0-3.71,1.34-3.71,2.593,0,1.3.323,2.285,4.64,3.956,7.534,2.908,8.5,6.941,8.5,10.129,0,5.015-3.673,10.075-11.879,10.075" transform="translate(22.115 24.385)" fill="#fc0603"/>
            </g>
            <g id="g76" transform="translate(87.267 87.117)">
              <path id="path78" d="M-2.819-74.2a13.238,13.238,0,0,0,6.7,1.889c3.822,0,6.055-2.018,6.055-4.938,0-2.705-1.546-4.251-5.454-5.754-4.724-1.675-7.643-4.122-7.643-8.2,0-4.509,3.736-7.858,9.361-7.858a13.148,13.148,0,0,1,6.4,1.417L11.566-94.6a11.525,11.525,0,0,0-5.5-1.374c-3.95,0-5.453,2.362-5.453,4.337,0,2.705,1.76,4.037,5.754,5.583,4.9,1.89,7.386,4.251,7.386,8.5,0,4.466-3.306,8.331-10.134,8.331A14.96,14.96,0,0,1-3.764-71.07Z" transform="translate(3.764 99.068)" fill="#fc0603"/>
            </g>
            <g id="g80" transform="translate(85.224 85.373)">
              <path id="path82" d="M-16.565-18.265a5.551,5.551,0,0,0-1.162,3.482c0,1.983.737,4.521,6.482,6.558l.043.016C-7.788-6.9-4.629-5.093-4.629-.827A6.3,6.3,0,0,1-5.95,3.151,5.941,5.941,0,0,0-4.3-1.127c0-3.71-2.4-5.381-6.27-6.875-3.477-1.346-6.87-3.011-6.87-7.209a5.8,5.8,0,0,1,.871-3.053m3.879,27.212a16.7,16.7,0,0,1-8.353-2.139l-1.075-.717,1.972-6.543,1.93,1.188a11.5,11.5,0,0,0,5.785,1.631c1.3,0,4.311-.311,4.311-3.194,0-1.391-.318-2.577-4.315-4.118-5.909-2.1-8.782-5.319-8.782-9.838,0-5.564,4.67-9.6,11.105-9.6a14.691,14.691,0,0,1,7.258,1.644l1.254.71L-3.754-15.65l-1.823-.994a9.727,9.727,0,0,0-4.661-1.161c-2.735,0-3.71,1.34-3.71,2.593,0,1.3.323,2.285,4.64,3.956,7.534,2.908,8.5,6.941,8.5,10.129,0,5.015-3.673,10.075-11.879,10.075" transform="translate(22.115 24.385)" fill="#fc0603"/>
            </g>
            <g id="g84" transform="translate(38.426 41.201)">
              <path id="path86" d="M-15.368-9.913c-.044-.826-.1-1.819-.088-2.557h-.026c-.2.694-.448,1.433-.747,2.25l-1.046,2.873h-.58l-.958-2.821c-.281-.835-.518-1.6-.685-2.3h-.018c-.017.738-.061,1.731-.114,2.619l-.158,2.539h-.729l.413-5.923h.975l1.01,2.865c.246.729.448,1.379.6,1.995h.026c.149-.6.36-1.248.624-1.995l1.054-2.865h.975l.369,5.923h-.747Z" transform="translate(20.517 13.235)" fill="#333"/>
            </g>
            <g id="g88" transform="translate(45.369 42.774)">
              <path id="path90" d="M-2.334-6.661c0,.932.536,1.634,1.292,1.634C-.3-5.027.25-5.721.25-6.679c0-.721-.36-1.635-1.274-1.635s-1.309.844-1.309,1.652M1.04-6.705A2.078,2.078,0,0,1-1.077-4.447,2.022,2.022,0,0,1-3.116-6.635,2.077,2.077,0,0,1-1.007-8.893,2.014,2.014,0,0,1,1.04-6.705" transform="translate(3.116 8.893)" fill="#333"/>
            </g>
            <g id="g92" transform="translate(50.466 40.885)">
              <path id="path94" d="M-2.387-13.532a1.458,1.458,0,0,0,.035.281,1.193,1.193,0,0,0,1.16.905c.808,0,1.292-.659,1.292-1.634,0-.853-.44-1.582-1.265-1.582a1.233,1.233,0,0,0-1.178.949,1.562,1.562,0,0,0-.044.316Zm-.8,1.7c.018-.29.035-.72.035-1.1v-5.141h.765V-15.4h.018a1.583,1.583,0,0,1,1.45-.782,1.908,1.908,0,0,1,1.793,2.17,2.021,2.021,0,0,1-1.907,2.276,1.515,1.515,0,0,1-1.423-.8h-.026l-.035.7Z" transform="translate(3.187 18.067)" fill="#333"/>
            </g>
            <path id="path96" d="M220.859-554.186h.773v4.253h-.773Zm.861-1.195a.457.457,0,0,1-.492.475.46.46,0,0,1-.466-.475.471.471,0,0,1,.484-.483.459.459,0,0,1,.475.483" transform="translate(-165.358 597.057)" fill="#333"/>
            <path id="path98" d="M229.342-557.091h.773v6.239h-.773Z" transform="translate(-171.784 597.975)" fill="#333"/>
            <g id="g100" transform="translate(59.324 42.774)">
              <path id="path102" d="M-8.969-5.4A1.1,1.1,0,0,0-10.042-6.66,1.281,1.281,0,0,0-11.228-5.4Zm-2.267.553A1.362,1.362,0,0,0-9.778-3.373,2.794,2.794,0,0,0-8.6-3.593l.132.553a3.438,3.438,0,0,1-1.414.264A1.975,1.975,0,0,1-11.975-4.92,2.065,2.065,0,0,1-9.98-7.213a1.8,1.8,0,0,1,1.757,2,2.876,2.876,0,0,1-.026.36Z" transform="translate(11.975 7.213)" fill="#333"/>
            </g>
            <g id="g104" transform="translate(65.625 41.105)">
              <path id="path106" d="M-.577-15.184A2.71,2.71,0,0,0,.794-14.8c.782,0,1.239-.413,1.239-1.011,0-.554-.317-.87-1.116-1.178-.966-.343-1.564-.844-1.564-1.678a1.705,1.705,0,0,1,1.916-1.608,2.688,2.688,0,0,1,1.309.29l-.211.624a2.355,2.355,0,0,0-1.124-.281c-.808,0-1.116.483-1.116.887,0,.553.36.826,1.178,1.142,1,.387,1.511.87,1.511,1.74,0,.914-.676,1.7-2.074,1.7a3.062,3.062,0,0,1-1.512-.378Z" transform="translate(0.771 20.272)" fill="#333"/>
            </g>
            <g id="g108" transform="translate(69.721 41.649)">
              <path id="path110" d="M-4.223,0V1.221h1.107V1.81H-4.223V4.1c0,.527.149.826.58.826a1.716,1.716,0,0,0,.448-.053l.035.58a1.9,1.9,0,0,1-.685.105,1.071,1.071,0,0,1-.835-.325,1.575,1.575,0,0,1-.3-1.107V1.81h-.659V1.221h.659V.2Z" transform="translate(5.637)" fill="#333"/>
            </g>
            <g id="g112" transform="translate(73.078 42.774)">
              <path id="path114" d="M-.1-4.248c0-.5-.009-.931-.035-1.327H.537l.026.835H.6a1.276,1.276,0,0,1,1.178-.932A.828.828,0,0,1,2-5.646v.729a1.168,1.168,0,0,0-.263-.026A1.085,1.085,0,0,0,.695-3.95a2.16,2.16,0,0,0-.035.36v2.267H-.1Z" transform="translate(0.14 5.672)" fill="#333"/>
            </g>
            <g id="g116" transform="translate(75.591 42.774)">
              <path id="path118" d="M-2.334-6.661c0,.932.536,1.634,1.292,1.634C-.3-5.027.25-5.721.25-6.679c0-.721-.36-1.635-1.274-1.635s-1.309.844-1.309,1.652M1.04-6.705A2.078,2.078,0,0,1-1.077-4.447,2.022,2.022,0,0,1-3.116-6.635,2.077,2.077,0,0,1-1.007-8.893,2.014,2.014,0,0,1,1.04-6.705" transform="translate(3.116 8.893)" fill="#333"/>
            </g>
            <g id="g120" transform="translate(80.723 40.885)">
              <path id="path122" d="M-2.282-11.75h.017c.105-.15.255-.334.378-.483L-.639-13.7H.292l-1.643,1.749,1.872,2.5h-.94l-1.468-2.039-.4.439v1.6h-.765v-6.239h.765Z" transform="translate(3.047 15.687)" fill="#333"/>
            </g>
            <g id="g124" transform="translate(84.538 42.774)">
              <path id="path126" d="M-8.969-5.4A1.1,1.1,0,0,0-10.042-6.66,1.282,1.282,0,0,0-11.228-5.4Zm-2.267.553A1.362,1.362,0,0,0-9.778-3.373,2.794,2.794,0,0,0-8.6-3.593l.132.553a3.442,3.442,0,0,1-1.415.264A1.975,1.975,0,0,1-11.975-4.92,2.065,2.065,0,0,1-9.98-7.213a1.8,1.8,0,0,1,1.757,2,2.929,2.929,0,0,1-.026.36Z" transform="translate(11.975 7.213)" fill="#333"/>
            </g>
            <g id="g128" transform="translate(91.128 41.201)">
              <path id="path130" d="M-2.308,0V3.506c0,1.327.589,1.889,1.38,1.889C-.05,5.4.513,4.816.513,3.506V0h.773V3.453c0,1.819-.958,2.566-2.241,2.566-1.213,0-2.127-.694-2.127-2.531V0Z" transform="translate(3.081)" fill="#333"/>
            </g>
            <g id="g132" transform="translate(96.762 42.774)">
              <path id="path134" d="M-.1-3.724c0-.439-.009-.8-.035-1.151H.545l.044.7H.607a1.565,1.565,0,0,1,1.406-.8c.589,0,1.5.351,1.5,1.81V-.622H2.742V-3.074c0-.685-.255-1.257-.984-1.257A1.1,1.1,0,0,0,.721-3.54a1.1,1.1,0,0,0-.053.36V-.622H-.1Z" transform="translate(0.14 4.972)" fill="#333"/>
            </g>
            <path id="path136" d="M404.838-554.186h.773v4.253h-.773Zm.861-1.195a.457.457,0,0,1-.492.475.46.46,0,0,1-.466-.475.471.471,0,0,1,.483-.483.459.459,0,0,1,.475.483" transform="translate(-303.164 597.057)" fill="#333"/>
            <g id="g138" transform="translate(103.247 41.649)">
              <path id="path140" d="M-4.223,0V1.221h1.108V1.81H-4.223V4.1c0,.527.15.826.58.826a1.717,1.717,0,0,0,.448-.053l.035.58a1.9,1.9,0,0,1-.686.105,1.073,1.073,0,0,1-.835-.325,1.578,1.578,0,0,1-.3-1.107V1.81h-.66V1.221h.66V.2Z" transform="translate(5.637)" fill="#333"/>
            </g>
            <g id="g142" transform="translate(36.142 121.252)">
              <path id="path144" d="M-.682-17.942a3.2,3.2,0,0,0,1.62.457c.924,0,1.464-.488,1.464-1.194,0-.655-.373-1.028-1.318-1.391-1.142-.4-1.848-1-1.848-1.983a2.015,2.015,0,0,1,2.263-1.9,3.173,3.173,0,0,1,1.547.343l-.249.737a2.79,2.79,0,0,0-1.329-.332c-.955,0-1.319.571-1.319,1.048,0,.654.426.976,1.391,1.35,1.184.457,1.786,1.028,1.786,2.056,0,1.08-.8,2.014-2.451,2.014a3.615,3.615,0,0,1-1.786-.446Z" transform="translate(0.911 23.953)" fill="#fc0603"/>
            </g>
            <g id="g146" transform="translate(40.982 121.895)">
              <path id="path148" d="M-4.99,0V1.443h1.308v.7H-4.99v2.71c0,.623.176.976.685.976a2.049,2.049,0,0,0,.53-.062l.041.685a2.245,2.245,0,0,1-.81.124,1.266,1.266,0,0,1-.986-.384A1.863,1.863,0,0,1-5.882,4.88V2.139h-.779v-.7h.779V.239Z" transform="translate(6.661)" fill="#fc0603"/>
            </g>
            <g id="g150" transform="translate(44.949 123.224)">
              <path id="path152" d="M-.124-5.02c0-.592-.01-1.1-.041-1.568h.8L.665-5.6H.707A1.508,1.508,0,0,1,2.1-6.7a.99.99,0,0,1,.26.031v.862a1.372,1.372,0,0,0-.312-.031A1.282,1.282,0,0,0,.821-4.667a2.577,2.577,0,0,0-.041.426v2.679h-.9Z" transform="translate(0.165 6.703)" fill="#fc0603"/>
            </g>
            <g id="g154" transform="translate(47.92 123.224)">
              <path id="path156" d="M-2.757-7.872c0,1.1.633,1.931,1.527,1.931C-.359-5.941.3-6.761.3-7.893.3-8.744-.13-9.824-1.21-9.824s-1.547,1-1.547,1.952M1.23-7.924a2.456,2.456,0,0,1-2.5,2.668A2.389,2.389,0,0,1-3.681-7.841a2.454,2.454,0,0,1,2.492-2.669A2.38,2.38,0,0,1,1.23-7.924" transform="translate(3.681 10.509)" fill="#fc0603"/>
            </g>
            <g id="g158" transform="translate(53.984 120.992)">
              <path id="path160" d="M-2.7-13.883h.021c.125-.176.3-.395.446-.571l1.474-1.734h1.1L-1.6-14.122.616-11.162H-.5l-1.734-2.409-.467.519v1.89h-.9v-7.372h.9Z" transform="translate(3.6 18.535)" fill="#fc0603"/>
            </g>
            <g id="g162" transform="translate(58.492 123.224)">
              <path id="path164" d="M-10.6-6.385a1.3,1.3,0,0,0-1.267-1.485,1.515,1.515,0,0,0-1.4,1.485Zm-2.679.654a1.611,1.611,0,0,0,1.724,1.745,3.306,3.306,0,0,0,1.391-.26l.156.654a4.073,4.073,0,0,1-1.671.311,2.334,2.334,0,0,1-2.471-2.533,2.44,2.44,0,0,1,2.357-2.71A2.13,2.13,0,0,1-9.716-6.156a3.449,3.449,0,0,1-.031.425Z" transform="translate(14.149 8.524)" fill="#fc0603"/>
            </g>
            <g id="g166" transform="translate(65.876 121.252)">
              <path id="path168" d="M-2.882-10.908c0,1.5.81,2.835,2.232,2.835s2.243-1.319,2.243-2.908c0-1.391-.727-2.845-2.232-2.845s-2.243,1.381-2.243,2.918m5.43-.114c0,2.409-1.464,3.686-3.25,3.686-1.848,0-3.146-1.433-3.146-3.551,0-2.222,1.381-3.676,3.25-3.676,1.91,0,3.146,1.464,3.146,3.54" transform="translate(3.848 14.563)" fill="#fc0603"/>
            </g>
            <g id="g170" transform="translate(73.374 123.224)">
              <path id="path172" d="M-.124-4.4c0-.519-.01-.945-.041-1.36h.81L.7-4.93h.02a1.848,1.848,0,0,1,1.661-.945c.7,0,1.776.416,1.776,2.139v3H3.24v-2.9c0-.81-.3-1.485-1.162-1.485a1.3,1.3,0,0,0-1.226.935,1.315,1.315,0,0,0-.062.426V-.735H-.124Z" transform="translate(0.165 5.875)" fill="#fc0603"/>
            </g>
            <g id="g174" transform="translate(78.816 123.224)">
              <path id="path176" d="M-10.6-6.385a1.3,1.3,0,0,0-1.267-1.485,1.515,1.515,0,0,0-1.4,1.485Zm-2.679.654a1.611,1.611,0,0,0,1.724,1.745,3.306,3.306,0,0,0,1.391-.26l.156.654a4.072,4.072,0,0,1-1.671.311,2.334,2.334,0,0,1-2.471-2.533,2.44,2.44,0,0,1,2.357-2.71A2.129,2.129,0,0,1-9.716-6.156a3.383,3.383,0,0,1-.031.425Z" transform="translate(14.149 8.524)" fill="#fc0603"/>
            </g>
            <g id="g178" transform="translate(86.262 121.252)">
              <path id="path180" d="M-.682-17.942a3.2,3.2,0,0,0,1.62.457c.924,0,1.464-.488,1.464-1.194,0-.655-.373-1.028-1.318-1.391-1.142-.4-1.848-1-1.848-1.983a2.015,2.015,0,0,1,2.263-1.9,3.173,3.173,0,0,1,1.547.343l-.249.737a2.79,2.79,0,0,0-1.329-.332c-.955,0-1.319.571-1.319,1.048,0,.654.426.976,1.391,1.35,1.184.457,1.786,1.028,1.786,2.056,0,1.08-.8,2.014-2.451,2.014a3.615,3.615,0,0,1-1.786-.446Z" transform="translate(0.911 23.953)" fill="#fc0603"/>
            </g>
            <g id="g182" transform="translate(91.101 121.895)">
              <path id="path184" d="M-4.99,0V1.443h1.308v.7H-4.99v2.71c0,.623.176.976.685.976a2.049,2.049,0,0,0,.53-.062l.041.685a2.245,2.245,0,0,1-.81.124,1.266,1.266,0,0,1-.986-.384A1.863,1.863,0,0,1-5.882,4.88V2.139h-.779v-.7h.779V.239Z" transform="translate(6.661)" fill="#fc0603"/>
            </g>
            <g id="g186" transform="translate(94.685 123.224)">
              <path id="path188" d="M-2.757-7.872c0,1.1.633,1.931,1.527,1.931C-.359-5.941.3-6.761.3-7.893.3-8.744-.13-9.824-1.21-9.824s-1.547,1-1.547,1.952M1.23-7.924a2.456,2.456,0,0,1-2.5,2.668A2.389,2.389,0,0,1-3.681-7.841a2.454,2.454,0,0,1,2.492-2.669A2.38,2.38,0,0,1,1.23-7.924" transform="translate(3.681 10.509)" fill="#fc0603"/>
            </g>
            <g id="g190" transform="translate(100.708 123.224)">
              <path id="path192" d="M-2.82-9.235a2.059,2.059,0,0,0,.041.374A1.41,1.41,0,0,0-1.408-7.792c.965,0,1.526-.789,1.526-1.941,0-1.007-.53-1.869-1.5-1.869A1.457,1.457,0,0,0-2.758-10.47a1.468,1.468,0,0,0-.063.374Zm-.9-1.34c0-.643-.021-1.163-.041-1.64h.821l.041.862h.02A1.976,1.976,0,0,1-1.1-12.329,2.277,2.277,0,0,1,1.032-9.775c0,1.807-1.1,2.7-2.284,2.7A1.761,1.761,0,0,1-2.8-7.864H-2.82v2.731h-.9Z" transform="translate(3.765 12.329)" fill="#fc0603"/>
            </g>
          </g>
        </g>
      </g>
    </g>
  </g>
</svg>
