<svg xmlns="http://www.w3.org/2000/svg" xmlns:xlink="http://www.w3.org/1999/xlink" width="24" height="24" viewBox="0 0 24 24">
  <defs>
    <clipPath id="clip-path">
      <rect id="Rectangle_1" data-name="Rectangle 1" width="14" height="17" transform="translate(-0.201 -0.236)" fill="red" opacity="0.56"/>
    </clipPath>
    <clipPath id="clip-path-2">
      <path id="path16" d="M0-720H26.728v33.179H0Z" transform="translate(0 719.998)"/>
    </clipPath>
  </defs>
  <g id="Group_2" data-name="Group 2" transform="translate(-4722 1486.95)">
    <circle id="Ellipse_1" data-name="Ellipse 1" cx="12" cy="12" r="12" transform="translate(4722 -1486.95)" fill="#fff"/>
    <g id="Mask_Group_1" data-name="Mask Group 1" transform="translate(4727.201 -1482.714)" clip-path="url(#clip-path)">
      <g id="g10" transform="translate(-6.556 -7.715)">
        <g id="g12" transform="translate(0 0)">
          <g id="g14" clip-path="url(#clip-path-2)">
            <g id="g20" transform="translate(10.759 16.006)">
              <path id="path22" d="M-101.593-55.658a2.5,2.5,0,0,1-2.494,2.8,2.446,2.446,0,0,1-2.414-2.7,2.535,2.535,0,0,1,2.494-2.791,2.43,2.43,0,0,1,2.414,2.689" transform="translate(106.501 58.347)" fill="#fc0603"/>
            </g>
            <g id="g24" transform="translate(10.436 15.686)">
              <path id="path26" d="M-58.32-13.259a2.21,2.21,0,0,0-2.17,2.471A2.127,2.127,0,0,0-58.4-8.412a2.191,2.191,0,0,0,2.17-2.479,2.1,2.1,0,0,0-2.09-2.368m-.08,5.488a2.762,2.762,0,0,1-2.738-3.017A2.846,2.846,0,0,1-58.32-13.9a2.758,2.758,0,0,1,2.738,3.009A2.814,2.814,0,0,1-58.4-7.771" transform="translate(61.137 13.9)" fill="#fc0603"/>
            </g>
            <g id="g28" transform="translate(11.713 17.154)">
              <path id="path30" d="M-27.794-7.891h0m-.422-.274a.7.7,0,0,0-.16.112,2.044,2.044,0,0,0-.649,1.222.914.914,0,0,0,.268.844,1.1,1.1,0,0,0,.926-.237,1,1,0,0,1,.129-.669c.008-.013.015-.025.022-.036.016-.03.037-.064.06-.1a.729.729,0,0,0,.146-.355.708.708,0,0,0-.175.121,1.47,1.47,0,0,0-.37.552c-.023.078-.083.2-.164.182s-.081-.117-.032-.339a1.116,1.116,0,0,1,.24-.511.59.59,0,0,0,.184-.477.594.594,0,0,0-.144.1,2.683,2.683,0,0,0-.748,1.345l-.1-.006a1.733,1.733,0,0,1,.318-1.169l.028-.041c.141-.2.254-.368.22-.537m-.364,2.313a.428.428,0,0,1-.235-.051,1,1,0,0,1-.312-.941,2.151,2.151,0,0,1,.683-1.286c.085-.075.2-.159.269-.14a.071.071,0,0,1,.049.049c.066.224-.07.421-.227.649l-.028.041a1.66,1.66,0,0,0-.29.72A2.806,2.806,0,0,1-28-7.831s.177-.161.265-.131a.068.068,0,0,1,.045.055.663.663,0,0,1-.195.583,1.032,1.032,0,0,0-.226.477,1.149,1.149,0,0,0-.028.172.372.372,0,0,0,.026-.066,1.569,1.569,0,0,1,.4-.6c.136-.119.234-.168.293-.143a.083.083,0,0,1,.05.076.76.76,0,0,1-.161.432c-.021.034-.041.065-.056.093-.007.013-.016.027-.025.042a.92.92,0,0,0-.113.629v.019l-.011.015a1.259,1.259,0,0,1-.841.324" transform="translate(29.137 8.272)" fill="#fff"/>
            </g>
            <g id="g32" transform="translate(11.977 16.719)">
              <path id="path34" d="M-40.768-91.027c-.211-.788.364-1.026.645-.976.213.038.293-.087.261-.183s-.133-.217-.1-.259.241-.13,0-.217c.114-.054.167-.111.052-.25a.141.141,0,0,1,.027-.235c.035-.032.167-.155.127-.2a1.985,1.985,0,0,1-.436-.649c-.037-.22-.44-1.208-1.355-1.2a2.4,2.4,0,0,0-1.181.3,1.862,1.862,0,0,1,1.162-.53,1.555,1.555,0,0,1,1.247.627c.172.231.26.75.393.938a3.59,3.59,0,0,0,.408.446c.057.057.086.138,0,.2s-.2.119-.209.2a.393.393,0,0,0,.09.231c.029.035-.018.082-.113.154.107.081.135.121.115.163-.039.082-.16.079-.131.165s.137.3.045.4c-.138.151-.505.034-.661.1a.9.9,0,0,0-.381.776" transform="translate(42.737 95.424)" fill="#fff"/>
            </g>
            <g id="g36" transform="translate(12.886 16.31)">
              <path id="path38" d="M-33.484,0l-.4,0L-34.5.6l.459,0-.735.581.486,0-.81.758,1.453-.947-.559,0,.781-.557-.523,0Z" transform="translate(35.101)" fill="#fff"/>
            </g>
            <g id="g40" transform="translate(11.325 17.327)">
              <path id="path42" d="M-36.328-78.533l-1.1.006a1.773,1.773,0,0,0,.22-.771c0-.328-.869-.7-.876-1.833,0-.5.584-1.306.61-1.184.071.325-.2.556-.2,1.136a.917.917,0,0,0,.618.951c.207,0,.17-.841-.289-1.427a.529.529,0,0,1,.617.21c.151.223.349.759.5,1.026a1.633,1.633,0,0,1,.287.92,1.917,1.917,0,0,1-.385.965" transform="translate(38.083 82.327)" fill="#fff"/>
            </g>
            <g id="g44" transform="translate(6.944 9.871)">
              <path id="path46" d="M-84.376-54.427c-.035-.654-.076-1.44-.07-2.024h-.021c-.16.549-.355,1.134-.591,1.781l-.828,2.275h-.459l-.758-2.233c-.223-.661-.41-1.266-.543-1.822h-.014c-.014.584-.049,1.37-.09,2.073l-.125,2.01h-.577l.327-4.688h.772l.8,2.268c.195.577.355,1.092.473,1.579h.021c.118-.473.285-.988.494-1.579l.835-2.268h.772l.292,4.688h-.591Z" transform="translate(88.452 57.056)" fill="#333"/>
            </g>
            <g id="g48" transform="translate(6.641 9.588)">
              <path id="path50" d="M-18.435-12.527h.326l-.014-.04h-.309Zm3.316,0h.327l0-.04h-.31Zm-2.4,1.682q.052.16.111.333l.2.6c-.056-.178-.119-.37-.19-.58Zm.8,2.373h.059l.091-.249H-16.8Zm-2.007.028h.009l.075-1.206Zm4.158,0h.024l-.178-2.861c.014.364.034.738.052,1.07Zm.625.565h-1.159l-.134-2.326c-.008-.148-.016-.305-.024-.466q-.053.15-.11.3l-.9,2.46h-.859l-.823-2.424-.075-.224c-.007.134-.015.268-.023.4l-.142,2.276h-1.146l.366-5.253h1.236l.866,2.456c.084.25.158.475.222.683.067-.207.144-.433.233-.683l.9-2.456h1.235Z" transform="translate(19.325 13.132)" fill="#333"/>
            </g>
            <g id="g52" transform="translate(12.313 9.794)">
              <path id="path54" d="M-3.167-83.367a2.144,2.144,0,0,0,1.085.306c.619,0,.981-.327.981-.8,0-.438-.25-.689-.883-.932-.765-.271-1.238-.668-1.238-1.329a1.35,1.35,0,0,1,1.516-1.273,2.131,2.131,0,0,1,1.036.23l-.167.494a1.867,1.867,0,0,0-.89-.223c-.64,0-.883.383-.883.7,0,.438.285.654.932.9.793.306,1.2.689,1.2,1.377,0,.723-.536,1.349-1.642,1.349a2.423,2.423,0,0,1-1.2-.3Z" transform="translate(3.32 87.394)" fill="#333"/>
            </g>
            <g id="g56" transform="translate(11.982 9.512)">
              <path id="path58" d="M-18.613-20.517a.9.9,0,0,0-.188.564c0,.321.119.732,1.05,1.062l.007,0c.553.213,1.064.5,1.064,1.2a1.021,1.021,0,0,1-.214.644.962.962,0,0,0,.268-.693c0-.6-.389-.872-1.016-1.114-.563-.218-1.113-.488-1.113-1.168a.939.939,0,0,1,.141-.495m.628,4.408a2.7,2.7,0,0,1-1.353-.347l-.174-.116.319-1.06.313.192a1.863,1.863,0,0,0,.937.264c.21,0,.7-.05.7-.517,0-.218-.053-.418-.7-.667-.957-.34-1.423-.862-1.423-1.594a1.634,1.634,0,0,1,1.8-1.555,2.38,2.38,0,0,1,1.176.266l.2.115-.349,1.034-.3-.161a1.576,1.576,0,0,0-.755-.188c-.443,0-.6.217-.6.42s.052.37.752.641c1.22.471,1.377,1.124,1.377,1.641a1.691,1.691,0,0,1-1.924,1.632" transform="translate(19.512 21.508)" fill="#333"/>
            </g>
            <g id="g60" transform="translate(15.682 9.871)">
              <path id="path62" d="M-12.671,0V2.775c0,1.05.466,1.5,1.092,1.5.7,0,1.141-.459,1.141-1.5V0h.612V2.734c0,1.44-.758,2.031-1.774,2.031-.96,0-1.683-.549-1.683-2V0Z" transform="translate(13.283)" fill="#333"/>
            </g>
            <g id="g64" transform="translate(15.399 9.588)">
              <path id="path66" d="M-70.586-11.7V-9.2a2.254,2.254,0,0,1-.342,1.272,1.953,1.953,0,0,0,.389-1.314V-11.7Zm-2.845,0v2.479a1.7,1.7,0,0,0,.582,1.5A1.9,1.9,0,0,1-73.384-9.2V-11.7Zm1.4,4.765C-73.279-6.932-74-7.765-74-9.217v-3.044h1.177V-9.2c0,.553.14,1.213.81,1.213.212,0,.858,0,.858-1.213v-3.058h1.177v3.016c0,1.47-.749,2.314-2.056,2.314" transform="translate(73.996 12.261)" fill="#333"/>
            </g>
            <g id="g68" transform="translate(7.012 15.996)">
              <path id="path70" d="M-3.591-94.5a2.431,2.431,0,0,0,1.23.347c.7,0,1.112-.371,1.112-.907,0-.5-.284-.781-1-1.057-.867-.308-1.4-.757-1.4-1.506a1.53,1.53,0,0,1,1.719-1.443,2.414,2.414,0,0,1,1.175.26l-.189.56A2.116,2.116,0,0,0-1.958-98.5c-.725,0-1,.434-1,.8,0,.5.323.741,1.057,1.025.9.347,1.356.781,1.356,1.561,0,.82-.607,1.53-1.861,1.53a2.747,2.747,0,0,1-1.356-.339Z" transform="translate(3.764 99.068)" fill="#fc0603"/>
            </g>
            <g id="g72" transform="translate(6.636 15.676)">
              <path id="path74" d="M-21.1-23.262a1.019,1.019,0,0,0-.213.639c0,.364.135.83,1.19,1.2l.008,0c.627.241,1.207.572,1.207,1.355a1.158,1.158,0,0,1-.242.73,1.091,1.091,0,0,0,.3-.786c0-.681-.44-.988-1.151-1.262-.638-.247-1.261-.553-1.261-1.324a1.064,1.064,0,0,1,.16-.561m.712,5a3.067,3.067,0,0,1-1.534-.393l-.2-.132.362-1.2.354.218a2.112,2.112,0,0,0,1.062.3c.238,0,.792-.057.792-.587,0-.255-.058-.473-.792-.756-1.085-.386-1.613-.977-1.613-1.806a1.853,1.853,0,0,1,2.039-1.763,2.7,2.7,0,0,1,1.333.3l.23.13-.4,1.172-.335-.182a1.786,1.786,0,0,0-.856-.213c-.5,0-.681.246-.681.476s.059.42.852.726c1.383.534,1.561,1.274,1.561,1.86a1.917,1.917,0,0,1-2.181,1.85" transform="translate(22.115 24.385)" fill="#fc0603"/>
            </g>
            <g id="g76" transform="translate(16.024 15.996)">
              <path id="path78" d="M-3.591-94.5a2.431,2.431,0,0,0,1.23.347c.7,0,1.112-.371,1.112-.907,0-.5-.284-.781-1-1.057-.867-.308-1.4-.757-1.4-1.506a1.53,1.53,0,0,1,1.719-1.443,2.414,2.414,0,0,1,1.175.26l-.189.56A2.116,2.116,0,0,0-1.958-98.5c-.725,0-1,.434-1,.8,0,.5.323.741,1.057,1.025.9.347,1.356.781,1.356,1.561,0,.82-.607,1.53-1.861,1.53a2.747,2.747,0,0,1-1.356-.339Z" transform="translate(3.764 99.068)" fill="#fc0603"/>
            </g>
            <g id="g80" transform="translate(15.649 15.676)">
              <path id="path82" d="M-21.1-23.262a1.019,1.019,0,0,0-.213.639c0,.364.135.83,1.19,1.2l.008,0c.627.241,1.207.572,1.207,1.355a1.158,1.158,0,0,1-.242.73,1.091,1.091,0,0,0,.3-.786c0-.681-.44-.988-1.151-1.262-.638-.247-1.261-.553-1.261-1.324a1.064,1.064,0,0,1,.16-.561m.712,5a3.067,3.067,0,0,1-1.534-.393l-.2-.132.362-1.2.354.218a2.112,2.112,0,0,0,1.062.3c.238,0,.792-.057.792-.587,0-.255-.058-.473-.792-.756-1.085-.386-1.613-.977-1.613-1.806a1.853,1.853,0,0,1,2.039-1.763,2.7,2.7,0,0,1,1.333.3l.23.13-.4,1.172-.335-.182a1.786,1.786,0,0,0-.856-.213c-.5,0-.681.246-.681.476s.059.42.852.726c1.383.534,1.561,1.274,1.561,1.86a1.917,1.917,0,0,1-2.181,1.85" transform="translate(22.115 24.385)" fill="#fc0603"/>
            </g>
            <g id="g84" transform="translate(7.056 7.565)">
              <path id="path86" d="M-19.572-12.625c-.008-.152-.018-.334-.016-.47h0c-.037.127-.082.263-.137.413l-.192.528h-.106l-.176-.518c-.052-.153-.1-.294-.126-.423h0c0,.136-.011.318-.021.481l-.029.466h-.134l.076-1.087h.179l.185.526c.045.134.082.253.11.366h0c.027-.11.066-.229.115-.366l.194-.526h.179l.068,1.087h-.137Z" transform="translate(20.517 13.235)" fill="#333"/>
            </g>
            <g id="g88" transform="translate(8.331 7.854)">
              <path id="path90" d="M-2.972-8.483c0,.171.1.3.237.3s.237-.127.237-.3c0-.132-.066-.3-.234-.3s-.24.155-.24.3m.62-.008a.382.382,0,0,1-.389.415.371.371,0,0,1-.374-.4.381.381,0,0,1,.387-.415.37.37,0,0,1,.376.4" transform="translate(3.116 8.893)" fill="#333"/>
            </g>
            <g id="g92" transform="translate(9.266 7.507)">
              <path id="path94" d="M-3.04-17.234a.268.268,0,0,0,.006.052.219.219,0,0,0,.213.166c.148,0,.237-.121.237-.3,0-.157-.081-.29-.232-.29a.226.226,0,0,0-.216.174.287.287,0,0,0-.008.058Zm-.147.313c0-.053.006-.132.006-.2v-.944h.14v.491h0a.291.291,0,0,1,.266-.144.35.35,0,0,1,.329.4.371.371,0,0,1-.35.418.278.278,0,0,1-.261-.147h0l-.006.129Z" transform="translate(3.187 18.067)" fill="#333"/>
            </g>
            <path id="path96" d="M220.78-555.556h.142v.781h-.142Zm.158-.219a.084.084,0,0,1-.09.087.084.084,0,0,1-.086-.087.087.087,0,0,1,.089-.089.084.084,0,0,1,.087.089" transform="translate(-210.589 563.428)" fill="#333"/>
            <path id="path98" d="M229.342-557.091h.142v1.146h-.142Z" transform="translate(-218.773 564.598)" fill="#333"/>
            <g id="g100" transform="translate(10.893 7.854)">
              <path id="path102" d="M-11.423-6.881a.2.2,0,0,0-.2-.231.235.235,0,0,0-.218.231Zm-.416.1a.25.25,0,0,0,.268.271.513.513,0,0,0,.216-.04l.024.1a.631.631,0,0,1-.26.048.363.363,0,0,1-.384-.394.379.379,0,0,1,.366-.421.331.331,0,0,1,.323.368.528.528,0,0,1,0,.066Z" transform="translate(11.975 7.213)" fill="#333"/>
            </g>
            <g id="g104" transform="translate(12.05 7.548)">
              <path id="path106" d="M-.735-19.338a.5.5,0,0,0,.252.071c.144,0,.228-.076.228-.186s-.058-.16-.2-.216c-.177-.063-.287-.155-.287-.308a.313.313,0,0,1,.352-.3.493.493,0,0,1,.24.053l-.039.115A.432.432,0,0,0-.4-20.156c-.148,0-.2.089-.2.163,0,.1.066.152.216.21.184.071.277.16.277.32s-.124.313-.381.313a.562.562,0,0,1-.278-.069Z" transform="translate(0.771 20.272)" fill="#333"/>
            </g>
            <g id="g108" transform="translate(12.802 7.648)">
              <path id="path110" d="M-5.378,0V.224h.2V.332h-.2V.753c0,.1.027.152.106.152A.315.315,0,0,0-5.189.9L-5.182,1a.348.348,0,0,1-.126.019.2.2,0,0,1-.153-.06.289.289,0,0,1-.055-.2V.332h-.121V.224h.121V.037Z" transform="translate(5.637)" fill="#333"/>
            </g>
            <g id="g112" transform="translate(13.418 7.854)">
              <path id="path114" d="M-.134-5.411c0-.092,0-.171-.006-.244h.124l0,.153H0a.234.234,0,0,1,.216-.171.152.152,0,0,1,.04,0v.134a.214.214,0,0,0-.048,0,.2.2,0,0,0-.19.182.4.4,0,0,0-.006.066v.416h-.14Z" transform="translate(0.14 5.672)" fill="#333"/>
            </g>
            <g id="g116" transform="translate(13.88 7.854)">
              <path id="path118" d="M-2.972-8.483c0,.171.1.3.237.3s.237-.127.237-.3c0-.132-.066-.3-.234-.3s-.24.155-.24.3m.62-.008a.382.382,0,0,1-.389.415.371.371,0,0,1-.374-.4.381.381,0,0,1,.387-.415.37.37,0,0,1,.376.4" transform="translate(3.116 8.893)" fill="#333"/>
            </g>
            <g id="g120" transform="translate(14.822 7.507)">
              <path id="path122" d="M-2.906-14.964h0c.019-.027.047-.061.069-.089l.229-.269h.171l-.3.321.344.46h-.173l-.269-.374-.073.081v.294h-.14v-1.146h.14Z" transform="translate(3.047 15.687)" fill="#333"/>
            </g>
            <g id="g124" transform="translate(15.523 7.854)">
              <path id="path126" d="M-11.423-6.881a.2.2,0,0,0-.2-.231.235.235,0,0,0-.218.231Zm-.416.1a.25.25,0,0,0,.268.271.513.513,0,0,0,.216-.04l.024.1a.632.632,0,0,1-.26.048.363.363,0,0,1-.384-.394.379.379,0,0,1,.366-.421.331.331,0,0,1,.323.368.538.538,0,0,1,0,.066Z" transform="translate(11.975 7.213)" fill="#333"/>
            </g>
            <g id="g128" transform="translate(16.733 7.565)">
              <path id="path130" d="M-2.939,0V.644c0,.244.108.347.253.347.161,0,.265-.106.265-.347V0h.142V.634c0,.334-.176.471-.411.471S-3.081.978-3.081.641V0Z" transform="translate(3.081)" fill="#333"/>
            </g>
            <g id="g132" transform="translate(17.767 7.854)">
              <path id="path134" d="M-.134-4.743c0-.081,0-.147-.006-.211h.126l.008.129H0a.287.287,0,0,1,.258-.147c.108,0,.276.065.276.332v.466H.389v-.45c0-.126-.047-.231-.181-.231a.2.2,0,0,0-.19.145.2.2,0,0,0-.01.066v.47H-.134Z" transform="translate(0.14 4.972)" fill="#333"/>
            </g>
            <path id="path136" d="M404.759-555.556h.142v.781h-.142Zm.158-.219a.084.084,0,0,1-.09.087.084.084,0,0,1-.086-.087.086.086,0,0,1,.089-.089.084.084,0,0,1,.087.089" transform="translate(-386.09 563.428)" fill="#333"/>
            <g id="g138" transform="translate(18.958 7.648)">
              <path id="path140" d="M-5.378,0V.224h.2V.332h-.2V.753c0,.1.027.152.107.152A.315.315,0,0,0-5.189.9L-5.182,1a.349.349,0,0,1-.126.019.2.2,0,0,1-.153-.06.29.29,0,0,1-.055-.2V.332h-.121V.224h.121V.037Z" transform="translate(5.637)" fill="#333"/>
            </g>
            <g id="g142" transform="translate(6.636 22.264)">
              <path id="path144" d="M-.869-22.849a.587.587,0,0,0,.3.084c.17,0,.269-.09.269-.219s-.069-.189-.242-.255c-.21-.074-.339-.183-.339-.364a.37.37,0,0,1,.416-.349.583.583,0,0,1,.284.063l-.046.135a.512.512,0,0,0-.244-.061c-.175,0-.242.1-.242.193,0,.12.078.179.255.248.217.084.328.189.328.377s-.147.37-.45.37a.664.664,0,0,1-.328-.082Z" transform="translate(0.911 23.953)" fill="#fc0603"/>
            </g>
            <g id="g146" transform="translate(7.525 22.382)">
              <path id="path148" d="M-6.354,0V.265h.24V.393h-.24v.5c0,.114.032.179.126.179a.376.376,0,0,0,.1-.011l.008.126a.412.412,0,0,1-.149.023.232.232,0,0,1-.181-.071A.342.342,0,0,1-6.518.9v-.5h-.143V.265h.143V.044Z" transform="translate(6.661)" fill="#fc0603"/>
            </g>
            <g id="g150" transform="translate(8.254 22.626)">
              <path id="path152" d="M-.158-6.394c0-.109,0-.2-.008-.288h.147l.006.181h.008A.277.277,0,0,1,.25-6.7.182.182,0,0,1,.3-6.7v.158a.252.252,0,0,0-.057-.006.235.235,0,0,0-.225.215.473.473,0,0,0-.008.078v.492H-.158Z" transform="translate(0.165 6.703)" fill="#fc0603"/>
            </g>
            <g id="g154" transform="translate(8.799 22.626)">
              <path id="path156" d="M-3.512-10.025c0,.2.116.355.28.355s.28-.151.28-.358c0-.156-.078-.355-.276-.355s-.284.183-.284.358m.732-.01a.451.451,0,0,1-.459.49.439.439,0,0,1-.442-.475.451.451,0,0,1,.458-.49.437.437,0,0,1,.444.475" transform="translate(3.681 10.509)" fill="#fc0603"/>
            </g>
            <g id="g158" transform="translate(9.913 22.216)">
              <path id="path160" d="M-3.434-17.68h0c.023-.032.055-.072.082-.1l.271-.318h.2l-.356.379.406.543h-.2l-.318-.442-.086.1v.347H-3.6v-1.354h.166Z" transform="translate(3.6 18.535)" fill="#fc0603"/>
            </g>
            <g id="g162" transform="translate(10.74 22.626)">
              <path id="path164" d="M-13.5-8.131A.239.239,0,0,0-13.73-8.4a.278.278,0,0,0-.257.273Zm-.492.12a.3.3,0,0,0,.316.32.607.607,0,0,0,.255-.048l.029.12a.748.748,0,0,1-.307.057.428.428,0,0,1-.454-.465.448.448,0,0,1,.433-.5.391.391,0,0,1,.381.435.633.633,0,0,1-.006.078Z" transform="translate(14.149 8.524)" fill="#fc0603"/>
            </g>
            <g id="g166" transform="translate(12.096 22.264)">
              <path id="path168" d="M-3.671-13.892c0,.275.149.52.41.52s.412-.242.412-.534c0-.255-.133-.522-.41-.522s-.412.254-.412.536m1-.021a.6.6,0,0,1-.6.677.589.589,0,0,1-.578-.652.61.61,0,0,1,.6-.675.585.585,0,0,1,.578.65" transform="translate(3.848 14.563)" fill="#fc0603"/>
            </g>
            <g id="g170" transform="translate(13.473 22.626)">
              <path id="path172" d="M-.158-5.6c0-.1,0-.173-.008-.25h.149l.01.153H0A.339.339,0,0,1,.3-5.875c.128,0,.326.076.326.393v.551H.46v-.532c0-.149-.055-.273-.213-.273a.238.238,0,0,0-.225.172.242.242,0,0,0-.011.078v.555H-.158Z" transform="translate(0.165 5.875)" fill="#fc0603"/>
            </g>
            <g id="g174" transform="translate(14.472 22.626)">
              <path id="path176" d="M-13.5-8.131A.239.239,0,0,0-13.73-8.4a.278.278,0,0,0-.257.273Zm-.492.12a.3.3,0,0,0,.317.32.607.607,0,0,0,.255-.048l.029.12a.748.748,0,0,1-.307.057.428.428,0,0,1-.454-.465.448.448,0,0,1,.433-.5.391.391,0,0,1,.381.435.621.621,0,0,1-.006.078Z" transform="translate(14.149 8.524)" fill="#fc0603"/>
            </g>
            <g id="g178" transform="translate(15.839 22.264)">
              <path id="path180" d="M-.869-22.849a.587.587,0,0,0,.3.084c.17,0,.269-.09.269-.219s-.069-.189-.242-.255c-.21-.074-.339-.183-.339-.364a.37.37,0,0,1,.416-.349.583.583,0,0,1,.284.063l-.046.135a.512.512,0,0,0-.244-.061c-.175,0-.242.1-.242.193,0,.12.078.179.255.248.217.084.328.189.328.377s-.147.37-.45.37a.664.664,0,0,1-.328-.082Z" transform="translate(0.911 23.953)" fill="#fc0603"/>
            </g>
            <g id="g182" transform="translate(16.728 22.382)">
              <path id="path184" d="M-6.354,0V.265h.24V.393h-.24v.5c0,.114.032.179.126.179a.376.376,0,0,0,.1-.011l.008.126a.412.412,0,0,1-.149.023.232.232,0,0,1-.181-.071A.342.342,0,0,1-6.518.9v-.5h-.143V.265h.143V.044Z" transform="translate(6.661)" fill="#fc0603"/>
            </g>
            <g id="g186" transform="translate(17.386 22.626)">
              <path id="path188" d="M-3.512-10.025c0,.2.116.355.28.355s.28-.151.28-.358c0-.156-.078-.355-.276-.355s-.284.183-.284.358m.732-.01a.451.451,0,0,1-.459.49.439.439,0,0,1-.442-.475.451.451,0,0,1,.458-.49.437.437,0,0,1,.444.475" transform="translate(3.681 10.509)" fill="#fc0603"/>
            </g>
            <g id="g190" transform="translate(18.492 22.626)">
              <path id="path192" d="M-3.592-11.761a.378.378,0,0,0,.008.069.259.259,0,0,0,.252.2c.177,0,.28-.145.28-.356,0-.185-.1-.343-.275-.343a.268.268,0,0,0-.254.208.27.27,0,0,0-.011.069Zm-.166-.246c0-.118,0-.214-.008-.3h.151l.008.158h0a.363.363,0,0,1,.328-.179.418.418,0,0,1,.391.469.437.437,0,0,1-.419.5.323.323,0,0,1-.284-.145h0v.5h-.166Z" transform="translate(3.765 12.329)" fill="#fc0603"/>
            </g>
          </g>
        </g>
      </g>
    </g>
  </g>
</svg>
