<svg xmlns="http://www.w3.org/2000/svg" xmlns:xlink="http://www.w3.org/1999/xlink" width="256" height="256" viewBox="0 0 256 256">
  <defs>
    <clipPath id="clip-path">
      <rect id="Rectangle_1" data-name="Rectangle 1" width="141" height="179" transform="translate(-0.373 -0.044)" fill="red" opacity="0.56"/>
    </clipPath>
    <clipPath id="clip-path-2">
      <path id="path16" d="M0-720H290.454v360.563H0Z" transform="translate(0 719.998)"/>
    </clipPath>
  </defs>
  <g id="Group_7" data-name="Group 7" transform="translate(-4722 1486.84)">
    <circle id="Ellipse_1" data-name="Ellipse 1" cx="128" cy="128" r="128" transform="translate(4722 -1486.84)" fill="#fff"/>
    <g id="Mask_Group_1" data-name="Mask Group 1" transform="translate(4779.373 -1447.796)" clip-path="url(#clip-path)">
      <g id="g10" transform="translate(-72.094 -81.658)">
        <g id="g12" transform="translate(0 0)">
          <g id="g14" clip-path="url(#clip-path-2)">
            <g id="g20" transform="translate(116.921 173.944)">
              <path id="path22" d="M-53.167-29.128c0,19.88-12.208,30.42-27.1,30.42-15.411,0-26.234-11.825-26.234-29.305,0-18.337,11.515-30.333,27.1-30.333,15.931,0,26.234,12.082,26.234,29.219" transform="translate(106.501 58.347)" fill="#fc0603"/>
            </g>
            <g id="g24" transform="translate(113.404 170.463)">
              <path id="path26" d="M-30.521-6.939C-44.626-6.939-54.1,3.852-54.1,19.914c0,15.447,9.13,25.825,22.717,25.825C-17.06,45.739-7.8,35.164-7.8,18.8-7.8,3.163-16.72-6.939-30.521-6.939M-31.386,52.7c-17.517,0-29.751-13.482-29.751-32.785C-61.137.005-48.547-13.9-30.521-13.9-13-13.9-.77-.454-.77,18.8c0,23.418-15.377,33.9-30.617,33.9" transform="translate(61.137 13.9)" fill="#fc0603"/>
            </g>
            <g id="g28" transform="translate(127.284 186.416)">
              <path id="path30" d="M-14.545-4.13s0,0,0,0a.005.005,0,0,1,0,0m-4.584-2.979a7.638,7.638,0,0,0-1.736,1.216A22.207,22.207,0,0,0-27.921,7.384c-.54,4.359,1.055,7.912,2.91,9.17,1.63,1.105,8.149-.35,10.066-2.571-.219-4.689.8-6.3,1.407-7.271.088-.14.168-.266.235-.391.176-.328.405-.69.651-1.08a7.917,7.917,0,0,0,1.586-3.859,7.691,7.691,0,0,0-1.9,1.312,15.979,15.979,0,0,0-4.016,5.993c-.246.843-.9,2.209-1.781,1.981-.779-.2-.877-1.267-.343-3.682A12.132,12.132,0,0,1-16.493,1.43c2.1-2.587,2.138-4.088,2-5.181a6.451,6.451,0,0,0-1.568,1.074,29.157,29.157,0,0,0-8.127,14.611l-1.092-.064a18.838,18.838,0,0,1,3.451-12.7l.309-.449c1.532-2.223,2.758-4,2.39-5.831m-3.952,25.133a4.652,4.652,0,0,1-2.551-.556c-2.067-1.4-4.009-5.2-3.387-10.221a23.374,23.374,0,0,1,7.424-13.97c.923-.812,2.181-1.731,2.927-1.517a.77.77,0,0,1,.529.534c.714,2.438-.761,4.578-2.469,7.056l-.308.448a18.043,18.043,0,0,0-3.156,7.82A30.488,30.488,0,0,1-16.822-3.476c.019-.018,1.92-1.753,2.878-1.418a.738.738,0,0,1,.492.6c.177,1.172.475,3.139-2.119,6.339a11.218,11.218,0,0,0-2.452,5.179,12.49,12.49,0,0,0-.3,1.866,4.037,4.037,0,0,0,.282-.715,17.051,17.051,0,0,1,4.35-6.516C-12.21.565-11.143.034-10.51.3a.9.9,0,0,1,.541.831c.118,1.743-.917,3.381-1.748,4.7-.231.366-.447.706-.612,1.014-.077.144-.17.292-.273.456-.585.929-1.469,2.332-1.227,6.834l.011.2-.122.161c-1.484,1.959-6,3.507-9.14,3.525" transform="translate(29.137 8.272)" fill="#fff"/>
            </g>
            <g id="g32" transform="translate(130.154 181.682)">
              <path id="path34" d="M-21.335-47.637c-2.288-8.565,3.956-11.147,7-10.61,2.316.409,3.184-.942,2.833-1.985s-1.446-2.353-1.1-2.818,2.623-1.408-.051-2.36c1.235-.588,1.812-1.211.566-2.714a1.533,1.533,0,0,1,.3-2.557c.385-.351,1.81-1.681,1.381-2.144s-4.333-4.653-4.734-7.049S-19.918-93-29.866-92.95A26.1,26.1,0,0,0-42.7-89.664c1.488-1.615,6.948-5.728,12.624-5.76a16.9,16.9,0,0,1,13.546,6.812c1.87,2.507,2.83,8.151,4.273,10.2a39,39,0,0,0,4.438,4.851c.624.615.939,1.505.011,2.128s-2.159,1.288-2.271,2.179a4.27,4.27,0,0,0,.983,2.511c.311.385-.19.89-1.232,1.673,1.165.881,1.464,1.315,1.251,1.771-.422.894-1.738.862-1.423,1.789s1.489,3.24.488,4.33c-1.5,1.636-5.489.369-7.187,1.112s-3.8,3.622-4.138,8.435" transform="translate(42.737 95.424)" fill="#fff"/>
            </g>
            <g id="g36" transform="translate(140.031 177.238)">
              <path id="path38" d="M-17.523,0l-4.355.024-6.7,6.542,4.984-.027-7.986,6.315,5.281-.029-8.8,8.238,15.789-10.291-6.071.034L-16.9,4.749l-5.679.032Z" transform="translate(35.101)" fill="#fff"/>
            </g>
            <g id="g40" transform="translate(123.069 188.293)">
              <path id="path42" d="M-19.012-41.1l-11.947.066c2.063-4.772,2.4-6.4,2.392-8.374-.019-3.562-9.448-7.571-9.516-19.916-.03-5.459,6.342-14.192,6.63-12.869.769,3.527-2.215,6.037-2.18,12.341.035,6.424,4.469,10.347,6.713,10.334s1.845-9.143-3.144-15.5c.887-.815,4.812-.528,6.708,2.287,1.64,2.428,3.794,8.251,5.4,11.153,2.091,3.771,3.1,5.778,3.121,10,.019,3.367-1.954,7.073-4.181,10.483" transform="translate(38.083 82.327)" fill="#fff"/>
            </g>
            <g id="g44" transform="translate(75.457 107.269)">
              <path id="path46" d="M-44.157-28.483c-.378-7.105-.831-15.646-.757-22h-.226c-1.739,5.971-3.855,12.321-6.425,19.35L-60.559-6.411h-4.989l-8.24-24.264c-2.418-7.181-4.46-13.757-5.9-19.8h-.151c-.151,6.349-.529,14.891-.982,22.525L-82.177-6.109h-6.274L-84.9-57.056h8.39l8.692,24.642c2.117,6.274,3.855,11.868,5.141,17.159h.226c1.285-5.14,3.1-10.733,5.367-17.159l9.071-24.642h8.39l3.175,50.947h-6.425Z" transform="translate(88.452 57.056)" fill="#333"/>
            </g>
            <g id="g48" transform="translate(72.166 104.199)">
              <path id="path50" d="M-9.647-6.556h3.538l-.154-.436H-9.617Zm36.035,0h3.552l-.027-.436H26.548ZM.339,11.723q.568,1.737,1.2,3.616l2.216,6.526c-.611-1.939-1.295-4.026-2.063-6.3ZM9.07,37.512h.639l.984-2.7H8.152Zm-21.812.3h.1l.816-13.1Zm45.187,0H32.7l-1.938-31.1c.153,3.953.369,8.018.561,11.623Zm6.794,6.14H26.647L25.2,18.674c-.086-1.613-.177-3.317-.264-5.064q-.579,1.627-1.195,3.31L14.009,43.653H4.67L-4.277,17.306q-.42-1.248-.812-2.432c-.078,1.457-.16,2.913-.245,4.348L-6.875,43.955h-12.45l3.981-57.087H-1.918L7.5,13.558c.915,2.714,1.714,5.164,2.416,7.422.732-2.25,1.567-4.7,2.527-7.422l9.825-26.69H35.681Z" transform="translate(19.325 13.132)" fill="#333"/>
            </g>
            <g id="g52" transform="translate(133.802 106.437)">
              <path id="path54" d="M-1.657-43.629A23.3,23.3,0,0,0,10.134-40.3c6.727,0,10.658-3.553,10.658-8.693,0-4.761-2.721-7.483-9.6-10.128C2.878-62.072-2.262-66.381-2.262-73.562c0-7.936,6.576-13.832,16.478-13.832A23.156,23.156,0,0,1,25.479-84.9l-1.814,5.367a20.285,20.285,0,0,0-9.675-2.419c-6.954,0-9.6,4.157-9.6,7.635,0,4.761,3.1,7.105,10.128,9.826,8.617,3.326,13,7.483,13,14.967,0,7.861-5.82,14.664-17.839,14.664-4.913,0-10.279-1.436-13-3.25Z" transform="translate(3.32 87.394)" fill="#333"/>
            </g>
            <g id="g56" transform="translate(130.206 103.367)">
              <path id="path58" d="M-9.741-10.737a9.768,9.768,0,0,0-2.047,6.132c0,3.491,1.3,7.958,11.41,11.544l.076.028C5.707,9.277,11.267,12.45,11.267,19.961a11.092,11.092,0,0,1-2.324,7,10.453,10.453,0,0,0,2.911-7.53c0-6.531-4.223-9.473-11.037-12.1C-5.3,4.96-11.276,2.029-11.276-5.361a10.2,10.2,0,0,1,1.535-5.376m6.826,47.9c-5.332,0-11.378-1.548-14.7-3.766l-1.893-1.262,3.47-11.516,3.4,2.091a20.249,20.249,0,0,0,10.183,2.87c2.282,0,7.588-.548,7.588-5.623,0-2.364-.573-4.542-7.595-7.249-10.4-3.7-15.459-9.363-15.459-17.318,0-9.794,8.222-16.9,19.549-16.9,6.672,0,10.868,1.812,12.775,2.893L16.6-17.364l-3.8,11.233L9.6-7.881a17.121,17.121,0,0,0-8.2-2.044c-4.814,0-6.53,2.358-6.53,4.564,0,2.3.568,4.022,8.167,6.964,13.262,5.119,14.963,12.217,14.963,17.83,0,8.827-6.466,17.734-20.909,17.734" transform="translate(19.512 21.508)" fill="#333"/>
            </g>
            <g id="g60" transform="translate(170.415 107.269)">
              <path id="path62" d="M-6.631,0V30.16c0,11.414,5.065,16.251,11.867,16.251,7.559,0,12.4-4.988,12.4-16.251V0h6.652V29.706c0,15.646-8.239,22.071-19.275,22.071-10.431,0-18.293-5.971-18.293-21.769V0Z" transform="translate(13.283)" fill="#333"/>
            </g>
            <g id="g64" transform="translate(167.345 104.199)">
              <path id="path66" d="M-36.94-6.121v27.09c0,3.39-.513,9.4-3.715,13.824,2.792-3.2,4.227-7.986,4.227-14.277V-6.121Zm-30.916,0V20.817c0,7.984,2.12,13.435,6.323,16.307-3.737-3.22-5.811-8.783-5.811-16.156V-6.121Zm15.222,51.778C-66.21,45.657-74,36.6-74,20.817V-12.261H-61.2v33.23c0,6.013,1.526,13.181,8.8,13.181,2.307,0,9.327,0,9.327-13.181v-33.23h12.792V20.515c0,15.978-8.145,25.141-22.345,25.141" transform="translate(73.996 12.261)" fill="#333"/>
            </g>
            <g id="g68" transform="translate(76.195 173.833)">
              <path id="path70" d="M-1.879-49.456a26.416,26.416,0,0,0,13.367,3.77c7.626,0,12.082-4.027,12.082-9.853,0-5.4-3.085-8.483-10.882-11.482C3.262-70.364-2.564-75.247-2.564-83.387c0-9,7.454-15.68,18.679-15.68,5.913,0,10.2,1.371,12.767,2.828l-2.057,6.084A23,23,0,0,0,15.857-92.9c-7.882,0-10.882,4.713-10.882,8.654,0,5.4,3.513,8.055,11.482,11.139C26.226-69.335,31.2-64.623,31.2-56.14c0,8.912-6.6,16.623-20.222,16.623C5.4-39.517-.679-41.145-3.764-43.2Z" transform="translate(3.764 99.068)" fill="#fc0603"/>
            </g>
            <g id="g72" transform="translate(72.119 170.353)">
              <path id="path74" d="M-11.04-12.174a11.076,11.076,0,0,0-2.318,6.949c0,3.958,1.47,9.021,12.934,13.086l.087.032c6.811,2.619,13.113,6.216,13.113,14.73a12.58,12.58,0,0,1-2.635,7.938,11.854,11.854,0,0,0,3.3-8.538c0-7.4-4.787-10.737-12.511-13.719C-6.008,5.618-12.779,2.3-12.779-6.081a11.563,11.563,0,0,1,1.739-6.092m7.739,54.3c-6.043,0-12.9-1.755-16.668-4.268l-2.146-1.43,3.934-13.055,3.851,2.37A22.952,22.952,0,0,0-2.786,29c2.586,0,8.6-.621,8.6-6.374,0-2.775-.634-5.143-8.609-8.217C-14.586,10.214-20.318,3.792-20.318-5.225c0-11.1,9.319-19.161,22.159-19.161,7.566,0,12.321,2.055,14.483,3.28l2.5,1.418-4.3,12.733L10.884-8.938a19.409,19.409,0,0,0-9.3-2.318c-5.458,0-7.4,2.673-7.4,5.174,0,2.6.644,4.559,9.258,7.894C18.473,7.615,20.4,15.662,20.4,22.023c0,10.006-7.329,20.1-23.7,20.1" transform="translate(22.115 24.385)" fill="#fc0603"/>
            </g>
            <g id="g76" transform="translate(174.132 173.833)">
              <path id="path78" d="M-1.879-49.456a26.416,26.416,0,0,0,13.367,3.77c7.626,0,12.082-4.027,12.082-9.853,0-5.4-3.085-8.483-10.882-11.482C3.262-70.364-2.564-75.247-2.564-83.387c0-9,7.454-15.68,18.679-15.68,5.913,0,10.2,1.371,12.767,2.828l-2.057,6.084A23,23,0,0,0,15.857-92.9c-7.882,0-10.882,4.713-10.882,8.654,0,5.4,3.513,8.055,11.482,11.139C26.226-69.335,31.2-64.623,31.2-56.14c0,8.912-6.6,16.623-20.222,16.623C5.4-39.517-.679-41.145-3.764-43.2Z" transform="translate(3.764 99.068)" fill="#fc0603"/>
            </g>
            <g id="g80" transform="translate(170.056 170.353)">
              <path id="path82" d="M-11.04-12.174a11.076,11.076,0,0,0-2.318,6.949c0,3.958,1.47,9.021,12.934,13.086l.087.032c6.811,2.619,13.113,6.216,13.113,14.73a12.58,12.58,0,0,1-2.635,7.938,11.854,11.854,0,0,0,3.3-8.538c0-7.4-4.787-10.737-12.511-13.719C-6.008,5.618-12.779,2.3-12.779-6.081a11.563,11.563,0,0,1,1.739-6.092m7.739,54.3c-6.043,0-12.9-1.755-16.668-4.268l-2.146-1.43,3.934-13.055,3.851,2.37A22.952,22.952,0,0,0-2.786,29c2.586,0,8.6-.621,8.6-6.374,0-2.775-.634-5.143-8.609-8.217C-14.586,10.214-20.318,3.792-20.318-5.225c0-11.1,9.319-19.161,22.159-19.161,7.566,0,12.321,2.055,14.483,3.28l2.5,1.418-4.3,12.733L10.884-8.938a19.409,19.409,0,0,0-9.3-2.318c-5.458,0-7.4,2.673-7.4,5.174,0,2.6.644,4.559,9.258,7.894C18.473,7.615,20.4,15.662,20.4,22.023c0,10.006-7.329,20.1-23.7,20.1" transform="translate(22.115 24.385)" fill="#fc0603"/>
            </g>
            <g id="g84" transform="translate(76.676 82.213)">
              <path id="path86" d="M-10.243-6.607c-.088-1.648-.193-3.63-.176-5.1h-.053c-.4,1.385-.894,2.858-1.49,4.489l-2.087,5.734H-15.2l-1.912-5.628c-.561-1.666-1.034-3.192-1.367-4.595h-.035c-.035,1.473-.122,3.455-.228,5.225l-.315,5.067h-1.456l.824-11.818h1.946l2.016,5.716c.491,1.455.895,2.752,1.193,3.98h.053c.3-1.193.718-2.49,1.245-3.98l2.1-5.716H-9.19l.736,11.818h-1.49Z" transform="translate(20.517 13.235)" fill="#333"/>
            </g>
            <g id="g88" transform="translate(90.529 85.351)">
              <path id="path90" d="M-1.556-4.44c0,1.859,1.07,3.261,2.577,3.261,1.473,0,2.578-1.385,2.578-3.3,0-1.438-.719-3.262-2.543-3.262s-2.613,1.683-2.613,3.3m6.733-.087A4.147,4.147,0,0,1,.952-.021,4.035,4.035,0,0,1-3.116-4.387,4.144,4.144,0,0,1,1.092-8.893,4.018,4.018,0,0,1,5.177-4.527" transform="translate(3.116 8.893)" fill="#333"/>
            </g>
            <g id="g92" transform="translate(100.699 81.582)">
              <path id="path94" d="M-1.591-9.019a2.909,2.909,0,0,0,.07.561A2.381,2.381,0,0,0,.794-6.652c1.613,0,2.578-1.315,2.578-3.261,0-1.7-.877-3.156-2.525-3.156A2.461,2.461,0,0,0-1.5-11.176a3.117,3.117,0,0,0-.087.631Zm-1.6,3.4c.036-.578.07-1.438.07-2.191V-18.067h1.526v5.33h.035A3.16,3.16,0,0,1,1.338-14.3c2.1,0,3.594,1.753,3.577,4.331C4.915-6.933,3-5.425,1.109-5.425a3.023,3.023,0,0,1-2.84-1.6h-.053l-.07,1.4Z" transform="translate(3.187 18.067)" fill="#333"/>
            </g>
            <path id="path96" d="M220.956-552.515H222.5v8.486h-1.543Zm1.718-2.384a.912.912,0,0,1-.982.947.918.918,0,0,1-.929-.947.94.94,0,0,1,.965-.964.915.915,0,0,1,.947.964" transform="translate(-110.208 638.06)" fill="#333"/>
            <path id="path98" d="M229.342-557.091h1.543v12.449h-1.543Z" transform="translate(-114.491 638.672)" fill="#333"/>
            <g id="g100" transform="translate(118.376 85.351)">
              <path id="path102" d="M-5.978-3.6A2.2,2.2,0,0,0-8.117-6.108,2.557,2.557,0,0,0-10.484-3.6ZM-10.5-2.5A2.719,2.719,0,0,0-7.591.449,5.575,5.575,0,0,0-5.241.011l.262,1.1A6.861,6.861,0,0,1-7.8,1.642a3.941,3.941,0,0,1-4.173-4.279c0-2.56,1.508-4.576,3.98-4.576,2.771,0,3.507,2.437,3.507,4A5.739,5.739,0,0,1-4.54-2.5Z" transform="translate(11.975 7.213)" fill="#333"/>
            </g>
            <g id="g104" transform="translate(130.948 82.02)">
              <path id="path106" d="M-.385-10.12a5.407,5.407,0,0,0,2.736.772c1.56,0,2.473-.825,2.473-2.016,0-1.105-.632-1.736-2.227-2.35C.668-14.4-.525-15.4-.525-17.063-.525-18.9,1-20.272,3.3-20.272a5.363,5.363,0,0,1,2.612.579l-.421,1.245a4.7,4.7,0,0,0-2.244-.561c-1.613,0-2.227.964-2.227,1.771,0,1.1.719,1.648,2.35,2.279,2,.772,3.015,1.736,3.015,3.472,0,1.824-1.349,3.4-4.138,3.4A6.111,6.111,0,0,1-.771-8.84Z" transform="translate(0.771 20.272)" fill="#333"/>
            </g>
            <g id="g108" transform="translate(139.12 83.107)">
              <path id="path110" d="M-2.814,0V2.437H-.605V3.612H-2.814V8.188c0,1.052.3,1.649,1.156,1.649a3.424,3.424,0,0,0,.895-.105l.07,1.158a3.787,3.787,0,0,1-1.367.21,2.137,2.137,0,0,1-1.665-.649,3.143,3.143,0,0,1-.6-2.209V3.612H-5.637V2.437h1.315V.4Z" transform="translate(5.637)" fill="#333"/>
            </g>
            <g id="g112" transform="translate(145.819 85.351)">
              <path id="path114" d="M-.07-2.832c0-1-.017-1.858-.07-2.647H1.21l.053,1.666h.07a2.547,2.547,0,0,1,2.35-1.859,1.653,1.653,0,0,1,.437.053v1.455A2.33,2.33,0,0,0,3.6-4.216,2.164,2.164,0,0,0,1.526-2.235a4.31,4.31,0,0,0-.07.719V3.008H-.07Z" transform="translate(0.14 5.672)" fill="#333"/>
            </g>
            <g id="g116" transform="translate(150.835 85.351)">
              <path id="path118" d="M-1.556-4.44c0,1.859,1.07,3.261,2.578,3.261,1.472,0,2.577-1.385,2.577-3.3,0-1.438-.719-3.262-2.543-3.262s-2.613,1.683-2.613,3.3m6.733-.087A4.147,4.147,0,0,1,.952-.021,4.035,4.035,0,0,1-3.116-4.387,4.144,4.144,0,0,1,1.093-8.893,4.018,4.018,0,0,1,5.177-4.527" transform="translate(3.116 8.893)" fill="#333"/>
            </g>
            <g id="g120" transform="translate(161.075 81.581)">
              <path id="path122" d="M-1.521-7.831h.035c.21-.3.509-.666.754-.964l2.491-2.929H3.616L.337-8.234l3.735,5H2.2L-.732-7.3l-.789.877v3.191H-3.047V-15.687h1.526Z" transform="translate(3.047 15.687)" fill="#333"/>
            </g>
            <g id="g124" transform="translate(168.686 85.351)">
              <path id="path126" d="M-5.978-3.6A2.2,2.2,0,0,0-8.117-6.108,2.558,2.558,0,0,0-10.485-3.6ZM-10.5-2.5A2.719,2.719,0,0,0-7.591.449,5.575,5.575,0,0,0-5.241.011l.263,1.1A6.867,6.867,0,0,1-7.8,1.642a3.941,3.941,0,0,1-4.173-4.279c0-2.56,1.508-4.576,3.98-4.576,2.77,0,3.507,2.437,3.507,4A5.843,5.843,0,0,1-4.54-2.5Z" transform="translate(11.975 7.213)" fill="#333"/>
            </g>
            <g id="g128" transform="translate(181.838 82.213)">
              <path id="path130" d="M-1.538,0V7c0,2.647,1.175,3.77,2.754,3.77,1.753,0,2.875-1.157,2.875-3.77V0H5.634V6.891c0,3.63-1.912,5.12-4.471,5.12-2.42,0-4.244-1.385-4.244-5.05V0Z" transform="translate(3.081)" fill="#333"/>
            </g>
            <g id="g132" transform="translate(193.078 85.352)">
              <path id="path134" d="M-.07-2.482c0-.877-.018-1.6-.07-2.3H1.227l.088,1.4H1.35a3.123,3.123,0,0,1,2.806-1.6c1.175,0,3,.7,3,3.612V3.708H5.611V-1.185c0-1.367-.509-2.507-1.964-2.507A2.192,2.192,0,0,0,1.578-2.114a2.2,2.2,0,0,0-.1.719v5.1H-.07Z" transform="translate(0.14 4.972)" fill="#333"/>
            </g>
            <path id="path136" d="M404.935-552.515h1.543v8.486h-1.543Zm1.719-2.384a.912.912,0,0,1-.982.947.918.918,0,0,1-.929-.947.94.94,0,0,1,.964-.964.916.916,0,0,1,.947.964" transform="translate(-202.054 638.06)" fill="#333"/>
            <g id="g138" transform="translate(206.019 83.107)">
              <path id="path140" d="M-2.814,0V2.437H-.6V3.612h-2.21V8.188c0,1.052.3,1.649,1.158,1.649a3.426,3.426,0,0,0,.894-.105l.07,1.158a3.794,3.794,0,0,1-1.368.21,2.142,2.142,0,0,1-1.666-.649,3.15,3.15,0,0,1-.595-2.209V3.612H-5.637V2.437h1.316V.4Z" transform="translate(5.637)" fill="#333"/>
            </g>
            <g id="g142" transform="translate(72.118 241.946)">
              <path id="path144" d="M-.455-11.958a6.383,6.383,0,0,0,3.232.912c1.844,0,2.921-.974,2.921-2.382,0-1.306-.745-2.051-2.631-2.776C.789-17.012-.62-18.194-.62-20.162c0-2.175,1.8-3.791,4.516-3.791a6.332,6.332,0,0,1,3.087.684l-.5,1.47a5.568,5.568,0,0,0-2.652-.663c-1.906,0-2.631,1.14-2.631,2.092,0,1.305.85,1.948,2.776,2.694,2.362.911,3.564,2.051,3.564,4.1,0,2.155-1.6,4.02-4.89,4.02a7.214,7.214,0,0,1-3.564-.891Z" transform="translate(0.911 23.953)" fill="#fc0603"/>
            </g>
            <g id="g146" transform="translate(81.776 243.23)">
              <path id="path148" d="M-3.325,0V2.88h2.61V4.269h-2.61V9.676c0,1.243.352,1.948,1.367,1.948A4.089,4.089,0,0,0-.9,11.5l.083,1.367a4.481,4.481,0,0,1-1.617.248A2.526,2.526,0,0,1-4.4,12.349a3.718,3.718,0,0,1-.7-2.611V4.269H-6.661V2.88h1.554V.477Z" transform="translate(6.661)" fill="#fc0603"/>
            </g>
            <g id="g150" transform="translate(89.692 245.882)">
              <path id="path152" d="M-.083-3.346c0-1.181-.021-2.2-.083-3.129h1.6l.062,1.969h.083A3.008,3.008,0,0,1,4.351-6.7a1.975,1.975,0,0,1,.518.062v1.72a2.738,2.738,0,0,0-.622-.062A2.557,2.557,0,0,0,1.8-2.642a5.143,5.143,0,0,0-.083.849V3.553h-1.8Z" transform="translate(0.165 6.703)" fill="#fc0603"/>
            </g>
            <g id="g154" transform="translate(95.619 245.881)">
              <path id="path156" d="M-1.838-5.246c0,2.2,1.264,3.853,3.046,3.853,1.74,0,3.045-1.637,3.045-3.895,0-1.7-.849-3.853-3-3.853S-1.838-7.152-1.838-5.246m7.956-.1c0,3.708-2.569,5.324-4.993,5.324-2.714,0-4.806-1.988-4.806-5.159,0-3.356,2.2-5.325,4.972-5.325,2.88,0,4.827,2.093,4.827,5.159" transform="translate(3.681 10.509)" fill="#fc0603"/>
            </g>
            <g id="g158" transform="translate(107.72 241.428)">
              <path id="path160" d="M-1.8-9.253h.041c.249-.352.6-.787.891-1.14l2.942-3.46h2.2L.4-9.73,4.812-3.824H2.6L-.865-8.631-1.8-7.6v3.771H-3.6v-14.71h1.8Z" transform="translate(3.6 18.535)" fill="#fc0603"/>
            </g>
            <g id="g162" transform="translate(116.714 245.881)">
              <path id="path164" d="M-7.064-4.255c.021-1.16-.477-2.963-2.527-2.963-1.844,0-2.652,1.7-2.8,2.963Zm-5.346,1.3A3.214,3.214,0,0,0-8.97.531,6.6,6.6,0,0,0-6.194.013l.31,1.305a8.127,8.127,0,0,1-3.335.621c-3.087,0-4.931-2.031-4.931-5.055s1.782-5.408,4.7-5.408C-6.174-8.524-5.3-5.643-5.3-3.8a6.881,6.881,0,0,1-.062.849Z" transform="translate(14.149 8.524)" fill="#fc0603"/>
            </g>
            <g id="g166" transform="translate(131.448 241.946)">
              <path id="path168" d="M-1.921-7.27c0,2.983,1.616,5.656,4.454,5.656,2.86,0,4.476-2.631,4.476-5.8,0-2.776-1.45-5.677-4.454-5.677-2.984,0-4.476,2.756-4.476,5.822M8.915-7.5c0,4.806-2.921,7.355-6.485,7.355C-1.258-.143-3.848-3-3.848-7.229c0-4.434,2.756-7.334,6.485-7.334,3.811,0,6.277,2.921,6.277,7.064" transform="translate(3.848 14.563)" fill="#fc0603"/>
            </g>
            <g id="g170" transform="translate(146.41 245.882)">
              <path id="path172" d="M-.083-2.933c0-1.036-.021-1.885-.083-2.714H1.451l.1,1.657H1.6A3.688,3.688,0,0,1,4.911-5.875c1.388,0,3.543.829,3.543,4.268V4.381H6.63V-1.4c0-1.617-.6-2.963-2.32-2.963A2.591,2.591,0,0,0,1.865-2.5a2.625,2.625,0,0,0-.124.85V4.381H-.083Z" transform="translate(0.165 5.875)" fill="#fc0603"/>
            </g>
            <g id="g174" transform="translate(157.269 245.881)">
              <path id="path176" d="M-7.064-4.255c.021-1.16-.477-2.963-2.527-2.963-1.844,0-2.652,1.7-2.8,2.963Zm-5.346,1.3A3.214,3.214,0,0,0-8.969.531,6.6,6.6,0,0,0-6.194.013l.31,1.305a8.124,8.124,0,0,1-3.335.621c-3.087,0-4.931-2.031-4.931-5.055s1.782-5.408,4.7-5.408C-6.173-8.524-5.3-5.643-5.3-3.8a6.75,6.75,0,0,1-.062.849Z" transform="translate(14.149 8.524)" fill="#fc0603"/>
            </g>
            <g id="g178" transform="translate(172.126 241.946)">
              <path id="path180" d="M-.455-11.958a6.383,6.383,0,0,0,3.232.912c1.844,0,2.921-.974,2.921-2.382,0-1.306-.745-2.051-2.631-2.776C.789-17.012-.62-18.194-.62-20.162c0-2.175,1.8-3.791,4.516-3.791a6.332,6.332,0,0,1,3.087.684l-.5,1.47a5.568,5.568,0,0,0-2.652-.663c-1.906,0-2.631,1.14-2.631,2.092,0,1.305.85,1.948,2.776,2.694,2.362.911,3.564,2.051,3.564,4.1,0,2.155-1.6,4.02-4.89,4.02a7.214,7.214,0,0,1-3.564-.891Z" transform="translate(0.911 23.953)" fill="#fc0603"/>
            </g>
            <g id="g182" transform="translate(181.783 243.23)">
              <path id="path184" d="M-3.325,0V2.88h2.61V4.269h-2.61V9.676c0,1.243.352,1.948,1.367,1.948A4.089,4.089,0,0,0-.9,11.5l.083,1.367a4.481,4.481,0,0,1-1.617.248A2.526,2.526,0,0,1-4.4,12.349a3.718,3.718,0,0,1-.7-2.611V4.269H-6.661V2.88h1.554V.477Z" transform="translate(6.661)" fill="#fc0603"/>
            </g>
            <g id="g186" transform="translate(188.933 245.881)">
              <path id="path188" d="M-1.838-5.246c0,2.2,1.264,3.853,3.046,3.853,1.74,0,3.045-1.637,3.045-3.895,0-1.7-.849-3.853-3-3.853S-1.838-7.152-1.838-5.246m7.956-.1c0,3.708-2.569,5.324-4.993,5.324-2.714,0-4.806-1.988-4.806-5.159,0-3.356,2.2-5.325,4.972-5.325,2.88,0,4.827,2.093,4.827,5.159" transform="translate(3.681 10.509)" fill="#fc0603"/>
            </g>
            <g id="g190" transform="translate(200.952 245.882)">
              <path id="path192" d="M-1.88-6.155a4.109,4.109,0,0,0,.083.746A2.813,2.813,0,0,0,.938-3.275c1.926,0,3.045-1.574,3.045-3.874,0-2.01-1.057-3.729-2.983-3.729A2.908,2.908,0,0,0-1.755-8.62a2.93,2.93,0,0,0-.125.746Zm-1.8-2.673c0-1.284-.041-2.32-.083-3.273h1.637l.083,1.72H-2A3.943,3.943,0,0,1,1.56-12.329c2.424,0,4.247,2.052,4.247,5.1,0,3.6-2.2,5.387-4.558,5.387A3.514,3.514,0,0,1-1.838-3.42H-1.88V2.029h-1.8Z" transform="translate(3.765 12.329)" fill="#fc0603"/>
            </g>
          </g>
        </g>
      </g>
    </g>
  </g>
</svg>
