<svg xmlns="http://www.w3.org/2000/svg" xmlns:xlink="http://www.w3.org/1999/xlink" width="512" height="512" viewBox="0 0 512 512">
  <defs>
    <clipPath id="clip-path">
      <rect id="Rectangle_1" data-name="Rectangle 1" width="282" height="359" transform="translate(0.014 -0.18)" fill="red" opacity="0.56"/>
    </clipPath>
    <clipPath id="clip-path-2">
      <path id="path16" d="M0-720H582.123V2.637H0Z" transform="translate(0 719.998)"/>
    </clipPath>
  </defs>
  <g id="Group_8" data-name="Group 8" transform="translate(-4722 1486.245)">
    <circle id="Ellipse_1" data-name="Ellipse 1" cx="256" cy="256" r="256" transform="translate(4722 -1486.245)" fill="#fff"/>
    <g id="Mask_Group_1" data-name="Mask Group 1" transform="translate(4836.986 -1409.065)" clip-path="url(#clip-path)">
      <g id="g10" transform="translate(-144.49 -163.659)">
        <g id="g12" transform="translate(0 0)">
          <g id="g14" clip-path="url(#clip-path-2)">
            <g id="g20" transform="translate(234.331 348.615)">
              <path id="path22" d="M.39.214C.39,40.056-24.078,61.18-53.923,61.18c-30.887,0-52.578-23.7-52.578-58.733,0-36.75,23.079-60.794,54.313-60.794C-20.26-58.347.39-34.133.39.214" transform="translate(106.501 58.347)" fill="#fc0603"/>
            </g>
            <g id="g24" transform="translate(227.283 341.64)">
              <path id="path26" d="M.224.051c-28.27,0-47.264,21.628-47.264,53.818,0,30.958,18.3,51.758,45.53,51.758,28.713,0,47.264-21.193,47.264-53.992C45.754,20.3,27.882.051.224.051M-1.51,119.576c-35.107,0-59.627-27.02-59.627-65.708C-61.137,13.968-35.9-13.9.224-13.9c35.107,0,59.627,26.949,59.627,65.535,0,46.934-30.819,67.941-61.361,67.941" transform="translate(61.137 13.9)" fill="#fc0603"/>
            </g>
            <g id="g28" transform="translate(255.1 373.613)">
              <path id="path30" d="M.107.03s0,.005,0,.007a.01.01,0,0,1,0-.007M-9.08-5.941A15.308,15.308,0,0,0-12.559-3.5C-14.592-1.723-24.819,7.922-26.7,23.105c-1.083,8.736,2.114,15.858,5.832,18.378,3.267,2.215,16.332-.7,20.175-5.153-.439-9.4,1.6-12.629,2.82-14.572.177-.281.337-.534.471-.783.353-.657.812-1.384,1.3-2.164,1.432-2.267,3.2-5.064,3.18-7.734a15.413,15.413,0,0,0-3.8,2.63C.087,16.5-3.75,22.221-4.768,25.719c-.494,1.69-1.8,4.427-3.57,3.97-1.56-.4-1.758-2.539-.687-7.379A24.314,24.314,0,0,1-3.8,11.172C.406,5.988.488,2.978.215.789A12.93,12.93,0,0,0-2.927,2.941,58.437,58.437,0,0,0-19.216,32.225l-2.189-.128a37.755,37.755,0,0,1,6.916-25.45l.62-.9C-10.8,1.291-8.343-2.27-9.08-5.941M-17,44.43a9.324,9.324,0,0,1-5.112-1.113C-26.253,40.509-30.146,32.9-28.9,22.831c1.982-15.978,12.742-26.126,14.88-28,1.851-1.627,4.372-3.47,5.865-3.04A1.544,1.544,0,0,1-7.1-7.139C-5.665-2.253-8.621,2.038-12.044,7l-.618.9a36.162,36.162,0,0,0-6.326,15.673A61.1,61.1,0,0,1-4.457,1.34C-4.418,1.3-.609-2.172,1.312-1.5A1.479,1.479,0,0,1,2.3-.295c.355,2.35.953,6.291-4.246,12.7A22.483,22.483,0,0,0-6.861,22.788a25.032,25.032,0,0,0-.6,3.74A8.092,8.092,0,0,0-6.895,25.1c1.132-3.889,5.207-9.991,8.718-13.058,2.964-2.6,5.1-3.661,6.371-3.125a1.81,1.81,0,0,1,1.084,1.666c.237,3.493-1.837,6.777-3.5,9.416-.463.733-.9,1.416-1.227,2.031-.155.288-.341.586-.547.914-1.172,1.861-2.944,4.673-2.46,13.7l.021.407-.245.323C-1.657,41.291-10.707,44.395-17,44.43" transform="translate(29.137 8.272)" fill="#fff"/>
            </g>
            <g id="g32" transform="translate(260.852 364.124)">
              <path id="path34" d="M.157.35c-4.585-17.167,7.928-22.34,14.038-21.264,4.642.819,6.382-1.888,5.678-3.979s-2.9-4.716-2.205-5.649,5.257-2.822-.1-4.729C20.04-36.45,21.2-37.7,18.7-40.711s-.181-4.419.591-5.124,3.628-3.368,2.767-4.3-8.685-9.325-9.488-14.128S3-90.575-16.94-90.466c-17.389.1-26.756,7.717-25.719,6.585,2.982-3.236,13.924-11.481,25.3-11.543A33.873,33.873,0,0,1,9.79-81.771c3.747,5.025,5.671,16.337,8.565,20.433a78.159,78.159,0,0,0,8.9,9.722c1.25,1.232,1.883,3.016.023,4.265s-4.328,2.581-4.551,4.368,1.344,4.257,1.97,5.033-.381,1.784-2.469,3.352c2.335,1.766,2.935,2.636,2.506,3.549-.846,1.792-3.483,1.728-2.852,3.586s2.984,6.494.978,8.678c-3.008,3.279-11,.739-14.4,2.228S.83-9.3.157.35" transform="translate(42.737 95.424)" fill="#fff"/>
            </g>
            <g id="g36" transform="translate(280.647 355.217)">
              <path id="path38" d="M.129,0-8.6.048l-13.43,13.11,9.988-.055L-28.048,25.761l10.584-.059L-35.1,42.211-3.458,21.587l-12.168.068,17-12.136L-10,9.583Z" transform="translate(35.101)" fill="#fff"/>
            </g>
            <g id="g40" transform="translate(246.654 377.373)">
              <path id="path42" d="M.139.3-23.8.434c4.134-9.564,4.816-12.827,4.793-16.783-.039-7.138-18.936-15.174-19.072-39.916-.06-10.941,12.71-28.444,13.287-25.793,1.54,7.068-4.44,12.1-4.369,24.733.071,12.875,8.957,20.737,13.454,20.712s3.7-18.324-6.3-31.071c1.778-1.634,9.645-1.059,13.445,4.583,3.287,4.867,7.6,16.536,10.83,22.354,4.19,7.558,6.208,11.581,6.255,20.038C8.556-13.961,4.6-6.533.139.3" transform="translate(38.083 82.327)" fill="#fff"/>
            </g>
            <g id="g44" transform="translate(151.23 214.986)">
              <path id="path46" d="M.324.209c-.757-14.24-1.666-31.358-1.516-44.083h-.454C-5.131-31.908-9.371-19.182-14.523-5.093L-32.549,44.445h-10L-59.062-4.184C-63.909-18.576-68-31.756-70.878-43.874h-.3c-.3,12.725-1.061,29.844-1.969,45.143l-2.727,43.782H-88.452l7.121-102.107h16.816L-47.094-7.669c4.242,12.574,7.727,23.785,10.3,34.389h.454c2.575-10.3,6.211-21.512,10.757-34.389L-7.4-57.056H9.413L15.776,45.051H2.9Z" transform="translate(88.452 57.056)" fill="#333"/>
            </g>
            <g id="g48" transform="translate(144.633 208.833)">
              <path id="path50" d="M.071.048H7.162L6.853-.826H.131Zm72.221,0h7.118l-.055-.874H72.613ZM20.085,36.682q1.138,3.481,2.407,7.246l4.442,13.08C25.71,53.122,24.339,48.94,22.8,44.375Zm17.5,51.687h1.281l1.971-5.418H35.744Zm-43.715.6h.2L-4.3,62.715Zm90.564,0h.519L81.066,26.652c.306,7.922.74,16.069,1.124,23.294ZM98.048,101.28H72.811L69.9,50.613c-.173-3.233-.355-6.648-.53-10.149q-1.16,3.26-2.394,6.634l-19.5,53.578H28.766l-17.932-52.8Q9.993,45.369,9.207,43c-.157,2.92-.32,5.837-.491,8.714L5.627,101.28H-19.325l7.978-114.412H15.562L34.432,40.36c1.835,5.438,3.435,10.35,4.842,14.876,1.467-4.508,3.141-9.422,5.065-14.876l19.69-53.492H90.918Z" transform="translate(19.325 13.132)" fill="#333"/>
            </g>
            <g id="g52" transform="translate(268.165 213.32)">
              <path id="path54" d="M.012.32A46.706,46.706,0,0,0,23.645,6.986c13.483,0,21.361-7.121,21.361-17.422,0-9.543-5.453-15-19.239-20.3C9.1-36.644-1.2-45.28-1.2-59.672c0-15.906,13.179-27.722,33.024-27.722,10.453,0,18.027,2.425,22.573,5L50.763-71.638a40.655,40.655,0,0,0-19.391-4.848c-13.937,0-19.24,8.332-19.24,15.3,0,9.543,6.211,14.24,20.3,19.693,17.27,6.666,26.056,15,26.056,30,0,15.755-11.665,29.389-35.753,29.389-9.847,0-20.6-2.879-26.055-6.513Z" transform="translate(3.32 87.394)" fill="#333"/>
            </g>
            <g id="g56" transform="translate(260.957 207.167)">
              <path id="path58" d="M.071.079a19.576,19.576,0,0,0-4.1,12.289c0,7,2.6,15.95,22.869,23.136l.153.056C31.032,40.192,42.174,46.551,42.174,61.6a22.231,22.231,0,0,1-4.657,14.033,20.95,20.95,0,0,0,5.833-15.092c0-13.089-8.463-18.985-22.119-24.255C8.965,31.539-3.005,25.665-3.005,10.853A20.444,20.444,0,0,1,.071.079M13.752,96.085c-10.686,0-22.8-3.1-29.47-7.548l-3.794-2.529,6.955-23.08,6.81,4.191a40.584,40.584,0,0,0,20.408,5.753c4.573,0,15.207-1.1,15.207-11.269,0-4.737-1.148-9.1-15.221-14.528C-6.2,39.664-16.336,28.31-16.336,12.368c0-19.629,16.477-33.876,39.179-33.876,13.373,0,21.782,3.632,25.6,5.8L52.872-13.2,45.262,9.31,38.832,5.8a34.314,34.314,0,0,0-16.444-4.1C12.739,1.706,9.3,6.431,9.3,10.853c0,4.6,1.139,8.061,16.368,13.956,26.58,10.259,29.989,24.485,29.989,35.734,0,17.691-12.959,35.542-41.906,35.542" transform="translate(19.512 21.508)" fill="#333"/>
            </g>
            <g id="g60" transform="translate(341.542 214.987)">
              <path id="path62" d="M.049,0V60.446c0,22.875,10.15,32.571,23.784,32.571,15.15,0,24.845-10,24.845-32.571V0H62.009V59.537c0,31.358-16.512,44.235-38.63,44.235-20.906,0-36.662-11.966-36.662-43.63V0Z" transform="translate(13.283)" fill="#333"/>
            </g>
            <g id="g64" transform="translate(335.389 208.834)">
              <path id="path66" d="M.271.045V54.338c0,6.794-1.029,18.846-7.446,27.705C-1.58,75.635,1.3,66.036,1.3,53.429V.045Zm-61.961,0V54.034c0,16,4.249,26.926,12.672,32.683-7.49-6.454-11.646-17.6-11.646-32.379V.045Zm30.509,103.772C-58.391,103.817-74,85.672-74,54.034v-66.3h25.638v66.6c0,12.052,3.059,26.418,17.631,26.418,4.624,0,18.692,0,18.692-26.418v-66.6H13.6v65.69c0,32.022-16.324,50.388-44.783,50.388" transform="translate(73.996 12.261)" fill="#333"/>
            </g>
            <g id="g68" transform="translate(152.71 348.394)">
              <path id="path70" d="M.014.363A52.942,52.942,0,0,0,26.8,7.918c15.284,0,24.214-8.071,24.214-19.748,0-10.819-6.183-17-21.81-23.012-18.89-6.7-30.566-16.485-30.566-32.8,0-18.032,14.94-31.427,37.435-31.427,11.85,0,20.437,2.747,25.588,5.667L57.542-81.208a46.091,46.091,0,0,0-21.982-5.5c-15.8,0-21.809,9.445-21.809,17.345,0,10.819,7.04,16.143,23.012,22.325,19.577,7.557,29.537,17,29.537,34,0,17.861-13.223,33.316-40.528,33.316-11.162,0-23.355-3.264-29.537-7.384Z" transform="translate(3.764 99.068)" fill="#fc0603"/>
            </g>
            <g id="g72" transform="translate(144.539 341.418)">
              <path id="path74" d="M.081.089A22.2,22.2,0,0,0-4.565,14.016c0,7.932,2.947,18.081,25.923,26.226l.174.064c13.65,5.25,26.281,12.459,26.281,29.521a25.213,25.213,0,0,1-5.281,15.91,23.758,23.758,0,0,0,6.613-17.112c0-14.835-9.594-21.52-25.074-27.495C10.166,35.747-3.4,29.09-3.4,12.3A23.174,23.174,0,0,1,.081.089M15.592,108.916c-12.111,0-25.848-3.517-33.406-8.554l-4.3-2.866L-14.23,71.33l7.719,4.749A46,46,0,0,0,16.623,82.6c5.183,0,17.239-1.245,17.239-12.775,0-5.562-1.271-10.307-17.255-16.468-23.632-8.4-35.121-21.272-35.121-39.343,0-22.25,18.677-38.4,44.411-38.4,15.163,0,24.694,4.119,29.026,6.575l5.016,2.841L51.311,10.549,44.021,6.574a38.9,38.9,0,0,0-18.64-4.645c-10.939,0-14.835,5.357-14.835,10.37,0,5.216,1.291,9.137,18.556,15.82C59.231,39.75,63.1,55.877,63.1,68.626c0,20.054-14.688,40.29-47.5,40.29" transform="translate(22.115 24.385)" fill="#fc0603"/>
            </g>
            <g id="g76" transform="translate(348.993 348.394)">
              <path id="path78" d="M.014.363A52.942,52.942,0,0,0,26.8,7.918c15.284,0,24.214-8.071,24.214-19.748,0-10.819-6.183-17-21.81-23.012-18.89-6.7-30.566-16.485-30.566-32.8,0-18.032,14.94-31.427,37.435-31.427,11.85,0,20.437,2.747,25.588,5.667L57.542-81.208a46.091,46.091,0,0,0-21.982-5.5c-15.8,0-21.809,9.445-21.809,17.345,0,10.819,7.04,16.143,23.012,22.325,19.577,7.557,29.537,17,29.537,34,0,17.861-13.223,33.316-40.528,33.316-11.162,0-23.355-3.264-29.537-7.384Z" transform="translate(3.764 99.068)" fill="#fc0603"/>
            </g>
            <g id="g80" transform="translate(340.823 341.418)">
              <path id="path82" d="M.081.089A22.2,22.2,0,0,0-4.565,14.016c0,7.932,2.947,18.081,25.923,26.226l.174.064c13.65,5.25,26.281,12.459,26.281,29.521a25.213,25.213,0,0,1-5.281,15.91,23.758,23.758,0,0,0,6.613-17.112c0-14.835-9.594-21.52-25.074-27.495C10.166,35.747-3.4,29.09-3.4,12.3A23.174,23.174,0,0,1,.081.089M15.592,108.916c-12.111,0-25.848-3.517-33.406-8.554l-4.3-2.866L-14.23,71.33l7.719,4.749A46,46,0,0,0,16.623,82.6c5.183,0,17.239-1.245,17.239-12.775,0-5.562-1.271-10.307-17.255-16.468-23.632-8.4-35.121-21.272-35.121-39.343,0-22.25,18.677-38.4,44.411-38.4,15.163,0,24.694,4.119,29.026,6.575l5.016,2.841L51.311,10.549,44.021,6.574a38.9,38.9,0,0,0-18.64-4.645c-10.939,0-14.835,5.357-14.835,10.37,0,5.216,1.291,9.137,18.556,15.82C59.231,39.75,63.1,55.877,63.1,68.626c0,20.054-14.688,40.29-47.5,40.29" transform="translate(22.115 24.385)" fill="#fc0603"/>
            </g>
            <g id="g84" transform="translate(153.672 164.77)">
              <path id="path86" d="M.075.048C-.1-3.254-.312-7.226-.277-10.178H-.383c-.807,2.777-1.792,5.729-2.987,9L-7.551,10.31H-9.869L-13.7-.97c-1.124-3.339-2.073-6.4-2.741-9.208h-.071c-.07,2.952-.245,6.924-.456,10.473L-17.6,10.45h-2.917l1.651-23.685h3.9l4.04,11.456C-9.94,1.138-9.132,3.738-8.535,6.2h.106c.6-2.39,1.44-4.99,2.5-7.977l4.217-11.456h3.9L3.659,10.45H.673Z" transform="translate(20.517 13.235)" fill="#333"/>
            </g>
            <g id="g88" transform="translate(181.436 171.06)">
              <path id="path90" d="M.011.033c0,3.726,2.144,6.536,5.166,6.536,2.952,0,5.167-2.775,5.167-6.605,0-2.883-1.441-6.537-5.1-6.537S.011-3.2.011.033M13.5-.143c0,6.29-4.356,9.032-8.468,9.032-4.6,0-8.152-3.374-8.152-8.751,0-5.693,3.726-9.032,8.433-9.032C10.2-8.893,13.5-5.344,13.5-.143" transform="translate(3.116 8.893)" fill="#333"/>
            </g>
            <g id="g92" transform="translate(201.82 163.505)">
              <path id="path94" d="M.012.066A5.83,5.83,0,0,0,.152,1.19,4.772,4.772,0,0,0,4.79,4.81c3.233,0,5.167-2.635,5.167-6.536,0-3.41-1.758-6.326-5.06-6.326a4.932,4.932,0,0,0-4.711,3.8A6.247,6.247,0,0,0,.012-2.992Zm-3.2,6.817c.072-1.159.141-2.881.141-4.392V-18.067H.012V-7.384H.083a6.333,6.333,0,0,1,5.8-3.127c4.217,0,7.2,3.514,7.169,8.68,0,6.08-3.831,9.1-7.626,9.1a6.059,6.059,0,0,1-5.693-3.2H-.375l-.141,2.81Z" transform="translate(3.187 18.067)" fill="#333"/>
            </g>
            <path id="path96" d="M221.15-549.153h3.093v17.007H221.15Zm3.443-4.779a1.827,1.827,0,0,1-1.968,1.9,1.839,1.839,0,0,1-1.863-1.9,1.884,1.884,0,0,1,1.934-1.932,1.835,1.835,0,0,1,1.9,1.932" transform="translate(0.809 720.599)" fill="#333"/>
            <path id="path98" d="M229.342-557.091h3.093v24.951h-3.093Z" transform="translate(0.84 720.595)" fill="#333"/>
            <g id="g100" transform="translate(237.247 171.06)">
              <path id="path102" d="M.044.026C.079-1.942-.764-5-4.244-5-7.373-5-8.742-2.117-8.988.026ZM-9.023,2.24c.07,4.182,2.741,5.9,5.833,5.9A11.174,11.174,0,0,0,1.52,7.265l.526,2.213a13.751,13.751,0,0,1-5.657,1.056c-5.236,0-8.364-3.445-8.364-8.575S-8.953-7.213-4-7.213C1.555-7.213,3.029-2.329,3.029.8a11.5,11.5,0,0,1-.1,1.44Z" transform="translate(11.975 7.213)" fill="#333"/>
            </g>
            <g id="g104" transform="translate(262.444 164.384)">
              <path id="path106" d="M0,.074A10.838,10.838,0,0,0,5.485,1.621c3.127,0,4.955-1.653,4.955-4.041,0-2.215-1.266-3.479-4.464-4.709C2.112-8.5-.278-10.5-.278-13.84c0-3.691,3.056-6.431,7.661-6.431a10.748,10.748,0,0,1,5.235,1.16l-.844,2.494a9.419,9.419,0,0,0-4.5-1.124c-3.233,0-4.463,1.932-4.463,3.549,0,2.213,1.441,3.3,4.709,4.567,4.005,1.547,6.043,3.479,6.043,6.959,0,3.655-2.7,6.817-8.293,6.817A12.247,12.247,0,0,1-.771,2.64Z" transform="translate(0.771 20.272)" fill="#333"/>
            </g>
            <g id="g108" transform="translate(278.823 166.562)">
              <path id="path110" d="M.021,0V4.884H4.447V7.24H.021v9.171c0,2.109.6,3.3,2.318,3.3A6.863,6.863,0,0,0,4.132,19.5l.141,2.32a7.589,7.589,0,0,1-2.741.422,4.283,4.283,0,0,1-3.338-1.3C-2.685,20.03-3,18.52-3,16.516V7.24H-5.637V4.884H-3V.808Z" transform="translate(5.637)" fill="#333"/>
            </g>
            <g id="g112" transform="translate(292.248 171.06)">
              <path id="path114" d="M0,.021c0-2-.035-3.724-.141-5.306H2.566l.106,3.339h.141A5.1,5.1,0,0,1,7.523-5.672a3.313,3.313,0,0,1,.877.106V-2.65a4.67,4.67,0,0,0-1.053-.1C5.166-2.755,3.62-1.1,3.2,1.216a8.638,8.638,0,0,0-.141,1.441v9.066H0Z" transform="translate(0.14 5.672)" fill="#333"/>
            </g>
            <g id="g116" transform="translate(302.3 171.06)">
              <path id="path118" d="M.011.033c0,3.726,2.144,6.536,5.167,6.536,2.951,0,5.166-2.775,5.166-6.605,0-2.883-1.441-6.537-5.1-6.537S.011-3.2.011.033M13.5-.143c0,6.29-4.356,9.032-8.468,9.032-4.6,0-8.152-3.374-8.152-8.751,0-5.693,3.726-9.032,8.435-9.032C10.2-8.893,13.5-5.344,13.5-.143" transform="translate(3.116 8.893)" fill="#333"/>
            </g>
            <g id="g120" transform="translate(322.825 163.504)">
              <path id="path122" d="M.011.057h.07C.5-.541,1.1-1.278,1.592-1.875L6.583-7.744h3.723L3.735-.751,11.221,9.264H7.461L1.592,1.112.011,2.869v6.4H-3.047V-15.687H.011Z" transform="translate(3.047 15.687)" fill="#333"/>
            </g>
            <g id="g124" transform="translate(338.078 171.06)">
              <path id="path126" d="M.044.026C.079-1.942-.764-5-4.244-5-7.371-5-8.742-2.117-8.989.026ZM-9.023,2.24c.07,4.182,2.741,5.9,5.833,5.9A11.174,11.174,0,0,0,1.52,7.265l.527,2.213a13.763,13.763,0,0,1-5.658,1.056c-5.238,0-8.364-3.445-8.364-8.575S-8.953-7.213-4-7.213C1.553-7.213,3.031-2.329,3.031.8a11.711,11.711,0,0,1-.106,1.44Z" transform="translate(11.975 7.213)" fill="#333"/>
            </g>
            <g id="g128" transform="translate(364.436 164.77)">
              <path id="path130" d="M.011,0V14.022c0,5.306,2.355,7.556,5.519,7.556,3.513,0,5.762-2.319,5.762-7.556V0h3.093V13.81c0,7.275-3.831,10.261-8.961,10.261-4.851,0-8.506-2.775-8.506-10.121V0Z" transform="translate(3.081)" fill="#333"/>
            </g>
            <g id="g132" transform="translate(386.965 171.06)">
              <path id="path134" d="M0,.018c0-1.757-.036-3.2-.141-4.6H2.6l.177,2.812h.07a6.258,6.258,0,0,1,5.623-3.2c2.355,0,6.01,1.405,6.01,7.24V12.423H11.386V2.618c0-2.741-1.02-5.025-3.936-5.025A4.394,4.394,0,0,0,3.3.756,4.416,4.416,0,0,0,3.093,2.2V12.423H0Z" transform="translate(0.14 4.972)" fill="#333"/>
            </g>
            <path id="path136" d="M405.128-549.153h3.093v17.007h-3.093Zm3.445-4.779a1.827,1.827,0,0,1-1.969,1.9,1.839,1.839,0,0,1-1.863-1.9,1.883,1.883,0,0,1,1.932-1.932,1.835,1.835,0,0,1,1.9,1.932" transform="translate(1.483 720.599)" fill="#333"/>
            <g id="g138" transform="translate(412.9 166.562)">
              <path id="path140" d="M.021,0V4.884H4.45V7.24H.021v9.171c0,2.109.6,3.3,2.32,3.3A6.867,6.867,0,0,0,4.133,19.5l.141,2.32a7.6,7.6,0,0,1-2.742.422,4.292,4.292,0,0,1-3.339-1.3C-2.684,20.03-3,18.52-3,16.516V7.24H-5.637V4.884H-3V.808Z" transform="translate(5.637)" fill="#333"/>
            </g>
            <g id="g142" transform="translate(144.538 484.904)">
              <path id="path144" d="M0,.088A12.794,12.794,0,0,0,6.48,1.916c3.7,0,5.855-1.952,5.855-4.775,0-2.618-1.493-4.111-5.273-5.564C2.5-10.043-.329-12.41-.329-16.355c0-4.36,3.612-7.6,9.052-7.6a12.69,12.69,0,0,1,6.187,1.372l-1,2.947A11.159,11.159,0,0,0,8.6-20.964c-3.821,0-5.274,2.284-5.274,4.193,0,2.616,1.7,3.9,5.564,5.4,4.733,1.827,7.143,4.111,7.143,8.221,0,4.32-3.2,8.056-9.8,8.056A14.458,14.458,0,0,1-.911,3.12Z" transform="translate(0.911 23.953)" fill="#fc0603"/>
            </g>
            <g id="g146" transform="translate(163.893 487.477)">
              <path id="path148" d="M.024,0V5.772H5.255V8.555H.024V19.392c0,2.492.705,3.9,2.739,3.9a8.2,8.2,0,0,0,2.118-.249l.166,2.741a8.98,8.98,0,0,1-3.24.5,5.063,5.063,0,0,1-3.944-1.536c-1.037-1.08-1.41-2.865-1.41-5.232V8.555H-6.661V5.772h3.115V.955Z" transform="translate(6.661)" fill="#fc0603"/>
            </g>
            <g id="g150" transform="translate(179.759 492.793)">
              <path id="path152" d="M0,.025c0-2.367-.041-4.4-.166-6.271h3.2L3.156-2.3h.167A6.029,6.029,0,0,1,8.886-6.7a3.959,3.959,0,0,1,1.038.124v3.447a5.488,5.488,0,0,0-1.246-.124c-2.573,0-4.4,1.951-4.9,4.692a10.307,10.307,0,0,0-.166,1.7V13.852H0Z" transform="translate(0.165 6.703)" fill="#fc0603"/>
            </g>
            <g id="g154" transform="translate(191.637 492.792)">
              <path id="path156" d="M.013.038c0,4.4,2.533,7.723,6.1,7.723,3.487,0,6.1-3.28,6.1-7.806,0-3.4-1.7-7.723-6.021-7.723S.013-3.781.013.038M15.958-.169c0,7.432-5.149,10.671-10.007,10.671C.513,10.5-3.681,6.517-3.681.163c0-6.726,4.4-10.672,9.966-10.672,5.772,0,9.674,4.2,9.674,10.34" transform="translate(3.681 10.509)" fill="#fc0603"/>
            </g>
            <g id="g158" transform="translate(215.891 483.866)">
              <path id="path160" d="M.013.068H.1C.6-.637,1.3-1.51,1.881-2.216l5.9-6.935h4.4L4.415-.888l8.844,11.835H8.816L1.881,1.314.013,3.389v7.558H-3.6V-18.535H.013Z" transform="translate(3.6 18.535)" fill="#fc0603"/>
            </g>
            <g id="g162" transform="translate(233.917 492.792)">
              <path id="path164" d="M.052.031C.093-2.295-.9-5.906-5.013-5.906c-3.7,0-5.315,3.4-5.607,5.938ZM-10.662,2.646c.084,4.941,3.24,6.977,6.893,6.977A13.222,13.222,0,0,0,1.8,8.585L2.418,11.2a16.288,16.288,0,0,1-6.684,1.245c-6.188,0-9.883-4.07-9.883-10.132S-10.578-8.524-4.723-8.524c6.559,0,8.3,5.773,8.3,9.469a13.791,13.791,0,0,1-.124,1.7Z" transform="translate(14.149 8.524)" fill="#fc0603"/>
            </g>
            <g id="g166" transform="translate(263.446 484.904)">
              <path id="path168" d="M.014.053c0,5.979,3.238,11.336,8.927,11.336,5.732,0,8.97-5.274,8.97-11.628C17.911-5.8,15-11.616,8.984-11.616,3-11.616.014-6.093.014.053M21.731-.4c0,9.632-5.855,14.742-13,14.742-7.391,0-12.582-5.73-12.582-14.2,0-8.886,5.523-14.7,13-14.7,7.639,0,12.581,5.855,12.581,14.158" transform="translate(3.848 14.563)" fill="#fc0603"/>
            </g>
            <g id="g170" transform="translate(293.432 492.792)">
              <path id="path172" d="M0,.022C0-2.054-.041-3.756-.165-5.417H3.073L3.282-2.1h.082a7.391,7.391,0,0,1,6.644-3.779c2.782,0,7.1,1.662,7.1,8.554v12H13.454V3.1c0-3.24-1.2-5.939-4.649-5.939A5.193,5.193,0,0,0,3.9.894a5.26,5.26,0,0,0-.249,1.7V14.68H0Z" transform="translate(0.165 5.875)" fill="#fc0603"/>
            </g>
            <g id="g174" transform="translate(315.196 492.792)">
              <path id="path176" d="M.052.031C.093-2.295-.9-5.906-5.013-5.906c-3.7,0-5.315,3.4-5.607,5.938ZM-10.662,2.646c.084,4.941,3.24,6.977,6.894,6.977A13.219,13.219,0,0,0,1.8,8.585L2.418,11.2a16.283,16.283,0,0,1-6.684,1.245c-6.188,0-9.883-4.07-9.883-10.132S-10.578-8.524-4.723-8.524c6.56,0,8.3,5.773,8.3,9.469a13.528,13.528,0,0,1-.124,1.7Z" transform="translate(14.149 8.524)" fill="#fc0603"/>
            </g>
            <g id="g178" transform="translate(344.972 484.904)">
              <path id="path180" d="M0,.088A12.794,12.794,0,0,0,6.48,1.916c3.7,0,5.855-1.952,5.855-4.775,0-2.618-1.493-4.111-5.273-5.564C2.5-10.043-.329-12.41-.329-16.355c0-4.36,3.612-7.6,9.052-7.6a12.69,12.69,0,0,1,6.187,1.372l-1,2.947A11.159,11.159,0,0,0,8.6-20.964c-3.821,0-5.274,2.284-5.274,4.193,0,2.616,1.7,3.9,5.564,5.4,4.733,1.827,7.143,4.111,7.143,8.221,0,4.32-3.2,8.056-9.8,8.056A14.458,14.458,0,0,1-.911,3.12Z" transform="translate(0.911 23.953)" fill="#fc0603"/>
            </g>
            <g id="g182" transform="translate(364.328 487.477)">
              <path id="path184" d="M.024,0V5.772H5.255V8.555H.024V19.392c0,2.492.705,3.9,2.739,3.9a8.2,8.2,0,0,0,2.118-.249l.166,2.741a8.98,8.98,0,0,1-3.24.5,5.063,5.063,0,0,1-3.944-1.536c-1.037-1.08-1.41-2.865-1.41-5.232V8.555H-6.661V5.772h3.115V.955Z" transform="translate(6.661)" fill="#fc0603"/>
            </g>
            <g id="g186" transform="translate(378.657 492.792)">
              <path id="path188" d="M.013.038c0,4.4,2.533,7.723,6.1,7.723,3.487,0,6.1-3.28,6.1-7.806,0-3.4-1.7-7.723-6.021-7.723S.013-3.781.013.038M15.958-.169c0,7.432-5.149,10.671-10.007,10.671C.513,10.5-3.681,6.517-3.681.163c0-6.726,4.4-10.672,9.966-10.672,5.772,0,9.674,4.2,9.674,10.34" transform="translate(3.681 10.509)" fill="#fc0603"/>
            </g>
            <g id="g190" transform="translate(402.745 492.792)">
              <path id="path192" d="M.014.045A8.236,8.236,0,0,0,.18,1.54,5.639,5.639,0,0,0,5.661,5.817c3.861,0,6.1-3.156,6.1-7.764,0-4.028-2.118-7.474-5.979-7.474A5.828,5.828,0,0,0,.264-4.9,5.873,5.873,0,0,0,.014-3.4ZM-3.6-5.312c0-2.573-.083-4.65-.166-6.56H-.484l.166,3.447h.082a7.9,7.9,0,0,1,7.143-3.9c4.858,0,8.512,4.112,8.512,10.215,0,7.225-4.4,10.8-9.136,10.8A7.043,7.043,0,0,1,.1,5.526H.014V16.448H-3.6Z" transform="translate(3.765 12.329)" fill="#fc0603"/>
            </g>
          </g>
        </g>
      </g>
    </g>
  </g>
</svg>
