<svg xmlns="http://www.w3.org/2000/svg" xmlns:xlink="http://www.w3.org/1999/xlink" width="64" height="64" viewBox="0 0 64 64">
  <defs>
    <clipPath id="clip-path">
      <rect id="Rectangle_1" data-name="Rectangle 1" width="36" height="46" transform="translate(-0.552 -0.674)" fill="red" opacity="0.56"/>
    </clipPath>
    <clipPath id="clip-path-2">
      <path id="path16" d="M0-720H73.178v90.841H0Z" transform="translate(0 719.998)"/>
    </clipPath>
  </defs>
  <g id="Group_5" data-name="Group 5" transform="translate(-4722 1485.977)">
    <circle id="Ellipse_1" data-name="Ellipse 1" cx="32" cy="32" r="32" transform="translate(4722 -1485.977)" fill="#fff"/>
    <g id="Mask_Group_1" data-name="Mask Group 1" transform="translate(4736.552 -1476.304)" clip-path="url(#clip-path)">
      <g id="g10" transform="translate(-18.261 -20.907)">
        <g id="g12" transform="translate(0 0)">
          <g id="g14" clip-path="url(#clip-path-2)">
            <g id="g20" transform="translate(29.457 43.824)">
              <path id="path22" d="M-93.064-50.985c0,5.009-3.076,7.664-6.828,7.664-3.883,0-6.61-2.979-6.61-7.383,0-4.62,2.9-7.642,6.828-7.642,4.014,0,6.61,3.044,6.61,7.361" transform="translate(106.501 58.347)" fill="#fc0603"/>
            </g>
            <g id="g24" transform="translate(28.571 42.947)">
              <path id="path26" d="M-53.424-12.146c-3.554,0-5.942,2.719-5.942,6.765,0,3.892,2.3,6.506,5.723,6.506,3.609,0,5.942-2.664,5.942-6.787,0-3.939-2.247-6.485-5.723-6.485m-.218,15.025c-4.413,0-7.5-3.4-7.5-8.26,0-5.016,3.172-8.519,7.714-8.519,4.413,0,7.5,3.388,7.5,8.238,0,5.9-3.874,8.541-7.714,8.541" transform="translate(61.137 13.9)" fill="#fc0603"/>
            </g>
            <g id="g28" transform="translate(32.068 46.966)">
              <path id="path30" d="M-25.46-7.229h0m-1.155-.751a1.924,1.924,0,0,0-.437.306A5.6,5.6,0,0,0-28.83-4.328a2.5,2.5,0,0,0,.733,2.31,3.009,3.009,0,0,0,2.536-.648A2.741,2.741,0,0,1-25.207-4.5c.022-.035.042-.067.059-.1.044-.083.1-.174.164-.272a2,2,0,0,0,.4-.972,1.938,1.938,0,0,0-.478.331A4.026,4.026,0,0,0-26.073-4c-.062.212-.226.556-.449.5-.2-.05-.221-.319-.086-.928a3.056,3.056,0,0,1,.657-1.4,1.616,1.616,0,0,0,.5-1.305,1.625,1.625,0,0,0-.395.271,7.346,7.346,0,0,0-2.048,3.681l-.275-.016A4.746,4.746,0,0,1-27.3-6.4l.078-.113c.386-.56.695-1.008.6-1.469m-1,6.332a1.172,1.172,0,0,1-.643-.14,2.737,2.737,0,0,1-.853-2.575,5.889,5.889,0,0,1,1.87-3.52c.233-.2.55-.436.737-.382a.194.194,0,0,1,.133.135c.18.614-.192,1.154-.622,1.778l-.078.113a4.546,4.546,0,0,0-.8,1.97,7.681,7.681,0,0,1,1.827-2.795s.484-.442.725-.357a.186.186,0,0,1,.124.152,1.816,1.816,0,0,1-.534,1.6,2.826,2.826,0,0,0-.618,1.3,3.147,3.147,0,0,0-.075.47,1.017,1.017,0,0,0,.071-.18,4.3,4.3,0,0,1,1.1-1.642c.373-.327.641-.46.8-.393a.228.228,0,0,1,.136.209,2.081,2.081,0,0,1-.44,1.184c-.058.092-.113.178-.154.255-.02.036-.043.074-.069.115a2.518,2.518,0,0,0-.309,1.722l0,.051-.031.041a3.448,3.448,0,0,1-2.3.888" transform="translate(29.137 8.272)" fill="#fff"/>
            </g>
            <g id="g32" transform="translate(32.791 45.773)">
              <path id="path34" d="M-37.345-83.385c-.576-2.158,1-2.808,1.765-2.673.584.1.8-.237.714-.5s-.364-.593-.277-.71.661-.355-.013-.595c.311-.148.457-.305.142-.684a.386.386,0,0,1,.074-.644c.1-.088.456-.423.348-.54a5.435,5.435,0,0,1-1.193-1.776c-.1-.6-1.2-3.308-3.71-3.294a6.574,6.574,0,0,0-3.233.828,5.1,5.1,0,0,1,3.181-1.451,4.258,4.258,0,0,1,3.413,1.716c.471.632.713,2.054,1.077,2.569a9.825,9.825,0,0,0,1.118,1.222c.157.155.237.379,0,.536s-.544.325-.572.549a1.076,1.076,0,0,0,.248.633c.078.1-.048.224-.31.421.294.222.369.331.315.446-.106.225-.438.217-.358.451s.375.816.123,1.091c-.378.412-1.383.093-1.811.28a2.474,2.474,0,0,0-1.043,2.125" transform="translate(42.737 95.424)" fill="#fff"/>
            </g>
            <g id="g36" transform="translate(35.28 44.654)">
              <path id="path38" d="M-30.673,0l-1.1.006-1.688,1.648,1.256-.007-2.012,1.591,1.33-.007L-35.1,5.306l3.978-2.593-1.53.009L-30.515,1.2l-1.431.008Z" transform="translate(35.101)" fill="#fff"/>
            </g>
            <g id="g40" transform="translate(31.006 47.439)">
              <path id="path42" d="M-33.278-71.94l-3.01.017a4.855,4.855,0,0,0,.6-2.11c0-.9-2.38-1.907-2.4-5.018-.008-1.375,1.6-3.576,1.67-3.242.194.889-.558,1.521-.549,3.109.009,1.618,1.126,2.607,1.691,2.6s.465-2.3-.792-3.906a1.448,1.448,0,0,1,1.69.576c.413.612.956,2.079,1.361,2.81a4.471,4.471,0,0,1,.786,2.519,5.249,5.249,0,0,1-1.053,2.641" transform="translate(38.083 82.327)" fill="#fff"/>
            </g>
            <g id="g44" transform="translate(19.011 27.025)">
              <path id="path46" d="M-77.292-49.857c-.1-1.79-.209-3.942-.191-5.542h-.057c-.438,1.5-.971,3.1-1.619,4.875L-81.424-44.3h-1.257l-2.076-6.113c-.609-1.809-1.124-3.466-1.485-4.989h-.038c-.038,1.6-.133,3.752-.247,5.675l-.343,5.5h-1.581l.9-12.836h2.114l2.19,6.208c.533,1.581.971,2.99,1.3,4.323h.057c.324-1.295.781-2.7,1.352-4.323l2.285-6.208h2.114l.8,12.836h-1.619Z" transform="translate(88.452 57.056)" fill="#333"/>
            </g>
            <g id="g48" transform="translate(18.182 26.252)">
              <path id="path50" d="M-16.887-11.475H-16l-.039-.11h-.845Zm9.079,0h.895l-.007-.11h-.848ZM-14.371-6.87q.143.438.3.911l.558,1.644c-.154-.489-.326-1.014-.52-1.588Zm2.2,6.5h.161l.248-.681h-.64Zm-5.5.076h.025l.206-3.3Zm11.385,0h.065l-.488-7.834c.039,1,.093,2.02.141,2.928ZM-4.57,1.251H-7.743l-.366-6.369c-.022-.406-.045-.836-.067-1.276q-.146.41-.3.834l-2.451,6.735H-13.28l-2.254-6.638q-.106-.314-.2-.613c-.02.367-.04.734-.062,1.1l-.388,6.231h-3.137l1-14.383h3.383l2.372,6.724c.231.684.432,1.3.609,1.87.184-.567.395-1.184.637-1.87l2.475-6.724h3.38Z" transform="translate(19.325 13.132)" fill="#333"/>
            </g>
            <g id="g52" transform="translate(33.71 26.816)">
              <path id="path54" d="M-2.9-76.368A5.871,5.871,0,0,0,.07-75.53c1.695,0,2.685-.9,2.685-2.19,0-1.2-.686-1.885-2.419-2.552-2.095-.743-3.39-1.828-3.39-3.638,0-2,1.657-3.485,4.151-3.485a5.834,5.834,0,0,1,2.838.628l-.457,1.352a5.111,5.111,0,0,0-2.438-.609c-1.752,0-2.419,1.047-2.419,1.923,0,1.2.781,1.79,2.552,2.476,2.171.838,3.275,1.885,3.275,3.771,0,1.981-1.466,3.694-4.494,3.694a6.634,6.634,0,0,1-3.275-.819Z" transform="translate(3.32 87.394)" fill="#333"/>
            </g>
            <g id="g56" transform="translate(32.804 26.043)">
              <path id="path58" d="M-17.05-18.794a2.461,2.461,0,0,0-.516,1.545c0,.88.327,2.005,2.875,2.908l.019.007c1.514.582,2.914,1.382,2.914,3.274A2.8,2.8,0,0,1-12.343-9.3a2.634,2.634,0,0,0,.733-1.9c0-1.645-1.064-2.387-2.781-3.049-1.542-.6-3.047-1.335-3.047-3.2a2.57,2.57,0,0,1,.387-1.354m1.72,12.069a7.405,7.405,0,0,1-3.7-.949l-.477-.318.874-2.9.856.527a5.1,5.1,0,0,0,2.565.723c.575,0,1.912-.138,1.912-1.417,0-.6-.144-1.144-1.913-1.826-2.621-.932-3.895-2.359-3.895-4.363,0-2.468,2.071-4.258,4.925-4.258a6.516,6.516,0,0,1,3.219.729l.556.315-.957,2.83-.808-.441a4.314,4.314,0,0,0-2.067-.515c-1.213,0-1.645.594-1.645,1.15,0,.579.143,1.013,2.058,1.754,3.341,1.29,3.77,3.078,3.77,4.492,0,2.224-1.629,4.468-5.268,4.468" transform="translate(19.512 21.508)" fill="#333"/>
            </g>
            <g id="g60" transform="translate(42.935 27.026)">
              <path id="path62" d="M-11.607,0V7.6c0,2.876,1.276,4.094,2.99,4.094,1.9,0,3.123-1.257,3.123-4.094V0h1.676V7.484c0,3.942-2.076,5.561-4.856,5.561-2.628,0-4.609-1.5-4.609-5.485V0Z" transform="translate(13.283)" fill="#333"/>
            </g>
            <g id="g64" transform="translate(42.161 26.252)">
              <path id="path66" d="M-64.66-10.714v6.825A6.172,6.172,0,0,1-65.6-.407,5.346,5.346,0,0,0-64.531-4v-6.711Zm-7.789,0v6.787c0,2.011.534,3.385,1.593,4.109a5.2,5.2,0,0,1-1.464-4.07v-6.825Zm3.835,13.045C-72.034,2.331-74,.05-74-3.927v-8.334h3.223v8.372c0,1.515.385,3.321,2.216,3.321.581,0,2.35,0,2.35-3.321v-8.372h3.223V-4c0,4.025-2.052,6.334-5.63,6.334" transform="translate(73.996 12.261)" fill="#333"/>
            </g>
            <g id="g68" transform="translate(19.197 43.796)">
              <path id="path70" d="M-3.289-86.569a6.655,6.655,0,0,0,3.368.95c1.921,0,3.044-1.015,3.044-2.482,0-1.36-.777-2.137-2.742-2.893-2.375-.842-3.842-2.072-3.842-4.123,0-2.267,1.878-3.951,4.706-3.951a6.61,6.61,0,0,1,3.217.712l-.518,1.533a5.794,5.794,0,0,0-2.763-.691c-1.986,0-2.742,1.187-2.742,2.18,0,1.36.885,2.029,2.893,2.806,2.461.95,3.713,2.137,3.713,4.274,0,2.245-1.662,4.188-5.095,4.188a7.521,7.521,0,0,1-3.713-.928Z" transform="translate(3.764 99.068)" fill="#fc0603"/>
            </g>
            <g id="g72" transform="translate(18.17 42.919)">
              <path id="path74" d="M-19.324-21.309a2.791,2.791,0,0,0-.584,1.751c0,1,.37,2.273,3.259,3.3l.022.008c1.716.66,3.3,1.566,3.3,3.711a3.169,3.169,0,0,1-.664,2,2.987,2.987,0,0,0,.831-2.151c0-1.865-1.206-2.705-3.152-3.456-1.748-.677-3.454-1.514-3.454-3.624a2.913,2.913,0,0,1,.438-1.535m1.95,13.68a8.4,8.4,0,0,1-4.2-1.075l-.541-.36.991-3.289.97.6a5.782,5.782,0,0,0,2.908.82c.652,0,2.167-.156,2.167-1.606,0-.7-.16-1.3-2.169-2.07-2.971-1.056-4.415-2.674-4.415-4.946,0-2.8,2.348-4.827,5.583-4.827a7.385,7.385,0,0,1,3.649.826l.631.357-1.085,3.208-.916-.5a4.89,4.89,0,0,0-2.343-.584c-1.375,0-1.865.673-1.865,1.3,0,.656.162,1.149,2.333,1.989,3.788,1.462,4.273,3.489,4.273,5.092,0,2.521-1.846,5.065-5.972,5.065" transform="translate(22.115 24.385)" fill="#fc0603"/>
            </g>
            <g id="g76" transform="translate(43.871 43.796)">
              <path id="path78" d="M-3.289-86.569a6.655,6.655,0,0,0,3.368.95c1.921,0,3.044-1.015,3.044-2.482,0-1.36-.777-2.137-2.742-2.893-2.375-.842-3.842-2.072-3.842-4.123,0-2.267,1.878-3.951,4.706-3.951a6.61,6.61,0,0,1,3.217.712l-.518,1.533a5.794,5.794,0,0,0-2.763-.691c-1.986,0-2.742,1.187-2.742,2.18,0,1.36.885,2.029,2.893,2.806,2.461.95,3.713,2.137,3.713,4.274,0,2.245-1.662,4.188-5.095,4.188a7.521,7.521,0,0,1-3.713-.928Z" transform="translate(3.764 99.068)" fill="#fc0603"/>
            </g>
            <g id="g80" transform="translate(42.844 42.919)">
              <path id="path82" d="M-19.324-21.309a2.791,2.791,0,0,0-.584,1.751c0,1,.37,2.273,3.259,3.3l.022.008c1.716.66,3.3,1.566,3.3,3.711a3.169,3.169,0,0,1-.664,2,2.987,2.987,0,0,0,.831-2.151c0-1.865-1.206-2.705-3.152-3.456-1.748-.677-3.454-1.514-3.454-3.624a2.913,2.913,0,0,1,.438-1.535m1.95,13.68a8.4,8.4,0,0,1-4.2-1.075l-.541-.36.991-3.289.97.6a5.782,5.782,0,0,0,2.908.82c.652,0,2.167-.156,2.167-1.606,0-.7-.16-1.3-2.169-2.07-2.971-1.056-4.415-2.674-4.415-4.946,0-2.8,2.348-4.827,5.583-4.827a7.385,7.385,0,0,1,3.649.826l.631.357-1.085,3.208-.916-.5a4.89,4.89,0,0,0-2.343-.584c-1.375,0-1.865.673-1.865,1.3,0,.656.162,1.149,2.333,1.989,3.788,1.462,4.273,3.489,4.273,5.092,0,2.521-1.846,5.065-5.972,5.065" transform="translate(22.115 24.385)" fill="#fc0603"/>
            </g>
            <g id="g84" transform="translate(19.318 20.713)">
              <path id="path86" d="M-17.929-11.565c-.022-.415-.049-.914-.044-1.286h-.013c-.1.349-.225.72-.375,1.131l-.526,1.445h-.291l-.482-1.418c-.141-.42-.261-.8-.345-1.158h-.009c-.009.371-.031.87-.057,1.317l-.079,1.277h-.367l.208-2.977h.49l.508,1.44c.124.367.225.693.3,1H-19c.075-.3.181-.627.314-1l.53-1.44h.49l.185,2.977h-.375Z" transform="translate(20.517 13.235)" fill="#333"/>
            </g>
            <g id="g88" transform="translate(22.808 21.504)">
              <path id="path90" d="M-2.723-7.771c0,.468.269.822.649.822s.65-.349.65-.83c0-.362-.181-.822-.641-.822s-.658.424-.658.831m1.7-.022A1.045,1.045,0,0,1-2.091-6.658a1.016,1.016,0,0,1-1.025-1.1,1.044,1.044,0,0,1,1.06-1.135,1.012,1.012,0,0,1,1.029,1.1" transform="translate(3.116 8.893)" fill="#333"/>
            </g>
            <g id="g92" transform="translate(25.37 20.554)">
              <path id="path94" d="M-2.785-15.787a.733.733,0,0,0,.018.141.6.6,0,0,0,.583.455c.406,0,.65-.331.65-.822,0-.429-.221-.8-.636-.8a.62.62,0,0,0-.592.477.785.785,0,0,0-.022.159Zm-.4.857c.009-.146.018-.362.018-.552v-2.584h.384v1.343h.009a.8.8,0,0,1,.729-.393.959.959,0,0,1,.9,1.091A1.016,1.016,0,0,1-2.1-14.882a.762.762,0,0,1-.716-.4h-.013l-.018.353Z" transform="translate(3.187 18.067)" fill="#333"/>
            </g>
            <path id="path96" d="M220.811-555.02h.389v2.138h-.389Zm.433-.6a.23.23,0,0,1-.247.239.231.231,0,0,1-.234-.239.237.237,0,0,1,.243-.243.231.231,0,0,1,.239.243" transform="translate(-192.909 576.573)" fill="#333"/>
            <path id="path98" d="M229.342-557.091h.389v3.136h-.389Z" transform="translate(-200.406 577.644)" fill="#333"/>
            <g id="g100" transform="translate(29.824 21.504)">
              <path id="path102" d="M-10.464-6.3A.553.553,0,0,0-11-6.935a.644.644,0,0,0-.6.632Zm-1.14.278a.685.685,0,0,0,.733.742,1.4,1.4,0,0,0,.592-.111l.066.278a1.729,1.729,0,0,1-.711.133A.993.993,0,0,1-11.975-6.06a1.038,1.038,0,0,1,1-1.153.906.906,0,0,1,.884,1.007,1.446,1.446,0,0,1-.013.181Z" transform="translate(11.975 7.213)" fill="#333"/>
            </g>
            <g id="g104" transform="translate(32.991 20.664)">
              <path id="path106" d="M-.673-17.714a1.362,1.362,0,0,0,.689.194c.393,0,.623-.208.623-.508,0-.278-.159-.437-.561-.592-.486-.172-.786-.424-.786-.844a.857.857,0,0,1,.963-.808,1.351,1.351,0,0,1,.658.146l-.106.314a1.184,1.184,0,0,0-.565-.141c-.406,0-.561.243-.561.446,0,.278.181.415.592.574.5.194.76.437.76.875,0,.459-.34.857-1.042.857a1.54,1.54,0,0,1-.76-.19Z" transform="translate(0.771 20.272)" fill="#333"/>
            </g>
            <g id="g108" transform="translate(35.05 20.938)">
              <path id="path110" d="M-4.926,0V.614h.556v.3h-.556V2.063c0,.265.075.415.291.415a.863.863,0,0,0,.225-.027l.018.292a.954.954,0,0,1-.345.053.538.538,0,0,1-.42-.164.792.792,0,0,1-.15-.557V.91h-.331v-.3h.331V.1Z" transform="translate(5.637)" fill="#333"/>
            </g>
            <g id="g112" transform="translate(36.738 21.504)">
              <path id="path114" d="M-.122-4.956c0-.252,0-.468-.018-.667H.2l.013.42H.231a.642.642,0,0,1,.592-.468.416.416,0,0,1,.11.013v.367A.587.587,0,0,0,.8-5.305a.545.545,0,0,0-.521.5,1.086,1.086,0,0,0-.018.181v1.14H-.122Z" transform="translate(0.14 5.672)" fill="#333"/>
            </g>
            <g id="g116" transform="translate(38.002 21.504)">
              <path id="path118" d="M-2.723-7.771c0,.468.269.822.65.822s.649-.349.649-.83c0-.362-.181-.822-.641-.822s-.658.424-.658.831m1.7-.022A1.045,1.045,0,0,1-2.091-6.658a1.016,1.016,0,0,1-1.025-1.1,1.044,1.044,0,0,1,1.06-1.135,1.012,1.012,0,0,1,1.029,1.1" transform="translate(3.116 8.893)" fill="#333"/>
            </g>
            <g id="g120" transform="translate(40.582 20.554)">
              <path id="path122" d="M-2.662-13.707h.009c.053-.075.128-.168.19-.243l.627-.738h.468l-.826.879.941,1.259h-.473l-.738-1.025-.2.221v.8h-.384v-3.137h.384Z" transform="translate(3.047 15.687)" fill="#333"/>
            </g>
            <g id="g124" transform="translate(42.499 21.504)">
              <path id="path126" d="M-10.464-6.3A.553.553,0,0,0-11-6.935a.645.645,0,0,0-.6.632Zm-1.14.278a.685.685,0,0,0,.733.742,1.4,1.4,0,0,0,.592-.111l.066.278a1.73,1.73,0,0,1-.711.133A.993.993,0,0,1-11.975-6.06a1.038,1.038,0,0,1,1-1.153.906.906,0,0,1,.884,1.007,1.472,1.472,0,0,1-.013.181Z" transform="translate(11.975 7.213)" fill="#333"/>
            </g>
            <g id="g128" transform="translate(45.813 20.713)">
              <path id="path130" d="M-2.693,0V1.763c0,.667.3.95.694.95.442,0,.724-.292.724-.95V0h.389V1.736c0,.914-.482,1.29-1.126,1.29-.61,0-1.069-.349-1.069-1.272V0Z" transform="translate(3.081)" fill="#333"/>
            </g>
            <g id="g132" transform="translate(48.645 21.504)">
              <path id="path134" d="M-.122-4.345c0-.221,0-.4-.018-.579H.2l.022.353H.235a.787.787,0,0,1,.707-.4c.3,0,.755.177.755.91v1.277H1.309V-4.018c0-.345-.128-.632-.495-.632a.552.552,0,0,0-.521.4.555.555,0,0,0-.026.181v1.286H-.122Z" transform="translate(0.14 4.972)" fill="#333"/>
            </g>
            <path id="path136" d="M404.79-555.02h.389v2.138h-.389Zm.433-.6a.23.23,0,0,1-.247.239.231.231,0,0,1-.234-.239.237.237,0,0,1,.243-.243.231.231,0,0,1,.239.243" transform="translate(-353.676 576.573)" fill="#333"/>
            <g id="g138" transform="translate(51.905 20.938)">
              <path id="path140" d="M-4.926,0V.614h.557v.3h-.557V2.063c0,.265.075.415.292.415a.863.863,0,0,0,.225-.027l.018.292a.956.956,0,0,1-.345.053.54.54,0,0,1-.42-.164.794.794,0,0,1-.15-.557V.91h-.332v-.3h.332V.1Z" transform="translate(5.637)" fill="#333"/>
            </g>
            <g id="g142" transform="translate(18.17 60.956)">
              <path id="path144" d="M-.8-20.931a1.608,1.608,0,0,0,.814.23c.465,0,.736-.245.736-.6,0-.329-.188-.517-.663-.7-.574-.2-.929-.5-.929-1A1.013,1.013,0,0,1,.3-23.953a1.6,1.6,0,0,1,.778.172l-.125.37a1.4,1.4,0,0,0-.668-.167c-.48,0-.663.287-.663.527,0,.329.214.491.7.679.6.23.9.517.9,1.033,0,.543-.4,1.013-1.232,1.013a1.818,1.818,0,0,1-.9-.224Z" transform="translate(0.911 23.953)" fill="#fc0603"/>
            </g>
            <g id="g146" transform="translate(20.603 61.28)">
              <path id="path148" d="M-5.821,0V.726h.658v.35h-.658V2.438c0,.313.089.491.344.491A1.03,1.03,0,0,0-5.21,2.9l.021.345A1.129,1.129,0,0,1-5.6,3.3a.636.636,0,0,1-.5-.193.937.937,0,0,1-.177-.658V1.075h-.392V.726h.392V.12Z" transform="translate(6.661)" fill="#fc0603"/>
            </g>
            <g id="g150" transform="translate(22.597 61.948)">
              <path id="path152" d="M-.144-5.857c0-.3-.005-.553-.021-.788h.4l.016.5H.273a.758.758,0,0,1,.7-.553.5.5,0,0,1,.131.016v.433a.69.69,0,0,0-.157-.016.644.644,0,0,0-.616.59,1.3,1.3,0,0,0-.021.214v1.347H-.144Z" transform="translate(0.165 6.703)" fill="#fc0603"/>
            </g>
            <g id="g154" transform="translate(24.09 61.948)">
              <path id="path156" d="M-3.217-9.183c0,.553.318.971.767.971s.767-.412.767-.981c0-.428-.214-.971-.757-.971s-.778.5-.778.981m2-.026A1.235,1.235,0,0,1-2.47-7.868a1.2,1.2,0,0,1-1.211-1.3,1.234,1.234,0,0,1,1.253-1.342,1.2,1.2,0,0,1,1.216,1.3" transform="translate(3.681 10.509)" fill="#fc0603"/>
            </g>
            <g id="g158" transform="translate(27.139 60.826)">
              <path id="path160" d="M-3.146-16.2h.01c.063-.089.151-.2.224-.287l.741-.872h.553l-.976,1.039,1.112,1.488h-.559l-.872-1.211-.235.261v.95H-3.6v-3.706h.454Z" transform="translate(3.6 18.535)" fill="#fc0603"/>
            </g>
            <g id="g162" transform="translate(29.405 61.948)">
              <path id="path164" d="M-12.364-7.449A.654.654,0,0,0-13-8.195a.761.761,0,0,0-.7.746Zm-1.347.329a.81.81,0,0,0,.867.877,1.662,1.662,0,0,0,.7-.131l.078.329a2.048,2.048,0,0,1-.84.156,1.173,1.173,0,0,1-1.242-1.274,1.227,1.227,0,0,1,1.185-1.362,1.071,1.071,0,0,1,1.044,1.19,1.734,1.734,0,0,1-.016.214Z" transform="translate(14.149 8.524)" fill="#fc0603"/>
            </g>
            <g id="g166" transform="translate(33.117 60.956)">
              <path id="path168" d="M-3.362-12.725c0,.752.407,1.425,1.122,1.425s1.128-.663,1.128-1.462c0-.7-.365-1.43-1.122-1.43s-1.128.694-1.128,1.467m2.73-.058A1.648,1.648,0,0,1-2.266-10.93a1.613,1.613,0,0,1-1.582-1.785,1.671,1.671,0,0,1,1.634-1.848,1.6,1.6,0,0,1,1.581,1.78" transform="translate(3.848 14.563)" fill="#fc0603"/>
            </g>
            <g id="g170" transform="translate(36.887 61.948)">
              <path id="path172" d="M-.144-5.133c0-.261-.005-.475-.021-.684H.242L.268-5.4h.01a.929.929,0,0,1,.835-.475c.35,0,.893.209.893,1.075v1.509H1.547V-4.747c0-.407-.151-.747-.584-.747a.653.653,0,0,0-.616.47.661.661,0,0,0-.031.214v1.519H-.144Z" transform="translate(0.165 5.875)" fill="#fc0603"/>
            </g>
            <g id="g174" transform="translate(39.623 61.948)">
              <path id="path176" d="M-12.364-7.449A.654.654,0,0,0-13-8.195a.761.761,0,0,0-.7.746Zm-1.347.329a.81.81,0,0,0,.867.877,1.662,1.662,0,0,0,.7-.131l.078.329a2.047,2.047,0,0,1-.84.156,1.173,1.173,0,0,1-1.242-1.274,1.227,1.227,0,0,1,1.185-1.362,1.07,1.07,0,0,1,1.044,1.19,1.7,1.7,0,0,1-.016.214Z" transform="translate(14.149 8.524)" fill="#fc0603"/>
            </g>
            <g id="g178" transform="translate(43.366 60.956)">
              <path id="path180" d="M-.8-20.931a1.608,1.608,0,0,0,.814.23c.465,0,.736-.245.736-.6,0-.329-.188-.517-.663-.7-.574-.2-.929-.5-.929-1A1.013,1.013,0,0,1,.3-23.953a1.6,1.6,0,0,1,.778.172l-.125.37a1.4,1.4,0,0,0-.668-.167c-.48,0-.663.287-.663.527,0,.329.214.491.7.679.6.23.9.517.9,1.033,0,.543-.4,1.013-1.232,1.013a1.818,1.818,0,0,1-.9-.224Z" transform="translate(0.911 23.953)" fill="#fc0603"/>
            </g>
            <g id="g182" transform="translate(45.799 61.28)">
              <path id="path184" d="M-5.821,0V.726h.658v.35h-.658V2.438c0,.313.089.491.344.491A1.03,1.03,0,0,0-5.21,2.9l.021.345A1.129,1.129,0,0,1-5.6,3.3a.636.636,0,0,1-.5-.193.937.937,0,0,1-.177-.658V1.075h-.392V.726h.392V.12Z" transform="translate(6.661)" fill="#fc0603"/>
            </g>
            <g id="g186" transform="translate(47.6 61.948)">
              <path id="path188" d="M-3.217-9.183c0,.553.318.971.767.971s.767-.412.767-.981c0-.428-.214-.971-.757-.971s-.778.5-.778.981m2-.026A1.235,1.235,0,0,1-2.47-7.868a1.2,1.2,0,0,1-1.211-1.3,1.234,1.234,0,0,1,1.253-1.342,1.2,1.2,0,0,1,1.216,1.3" transform="translate(3.681 10.509)" fill="#fc0603"/>
            </g>
            <g id="g190" transform="translate(50.628 61.948)">
              <path id="path192" d="M-3.29-10.774a1.035,1.035,0,0,0,.021.188.709.709,0,0,0,.689.538c.485,0,.767-.4.767-.976,0-.506-.266-.94-.752-.94a.733.733,0,0,0-.694.569.738.738,0,0,0-.031.188Zm-.454-.673c0-.323-.01-.585-.021-.825h.412l.021.433h.01a.993.993,0,0,1,.9-.491,1.145,1.145,0,0,1,1.07,1.284A1.2,1.2,0,0,1-2.5-9.688a.885.885,0,0,1-.778-.4h-.01v1.373h-.454Z" transform="translate(3.765 12.329)" fill="#fc0603"/>
            </g>
          </g>
        </g>
      </g>
    </g>
  </g>
</svg>
